<?xml version="1.0" encoding="utf-8"?>
<!-- Generator: Adobe Illustrator 23.0.1, SVG Export Plug-In . SVG Version: 6.00 Build 0)  -->
<svg version="1.1" id="Layer_1" xmlns="http://www.w3.org/2000/svg" xmlns:xlink="http://www.w3.org/1999/xlink" x="0px" y="0px"
	 viewBox="0 0 65 65" style="enable-background:new 0 0 65 65;" xml:space="preserve">
<g>
	<path d="M11.3,15.1c0,6.4,5,11.6,11.2,11.6s11.2-5.2,11.2-11.6S28.7,3.4,22.6,3.4C16.3,3.4,11.3,8.6,11.3,15.1z M31.6,15.1
		c0,2.6-1,4.8-2.6,6.6c-1.6,1.7-3.9,2.7-6.3,2.7c-2.5,0-4.6-1-6.3-2.7c-1.6-1.7-2.6-4.1-2.6-6.6c0-2.6,1-4.8,2.6-6.6
		s3.9-2.7,6.3-2.7c2.5,0,4.6,1,6.3,2.7C30.4,10.1,31.6,12.5,31.6,15.1z"/>
	<path d="M46.2,13.3c-5.2,0-9.4,4.4-9.4,9.8s4.2,9.8,9.4,9.8s9.4-4.4,9.4-9.8S51.4,13.3,46.2,13.3z M51.3,28.4
		c-1.3,1.4-3,2.1-5.1,2.1c-2,0-3.8-0.8-5.1-2.1C39.7,27,39,25.2,39,23.1c0-2,0.8-4,2.1-5.3c1.3-1.4,3-2.1,5.1-2.1
		c2,0,3.8,0.8,5.1,2.1c1.3,1.4,2.1,3.2,2.1,5.3S52.6,27.1,51.3,28.4z"/>
	<path d="M42.7,61.5h1.1h20v-8.5c0-9.3-7.2-16.7-16.1-16.7h-3.1c-2,0-3.9,0.4-5.6,1.1c-3.4-3.7-8-6.1-13.4-6.1h-6
		c-10.1,0-18.3,8.5-18.3,19v11.2h28.3L42.7,61.5z M44.6,38.6h3.3c3.8,0,7.3,1.6,9.8,4.2c2.5,2.6,4,6.2,4,10.2v6.2H43.9v-8.9
		c0-4.1-1.3-7.9-3.5-11.1C41.7,38.8,43.1,38.6,44.6,38.6z M3.5,50.3c0-4.6,1.9-8.8,4.6-11.8c3-3.1,7-5,11.4-5h6
		c4.5,0,8.5,1.9,11.4,4.8c3,3.1,4.6,7.2,4.6,11.8V59H29.6H3.5V50.3z"/>
</g>
<path d="M-1226.7,48.7c-1.8,1-3,1.6-4.8,2.7c1.8-6.6-1.3-10.1-6.2-12.8c-21.6-12-43.1-24.2-64.7-36c-9.8-5.4-20-10-30-15
	c-4.3-2.1-6.3-8.2-4.1-12.9c1.7-3.7,7.5-6,11.4-4c18.2,8.9,36.5,17.4,54.3,27c16.1,8.7,31.5,18.7,47.2,27.9c1.4,0.8,3.6,1.3,5.1,0.8
	c8.7-2.4,16.8-6.2,22.5-13.5c5.4-6.9,4.6-14.2,1.2-21.5c-4.5-9.8-13.9-13.8-22.4-18.7c-29.1-17-58.3-33.8-85.1-54.3
	c-18.3-14-35.2-29.4-48.4-48.3c-5.3-7.5-9-16.2-13-24.5c-1.2-2.4-2-3.8-5-3.4c-11.2,1.1-22.5,2.2-33.7,2.9c-4.7,0.3-6.7,3.6-9.2,6.6
	c-13.7,16.2-29.9,29.1-49.9,36.2c-17.8,6.4-36.1,7.5-54.2,0.6c-8.8-3.3-18.1-11-15.9-21.8c1-4.9,4.1-9.7,7.1-13.8
	c10.7-14.7,21.9-29,32.9-43.5c0.3-0.4,0.3-0.9,0.7-2c-2.1,0-3.8,0-5.6,0c-126.2,0-252.3,0-378.5,0.1c-16.7,0-29.6-13.1-29.2-28.9
	c0.8-29.8,0.2-59.7,0.3-89.5c0-3.5-1.2-5.4-4-7.1c-10.2-6.1-15.3-18.3-12.6-28.9c3.6-14.4,14-20.6,26.1-21.4
	c11.3-0.7,23.4,8.7,26.4,19.7c3.2,11.6-1.7,24.8-12.2,30.5c-4.5,2.5-6,5.3-5.9,10.4c0.3,28.3,0.1,56.7,0.2,85
	c0,8,3.5,11.5,11.5,11.5c71.3,0,142.7,0,214,0.1c4.6,0,5.8-1.3,5.8-5.9c-0.2-29.7,0.2-59.3-0.2-89c-0.3-17.6,14.5-33.2,33.5-33.1
	c22.2,0.1,44.3,0,66.5,0c1.8,0,3.6,0,5.5,0c0.3-1.5,0.6-2.4,0.6-3.4c0-17.2,0-34.3,0-51.5c0-3-1-4.1-4.1-4.1
	c-42.8,0.1-85.7,0.1-128.5,0.1c-21.3,0-42.5,0-63.8,0c-8.6,0-11.6,3.1-11.6,11.6c0,14.8,0.1,29.7-0.1,44.5c-0.1,3.6,0.8,5.7,4.1,7.4
	c16.9,8.4,19.6,32,5.3,44.3c-13,11.2-34.6,7.9-42.1-9.1c-5.9-13.4-1.8-26.3,10.5-34.2c2.6-1.7,3.8-3.7,3.7-6.9
	c-0.2-15.2-0.1-30.3-0.1-45.5c0-11.1,3.3-20.9,13.5-26.5c4.6-2.5,10.4-3.9,15.6-3.9c63.3-0.2,126.7-0.1,190-0.1c7.5,0,7.5,0,7.5-7.5
	c0-11.3-0.1-22.7,0.1-34c0-3.1-0.6-5.3-3.7-6.9c-13-6.8-17.9-21.5-11.9-35.3c5-11.7,19.9-18,32.8-13.8c10.5,3.5,16.9,10.8,18.3,21.8
	c1.5,12.4-3.5,21.9-13.8,27.3c-2.7,1.4-4.2,3.1-4.1,6.6c0.2,12.3,0.2,24.7,0,37c-0.1,3.8,1.3,4.9,4.9,4.9c46.5-0.2,93-0.3,139.5-0.3
	c37.2,0,74.3,0.2,111.5,0.2c6.8,0,6.8,0,6.8-6.7c0-12,0.2-24-0.1-36c0-2-1.6-4.7-3.3-5.8c-9.3-5.7-18.3-20.3-10.7-35.5
	c6-12,20.4-17.6,32.4-13.6c10.8,3.6,17,11.1,18.5,21.9c1.8,12.3-3.9,22.3-14.7,27.9c-2.5,1.3-3.6,2.7-3.6,5.7c0.1,25.3,0,50.7,0,76
	c0,6.9,3.4,10.2,10.5,10.2c45.3,0,90.7,0,136,0c4.2,0,7.7,0.4,12.1,3.5c5,3.6,7.4,8.3,11.2,12.4c0.3,0.3,0.4,0.9,0.6,1.3
	c-6.3,2-8,1.5-11.6-3.6c-2.1-3-4.2-5.9-6.2-8.9c-2.1,1.2-2.1,1.2,2.6,13.9c-6-0.6-11.4-1.2-16.9-1.7c0.1-0.2,0.2-0.3,0.3-0.5
	c-3.9,0.6-7.9,1.7-11.8,1.7c-39,0.1-78,0.1-117,0.1c-16.3,0-28.1-11.7-28.4-28c-0.1-3.8-0.2-7.7,0-11.5c0.2-3.2-0.9-4.4-4.3-4.4
	c-24.7,0.1-49.3,0.1-74,0c-4.1,0-8.1-1-12.2-1c-3.2,0-6.5,1.1-9.7,1.1c-1.4,0-3.5-1.6-3.9-2.9c-0.7-2.3-1-5,2.8-5.6
	c1.1-0.2,2-1.8,3-2.7c-1.3-0.6-2.6-1.7-3.9-1.7c-4.1,0-6.4,2.4-6.8,6.5c-0.1,1.8,0,3.6,0,6.1c-2.6,0.1-5,0.4-7.4,0.4
	c-47,0-94-0.1-141-0.2c-4.1,0-5.5,1.2-5.4,5.4c0.2,16.2,0.2,32.3,0,48.5c0,3.8,0.9,5.2,5,5.2c25.7-0.2,51.3-0.1,77,0
	c2.8,0,4.2-0.8,5.6-3.4c6.3-11.9,21.3-18.2,35-12c11.1,5.1,18,18.4,15,31.5c-3.9,17.3-26.6,26.2-40.8,15.7
	c-3.8-2.8-6.5-7.2-9.9-10.7c-1.2-1.2-2.9-2.7-4.4-2.7c-57.8-0.1-115.7-0.1-173.5-0.1c-7.3,0-14.1,6.5-14.1,13.5c-0.1,31,0,62,0,93
	c0,0.8,0.2,1.6,0.3,2.8c2.5,0.1,4.8,0.3,7.1,0.3c46.8,0,93.7,0,140.5,0c1,0,2.1-0.3,3,0c7.4,2.8,10.6-2,13.9-7.2
	c3.5-5.5,6.9-11.4,11.4-15.9c7.6-7.5,18.2-9.2,28-11.8c12.7-3.3,25.6-5.5,38.5-8.3c23.3-5.2,46.6-10.3,69.9-15.7
	c12.6-2.9,23.6,0.9,33.9,7.4c16.9,10.6,33.4,21.8,50.3,32.5c13.1,8.2,26.3,16.3,39.8,23.8c4.1,2.3,9.6,2.9,14.4,3
	c67.2,0.2,134.3,0,201.5,0.2c5,0,6.1-1.5,6-6.2c-0.3-16.2-0.4-32.3,0-48.5c0.3-11.1-7-18.6-18.3-18.3c-28.5,0.6-57,0.2-85.5,0.1
	c-3.2,0-4.9,0.7-6.5,3.8c-5,9.8-16.8,15.5-27.5,13.9c-11.1-1.7-20.3-10.5-22.6-21.7c-2.1-9.9,3.1-22,11.9-27.7
	c13-8.5,30.5-4.3,38.1,9.6c1.9,3.5,4,4.1,7.4,4.1c29-0.1,58,0.3,87-0.2c18-0.3,34.2,13.7,34.2,34.3c0,17.2,0.1,34.3-0.1,51.5
	c-0.1,4.2,1.4,5.4,5.4,5.4c38.7-0.1,77.3-0.1,116-0.1c2.9,0,4.7-0.6,6.2-3.7c4.6-9.4,16.6-15.3,26-14c15.7,2.3,22.3,11.8,24.5,23.1
	c2,10.5-4.1,21.6-13.5,27.2c-13.8,8.1-31.4,1.5-37.5-11.1c-0.7-1.5-3.2-2.9-4.9-2.9c-39.2-0.2-78.3-0.1-117.5-0.2
	c-3.5,0-4.6,1.1-4.6,4.6c0.1,24.8,0,49.7,0.1,74.5c0,9.2,3.9,12.8,13.2,12.8c14.7,0,29.3-0.1,44,0.1c3.3,0,5.3-0.9,6.6-3.9
	c4.7-10.4,13.4-15.1,24.2-15c11.3,0.1,19.4,5.7,24.7,16.2c6.8,13.6-1.9,33.4-19.5,37.3c-11.7,2.6-24.5-4.8-28.9-13.4
	c-1.4-2.7-3-3.3-5.8-3.3c-16.3,0.1-32.7,0.1-49,0.1c-15.8,0-27.2-11.5-27.3-27.4c0-25.3-0.1-50.7,0.1-76c0-4.9-1-6.5-6.3-6.5
	c-65.2,0.2-130.3-0.2-195.5,0.3c-15.2,0.1-28.7-3.2-41.3-11.5c-19.9-13.1-39.8-26.1-59.9-38.7c-9.2-5.8-18.8-10.9-28.5-15.8
	c-2.6-1.3-6.2-1.6-9.1-1c-24.9,5.1-49.7,10.5-74.4,16c-15.7,3.5-31.3,7.2-47,10.9c-5.7,1.4-9.4,4.9-12.8,9.9
	c-13.6,19.7-27.9,39-42,58.4c-6,8.3-12.1,16.4-18.5,25.1c6,4.7,12.5,6,19.3,6.2c20.1,0.7,37.3-6.9,52.1-19.9
	c8.3-7.2,15.3-15.9,23.1-23.8c1.3-1.4,3.3-2.7,5.2-2.9c13.7-1.4,27.4-2.4,41.2-3.7c6.9-0.6,13.8-1.4,20.4-2
	c2.7,8.1,4.6,15.7,7.8,22.7c6.7,14.8,17.4,26.7,29,37.9c19.1,18.5,40.8,33.6,63.2,47.6c19.9,12.4,40.1,24.1,60.1,36.4
	c6.7,4.1,11,10.4,13.8,17.6c1.5,4,3.8,5.5,8.1,5.5c66-0.2,132-0.2,198,0c7.4,0,15,1.1,22,3.1c12.6,3.6,19,12.9,19.1,26.3
	c0.1,13.2,0,26.3,0,39.5c0,2,0,3.9,0,6.2c1.8,0.2,3.1,0.4,4.3,0.4c24.3,0,48.7-0.1,73,0.1c3.2,0,5.1-0.9,6.6-3.8
	c5.8-11.3,15.5-15.5,27.6-14.2c10.5,1.1,18,7.4,21.4,17c4.5,12.4,1,25.9-12.2,33.3c-12.3,6.9-28.1,3.2-35-8.3
	c-2.9-4.8-6.1-6.4-11.8-6.3c-22.7,0.4-45.3,0.2-68,0.2c-1.8,0-3.6,0-6,0c0,12.5,0,24.4,0,37.2c-4.7-1-8.8-1.7-12.7-2.8
	c-0.9-0.3-1.8-2.2-1.9-3.4c-0.2-3.6-0.1-7.3-0.1-11.4c-4.3,1.1-3.9-1.8-3.9-4.7c0-24,0-48,0-72c0-11.9-4.8-16.9-16.6-17.6
	c-1.2-0.1-2.3-0.1-3.5-0.1c-66.7,0-133.3,0-200,0c-1.6,0-3.3,0-4.8,0c-0.9,3.3-1.7,6.3-2.6,9.6c-2.1-0.5-3.7-1.4-5.1-1.1
	c-1.7,0.4-3.6,1.5-4.7,2.9c-0.6,0.7-0.2,3,0.6,4c3,3.8,3,4-2.5,7.1c-0.3-3.2-0.5-6-0.8-9.3c-2.4,1.6-4.1,2.7-6.3,4.1
	c1.6,2.3,3.4,4.9,5.2,7.4c-0.4,0.4-0.8,0.7-1.3,1.1c-3.4-3.7-6.9-7.4-10.3-11.1c-0.5,0.4-0.9,0.7-1.4,1.1c2.7,4,5.5,8,8.2,12.1
	c-0.4,0.4-0.7,0.7-1.1,1.1c-1.5-1.2-3-2.4-4.6-3.5c-2.5-1.7-5.1-2.2-7.1,0.5c-2.1,2.8-0.9,5,2.7,6c-2.4,2.9-4.2,3.2-6.3,0.2
	c-1.7-2.4-3.9-4.4-5.8-6.6c-0.5,0.4-1,0.8-1.5,1.2c2.3,3.6,4.6,7.3,6.8,10.9c-0.4,0.3-0.8,0.6-1.2,0.9c-1.4-1-2.8-2.6-4.3-2.7
	c-1.9-0.2-4.5,0.2-5.6,1.4c-0.8,0.8,0.1,3.7,0.9,5.3c2,3.9,4.4,7.5,6.9,11.6c-3.3-1.2-5.9-2.1-8.3-2.9
	C-1224.4,56.1-1225.5,52.6-1226.7,48.7z M-1120.7-285.6c-0.1,4,4.4,8.8,8.4,9c3.8,0.2,9.3-5,9.3-8.8c0-3.9-4.6-8.7-8.6-8.9
	C-1115.9-294.5-1120.6-290-1120.7-285.6z M-1411.7-330c0-4.5-3.8-8.7-8.2-9c-4.3-0.2-8.7,4.4-8.6,9.1c0,4.8,3.7,8.4,8.5,8.4
	C-1415.3-321.4-1411.8-325.1-1411.7-330z M-1258.7-480.3c5.3,0,8.9-3.4,8.8-8.4c-0.1-4.6-3.9-8.3-8.6-8.3c-4.5,0-8.7,4.1-8.8,8.4
	C-1267.4-484.2-1263.4-480.4-1258.7-480.3z M-872.1-76.5c3.9,0.1,9.1-4.6,9.2-8.4c0.2-4-4.3-8.6-8.5-8.7c-5.5-0.2-9.2,3.1-9.2,8.2
	C-880.7-81.2-876.3-76.6-872.1-76.5z M-800-194.2c0.1-4.1-4.4-8.8-8.5-8.9c-4.3-0.1-9.2,4.6-9.1,8.8c0.1,4.1,4.5,8.4,8.8,8.5
	C-804.6-185.6-800-190-800-194.2z M-822.6,65.7c-4.6-0.1-8.9,3.9-8.9,8.1c0,4.5,3.9,8.7,8.2,8.8c5.2,0.2,9-3.4,9-8.4
	C-814.2,69.4-817.8,65.7-822.6,65.7z M-1756.7-310.9c-0.1-4.3-4.6-8.8-8.7-8.6c-3.9,0.1-9,5.1-8.9,8.7c0.1,4,5.4,9,9.2,8.8
	C-1760.7-302.2-1756.6-306.6-1756.7-310.9z M-1531.7-488.5c0-4.7-3.7-8.5-8.3-8.5c-4.6,0-8.4,3.8-8.4,8.5c-0.1,4.9,3.3,8.2,8.4,8.3
	C-1534.9-480.3-1531.7-483.4-1531.7-488.5z M-1885.7-341.4c0-4.1-4.6-8.7-8.7-8.7c-3.9,0-8.8,4.9-8.8,8.7c0,4,4.7,8.6,8.9,8.5
	C-1889.6-332.8-1885.7-336.7-1885.7-341.4z M-1701-406.9c-0.7-4-2-4.9-5.8-4.2c-4.4,0.7-5.6,3.8-4.1,12.5c1.6-1.2,3.8-2.1,3.7-2.8
	C-1707.9-406.2-1705.1-407-1701-406.9z"/>
<path d="M-1728.5,176.7c-24.5,0-48.4-0.5-72.2,0.2c-16.3,0.5-30-12.7-29.8-29.9c0.7-46.7,0.2-93.3,0.3-140c0-1.8,0-3.6,0-5.7
	c-1.7-0.2-3-0.4-4.3-0.4c-22,0-44-0.1-66,0.1c-2,0-4.9,1.4-5.9,3.1c-7.7,13.5-19.6,15.6-32,13.2c-10.6-2.1-19.9-14.8-19.3-26.2
	c0.6-11.7,6.8-22.4,21.3-26c11.3-2.8,23.6,2.5,29.5,13.3c1.6,3,3.4,3.9,6.6,3.9c21.5-0.1,43-0.2,64.5,0.1c4.4,0,5.6-1.3,5.6-5.7
	c-0.3-14.8-0.2-29.7,0-44.5c0-2.9-0.5-4.9-3.5-6.2c-18.2-8.2-20.7-36.5-0.8-47.6c9.6-5.4,19.6-4.5,28.8,1.5
	c8.2,5.3,12.9,17.5,10.9,26.7c-1.9,8.7-6.1,15.5-14.4,19.4c-2.7,1.2-3.3,3.1-3.3,5.9c0.1,14.8,0.3,29.7-0.1,44.5
	c-0.1,4.9,1.5,6.1,6.2,6.1c65.8-0.1,131.7-0.1,197.5-0.1c7.8,0,15.7-0.2,23.5,0.1c3.9,0.1,6.4-1,8.9-4.1
	c10.4-12.6,21.5-24.5,34.7-34.2c8.7-6.4,17.9-10,28.7-5.3c7.9,3.4,11.9,9.5,14.3,17.3c0.4,1.3,0.7,2.7,1.1,4.3
	c14.7-8.5,29.3-13.3,44.2-2.7c14.8,10.5,14.1,25.8,10.7,41.9c11.1-0.7,21.4,0.4,28.8,10c7,9.2,5.4,19.7,5.2,30.3
	c1.3,0.4,2.3,0.9,3.4,1c10.7,1.7,16.5,8.4,18.8,18.4c1.1,4.8,3.7,7.3,7.9,9.8c15.2,9,30,18.6,45.1,27.9c10.6,6.5,24.4,6.7,35.7-2.6
	c2.6-2.2,4.7-5.1,7.3-7.3c3.1-2.7,2-4.2-1.1-5.8c-19.7-10.8-39.4-21.8-59.1-32.7c-6.5-3.6-13.1-7.2-19.6-10.9
	c-5.6-3.1-7.8-8.9-5.4-13.7c2.3-4.4,9.1-5.6,14.6-2.5c26.6,14.8,53.3,29.5,79.9,44.3c3.5,1.9,6.9,4,10.4,5.7
	c11.3,5.2,24.4,0.7,32.2-7.4c1.4-1.4,2.6-2.9,4.6-5.2c3.8,5,7.4,9.6,11.4,14.9c-3.2,5.7-9,9.7-15.4,12.8c-9.3,4.5-19.1,7.4-29.7,5.1
	c-1.6-0.3-4.4,1.4-5.4,2.9c-13.2,20.1-33.1,28.8-56.3,24.6c-1.6-0.3-3.9,0.5-5,1.7c-10.8,10.4-23.7,15.4-38.5,13.3
	c-7.1-1-13.9-4.1-20.7-6.6c-6.8-2.5-13.4-5.3-20-8c-3,3.8-5.5,7.8-8.7,11c-12.4,12.3-33.7,10-43.2-4.7c-1.9-2.9-3.2-3.3-6.3-2
	c-17,7.1-39.6-3.5-45.3-21.1c-1.1-3.3-2.2-6.6-3.4-10.2c-13.4,0.7-25.9-2.7-35.6-12.7s-13.4-22.2-11-36.5
	c-21.6-5.5-31.1-19.1-27-42.1c-1.8-0.1-3.5-0.4-5.2-0.4c-69.5,0-139,0-208.5-0.1c-4.1,0-5,1.3-4.9,5.1c0.1,46.3,0.1,92.7,0.1,139
	c0,8.7,4.8,13.5,13.4,13.5c35.3,0,70.7,0,106,0c6.3,0,11.5,2.2,15.4,7.3c1.7,2.2,3.4,4.5,5.4,6.6c4.2,4.4,8.2,4.4,13.6-0.7
	c-1.6-0.9-3.2-2.5-4.2-2.2c-4.5,1.5-6.9-0.8-9.2-4c-1.4-2-2.9-3.9-5.2-7c8.8,0,16.6-0.2,24.3,0.2c1.7,0.1,3.4,2.3,4.9,2.1
	c4.4-0.7,8.7-1.9,13.1-2c11.5-0.3,23-0.3,34.5,0c4.1,0.1,6.2-1.4,8.1-4.7c9.4-16.5,32.1-18.2,44.1-3.4c9.8,12.2,7.3,30.8-5.6,39.3
	c-13.5,8.9-30.7,5-38.7-8.9c-0.8-1.4-1.7-2.8-2.7-4.5c-7.4,0-14.9,0.1-22.4,0c-2.6,0-3.6,1-3.6,3.5c0,17.5-0.1,35,0.1,52.5
	c0.1,4.8,3.4,7.7,8,8.8c1.8,0.4,3.6,0.3,5.5,0.3c49.2,0,98.3,0,147.5,0.1c3.7,0,6.1-0.5,8.2-4.4c5.2-10.2,14-14.9,25.6-14.2
	c10.6,0.6,18.4,5.9,22.6,15.2c6.7,14.8-0.6,33.3-18.1,37.7c-11,2.7-24.8-3.7-29.8-12.7c-0.9-1.6-3.9-2.8-6-2.8
	c-22.7-0.2-45.3-0.1-68-0.1c-27.7,0-55.3,0.1-83,0c-14.5-0.1-26.5-7-30.1-22.2c-0.5-2.1-0.8-4.2-0.8-6.4c-0.1-16.3,0-32.7,0-49
	c0-1.8,0-3.6,0-6.3c-10,0-19.5-0.1-29.1,0c-4,0.1-7.8,0.4-11.3-2.5c-3.5-2.8-7.2-0.4-10.9,0.6c-1.7,0.5-3.8,0-5.4-0.7
	c-0.6-0.2-0.7-2.5-0.4-3.6c0.3-1,1.4-1.8,2.3-2.5s2.2-0.9,3.1-1.6c0.8-0.7,1.3-1.9,1.9-2.8c-1.2-0.5-2.5-1.6-3.6-1.5
	c-6.2,0.9-9.7,6.8-8.5,15c-1.8-0.9-3.4-1.2-4.2-2.1c-2.3-2.9-4.1-2-6.1,0.2c-3.4,3.7-2.6,7.5-0.5,11.5c1.3,2.5,2.1,5.2,2.4,8.5
	c-5.5-3.9-9.4-10.3-17.8-6.7C-1728.1,184-1728.3,180.6-1728.5,176.7z M-1459-20.2c0.6-6.3-9.4-11.6-18-8.7
	c-11,3.8-19.9,10.6-27.3,19.1c-13.3,15.5-26,31.5-38.8,47.4c-5.6,7-8.4,14.5-3.8,23.3c8.5,16.1,29,16,37.1,5.6
	c12-15.5,25-30.3,36.6-46.1C-1465.6,10.1-1460.3-1.6-1459-20.2z M-1426.6,31.3c0-1,0-2,0-3c-0.2-8.8-6.4-13.2-14-9.1
	c-6,3.2-12.2,7.1-16.5,12.1c-13.8,16-26.8,32.7-40,49.3c-3,3.7-4.5,8.1-3.4,13c1.9,7.8,7.2,12.1,14.7,13.7
	c7.3,1.5,12.3-2.4,16.4-7.9c10.8-14.4,21.6-28.7,32.5-43C-1431.1,48.9-1426.5,41.1-1426.6,31.3z M-1516.6-34.7
	c0-10.1-3.5-12.3-12.7-8c-2.8,1.3-5.7,2.8-8.1,4.7c-15.4,12.6-25.4,29.8-38,44.8c-1.5,1.8-1.4,5.8-0.6,8.4c1.7,5.5,5.9,8.6,11.8,9
	c5.3,0.4,9.5-0.9,13-5.5c8.9-11.6,18.4-22.8,27.4-34.4C-1519.4-21.1-1516.8-27.5-1516.6-34.7z M-1441.9,121.5
	c3.4-2.6,6.5-4.1,8.4-6.6c8.2-10.5,16-21.3,23.9-32c3.9-5.3,7-10.8,5.5-17.8c-1.2-5.8-5.1-7.6-10.1-4.4c-2.7,1.8-5.5,3.9-7.5,6.4
	c-9.6,12.3-18.9,24.8-28.3,37.3c-2.4,3.2-2.8,7.1-0.5,10.2C-1448.5,117.1-1445.4,118.8-1441.9,121.5z M-1402.1,104.2
	c10.2,3.9,19.7,8.2,29.5,11.2c8.8,2.7,16.6-0.7,24.3-6.8c-12.8-7.6-24.9-14.9-37.1-21.9c-1.1-0.6-3.6-0.6-4.2,0.2
	C-1393.8,92.3-1397.7,98-1402.1,104.2z M-1930.3-17c-4.5-0.1-9.1,4.4-9,8.8c0.1,3.9,4.5,8,8.6,8.1c4.9,0,8.9-3.6,8.9-8.2
	C-1921.7-12.6-1926-17-1930.3-17z M-1577.9,167.2c-0.3,4.2,3.9,8.9,8.1,9.2c4.3,0.3,8.7-3.6,9.1-8.2c0.4-4.2-3.7-8.8-8.1-9.3
	C-1572.9,158.7-1577.6,162.9-1577.9,167.2z M-1419.5,249.7c0-4.2-4.5-8.7-8.7-8.6c-4.1,0-8.6,4.6-8.7,8.7c-0.1,4.6,4.2,8.8,9,8.7
	C-1423.7,258.3-1419.5,254-1419.5,249.7z M-1821.2-106.5c-4.5-0.1-8.5,3.7-8.7,8.4c-0.2,4.6,3.5,8.4,8.5,8.4c4.8,0,8.1-3.1,8.3-7.9
	C-1812.9-102.2-1816.6-106.4-1821.2-106.5z"/>
<path d="M-1002.3,142.6c2.1,4.4,3.5,7.8,5.4,11c0.5,0.8,2.4,0.7,3.7,1c0.1-1.3,0.6-2.8,0.1-3.8c-3.2-5.7-2.1-7.9,4.6-8.2
	c3-0.2,6,0,8.1,0c0.8,2.7,0.9,5.1,2.1,6.8c1.8,2.7,1.6,4.3-0.8,6.4c-1.3,1.1-1.9,3-3.3,5.5c-5.9,0-12.8,0.2-19.8-0.2
	c-1.8-0.1-4.3-1.7-5.1-3.3c-0.6-1.2,1-3.5,1.6-5.3c0.2-0.8,0.5-1.9,0.3-2.6c-0.2-0.5-1.3-1.1-2-1c-6.8,0.4-6.8,0.4-12.4-3.2
	c0.4,2.2,0.7,4.4,1.1,6.6c1.1,6,3.3,12.1,2.8,18c-0.2,2.3-6,5.2-9.6,5.9c-2.6,0.5-3.2-3-1.5-5.2c1.3-1.6,3.5-2.5,4.9-4.1
	c1-1.1,1.4-2.7,2.1-4c-0.7-0.6-1.4-1.1-2.1-1.7c-3.8,3.3-7.7,6.5-11.4,9.7c0-2.3,0-5.5,0-9.2c-2.2-0.1-4-0.3-5.7-0.3
	c-55.1,0-110.3,0-165.4,0c-3.3,0-5.6,0.4-7.6,3.7c-7.3,11.3-17.9,15.1-31,11.8c-8.3-2-17.3-12.3-18.5-20.8
	c-3-21.3,15.9-36.7,35.3-30.5c7,2.2,12.4,6.7,15.4,13.2c1.7,3.6,3.7,4.1,6.8,4.1c39.3,0,78.6,0,117.9,0c26.7,0,53.3,0,80,0
	C-1004.6,142.6-1002.8,142.6-1002.3,142.6z M-1226.3,150.8c-0.1-4.3-4.4-8.5-8.7-8.4c-4.7,0-8.9,4.3-8.8,8.9
	c0.1,4.5,4.1,8.2,8.9,8.1C-1230.3,159.3-1226.2,155.1-1226.3,150.8z"/>
<path d="M-1066.5-354.3c-0.3-3.8-1.9-5.4-5.8-4.2c-1.2,0.4-3.1-0.9-4.4-1.8c-1.1-0.9-1.9-2.3-2.7-3.5c-5.8-8.5-5.8-8.5,4.1-13.7
	c2.6,3.6,5.3,7.3,8.1,10.9c4.3,5.6,8.5,5.7,13.8,0.6c-1.5-6-10.2,1.5-11-6.6c1.9,0,3.8,0,5.7,0c58.6,0,117.2,0,175.9,0.1
	c3.9,0,6.2-1,8.1-4.7c5.1-9.5,16.9-15.2,27.5-12.9c9.5,2,18.5,7.5,22,20.9c3.3,12.4-5.6,27.4-17.4,31.4
	c-12.4,4.2-26.1-0.5-32.3-12.3c-1.7-3.2-3.8-4.3-7.4-4.3c-59.3,0.1-118.6,0.1-177.9,0.1C-1062.1-354.3-1064.1-354.3-1066.5-354.3z
	 M-851.4-372.2c-3.8-0.3-8.2,3.9-8.6,8c-0.5,4.9,3.2,9.2,7.9,9.6c3.9,0.3,8.7-4,9.2-8.2C-842.4-367-846.9-371.9-851.4-372.2z"/>
<path d="M-971-442.4c-2.3-1.6-4.6-3.1-8.1-5.4c-0.6,1.9-1.1,3.7-1.7,5.6c0.3,0.6,0.6,1.2,0.9,1.8c-5.1-1-10.1-2.1-16.6-3.4
	c2.3-2.8,3.5-4.3,4.7-5.7c-2.1-4-2.1-4-9.3,0.5c-1.7-2.5-3.2-5.2-5.1-7.5c-1.1-1.3-2.8-2.8-4.3-2.9c-16.3-0.2-32.6-0.2-49-0.1
	c-6.4,0-9.9,4.3-10,11.8c-0.1,17.8,0,35.6,0,53.5c0,1.2,0.4,2.6-0.1,3.4c-1.1,1.7-2.4,3.5-4.1,4.4c-0.7,0.4-2.7-1.1-3.9-2.1
	c-1.2-1.1-2.1-2.5-4.3-3.8c-0.1,1.7-0.8,3.7-0.2,5.1c2.5,6.4,2.1,7.5-5.4,10.1c-0.1-1.3-0.3-2.6-0.3-3.9c0-22.7,0-45.3,0-68
	c0-12.7,7.1-23.2,18.9-27.7c2.2-0.9,4.9-0.9,7.4-0.9c16.5-0.1,33-0.2,49.5,0.1c3.6,0.1,5.7-1.1,7.5-4.1c7.6-12,21.5-17.4,34.9-10.8
	c6.7,3.3,11.5,8.4,12.8,16.3c-2.9-4-5.8-7.9-8.9-12.2c-1.4,0.9-2.6,1.6-3.8,2.4c0.3,0.8,0.4,1.3,0.7,1.7c3.9,5.4,8.1,10.6,11.7,16.2
	c1.2,1.9,1.3,4.8,1.4,7.2c0.1,1.3-0.7,2.9-1.5,4.1c-7.1,11.5-8.4,11.6-16.2,0.3c-1-1.5-1.7-4.4-0.9-5.7c1.1-1.8,3.6-2.9,5.7-4
	c1.5-0.8,3.2-1.2,5.2-2c-1-1.3-1.1-1.8-1.4-1.8c-5.1-0.9-9.7-2.3-13.8-6c-2.9-2.6-8.4-0.1-10.3,3.7c-2.3,4.4-1,10.6,3.6,11.8
	c4.9,1.3,6.7,5,9.3,8.2c2.1,2.5,4.1,5.2,6.1,7.8C-970.2-443.7-970.6-443.1-971-442.4z"/>
<path d="M-1080.6,224.9c6.6-0.1,11.9-1.3,16.9,2.6c1.6,1.2,5,0.3,7.5-0.1c3.8-0.7,7.5-2.3,11.3-2.5c7.9-0.5,11.2-3.5,11.3-11.2
	c0-3.8,0-7.6,0-12.1c1.8,1.1,3.2,1.8,5.7,3.3c0.2-2.1,1-4.4,0.3-4.9c-8-6.2-5.9-14.7-5.9-24.4c5.4,9,11.3,6,17.3,2.2
	c0.5,0.3,0.9,0.6,1.4,0.9c-0.8,3-1.5,6.1-2.5,9c-0.5,1.3-1.9,2.3-2.8,3.5c1.4,1.1,2.8,2.1,4.5,3.4c0,8.2,0.5,17-0.1,25.7
	c-0.8,11.1-12.1,21.9-23.2,22.3c-13.5,0.5-27,0.4-40.5,0.4c-1.4,0-3.2-0.5-4-1.4c-4.1-5.1-8-10.5-12.3-16.2
	c5.5-1.5,9.3-0.6,12.1,3.9c1.6,2.5,3.6,4.8,5.7,6.9c2.7,2.6,6,2.8,9.2,0.9c0.9-0.6,1.4-1.9,2-2.9c-1.2-0.7-2.5-2.2-3.5-1.9
	C-1075.9,233.6-1077.6,229.4-1080.6,224.9z"/>
<path d="M-1136.4,254c-12.1-8-13.7-20.2-10.1-30.2c4.3-12.1,14-17.6,25.4-17.8c11.1-0.2,21,6.7,24.4,16.2c-1.5,1-3.1,1.9-5,3.1
	c4.3,5.8,8.2,11.2,12,16.3c-3.5,1.7-6.5,3.1-10.8,5.1c-0.2-0.4-0.9-1.7-1.8-2.9c-4-5.3-8.1-10.6-12.1-15.9
	c-2.7-3.7-8.6-4.8-11.9-2.1c-4.4,3.6-4.9,9.3-1,13c1.4,1.3,3.2,2.3,4.8,3.4c-3,2.7-6,5.2-9.5,8.3c-2-2.5-3.9-4.9-6.6-8.3
	c-1.4,2-2.3,3.1-3.2,4.5C-1139.9,249.3-1138.1,251.6-1136.4,254z"/>
<path d="M-976.8,161.3c8.5-6.9,3.9-12.4,0.2-18c0.4-0.3,0.9-0.6,1.3-1c1.6,0.8,3.3,1.4,4.6,2.5c7.1,6.1,15.1,4.2,18.7-4.6
	c1.1-2.6,1.8-5.3,2.7-8c5.1,3.5,5.1,3.5,7.7,0.8c-1.6-3-3.3-6-4.9-9c0.4-0.4,0.8-0.8,1.2-1.2c4.2,0.6,8.4,1.1,12.6,2
	c1,0.2,2.2,2,2.2,3.1c1.3,18.9-9.6,32.9-30.1,33.2C-965.3,161.4-970.1,161.3-976.8,161.3z"/>
<path d="M-1110.8,256.8c-6,4.2-10.9,4.5-14.5,1.4c-2.4-2.2-3.5-4.5-0.9-7.2c2.4-2.6,5.2-4.8,8.6-1.9
	C-1115.1,251.2-1113.1,254.1-1110.8,256.8z"/>
<path d="M-1113.2,237.6c3.3,4.3,6.5,8.3,9.5,12.4c0.5,0.8-0.3,2.4-0.5,3.7c-1.2-0.4-2.9-0.3-3.6-1.1c-3.4-3.5-6.5-7.3-10-11.3
	C-1117.1,240.6-1115.4,239.3-1113.2,237.6z"/>
</svg>
