<?xml version="1.0" encoding="utf-8"?>
<!-- Generator: Adobe Illustrator 24.1.0, SVG Export Plug-In . SVG Version: 6.00 Build 0)  -->
<svg version="1.1" id="Layer_1" xmlns="http://www.w3.org/2000/svg" xmlns:xlink="http://www.w3.org/1999/xlink" x="0px" y="0px"
	 viewBox="0 0 600 687.9" style="enable-background:new 0 0 600 687.9;" xml:space="preserve">
<style type="text/css">
	.st0{opacity:3.000000e-02;fill:url(#Path_4927_1_);enable-background:new    ;}
</style>
<linearGradient id="Path_4927_1_" gradientUnits="userSpaceOnUse" x1="-658.845" y1="1080.845" x2="-657.8658" y2="1080.845" gradientTransform="matrix(612.751 0 0 -702.4829 403707.9062 759619)">
	<stop  offset="0" style="stop-color:#3054D4"/>
	<stop  offset="1" style="stop-color:#062684"/>
</linearGradient>
<path id="Path_4927" class="st0" d="M305.1,0v235.2l264.6,92.4l0.3,8.4l-264.9-92.6v235.2l253.1,88.4l-253.1,88.4L42.5,566.9
	l252.4-88.2V243.5L30.8,335.8v-8.3l264.2-92.3V0L0,103v478.7l0.5-0.2l305.2,106.3l294.2-106.1l0.1,0V103L305.1,0z M30.8,124.8
	l233.4-81.5v170.1L30.8,294.9V124.8z M264.2,286.8v170.1L30.8,538.4V368.4L264.2,286.8z M335.8,286.8l233.4,81.5v170.1l-233.4-81.5
	V286.8z M335.8,43.3l233.4,81.5v170.1l-233.4-81.5V43.3z"/>
</svg>
