<?xml version="1.0" encoding="utf-8"?>
<!-- Generator: Adobe Illustrator 24.1.0, SVG Export Plug-In . SVG Version: 6.00 Build 0)  -->
<svg version="1.1" id="Layer_1" xmlns="http://www.w3.org/2000/svg" xmlns:xlink="http://www.w3.org/1999/xlink" x="0px" y="0px"
	 viewBox="0 0 570 316" style="enable-background:new 0 0 570 316;" xml:space="preserve">
<style type="text/css">
	.st0{fill:#EBEBEB;}
	.st1{fill:#A6A6A6;}
	.st2{fill:#FFC727;}
	.st3{fill:#DBDBDB;}
	.st4{fill:#FFFFFF;}
	.st5{fill:url(#SVGID_1_);}
	.st6{fill:url(#SVGID_2_);}
	.st7{fill:url(#SVGID_3_);}
	.st8{fill:url(#SVGID_4_);}
	.st9{fill:url(#SVGID_5_);}
	.st10{fill:url(#SVGID_6_);}
	.st11{fill:#C7C7C7;}
	.st12{fill:#455A64;}
	.st13{fill:url(#SVGID_7_);}
	.st14{opacity:0.8;fill:#FFFFFF;}
	.st15{opacity:0.6;}
	.st16{opacity:0.2;fill:#FFFFFF;}
	.st17{opacity:0.8;}
	.st18{opacity:0.1;fill:#FFFFFF;}
	.st19{fill:#263238;}
	.st20{fill:#FDAE7F;}
	.st21{fill:#FDBD97;}
	.st22{fill:#2D2D2D;}
	.st23{fill:#FFBF99;}
	.st24{fill:#FABD41;}
	.st25{fill:#F59F1D;}
	.st26{fill:url(#SVGID_8_);}
</style>
<g>
	<g>
		<path class="st0" d="M137.5,76.1H37.3V7.6h100.2V76.1z M38.1,75.3h98.6v-67H38.1V75.3z"/>
		<g>
			<path class="st1" d="M45.1,12c0,1.1-0.9,2-2,2c-1.1,0-2-0.9-2-2c0-1.1,0.9-2,2-2C44.2,10,45.1,10.9,45.1,12z"/>
			<path class="st0" d="M53.3,12c0,1.1-0.9,2-2,2s-2-0.9-2-2c0-1.1,0.9-2,2-2S53.3,10.9,53.3,12z"/>
			<path class="st2" d="M61.4,12c0,1.1-0.9,2-2,2c-1.1,0-2-0.9-2-2c0-1.1,0.9-2,2-2C60.5,10,61.4,10.9,61.4,12z"/>
		</g>
		<rect x="37.7" y="15.5" class="st0" width="99.4" height="0.8"/>
	</g>
	<g>
		<g>
			<g>
				<polygon class="st0" points="109.3,191 54.2,205.5 35.7,134.7 76.6,124 90.8,120.3 94.3,133.8 				"/>
				<g>
					
						<rect x="43.6" y="139.3" transform="matrix(-0.9675 0.253 -0.253 -0.9675 167.0023 258.9081)" class="st3" width="46.4" height="1.9"/>
				</g>
				<g>
					
						<rect x="44.8" y="143.8" transform="matrix(-0.9675 0.253 -0.253 -0.9675 170.5221 267.6289)" class="st3" width="46.4" height="1.9"/>
				</g>
				<g>
					
						<rect x="46" y="148.4" transform="matrix(-0.9675 0.253 -0.253 -0.9675 174.0425 276.3492)" class="st3" width="46.4" height="1.9"/>
				</g>
				<g>
					
						<rect x="47.2" y="153" transform="matrix(-0.9675 0.253 -0.253 -0.9675 177.5628 285.0699)" class="st3" width="46.4" height="1.9"/>
				</g>
				<g>
					
						<rect x="48.4" y="157.6" transform="matrix(-0.9675 0.253 -0.253 -0.9675 181.0825 293.791)" class="st3" width="46.4" height="1.9"/>
				</g>
				<g>
					
						<rect x="49.6" y="162.2" transform="matrix(-0.9675 0.253 -0.253 -0.9675 184.6029 302.5112)" class="st3" width="46.4" height="1.9"/>
				</g>
				<g>
					
						<rect x="50.8" y="166.8" transform="matrix(-0.9675 0.253 -0.253 -0.9675 188.123 311.232)" class="st3" width="46.4" height="1.9"/>
				</g>
				<g>
					
						<rect x="52" y="171.4" transform="matrix(-0.9675 0.253 -0.253 -0.9675 191.643 319.9527)" class="st3" width="46.4" height="1.9"/>
				</g>
				<g>
					
						<rect x="53.2" y="175.9" transform="matrix(-0.9675 0.253 -0.253 -0.9675 195.1632 328.6733)" class="st3" width="46.4" height="1.9"/>
				</g>
				<g>
					
						<rect x="54.4" y="180.5" transform="matrix(-0.9675 0.253 -0.253 -0.9675 198.6835 337.3938)" class="st3" width="46.4" height="1.9"/>
				</g>
				<g>
					
						<rect x="55.6" y="185.1" transform="matrix(-0.9675 0.253 -0.253 -0.9675 202.2034 346.1146)" class="st3" width="46.4" height="1.9"/>
				</g>
				<g>
					
						<rect x="56.8" y="189.7" transform="matrix(-0.9675 0.253 -0.253 -0.9675 205.7233 354.8354)" class="st3" width="46.4" height="1.9"/>
				</g>
			</g>
			<g>
				<polygon class="st0" points="124,211.5 67.1,214.6 63,141.6 105.2,139.2 120.6,152.3 				"/>
				<polygon class="st3" points="105.2,139.2 120.6,152.3 106,153.2 				"/>
				<g>
					
						<rect x="69.2" y="152.7" transform="matrix(-0.9984 5.586655e-02 -5.586655e-02 -0.9984 178.6059 302.2122)" class="st3" width="31.7" height="1.9"/>
				</g>
				<g>
					
						<rect x="69.5" y="157.4" transform="matrix(-0.9984 5.586656e-02 -5.586656e-02 -0.9984 179.3997 311.6569)" class="st3" width="31.7" height="1.9"/>
				</g>
				<g>
					
						<rect x="69.8" y="162.1" transform="matrix(-0.9984 5.586641e-02 -5.586641e-02 -0.9984 180.1933 321.1016)" class="st3" width="31.7" height="1.9"/>
				</g>
				<g>
					
						<rect x="70" y="166.5" transform="matrix(-0.9984 5.586743e-02 -5.586743e-02 -0.9984 195.667 329.3125)" class="st3" width="46.4" height="1.9"/>
				</g>
				<g>
					
						<rect x="70.3" y="171.2" transform="matrix(-0.9984 5.586913e-02 -5.586913e-02 -0.9984 196.461 338.7571)" class="st3" width="46.4" height="1.9"/>
				</g>
				<g>
					
						<rect x="70.6" y="175.9" transform="matrix(-0.9984 5.586913e-02 -5.586913e-02 -0.9984 197.2548 348.2019)" class="st3" width="46.4" height="1.9"/>
				</g>
				<g>
					
						<rect x="70.8" y="180.7" transform="matrix(-0.9984 5.586753e-02 -5.586753e-02 -0.9984 198.0483 357.6467)" class="st3" width="46.4" height="1.9"/>
				</g>
				<g>
					
						<rect x="71.1" y="185.4" transform="matrix(-0.9984 5.586743e-02 -5.586743e-02 -0.9984 198.842 367.0914)" class="st3" width="46.4" height="1.9"/>
				</g>
				<g>
					
						<rect x="71.3" y="190.1" transform="matrix(-0.9984 5.586913e-02 -5.586913e-02 -0.9984 199.6361 376.536)" class="st3" width="46.4" height="1.9"/>
				</g>
				<g>
					
						<rect x="71.6" y="194.9" transform="matrix(-0.9984 5.586913e-02 -5.586913e-02 -0.9984 200.4299 385.9808)" class="st3" width="46.4" height="1.9"/>
				</g>
				<g>
					
						<rect x="71.9" y="199.6" transform="matrix(-0.9984 5.586744e-02 -5.586744e-02 -0.9984 201.2234 395.4256)" class="st3" width="46.4" height="1.9"/>
				</g>
				<g>
					
						<rect x="72.1" y="204.3" transform="matrix(-0.9984 5.586753e-02 -5.586753e-02 -0.9984 202.0171 404.8703)" class="st3" width="46.4" height="1.9"/>
				</g>
			</g>
		</g>
		<g>
			<g>
				<g>
					<polygon class="st0" points="468.3,63.1 522.9,103.3 549.7,66.7 495.2,26.6 					"/>
					<polygon class="st4" points="472.3,62.5 522.3,99.3 545.8,67.3 495.8,30.5 					"/>
					<path class="st3" d="M493,43.8c-2.2,3-1.6,7.2,1.4,9.5c3,2.2,7.2,1.6,9.5-1.4c2.2-3,1.6-7.2-1.4-9.5
						C499.4,40.2,495.2,40.8,493,43.8z"/>
					<polygon class="st3" points="487.8,74 522.3,99.4 522.2,63.3 					"/>
					<polygon class="st0" points="474.3,64 502.7,85 499.7,59.3 					"/>
				</g>
			</g>
			<g>
				<g>
					<polygon class="st0" points="448.6,45.8 516.3,46.7 516.9,1.4 449.1,0.5 					"/>
					<polygon class="st4" points="451.4,43 513.5,43.9 514,4.2 451.9,3.4 					"/>
					<path class="st3" d="M457.4,15.8c-0.1,3.7,2.9,6.8,6.7,6.9c3.7,0.1,6.8-2.9,6.9-6.7c0.1-3.7-2.9-6.8-6.7-6.9
						C460.5,9.1,457.4,12.1,457.4,15.8z"/>
					<polygon class="st3" points="470.7,43.4 513.5,43.9 492.5,14.6 					"/>
					<polygon class="st0" points="453.9,43.1 489.3,43.6 471.8,24.5 					"/>
				</g>
			</g>
		</g>
	</g>
	<g>
		<linearGradient id="SVGID_1_" gradientUnits="userSpaceOnUse" x1="67.1177" y1="158.5328" x2="499.8799" y2="158.5328">
			<stop  offset="0" style="stop-color:#062684"/>
			<stop  offset="1" style="stop-color:#3054D4"/>
		</linearGradient>
		<path class="st5" d="M67.1,282.6V34.5c0-5.7,4.6-10.3,10.3-10.3h412.1c5.7,0,10.3,4.6,10.3,10.3v248.2c0,5.7-4.6,10.3-10.3,10.3
			H77.5C71.7,293,67.1,288.3,67.1,282.6z"/>
		<path class="st4" d="M481.6,279.8H85.4c-2.9,0-5.2-2.3-5.2-5.2V42.4c0-2.9,2.3-5.2,5.2-5.2h396.2c2.9,0,5.2,2.3,5.2,5.2v232.3
			C486.8,277.5,484.5,279.8,481.6,279.8z"/>
		<linearGradient id="SVGID_2_" gradientUnits="userSpaceOnUse" x1="25.6214" y1="304.2257" x2="547.3574" y2="304.2257">
			<stop  offset="0" style="stop-color:#3054D4"/>
			<stop  offset="1" style="stop-color:#062684"/>
		</linearGradient>
		<path class="st6" d="M536.1,315.5H30.9c-5.8,0-10.6-4.8-10.6-10.6v-1.3c0-5.8,4.8-10.6,10.6-10.6h505.3c5.8,0,10.6,4.8,10.6,10.6
			v1.3C546.7,310.7,542,315.5,536.1,315.5z"/>
		<linearGradient id="SVGID_3_" gradientUnits="userSpaceOnUse" x1="80.2317" y1="77.1762" x2="486.7659" y2="77.1762">
			<stop  offset="0" style="stop-color:#002FF5"/>
			<stop  offset="0.1894" style="stop-color:#003FF5"/>
			<stop  offset="0.5594" style="stop-color:#0069F4"/>
			<stop  offset="1" style="stop-color:#00A2F4"/>
		</linearGradient>
		<rect x="80.2" y="46.6" class="st7" width="406.5" height="61.2"/>
		<path class="st0" d="M486.8,46.6H80.2v-4.2c0-2.9,2.3-5.2,5.2-5.2h396.2c2.9,0,5.2,2.3,5.2,5.2V46.6z"/>
		<g>
			<path class="st1" d="M101.1,41.9c0,1.3-1,2.3-2.3,2.3c-1.3,0-2.3-1-2.3-2.3c0-1.3,1-2.3,2.3-2.3
				C100.1,39.6,101.1,40.6,101.1,41.9z"/>
			<path class="st4" d="M110.6,41.9c0,1.3-1,2.3-2.3,2.3c-1.3,0-2.3-1-2.3-2.3c0-1.3,1-2.3,2.3-2.3
				C109.6,39.6,110.6,40.6,110.6,41.9z"/>
			<linearGradient id="SVGID_4_" gradientUnits="userSpaceOnUse" x1="115.4156" y1="41.896" x2="120.0459" y2="41.896">
				<stop  offset="0" style="stop-color:#062684"/>
				<stop  offset="1" style="stop-color:#3054D4"/>
			</linearGradient>
			<path class="st8" d="M120,41.9c0,1.3-1,2.3-2.3,2.3c-1.3,0-2.3-1-2.3-2.3c0-1.3,1-2.3,2.3-2.3C119,39.6,120,40.6,120,41.9z"/>
			<g>
				<g>
					<linearGradient id="SVGID_5_" gradientUnits="userSpaceOnUse" x1="201.5334" y1="123.0616" x2="201.6335" y2="123.0616">
						<stop  offset="0" style="stop-color:#062684"/>
						<stop  offset="1" style="stop-color:#3054D4"/>
					</linearGradient>
					<path class="st9" d="M201.6,123.1C201.6,123.1,201.6,123.1,201.6,123.1C201.6,123,201.6,123,201.6,123.1
						C201.6,123,201.5,123,201.6,123.1C201.5,123.1,201.6,123.1,201.6,123.1L201.6,123.1z"/>
				</g>
			</g>
			<g>
				<g>
					<linearGradient id="SVGID_6_" gradientUnits="userSpaceOnUse" x1="201.5334" y1="123.0616" x2="201.6335" y2="123.0616">
						<stop  offset="0" style="stop-color:#062684"/>
						<stop  offset="1" style="stop-color:#3054D4"/>
					</linearGradient>
					<path class="st10" d="M201.6,123.1C201.6,123.1,201.6,123.1,201.6,123.1C201.6,123,201.6,123,201.6,123.1
						C201.6,123,201.5,123,201.6,123.1C201.5,123.1,201.6,123.1,201.6,123.1L201.6,123.1z"/>
				</g>
			</g>
		</g>
		<path class="st3" d="M482.3,279.8h-0.7V46.6h5.2v228.8C486.8,277.8,484.8,279.8,482.3,279.8z"/>
		<path class="st1" d="M484.2,126.8L484.2,126.8c-1,0-1.8-0.8-1.8-1.8v-76c0-1,0.8-1.8,1.8-1.8h0c1,0,1.8,0.8,1.8,1.8v76
			C485.9,126,485.2,126.8,484.2,126.8z"/>
		<g>
			<g>
				<g>
					<rect x="359.2" y="57.9" class="st4" width="91.6" height="12.2"/>
					<path class="st11" d="M450.9,70.3h-91.8V57.8h91.8V70.3z M359.3,70h91.3v-12h-91.3V70z"/>
				</g>
				<rect x="438.4" y="57.8" class="st12" width="12.5" height="12.5"/>
				<g>
					<g>
						<path class="st4" d="M448.5,67.5l-1.1,0.9l-2.1-2.8l-0.8-1c0.2-0.1,0.3-0.1,0.4-0.2c0.3-0.2,0.5-0.5,0.6-0.8l0.8,1.1
							L448.5,67.5z"/>
						<path class="st4" d="M446.3,61c-1-1.4-3-1.6-4.3-0.6c-1.4,1-1.6,3-0.6,4.3c0.9,1.2,2.6,1.5,3.9,0.8c0.1-0.1,0.3-0.2,0.4-0.3
							c0.3-0.2,0.5-0.4,0.6-0.7C447.1,63.6,447.2,62.1,446.3,61z M445,64.3c-0.1,0.1-0.3,0.2-0.4,0.2c-0.7,0.3-1.6,0.1-2.1-0.6
							c-0.6-0.8-0.5-2,0.3-2.6c0.8-0.6,2-0.5,2.6,0.3c0.4,0.5,0.5,1.2,0.2,1.8C445.4,63.9,445.3,64.1,445,64.3z"/>
					</g>
				</g>
				<rect x="361.7" y="60.3" class="st11" width="0.7" height="7.4"/>
			</g>
			<g>
				<g>
					<rect x="143.7" y="57.9" class="st4" width="210.9" height="12.2"/>
					<path class="st11" d="M354.7,70.3H143.6V57.8h211.2V70.3z M143.8,70h210.7v-12H143.8V70z"/>
				</g>
				<rect x="146.2" y="60.3" class="st11" width="0.7" height="7.4"/>
			</g>
			<g>
				<polygon class="st4" points="120.6,68.2 116.2,64.1 120.6,59.9 121.3,60.6 117.6,64.1 121.3,67.5 				"/>
			</g>
			<g>
				<polygon class="st4" points="131.4,59.9 135.8,64 131.4,68.2 130.7,67.5 134.3,64 130.7,60.6 				"/>
			</g>
		</g>
		<g>
			<g>
				<linearGradient id="SVGID_7_" gradientUnits="userSpaceOnUse" x1="237.1479" y1="158.5264" x2="334.2692" y2="158.5264">
					<stop  offset="0" style="stop-color:#062684"/>
					<stop  offset="1" style="stop-color:#3054D4"/>
				</linearGradient>
				<polygon class="st13" points="237.1,195.8 334.3,195.8 334.3,121.3 237.1,121.3 				"/>
				<path class="st14" d="M246.8,137.6c-1.2,6.2,4.2,11.6,10.4,10.4c3.5-0.7,6.3-3.5,6.9-6.9c1.2-6.2-4.2-11.6-10.4-10.4
					C250.3,131.3,247.5,134.1,246.8,137.6z"/>
				<g class="st15">
					<polygon class="st4" points="269.2,179.7 334.3,179.7 301.7,139.6 					"/>
					<polygon class="st16" points="269.2,179.7 334.3,179.7 301.7,139.6 					"/>
				</g>
				<g class="st17">
					<polygon class="st4" points="237.1,179.8 294.9,179.8 266,153.7 					"/>
					<polygon class="st18" points="237.1,179.8 294.9,179.8 266,153.7 					"/>
				</g>
				<g class="st17">
					<rect x="237.1" y="179.7" class="st4" width="97.1" height="16.1"/>
					<rect x="237.1" y="179.7" class="st18" width="97.1" height="16.1"/>
				</g>
			</g>
			<g>
				<rect x="114.5" y="206.1" class="st1" width="51.4" height="4.3"/>
				<rect x="114.5" y="216.1" class="st0" width="218.3" height="4.3"/>
				<rect x="114.5" y="225.6" class="st0" width="218.3" height="4.3"/>
				<rect x="114.5" y="235.1" class="st0" width="218.3" height="4.3"/>
				<rect x="114.5" y="244.6" class="st0" width="218.3" height="4.3"/>
				<rect x="114.5" y="254.1" class="st0" width="218.3" height="4.3"/>
			</g>
			<g>
				<rect x="347.6" y="121.9" class="st1" width="51.4" height="4.3"/>
				<rect x="347.6" y="131.9" class="st0" width="109.1" height="4.3"/>
				<rect x="347.6" y="141.5" class="st0" width="109.1" height="4.3"/>
				<rect x="347.6" y="151" class="st0" width="109.1" height="4.3"/>
				<rect x="347.6" y="160.5" class="st0" width="109.1" height="4.3"/>
				<rect x="347.6" y="178.1" class="st0" width="109.1" height="4.3"/>
				<rect x="347.6" y="187.6" class="st0" width="109.1" height="4.3"/>
				<rect x="347.6" y="197.1" class="st0" width="109.1" height="4.3"/>
				<rect x="347.6" y="206.6" class="st0" width="109.1" height="4.3"/>
				<rect x="347.6" y="216.1" class="st0" width="109.1" height="4.3"/>
				<rect x="347.6" y="235.1" class="st0" width="109.1" height="4.3"/>
				<rect x="347.6" y="244.6" class="st0" width="73.6" height="4.3"/>
				<rect x="423.4" y="241.9" class="st19" width="0.5" height="9.8"/>
			</g>
			<g>
				<rect x="114.5" y="121.3" class="st1" width="51.4" height="11.6"/>
				<rect x="114.5" y="140.8" class="st0" width="109" height="4.3"/>
				<rect x="114.5" y="150.3" class="st0" width="109" height="4.3"/>
				<rect x="114.5" y="159.8" class="st0" width="109" height="4.3"/>
				<rect x="114.5" y="169.3" class="st0" width="109" height="4.3"/>
				<rect x="114.5" y="182" class="st0" width="109" height="4.3"/>
				<rect x="114.5" y="191.5" class="st0" width="109" height="4.3"/>
			</g>
		</g>
	</g>
	<g>
		<g>
			<g>
				<path class="st20" d="M114.5,203.9c0,0,0,4.1-1.6,5.7c-1.6,1.6-3.4,2.3-3.4,2.3s3.4,7.6,11.5,6.7c8-0.9,9.2-6,9.2-6
					s-7.6-0.9-8.5-8c-0.9-7.1-2.1-7.1-2.1-7.1L114.5,203.9z"/>
				<path class="st21" d="M108.7,186c0,0,0.5,9.4,4.6,16.5c4.6,7.1,9.4,3.2,11.5-0.5c2.1-3.7,7.6-16.1,6.2-18.6
					c-1.4-3.2-17-4.6-17-4.6L108.7,186z"/>
				<path class="st21" d="M129.2,191.3c0,0,2.1-1.6,2.1,0c0,1.6-1.4,4.6-2.8,4.6c-1.4,0.5-1.4-0.5-0.9-1.6
					C128.5,192.9,129.2,191.3,129.2,191.3z"/>
				<path class="st21" d="M109.4,194.7c0.5,0.5,1.4,0.5,1.4-0.5c0-1.6-1.4-4.6-2.8-4.6c-1.4-0.5-1.4,0.5-0.9,1.6
					c0,0.5,0,0.9,0.5,1.4C108.3,193.3,109.2,194.7,109.4,194.7z"/>
				<path d="M109.2,190.1l-0.5-2.8c0,0,2.8,0.5,5.3-2.8c0,0,5.7,1.4,10.3,0.9c4.8-0.5,6.7-1.6,6.7-1.6s-0.9,5.3-1.6,7.1
					c0,0,2.1-0.9,3.2-3.7c0.9-2.8,0.9-5.3,0.9-5.3s3.2-2.8,4.1-5.3c0,0-8.5-2.1-11.3-3.7c-2.8-1.6-4.1-2.8-4.1-2.8s-4.1-2.1-8,0.9
					c-3.9,3-6.7,4.8-6.7,10.3C107.8,180.9,103.7,186.4,109.2,190.1z"/>
			</g>
		</g>
		<path class="st22" d="M141.1,284.5c0,0,5.1,0.3,8.8,0.3s9.6,0.8,9.6,0.8s1.5,0,1.7,1.9s0.1,2.7,0.1,2.7s0.1,2.3-1.7,2.3
			c-1.8,0-13.2,1.3-15.7,1.3s-4.5,0.5-4.5-1.3S139.3,284.3,141.1,284.5z"/>
		<path class="st23" d="M145.3,230.4c0,0,3.3,18.4,3.6,23.3c0.3,4.9,0.8,8.6-2.4,10.5c-3.2,1.9-8.4,3.7-8.4,3.7l-6.5-32.9v-3.8
			L145.3,230.4z"/>
		<path class="st23" d="M88.9,229.4c0,0-1.8,8.3-2.3,12.5c-0.5,4.2-1.7,12.4-1.8,14.3c-0.1,1.9-0.4,5.1,3.1,7.5
			c3.5,2.4,7.2,3.8,7.2,3.8l7-38.2H88.9z"/>
		<path class="st24" d="M109.6,210c0,0-5.2-0.6-8.1,0.1s-3.7,0.3-2.9,2.4s4.6,12.1,2.8,18.4c-1.8,6.3-4.2,38.3-4.2,38.3
			s19.4,0.8,27,1.2s13.2-1,13.2-1s1.7-13.8,0-19.8c-1.7-6-3.8-16.2-3.8-16.2s-1.4-14.1,0.5-17.5c1.9-3.5,3.3-3.6,0.9-4.5
			s-5.1-1.7-7-1.7c-1.9,0-2.9,0-4.1,1.2c-1.2,1.2-3.5,3.5-6.6,2.9c-3.2-0.5-5.6-2.7-5.6-2.7S110.5,210.1,109.6,210z"/>
		<path class="st25" d="M100.3,211.1c0,0-1.8-0.9-4.5,1.4c-2.9,2.5-5,7.8-6,11.1s-1.7,6.6-1.7,6.6s3.7,1.9,7.5,2
			c3.8,0.1,6.4,0.4,6.4,0.4s1.7-10,1.3-14.4S102.4,212.3,100.3,211.1z"/>
		<path class="st25" d="M132.5,214.8c0,0,1.5-4.2,5-2.3c3.5,1.9,6,9.2,6.8,11.5c0.8,2.3,1.8,6.9,1.8,6.9s-4.1,1.8-7.5,2
			c-3.5,0.3-5.9,0.5-5.9,0.5s-1.4-9.1-1.2-12.7C131.8,217.2,132.5,214.8,132.5,214.8z"/>
		<polygon class="st22" points="104.3,272.1 130.5,272.1 117,276.2 		"/>
		<path d="M81,264.7c0,0,47.8,15,58.3,18.7c0,0,3.5,0.9,3.6,2.7c0.1,1.8-0.3,4.3-0.6,5.6c-0.4,1.3-1.5,2.3-3.5,1.9
			c-1.9-0.4-44.7-8.9-61.7-13.4l-4.9-1.5c0,0-3.6-1.7-2.9-6c0.6-4.3,3.8-8.2,6.1-8.4C77.7,263.9,81,264.7,81,264.7z"/>
		<path class="st22" d="M76.7,285.9c0,0,6-1,9.6-1.2c3.6-0.1,8.3-0.5,9.1,0c0.8,0.5,1.4,7.4,1.4,7.4s0.6,1.9-4.1,1.5
			c-4.7-0.4-15.6-0.8-15.6-0.8s-2.4-0.1-2.6-2.3c-0.1-2.2,0.3-3.2,0.3-3.2S75.1,286.1,76.7,285.9z"/>
		<path d="M105.2,279.7c0,0,29-8.8,39.4-11.9c10.4-3.1,16.1-5.9,19.4-1s3.1,10.2-0.8,11.8s-34,8.6-46.5,11.1s-20.7,4.2-21.9,3.7
			c-1.2-0.5-2.4-4.2-2.2-6.3c0.3-2,0.4-2.8,2.8-3.8C97.9,282.3,105.2,279.7,105.2,279.7z"/>
		<linearGradient id="SVGID_8_" gradientUnits="userSpaceOnUse" x1="94.5599" y1="254.8319" x2="138.6646" y2="254.8319">
			<stop  offset="0" style="stop-color:#062684"/>
			<stop  offset="1" style="stop-color:#3054D4"/>
		</linearGradient>
		<path class="st26" d="M101.8,237.6h34.9c0,0,1.9-0.3,1.9,2.3s0,30.2,0,30.2s0.1,2-1.4,2s-41,0-41,0s-1.7,0.5-1.7-2.3
			s0-30.7,0-30.7s-0.1-1.5,1.9-1.5S101.8,237.6,101.8,237.6z"/>
		
			<rect x="115" y="253.2" transform="matrix(0.7807 0.6249 -0.6249 0.7807 184.8099 -16.9985)" class="st4" width="3.2" height="3.2"/>
	</g>
</g>
</svg>
