<?xml version="1.0" encoding="utf-8"?>
<!-- Generator: Adobe Illustrator 24.1.0, SVG Export Plug-In . SVG Version: 6.00 Build 0)  -->
<svg version="1.1" id="Layer_1" xmlns="http://www.w3.org/2000/svg" xmlns:xlink="http://www.w3.org/1999/xlink" x="0px" y="0px"
	 viewBox="0 0 570 316" style="enable-background:new 0 0 570 316;" xml:space="preserve">
<style type="text/css">
	.st0{fill:none;stroke:#000000;stroke-width:0.5;stroke-miterlimit:10;}
	.st1{fill:url(#SVGID_1_);}
	.st2{fill:#233862;}
	.st3{fill:#F8BE99;}
	.st4{fill:#0437A8;}
	.st5{fill:#073ED0;}
	.st6{fill:#F2915C;}
	.st7{fill:#FF3E67;}
	.st8{fill:#EBF3FF;}
	.st9{fill:#FFB27D;}
	.st10{fill:url(#SVGID_2_);}
	.st11{fill:url(#SVGID_3_);}
	.st12{fill:#FFFFFF;}
	.st13{fill:none;stroke:#131834;stroke-width:0.5;stroke-miterlimit:10;}
	.st14{fill:#C98B77;}
	.st15{fill:url(#SVGID_4_);}
	.st16{fill:url(#SVGID_5_);}
	.st17{fill:none;stroke:#FFFFFF;stroke-miterlimit:10;}
	.st18{fill:#EDEDED;}
	.st19{fill:none;stroke:#3A434B;stroke-width:0.5;stroke-miterlimit:10;}
	.st20{fill:url(#SVGID_6_);stroke:#000000;stroke-width:0.5;stroke-miterlimit:10;}
	.st21{fill:#FDBD97;}
	.st22{fill:#DE151F;stroke:#000000;stroke-width:0.5;stroke-miterlimit:10;}
	.st23{fill:#2D2D2D;}
	.st24{fill:#FDAE7F;}
	.st25{fill:#C7E3F2;}
	.st26{fill:#F59F1D;}
</style>
<g>
	<path d="M371.2,12.7c-1.4-1.4-1.4-3.8,0-5.2c1.4-1.4,3.8-1.4,5.2,0"/>
	<ellipse transform="matrix(0.5439 -0.8391 0.8391 0.5439 9.4428 314.1532)" class="st0" cx="293.7" cy="148.4" rx="7.3" ry="7.3"/>
	<path d="M279,151.1c1.3-0.6,2.9,0,3.5,1.3c0.6,1.3,0,2.9-1.3,3.5c-1.3,0.6-2.9,0-3.5-1.3C277.1,153.2,277.7,151.7,279,151.1z"/>
	<g>
		<line class="st0" x1="382.7" y1="4.4" x2="362.6" y2="24.5"/>
		<line class="st0" x1="390.7" y1="1" x2="370.6" y2="21.1"/>
	</g>
	<g>
		<path class="st0" d="M436,207.4c0,2.1-1.7,3.7-3.7,3.7c-2.1,0-3.7-1.7-3.7-3.7c0-2.1,1.7-3.7,3.7-3.7
			C434.4,203.7,436,205.4,436,207.4z"/>
		<line class="st0" x1="451.4" y1="200.8" x2="432.3" y2="219.9"/>
	</g>
	<g>
		<g>
			<g>
				<g>
					<path d="M191.2,308.7l3.6-77.3l-4.3,0.5l-1.5,76.8c0,0.5,0.4,0.9,1.1,0.9l0,0C190.6,309.7,191,309.3,191.2,308.7z"/>
				</g>
				<g>
					<path d="M166,308.7l3.6-77.3l-4.3,0.5l-1.5,76.8c0,0.5,0.4,0.9,1.1,0.9l0,0C165.5,309.7,166,309.3,166,308.7z"/>
				</g>
				<g>
					<path d="M233.1,308.7l-3.6-77.3l4.3,0.5l1.5,76.8c0,0.5-0.4,0.9-1.1,0.9l0,0C233.6,309.7,233.2,309.3,233.1,308.7z"/>
				</g>
				<path d="M221.1,229.5v-45c0-7.7-6.2-13.8-13.8-13.8H176c-7.7,0-13.8,6.2-13.8,13.8v43.4L221.1,229.5z"/>
				
					<linearGradient id="SVGID_1_" gradientUnits="userSpaceOnUse" x1="152.9488" y1="52.6674" x2="217.428" y2="52.6674" gradientTransform="matrix(-1 0 0 -1 379.5781 284)">
					<stop  offset="0" style="stop-color:#666666"/>
					<stop  offset="1" style="stop-color:#1A1A1A"/>
				</linearGradient>
				<path class="st1" d="M226.6,227.9h-64.5l0,0c0,3.8,3.1,6.9,6.9,6.9h57.6V227.9z"/>
				<path d="M236.8,231.4L236.8,231.4c0-1.9-1.5-3.4-3.4-3.4h-45c-1.9,0-3.4,1.5-3.4,3.4l0,0c0,1.9,1.5,3.4,3.4,3.4h45
					C235.4,234.8,237,233.3,236.8,231.4z"/>
			</g>
			<path class="st2" d="M198.7,227.9h23.4c0,0,5.6-3,10.1-10.7C235.5,211.3,198.6,227.9,198.7,227.9z"/>
			<g>
				<path class="st3" d="M216.3,275.6c0.1,0,0.1-0.1,0.3-0.1c1.3-0.8,3-0.8,4.3-1.9c2.6-2,5-15.6,5-15.6l7.8,1.3
					c0,0-5.4,16.9-6,20.7c-0.4,4.6-0.8,5.9,0.9,9c0.3,0.4,0.4,0.7,0.7,1.1c0.1,0.1,0.1,0.3,0.3,0.4c1.6,2.6,3,4.8,2.3,5.1
					c-0.8,0.4-3.6,0.4-7.7-3.9c-3.6-3.8-2.8-4.2-4.8-6l-0.1-0.1l-0.1-0.1c-0.1-0.3-0.4-0.4-0.7-0.7c-2.1-1.7-4-3.5-4.6-5l0,0
					c-0.3-0.8-0.3-1.6,0.4-2.3C214.7,276.8,215.5,276.3,216.3,275.6z"/>
				<path d="M216.3,275.7c0.1,0,0.1-0.1,0.3-0.1c1.6,2.3,3.4,6.4,5.8,9.5c2.7,3.6,6.4,5.1,7.3,5.4c1.6,2.6,3,4.8,2.3,5.1
					c-0.8,0.4-3.6,0.4-7.7-3.9c-2.6-2.7-6.3-6.7-8.6-9.4c-0.9-1.2-1.6-2.1-1.9-2.6l0,0c-0.3-0.8-0.3-1.6,0.4-2.3
					C214.7,276.8,215.5,276.3,216.3,275.7z"/>
				<path class="st3" d="M277.5,269.8c0-1.5,0.1-3.6-0.8-5.1c-1.6-2.6-5.5-8.6-5.5-8.6l7.5-0.5c0,0,4.2,6.7,7,8.3
					c3.1,1.7,5.5,3.9,8.7,4.3c0.4,0,0.7,0.1,1.1,0.1c3,0.4,5.6,0.7,5.5,1.3c-0.3,0.8-1.9,2.8-7.4,3.5c-5.5,0.5-4.6-0.5-8.5,0.4
					c-3.9,0.9-7.3,1.3-7.8-1.1C277.3,271.7,277.3,270.8,277.5,269.8z"/>
				<path d="M282.4,274.1c-2.7,0.4-4.7,0.3-5.1-1.6c-0.1-0.8,0-1.7,0-2.6c2.6,0,6.4,1.1,10.2,0.9c4.6-0.1,7.9-2.4,7.9-2.4l0,0
					c3,0.4,5.6,0.7,5.5,1.3c-0.1,0.7-1.6,2.4-5.9,3.2C294.6,273,283.5,274,282.4,274.1z"/>
				<path class="st4" d="M234.2,214.7c-1.5,1.7-2.8,5-4,8.9c-4.7,15.2-7.3,41.8-7.3,41.8s2.6,1.6,4.7,2.3c2.3,0.7,4.8,0.4,4.8,0.4
					l9.1-24.7l7-18.9C248.5,224.4,241.5,205.9,234.2,214.7z"/>
				<path class="st5" d="M283,259.7c0,0-0.8,0.9-2.7,1.6s-6.2,0.7-6.2,0.7s-36.3-45-39.6-44.3c-2,0.4-17.9,10.2-32.1,10.2
					c-5.6,0-22.6,0-22.6,0h-0.4c-2.6,0-4-1.2-4.8-3.2c-5.1-13.3,4.3-34.3,4.3-34.3l28.6,2.3l2.8,4.6c13.3-2.6,26.5-4.4,31-3
					C251.7,197.7,283,259.7,283,259.7z"/>
				<path d="M206.5,109.6c-3.6-1.9-9.1-2.1-10.1-2.3c-10.9-1.3-17.3,14.4-17.7,19.1c-0.7,8.7-5.2,10.1-11.8,15.6
					c-13.2,11-9.3,23.9-2.1,28.6c4.3,2.8,11.8,0,11.8,0c0.1,0.1,20.7-11.4,30.9-17.1C222.7,151.2,215.7,114.5,206.5,109.6z"/>
				<path class="st3" d="M199.2,143.1c0.4-3.1,1.2-6.4,1.2-6.4l-10.3-3.8l-0.7-0.3c-1.2,8.3-2.8,9.7-4.3,9.7c-0.1,0,2.3,5.2,5.5,6.6
					c3.4,1.5,8.3-0.3,8.3-0.3C198.4,148.2,198.6,145.7,199.2,143.1z"/>
				<path class="st6" d="M189.8,132.8c0.8,3.2,3.2,9.1,9.1,10.2c0.4-3.1,1.2-6.4,1.2-6.4L189.8,132.8z"/>
				<path class="st3" d="M209,122.6c-0.3-3.1-1.5-6.7-10.6-7.5c-9-0.8-8.1,5.4-9.4,14.1c-1.3,8.9,12.8,10.7,12.8,10.7
					C205.5,140.2,209.3,125.7,209,122.6z"/>
				<path d="M194.3,114.4c-1.6,0.1-3,1.1-3.6,2.6c-2.1,5-5.8,7.9-5.8,7.9s2.3,2,8.5,1.3c6.2-0.7,15.2-8.5,15.2-8.5
					C206.9,113.9,198.6,114,194.3,114.4z"/>
				<path d="M209.3,117.6c2.7,4.6-2,13.7-2,13.7c0.8-2,0.5-7-0.4-9.1s-4-5.1-4-5.1S206.5,112.9,209.3,117.6z"/>
				<path class="st7" d="M199,142.9c0,0-0.9,6-12.9-1.1c-0.4-0.3-5.1,6.7-9.7,15.3c-5.1,9.5-3.6,11.6-2.3,17.5c0.3,1.1,0.5,2,0.7,3
					c1.7,8.6,0.3,10.3,2.3,16c0.7,1.7,16.1,3.1,24.9,2.6c2.8-0.1,4.8-0.5,5.6-1.2c3.1-2.7,2.8,3.2,3.2-25.4
					C211,155.5,199,142.9,199,142.9z"/>
				<path class="st5" d="M230.1,223.6c-4.7,15.2-7.3,41.8-7.3,41.8s2.6,1.6,4.7,2.3c2.3,0.7,4.8,0.4,4.8,0.4l9.1-24.7L230.1,223.6z"
					/>
				<path class="st7" d="M203.4,158.3c0,0,7.1,23.9,10.1,26.9c2.8,2.8,9.1,1.7,9.1,1.7s-8.5-31.2-9.9-36.4
					c-1.3-5.2-13.7-7.4-13.7-7.4L203.4,158.3z"/>
				<path class="st8" d="M200.3,192c-2-3-14.1-6.2-18-9.7c-3.9-3.5-3.2-16.8-3.2-16.8l-4.3,12c1.7,8.6,0.3,10.3,2.3,16
					c0.7,1.7,16.1,3.1,24.9,2.6C201.8,195,201.1,193.5,200.3,192z"/>
				<path class="st9" d="M192.6,194.3c0,0,2.6,0.7,6.6-0.7c0.9-0.3,2.8-0.9,3.6-0.8c1.2,0.3,4.7,2,4.3,1.1c-0.4-0.9-3.9-3.8-5.2-4.6
					c-1.5-0.7-10.1,1.2-10.1,1.2L192.6,194.3z"/>
				<path class="st7" d="M182.3,163.7c0,2.7-12.1,19.2-11.1,20.1c0.9,0.8,20.3,4,21.5,5.9c1.1,1.9,0.3,5.9,0.3,5.9s-25.8,3.8-33-1.3
					c-6.4-4.4,4.8-38.2,10.5-46.1c4-5.6,15.7-6.3,15.7-6.3S182.3,161,182.3,163.7z"/>
				<path class="st9" d="M204.5,192.6l1.2,2.1c0,0-0.4,0-0.9-0.3c-0.5-0.4-2.4-2.7-2.4-2.7L204.5,192.6z"/>
				<path class="st9" d="M203.9,191.6c0,0,1.6,0.7,2.3,0.7s0.9-0.4,0.9-0.4l-5.2-2.6L203.9,191.6z"/>
				<g>
					<g>
						<path d="M167.3,212.3L167.3,212.3C167.3,212.3,167.3,212.2,167.3,212.3C167.1,212.2,167.1,212.3,167.3,212.3
							C167.1,212.3,167.1,212.3,167.3,212.3L167.3,212.3z"/>
					</g>
				</g>
			</g>
			<g>
				<g>
					
						<linearGradient id="SVGID_2_" gradientUnits="userSpaceOnUse" x1="120.5748" y1="101.6313" x2="174.8448" y2="101.6313" gradientTransform="matrix(-1 0 0 -1 379.5781 284)">
						<stop  offset="0" style="stop-color:#666666"/>
						<stop  offset="1" style="stop-color:#1A1A1A"/>
					</linearGradient>
					<polygon class="st10" points="217.4,166.8 259,166.8 246.5,198 204.7,198 					"/>
					
						<linearGradient id="SVGID_3_" gradientUnits="userSpaceOnUse" x1="132.5986" y1="86.6533" x2="187.6746" y2="86.6533" gradientTransform="matrix(-1 0 0 -1 379.5781 284)">
						<stop  offset="0" style="stop-color:#666666"/>
						<stop  offset="1" style="stop-color:#1A1A1A"/>
					</linearGradient>
					<polygon class="st11" points="246.5,198 191.8,198 191.8,196.7 246.9,196.7 					"/>
				</g>
				<path class="st12" d="M233.3,184.4c-1.2,0-1.7-0.9-1.5-2c0.3-1.1,1.5-2,2.6-2c1.2,0,1.7,0.9,1.5,2
					C235.6,183.4,234.6,184.4,233.3,184.4z"/>
			</g>
		</g>
		<path class="st13" d="M242.9,201.3c-11.6-1.8-19-0.2-33.9-0.2"/>
		<path class="st14" d="M252.8,181c-0.1,0-0.1,0-0.2,0"/>
		<linearGradient id="SVGID_4_" gradientUnits="userSpaceOnUse" x1="122.0523" y1="256.5541" x2="298.9856" y2="256.5541">
			<stop  offset="0" style="stop-color:#3054D4"/>
			<stop  offset="1" style="stop-color:#062684"/>
		</linearGradient>
		<polygon class="st15" points="282.4,202.8 290.6,202.8 290.6,197.9 130,197.9 130,202.8 138,202.8 122.1,314.7 125.4,315.2 
			140.3,210.8 156.6,315.2 160,314.7 142.6,202.8 277.9,202.8 262.7,314.7 266,315.2 280.2,211.3 295.6,315.2 299,314.7 		"/>
		<path class="st12" d="M253.5,74.4c0.7,0.3,2,0,2.6-0.2c0.8-0.3,1.5-0.7,2-1.4c1-1.2,0.7-2.7,0-3.9c-1.1,1.2-2.3,2.3-3.7,3.2
			c-0.4,0.3-0.8,0.5-1,1C253,73.8,253.2,74.2,253.5,74.4z"/>
	</g>
	<path d="M243.8,127.7c0,0,0,0.1-0.1,0.1"/>
	<g>
		<g>
			<linearGradient id="SVGID_5_" gradientUnits="userSpaceOnUse" x1="115.8409" y1="83.8704" x2="188.5948" y2="83.8704">
				<stop  offset="0" style="stop-color:#002FF5"/>
				<stop  offset="0.1894" style="stop-color:#003FF5"/>
				<stop  offset="0.5594" style="stop-color:#0069F4"/>
				<stop  offset="1" style="stop-color:#00A2F4"/>
			</linearGradient>
			<path class="st16" d="M162.8,109.9c-1.8-0.3-3.4-1.3-5.2-3.3c-3.5-4-5.7-9.2-6.2-14.6c-5-0.1-10.1-0.7-15-1.8
				c-4.1-0.9-7.6-2.1-10.7-3.7c-4.5-2.2-9.8-6.1-9.8-11.6c0-9.4,16.3-17,36.4-17s36.4,7.6,36.4,17c0,6.1-6.2,10.1-11.4,12.4
				c-5.6,2.5-11.9,4-18.7,4.5c-0.3,6.3,1.3,12.6,4.5,17.8l0.3,0.5L162.8,109.9z"/>
			<path d="M152.2,58c20,0,36.1,7.5,36.1,16.8c0,6.1-6.4,10-11.3,12.2c-5.9,2.6-12.3,4-18.8,4.5c-0.3,6.3,1.2,12.8,4.6,18.1
				c-2-0.3-3.7-1.7-5-3.3c-3.6-4.1-5.7-9.3-6.2-14.7c-5.2-0.1-10.3-0.7-15.2-1.8c-3.7-0.8-7.3-2-10.6-3.6c-4.4-2.2-9.7-5.9-9.7-11.4
				C116.1,65.5,132.3,58,152.2,58 M152.2,57.5c-20.2,0-36.6,7.7-36.6,17.3c0,5.7,5.4,9.6,10,11.9c3.1,1.5,6.6,2.8,10.7,3.7
				c4.9,1.1,9.9,1.7,14.8,1.8c0.5,5.4,2.7,10.5,6.2,14.5c1.8,2.1,3.5,3.2,5.3,3.4l1.1,0.2l-0.6-0.9c-3.1-5.1-4.7-11.2-4.5-17.4
				c6.7-0.6,13-2.1,18.6-4.5c5.3-2.3,11.6-6.4,11.6-12.6C188.8,65.3,172.4,57.5,152.2,57.5L152.2,57.5z"/>
		</g>
		<path class="st17" d="M127.2,73.5c0.3,3,3,5.5,5.9,5.4c2.9,0,5.5-2.6,5.8-5.6c0.1-1.1-0.2-2.5-1.2-2.9c-1-0.4-2.2,0.3-2.6,1.3
			c-0.4,1-0.2,2.3,0.2,3.3c1.3,3.2,4.7,5.2,8,4.8c3.3-0.4,6.2-3.2,6.8-6.5c0.2-1.2,0.1-2.5-0.8-3.2c-1.2-0.8-2.9,0.1-3.3,1.5
			c-0.4,1.4,0.2,2.9,1,4.1c1.8,2.4,4.7,3.7,7.6,3.5c1.3-0.1,3-0.4,4-1.1c1.6-1.1,3.1-4.8,1.9-6.6c-0.2-0.4-0.6-0.6-1.1-0.6
			c-0.3,0-0.6,0.2-0.8,0.4c-0.6,0.5-0.8,1.3-0.8,2.1c0,1.6,0.9,3.4,1.9,4.5c1.9,2.2,5.1,2.8,7.7,1.7c2.6-1.1,4.4-3.9,4.6-6.8
			c0.1-1.1-0.4-2.6-1.4-2.5c-0.8,0-1.2,0.9-1.4,1.7c-0.5,2.3,0.2,4.8,1.8,6.5c1.6,1.7,4,2.4,6.2,1.9"/>
	</g>
	<g>
		<g>
			<g>
				<rect x="430.3" y="59.9" class="st18" width="23.6" height="36.8"/>
				<polygon class="st19" points="453.9,101.8 430.3,101.8 430.3,101.8 430.3,56.3 453.9,56.3 				"/>
				<path d="M443.6,99.1c0,0.9-0.6,1.5-1.4,1.5c-0.8,0-1.4-0.7-1.4-1.5c0-0.9,0.6-1.5,1.4-1.5C442.9,97.6,443.6,98.2,443.6,99.1z"/>
			</g>
		</g>
		<g>
			<g>
				<path class="st19" d="M441.5,66.8c-5.6,0.9-9.4,6.1-8.5,11.7"/>
				<path class="st19" d="M442,69.8c-3.9,0.6-6.6,4.3-6,8.2"/>
				<path class="st19" d="M442.4,72.1c-2.7,0.4-4.5,2.9-4.1,5.6"/>
				<path class="st19" d="M442.8,74.7c-1.2,0.2-2.1,1.4-1.9,2.6"/>
			</g>
			<linearGradient id="SVGID_6_" gradientUnits="userSpaceOnUse" x1="436.5254" y1="79.5779" x2="451.3097" y2="79.5779">
				<stop  offset="0" style="stop-color:#062684"/>
				<stop  offset="1" style="stop-color:#3054D4"/>
			</linearGradient>
			<path class="st20" d="M440.5,87.4c0.8-0.6,1.6-1.2,2.4-1.9c0.9-0.8,1.8-1.6,2.6-2.5c0.7-0.8,1.4-1.6,2-2.4c0,0,0,0,0,0
				c0.7-0.9,1.4-1.9,2.1-3c0.5-0.9,1-1.8,1.5-2.7c0.2-0.5,0.2-0.7,0-1.2c-0.5-1.2-1.9-1.9-3.1-2.3c-0.3-0.1-0.6,0-0.7,0.3
				c-0.5,1.1-1,2.1-1.6,3.2c-0.2,0.4-0.4,0.8-0.6,1.2c-0.1,0.2-0.1,0.5,0.1,0.7c0.6,0.5,1.2,0.9,1.9,1.2c0.2,0.1,0.4,0.4,0.3,0.6
				c-0.2,0.3-0.5,0.7-0.7,1c-0.1,0.1-0.2,0.3-0.3,0.4c-0.1,0.1-0.1,0.1-0.2,0.2c-0.2,0.2-0.3,0.4-0.5,0.6c0,0-0.1,0.1-0.1,0.1
				c-0.2,0.2-0.4,0.4-0.5,0.6c0,0,0,0.1-0.1,0.1c-0.5,0.6-1,1.1-1.6,1.6c-0.2,0.1-0.5,0-0.6-0.2c-0.4-0.6-0.9-1.2-1.4-1.7
				c-0.2-0.2-0.5-0.2-0.7,0c-0.4,0.3-0.7,0.5-1.1,0.8c-0.9,0.7-1.9,1.4-2.9,2.1c-0.2,0.2-0.3,0.5-0.2,0.7c0.6,1.1,1.5,2.4,2.7,2.7
				C439.8,87.8,440.1,87.7,440.5,87.4z"/>
		</g>
	</g>
	<g>
		<g>
			<path class="st21" d="M300.7,67.2c-0.2-4.2-0.3-8.3-0.5-12.6c0.1-4.1,2.2-7.9,2.9-11.9c0.1-0.4,0.1-0.8-0.1-1.2
				c-0.2-0.4-0.8-0.6-1.1-0.3c-0.6,1.1-1.1,2.9-2.6,3.2c-0.9-3.1,2.5-6.6,0.4-9.2c-1.6-1.9-5-1.3-6.4,0.6c-1.4,1.9-1.4,4.4-1.6,6.8
				c-0.5,7.8-0.9,16.4-2.9,24.7H300.7z"/>
			<g>
				<g>
					<rect x="271.2" y="13.1" class="st22" width="49" height="30.9"/>
					<path class="st0" d="M320.3,13.1c0,0-22.7,14-24.5,15.4l-24.5-15.4"/>
				</g>
			</g>
			<path class="st21" d="M300.3,54.6c0.1-2.3,0.7-4.5,1.4-6.6c0.3-1.1,0.7-2.2,1-3.3c0.1-0.4,0.3-0.9,0.4-1.3c0.1-0.5,0.1-1,0.4-1.4
				c0.1-0.1,0.2-0.3,0.2-0.4c0.1-0.1,0.1-0.3,0-0.5c-0.2-0.2-0.5-0.2-0.7-0.2c-0.4,0.1-0.7,0.4-1,0.7c-0.8,1-1,2.4-2.5,2.7"/>
		</g>
		<g>
			<path id="XMLID_6_" d="M346.4,165.3l14,1.3c16.1,1.1,33.6-1.3,33.6-1.3l6.2,137.2h-10.8l-0.5-6.2c-1.3-23.9-14.8-86.6-16.9-93.9
				l-1.6-5.6c-2.2,7-17.5,75.6-18.8,99.5l-0.5,6.2h-10.8L346.4,165.3z"/>
			<g>
				<path id="XMLID_5_" class="st23" d="M340,302.5c-3.5,2.2-8.3,4.8-11.6,7.5c-0.8,0.8-1.6,1.6-1.6,2.7c0.3,1.1,1.3,1.9,2.4,2.2
					c1.9,0.5,3.5,0.3,5.4,0.3c4.3-0.3,8.9-0.5,12.9-1.9c0.8-0.3,1.9-0.8,2.4-1.6c0.8-1.1,0.8-2.7,0.8-4.3s0.3-3.2,0.3-5.1"/>
				<polygon points="326.9,313 350.6,310 351,314.5 327.1,316 				"/>
			</g>
			<g>
				<path id="XMLID_4_" class="st23" d="M389.4,302.3c0,1.9,0.3,3.5,0.3,5.1s0,3.2,0.8,4.3c0.5,0.8,1.6,1.3,2.4,1.6
					c4,1.3,8.6,1.6,12.9,1.9c1.9,0,3.5,0.3,5.4-0.3c1.1-0.3,2.2-1.1,2.4-2.2c0-1.1-0.8-1.9-1.6-2.7c-3.2-2.7-8.1-5.4-11.6-7.5"/>
				<polygon points="413.5,313 389.9,310 389.5,314.5 413.3,316 				"/>
			</g>
			<g>
				<path class="st24" d="M373.4,85.6c0,0,0,4.8,1.9,6.7s4,2.7,4,2.7s-4,8.9-13.5,7.8c-9.4-1.1-10.8-7-10.8-7s8.9-1.1,10-9.4
					s2.4-8.3,2.4-8.3L373.4,85.6z"/>
				<path class="st21" d="M380.1,64.6c0,0-0.5,11-5.4,19.4c-5.4,8.3-11,3.8-13.5-0.5c-2.4-4.3-8.9-18.8-7.3-21.8
					c1.6-3.8,19.9-5.4,19.9-5.4L380.1,64.6z"/>
				<path class="st21" d="M356.2,70.8c0,0-2.4-1.9-2.4,0c0,1.9,1.6,5.4,3.2,5.4c1.6,0.5,1.6-0.5,1.1-1.9
					C357,72.7,356.2,70.8,356.2,70.8z"/>
				<path class="st21" d="M379.3,74.9c-0.5,0.5-1.6,0.5-1.6-0.5c0-1.9,1.6-5.4,3.2-5.4c1.6-0.5,1.6,0.5,1.1,1.9c0,0.5,0,1.1-0.5,1.6
					C380.7,73.2,379.6,74.9,379.3,74.9z"/>
				<path d="M379.6,69.5l0.5-3.2c0,0-3.2,0.5-6.2-3.2c0,0-6.7,1.6-12.1,1.1c-5.6-0.5-7.8-1.9-7.8-1.9s1.1,6.2,1.9,8.3
					c0,0-2.4-1.1-3.8-4.3c-1.1-3.2-1.1-6.2-1.1-6.2s-3.8-3.2-4.8-6.2c0,0,10-2.4,13.2-4.3c3.2-1.9,4.8-3.2,4.8-3.2s4.8-2.4,9.4,1.1
					c4.6,3.5,7.8,5.6,7.8,12.1C381.2,58.7,386,65.2,379.6,69.5z"/>
			</g>
			<polygon class="st21" points="405.8,173 407.1,177.6 400.6,182.9 395.6,180.7 394.3,175.2 398.2,173.7 398.1,172.5 399.1,171.1 
							"/>
			<path class="st25" d="M389.7,97.7"/>
			<path d="M394.3,167.2"/>
			<path class="st26" d="M431.2,130.2l-29.1-30.8c-3.4-3.6-6.2-3.6-8.7-4c-2.4-0.5-5.4-1.1-7.8-1.3c-15.6-2.4-39,1.3-39,1.3
				c-0.4,0.1-0.9,0.1-1.3,0.2c0,0,0,0,0,0c-0.2,0.1-0.4,0.1-0.6,0.1c-0.6,0.1-1.3,0.2-2,0.5c-7.6,1.6-16.2,1.7-23.7,1.3
				c-4-0.2-9.6-0.7-12.2-3.8c-5.4-6.4-6.1-23.7-5.3-31.3c-5.5,0.2-7.4-0.1-12.9-0.7c0,12.3,0.3,22.4,1.5,33.8
				c1.1,10.5,11.1,16.3,21.8,18.8c5.9,1.4,32.4,4.3,32.4,4.3v1.6c0.3,14.8,0.5,28.2,1.1,43.3c0,1.1,0.3,2.2,1.1,2.4
				c0,0,7.5,1.3,25,1.3c0,0,21.8,0,22.6-1.9c0.3-0.5,0.3-1.1,0.3-1.6c0.3-3.5,0.3-6.7,0.5-10.2c0.3-4.3,0.3-8.9,0.5-13.2
				c0.3-8.6,0.5-21.8,0.5-21.8l24.8,26.3l-21.1,26.7l8.4,5.6l27.5-28.9C441.1,140,431.2,130.2,431.2,130.2z"/>
		</g>
	</g>
</g>
</svg>
