<?xml version="1.0" encoding="utf-8"?>
<!-- Generator: Adobe Illustrator 24.1.0, SVG Export Plug-In . SVG Version: 6.00 Build 0)  -->
<svg version="1.1" id="Layer_1" xmlns="http://www.w3.org/2000/svg" xmlns:xlink="http://www.w3.org/1999/xlink" x="0px" y="0px"
	 viewBox="0 0 500 450" style="enable-background:new 0 0 500 450;" xml:space="preserve">
<style type="text/css">
	.st0{opacity:0.2;}
	.st1{fill:#91B3FA;}
	.st2{opacity:0.1;}
	.st3{fill:url(#SVGID_1_);}
	.st4{fill:#FFFFFF;}
	.st5{fill:#DAE3F7;}
	.st6{fill:none;stroke:#3054D4;stroke-width:0.5;stroke-miterlimit:10;}
	.st7{fill:none;stroke:#3054D4;stroke-width:0.5;stroke-miterlimit:10;stroke-dasharray:4.0066,4.0066;}
	.st8{fill:none;stroke:#3054D4;stroke-width:0.5;stroke-miterlimit:10;stroke-dasharray:4.1009,4.1009;}
	.st9{fill:url(#SVGID_2_);}
	.st10{fill:url(#SVGID_3_);}
	.st11{fill:url(#SVGID_4_);}
	.st12{fill:url(#SVGID_5_);}
	.st13{fill:url(#SVGID_6_);}
	.st14{fill:#FFB48F;}
	.st15{fill:url(#SVGID_7_);}
	.st16{fill:none;stroke:#FFFFFF;stroke-width:0.5;stroke-miterlimit:10;}
	.st17{fill:url(#SVGID_8_);}
	.st18{fill:#F8BE99;}
	.st19{fill:#DE151F;}
	.st20{fill:#1B3D98;}
	.st21{fill:url(#SVGID_9_);}
	.st22{fill:url(#SVGID_10_);}
	.st23{fill:url(#SVGID_11_);}
	.st24{fill:url(#SVGID_12_);}
	.st25{fill:url(#SVGID_13_);}
	.st26{fill:url(#SVGID_14_);}
	.st27{fill:url(#SVGID_15_);}
	.st28{fill:url(#SVGID_16_);}
	.st29{fill:url(#SVGID_17_);}
	.st30{fill:url(#SVGID_18_);}
	.st31{fill:url(#SVGID_19_);}
	.st32{fill:url(#SVGID_20_);}
	.st33{fill:url(#SVGID_21_);}
	.st34{fill:url(#SVGID_22_);}
	.st35{fill:#F5BE42;}
	.st36{fill:url(#SVGID_23_);}
	.st37{fill:#F39F11;}
	.st38{fill:url(#SVGID_24_);}
</style>
<g>
	<g class="st0">
		<path class="st1" d="M295.7,378.7c23.4-0.4,48.9-9.5,63.7-17.5c68-36.4,98.6-111.1,97.6-180.8C456,110.6,410.2,42,344,19.9
			c-14.3-4.8-29.4-7.4-44.4-7c-39.5,1.2-75.6,23.9-102.7,52.7C184.8,78.5,174,92.9,160,103.8c-17.3,13.6-38.6,21-57.9,31.6
			c-32.5,17.8-61.4,47.8-64.9,84.7c-3.2,34.7,17.1,68.2,44.4,90c27.2,21.7,60.7,33.8,93.5,45.6C201.3,364.9,267.6,379.7,295.7,378.7
			"/>
	</g>
	<g class="st2">
		<path class="st1" d="M383.5,419.1c25.2-8.4,49.3-26.2,62.4-39.2c60.1-59.6,65.5-144.6,38.7-213.9
			C457.7,96.6,382.8,43.7,303.1,44.3c-17.2,0.1-34.5,2.6-50.6,8.2c-42.2,14.7-73,49.7-91.5,87.7c-8.3,17-14.7,35-25.8,50.7
			c-13.8,19.5-33.9,34.2-50.9,51.3c-28.6,28.8-48.8,68.7-38.9,106.7c9.3,35.8,43.7,62.3,81.2,74.7c37.5,12.4,78.2,13.1,118,13.6
			C276.3,437.5,353.5,429.7,383.5,419.1"/>
	</g>
</g>
<g>
	<linearGradient id="SVGID_1_" gradientUnits="userSpaceOnUse" x1="4.25" y1="207.3859" x2="422.7617" y2="207.3859">
		<stop  offset="0" style="stop-color:#062684"/>
		<stop  offset="1" style="stop-color:#3054D4"/>
	</linearGradient>
	<path class="st3" d="M4.2,327.4v-240c0-5.5,4.5-10,10-10h398.5c5.5,0,10,4.5,10,10v240c0,5.5-4.5,10-10,10H14.2
		C8.7,337.4,4.2,332.9,4.2,327.4z"/>
	<path class="st4" d="M400.1,324.7H26.9c-5.5,0-10-4.5-10-10V100.1c0-5.5,4.5-10,10-10h373.1c5.5,0,10,4.5,10,10v214.6
		C410.1,320.2,405.6,324.7,400.1,324.7z"/>
	<g>
		<path class="st5" d="M227.1,222.3h-97.2c-0.9,0-1.6,0.7-1.6,1.6v5.5c0,0.9,0.7,1.6,1.6,1.6h97.2c0.9,0,1.6-0.7,1.6-1.6v-5.5
			C228.7,223,228,222.3,227.1,222.3z"/>
		<path class="st5" d="M89.5,264.5H51.7c-0.6,0-1,0.4-1,1v6.7c0,0.6,0.4,1,1,1h37.7c0.6,0,1-0.4,1-1v-6.7
			C90.5,265,90,264.5,89.5,264.5z"/>
		<path class="st5" d="M87.3,286.9H41.8c-0.6,0-1.1,0.5-1.1,1.1v6.5c0,0.6,0.5,1.1,1.1,1.1h45.5c0.6,0,1.1-0.5,1.1-1.1V288
			C88.4,287.4,87.9,286.9,87.3,286.9z"/>
		<path class="st5" d="M211.8,286.9H103.6c-0.9,0-1.7,0.8-1.7,1.7v5.3c0,0.9,0.8,1.7,1.7,1.7h108.3c0.9,0,1.7-0.8,1.7-1.7v-5.3
			C213.5,287.7,212.8,286.9,211.8,286.9z"/>
		<path class="st5" d="M221.3,264.5H103.6c-1,0-1.7,0.8-1.7,1.7v5.2c0,1,0.8,1.7,1.7,1.7h117.6c1,0,1.7-0.8,1.7-1.7v-5.2
			C223,265.3,222.2,264.5,221.3,264.5z"/>
		<path class="st5" d="M306.8,222.3H258c-0.6,0-1.1,0.5-1.1,1.1v6.4c0,0.6,0.5,1.1,1.1,1.1h48.8c0.6,0,1.1-0.5,1.1-1.1v-6.4
			C307.9,222.8,307.4,222.3,306.8,222.3z"/>
		<g>
			<g>
				<polyline class="st6" points="128.9,186.8 128.9,188.8 126.9,188.8 				"/>
				<line class="st7" x1="122.9" y1="188.8" x2="36.8" y2="188.8"/>
				<polyline class="st6" points="34.8,188.8 32.8,188.8 32.8,186.8 				"/>
				<line class="st8" x1="32.8" y1="182.7" x2="32.8" y2="119.1"/>
				<polyline class="st6" points="32.8,117 32.8,115 34.8,115 				"/>
				<line class="st7" x1="38.8" y1="115" x2="124.9" y2="115"/>
				<polyline class="st6" points="126.9,115 128.9,115 128.9,117 				"/>
				<line class="st8" x1="128.9" y1="121.1" x2="128.9" y2="184.7"/>
			</g>
		</g>
		<linearGradient id="SVGID_2_" gradientUnits="userSpaceOnUse" x1="146.5204" y1="119.2012" x2="248.3775" y2="119.2012">
			<stop  offset="0" style="stop-color:#3054D4"/>
			<stop  offset="1" style="stop-color:#062684"/>
		</linearGradient>
		<path class="st9" d="M246.4,114.9h-97.9c-1.1,0-2,0.9-2,2v4.7c0,1.1,0.9,2,2,2h97.9c1.1,0,2-0.9,2-2v-4.7
			C248.4,115.8,247.5,114.9,246.4,114.9z"/>
		<path class="st5" d="M310.4,136.4H155.5c-1.1,0-2,0.9-2,2v4.7c0,1.1,0.9,2,2,2h154.9c1.1,0,2-0.9,2-2v-4.7
			C312.4,137.3,311.5,136.4,310.4,136.4z"/>
		<path class="st5" d="M248,157.6h-92.9c-0.9,0-1.6,0.7-1.6,1.6v5.5c0,0.9,0.7,1.6,1.6,1.6H248c0.9,0,1.6-0.7,1.6-1.6v-5.5
			C249.6,158.3,248.9,157.6,248,157.6z"/>
		<linearGradient id="SVGID_3_" gradientUnits="userSpaceOnUse" x1="135.5204" y1="183.6447" x2="205.9167" y2="183.6447">
			<stop  offset="0" style="stop-color:#3054D4"/>
			<stop  offset="1" style="stop-color:#062684"/>
		</linearGradient>
		<path class="st10" d="M204.6,179.3h-67.7c-0.7,0-1.3,0.6-1.3,1.3v6c0,0.7,0.6,1.3,1.3,1.3h67.7c0.7,0,1.3-0.6,1.3-1.3v-6
			C205.9,179.9,205.3,179.3,204.6,179.3z"/>
		<linearGradient id="SVGID_4_" gradientUnits="userSpaceOnUse" x1="119.5205" y1="205.0553" x2="265.0661" y2="205.0553">
			<stop  offset="0" style="stop-color:#3054D4"/>
			<stop  offset="1" style="stop-color:#062684"/>
		</linearGradient>
		<path class="st11" d="M263.2,200.7H121.4c-1.1,0-1.9,0.9-1.9,1.9v4.8c0,1.1,0.9,1.9,1.9,1.9h141.7c1.1,0,1.9-0.9,1.9-1.9v-4.8
			C265.1,201.6,264.2,200.7,263.2,200.7z"/>
		<linearGradient id="SVGID_5_" gradientUnits="userSpaceOnUse" x1="129.5204" y1="247.8085" x2="275.0661" y2="247.8085">
			<stop  offset="0" style="stop-color:#3054D4"/>
			<stop  offset="1" style="stop-color:#062684"/>
		</linearGradient>
		<path class="st12" d="M273.2,243.5H131.4c-1.1,0-1.9,0.9-1.9,1.9v4.8c0,1.1,0.9,1.9,1.9,1.9h141.7c1.1,0,1.9-0.9,1.9-1.9v-4.8
			C275.1,244.3,274.2,243.5,273.2,243.5z"/>
		<path class="st5" d="M375.3,200.7h-81.8c-0.8,0-1.5,0.7-1.5,1.5v5.7c0,0.8,0.7,1.5,1.5,1.5h81.8c0.8,0,1.5-0.7,1.5-1.5v-5.7
			C376.8,201.4,376.1,200.7,375.3,200.7z"/>
		<path class="st5" d="M283.8,179.3H233c-0.6,0-1.2,0.5-1.2,1.2v6.3c0,0.6,0.5,1.2,1.2,1.2h50.8c0.6,0,1.2-0.5,1.2-1.2v-6.3
			C284.9,179.8,284.4,179.3,283.8,179.3z"/>
		<linearGradient id="SVGID_6_" gradientUnits="userSpaceOnUse" x1="273.8473" y1="161.9212" x2="374.8086" y2="161.9212">
			<stop  offset="0" style="stop-color:#3054D4"/>
			<stop  offset="1" style="stop-color:#062684"/>
		</linearGradient>
		<path class="st13" d="M373.2,157.6h-97.8c-0.9,0-1.6,0.7-1.6,1.6v5.5c0,0.9,0.7,1.6,1.6,1.6h97.8c0.9,0,1.6-0.7,1.6-1.6v-5.5
			C374.8,158.3,374.1,157.6,373.2,157.6z"/>
		<path class="st5" d="M340.9,114.9h-64.3c-1.1,0-2,0.9-2,2v4.7c0,1.1,0.9,2,2,2h64.3c1.1,0,2-0.9,2-2v-4.7
			C342.9,115.8,342,114.9,340.9,114.9z"/>
	</g>
</g>
<g>
	<path class="st14" d="M39.6,219.8c0,0,14.4,18.4-2,37.1l-6.2-0.6c0,0,11.9-19.1,6.6-34.3l-8.7,0.6l-4.8-3.2L39.6,219.8z"/>
	<g>
		<linearGradient id="SVGID_7_" gradientUnits="userSpaceOnUse" x1="0" y1="184.1662" x2="96.1511" y2="184.1662">
			<stop  offset="0" style="stop-color:#002FF5"/>
			<stop  offset="0.1894" style="stop-color:#003FF5"/>
			<stop  offset="0.5594" style="stop-color:#0069F4"/>
			<stop  offset="1" style="stop-color:#00A2F4"/>
		</linearGradient>
		<rect y="147.3" class="st15" width="96.2" height="73.7"/>
		
			<rect x="14.4" y="139.3" transform="matrix(-1.836970e-16 1 -1 -1.836970e-16 232.2418 136.0906)" class="st16" width="67.3" height="89.7"/>
		<g>
			<path class="st4" d="M80,210.4H21.4c-1.8,0-3-2-2-3.6l23.2-39.4c1-1.6,3.4-1.5,4.2,0.2l11.2,24.5c0.7,1.5,2.6,1.8,3.7,0.8
				l4.5-4.1c1.1-1,2.7-0.8,3.5,0.4l12.2,17.5C83,208.3,81.9,210.4,80,210.4z"/>
			
				<ellipse transform="matrix(0.2508 -0.968 0.968 0.2508 -144.3331 146.1056)" class="st4" cx="22.2" cy="166.3" rx="8.4" ry="8.4"/>
		</g>
	</g>
	
		<linearGradient id="SVGID_8_" gradientUnits="userSpaceOnUse" x1="92.2806" y1="249.2126" x2="100.0003" y2="249.2126" gradientTransform="matrix(-1 0 0 1 133.3529 0)">
		<stop  offset="0" style="stop-color:#FEBBBA"/>
		<stop  offset="1" style="stop-color:#FF928E"/>
	</linearGradient>
	<path class="st17" d="M41.1,252.3c0-0.1-2.6-7.8-2.6-7.8l-3.7,0.3l-1.5,8.8C33.4,253.7,39.2,254.8,41.1,252.3z"/>
	<path class="st18" d="M35.7,232.2c0.2,0.2,7.9,3.3,6.3,11.3c-0.1,0.5-0.4,0.9-0.9,1.1c-1.1,0.5-3.6,1.4-6.5,1.1
		c-4-0.4-6.7-7.4-6.6-9.5C28.2,234.2,33.2,230.7,35.7,232.2z"/>
	<g>
		<path class="st18" d="M31.7,310c0,0-11.7,25.4-17.8,35.9c0,0-1.2,6.6,0,8.7l1,0.5l-4.8-0.1c0,0-0.4-8.9-0.1-9.4
			c0.3-0.5,1-0.5,1-0.5s2.1-16.4,8.1-19.9l5.8-20L31.7,310z"/>
		<path d="M17,356.3c0,0.1-3.8,0.1-5.8,0c-0.8,0-1.4-0.5-1.6-1.3l-1.6-8.1c-0.1-0.8,0.3-1.5,1.1-1.7L10,345c0,0,1.2,1.7,0.8,3.3
			c-0.4,1.6-0.7,5.7,0.2,6.2c1,0.5,3.8,0.6,3.8,0.6S16.9,355.3,17,356.3z"/>
		<path d="M42.7,356.5c0.4,0.2,0.2,0.8-0.2,0.8c-3.4,0-11.1-0.1-11.8-0.4c-0.9-0.4,0.3-3.5,1.6-4.6l7,2.3L42.7,356.5z"/>
		<path class="st18" d="M44.9,308.4c0,0-7.5,36.4-9.7,43.5l5,3.2c0,0-2.5-0.4-4.4-0.6c-1.9-0.1-3.6-2.3-3.6-2.3l0.6-1
			c0,0,1.9-36.2,1.4-40.3L44.9,308.4z"/>
		<path class="st18" d="M63.6,223.4c0,0,1,19-16.2,28.6l4.2,9.5c0,0,15.6-9.4,15-35.2c0-0.7,0.3-1.5,0.7-2l3.3-3.9
			c1.3-1.5,1.7-3.5,1.3-5.3l-0.4-1.7c-0.1-0.6-0.8-0.9-1.3-0.6l-0.3,0.2c-1.1,0.6-2,1.6-2.5,2.8l-1.6,3.6c-0.6,1.4-2.1,1.3-3.5,1.1
			l-2.4,0.6L63.6,223.4z"/>
		<path class="st19" d="M48,250.6c-2.9,0.8-12.7,3.4-18.8,3.3L33,275l-0.3,3.5l12.2-0.1c0,0,3.4-8,6.2-12c0.8-1.2,0.2-2.5-0.2-3.8
			l0.6-0.4c0.6-0.4,0.9-1.2,0.7-1.9l-3-9.1C48.9,250.8,48.4,250.5,48,250.6z"/>
		<path class="st20" d="M32.7,278.5l0.1-2.3c0,0,9.9,1.8,13.1,0.4l-0.2,2.1c0,0,3.5,10.3-1.7,34.5c0,0-11.2,3.2-20.4-4.4
			C23.4,308.8,25.5,280.4,32.7,278.5z"/>
		<path d="M33.4,229.1c0.2,0,4.4,1.5,2.3,4.6c-2.1,3.1-2.9,4.9-1.9,6.2c0.9,1.2,2.9,0.5,2.7,3.1c0,0.5,0.2,1,0.6,1.3
			c1.9,1.3,6.5,5.2,1.9,10.8c-0.4,0.5-0.4,1.1-0.2,1.6c1.3,2.4,4.2,9.4-6,13.4c-10.1,3.9-13.7-2.7-14.7-5.4
			c-0.2-0.6-0.8-0.9-1.4-0.9c-1.1,0.1-2.7-0.1-2.6-1.6c0-0.9,0.6-1.7,1.3-2.3c0.7-0.6,0.5-1.8-0.3-2.2c-0.6-0.3-1.1-0.9-1.4-1.7
			c-0.6-2.3,0.6-9,7.1-10.2c0.5-0.1,1.1-0.6,1.2-1.1c0,0,0,0,0,0c0.1-0.5-0.1-1.1-0.5-1.4c-1-0.8-2.4-2.3-1.3-4.7
			c1-2.2,2.8-2.9,4.2-3.1c0.8-0.1,1.3-0.9,1.2-1.7C25.1,231.6,25.5,228.1,33.4,229.1z"/>
	</g>
</g>
<g>
	<g class="st2">
		<linearGradient id="SVGID_9_" gradientUnits="userSpaceOnUse" x1="303.6705" y1="283.2066" x2="305.3282" y2="283.2066">
			<stop  offset="0" style="stop-color:#002FF5"/>
			<stop  offset="0.1894" style="stop-color:#003FF5"/>
			<stop  offset="0.5594" style="stop-color:#0069F4"/>
			<stop  offset="1" style="stop-color:#00A2F4"/>
		</linearGradient>
		<path class="st21" d="M304.5,284.5c0.3,0,0.6-0.3,0.6-0.6c0.1-0.4,0.1-0.8,0.2-1.2c0.1-0.4-0.2-0.8-0.6-0.8
			c-0.4-0.1-0.8,0.2-0.8,0.6c-0.1,0.4-0.1,0.8-0.2,1.2c-0.1,0.4,0.2,0.8,0.6,0.9C304.4,284.5,304.4,284.5,304.5,284.5z"/>
		<linearGradient id="SVGID_10_" gradientUnits="userSpaceOnUse" x1="239.1421" y1="257.2762" x2="305.6748" y2="257.2762">
			<stop  offset="0" style="stop-color:#002FF5"/>
			<stop  offset="0.1894" style="stop-color:#003FF5"/>
			<stop  offset="0.5594" style="stop-color:#0069F4"/>
			<stop  offset="1" style="stop-color:#00A2F4"/>
		</linearGradient>
		<path class="st22" d="M304.9,279.4c-0.4,0-0.7-0.4-0.7-0.8c0-0.8,0-1.6,0-2.4c0-0.4,0.3-0.8,0.7-0.8c0.4,0,0.8,0.3,0.8,0.7
			c0,0.8,0,1.7,0,2.5c0,0.4-0.3,0.7-0.6,0.7C305,279.4,304.9,279.4,304.9,279.4z M304.7,273.1c-0.4,0-0.8-0.2-0.8-0.6l0-0.3
			c-0.1-0.7-0.2-1.4-0.3-2.1c-0.1-0.4,0.2-0.8,0.6-0.9c0.4-0.1,0.8,0.2,0.9,0.6c0.1,0.7,0.2,1.5,0.3,2.2l0,0.3
			C305.4,272.6,305.1,273,304.7,273.1C304.7,273.1,304.7,273.1,304.7,273.1z M302.7,266.3c-0.2-0.8-0.5-1.5-0.7-2.3
			c-0.1-0.4,0.1-0.8,0.5-0.9c0.4-0.1,0.8,0.1,0.9,0.5c0.3,0.8,0.5,1.6,0.7,2.4c0.1,0.4-0.1,0.8-0.5,0.9c0,0-0.1,0-0.1,0
			C303.1,266.9,302.8,266.6,302.7,266.3z M300.5,260.4c-0.3-0.7-0.7-1.4-1-2.1c-0.2-0.4-0.1-0.8,0.3-1c0.4-0.2,0.8-0.1,1,0.3
			c0.4,0.7,0.7,1.5,1.1,2.2c0.2,0.4,0,0.8-0.4,1c-0.1,0-0.1,0.1-0.2,0.1C301,260.9,300.7,260.7,300.5,260.4z M297.5,254.9
			c-0.4-0.7-0.9-1.3-1.4-2c-0.2-0.3-0.2-0.8,0.2-1c0.3-0.2,0.8-0.2,1,0.2c0.5,0.7,1,1.3,1.4,2c0.2,0.3,0.1,0.8-0.2,1
			c-0.1,0.1-0.2,0.1-0.3,0.1C298,255.3,297.7,255.2,297.5,254.9z M293.7,250c-0.5-0.6-1.1-1.2-1.7-1.7c-0.3-0.3-0.3-0.8,0-1.1
			c0.3-0.3,0.8-0.3,1.1,0c0.6,0.6,1.2,1.2,1.7,1.8c0.3,0.3,0.3,0.8-0.1,1c-0.1,0.1-0.3,0.2-0.4,0.2
			C294.1,250.3,293.9,250.2,293.7,250z M289.2,245.7c-0.6-0.5-1.3-1-1.9-1.4c-0.3-0.2-0.4-0.7-0.2-1c0.2-0.3,0.7-0.4,1-0.2
			c0.7,0.5,1.3,1,2,1.5c0.3,0.3,0.4,0.7,0.1,1c-0.1,0.2-0.3,0.2-0.5,0.3C289.5,245.9,289.3,245.8,289.2,245.7z M284,242.1
			c-0.7-0.4-1.4-0.8-2.1-1.1c-0.4-0.2-0.5-0.6-0.3-1c0.2-0.4,0.6-0.5,1-0.3c0.7,0.4,1.5,0.8,2.2,1.2c0.4,0.2,0.5,0.7,0.3,1
			c-0.1,0.2-0.3,0.3-0.5,0.4C284.3,242.3,284.2,242.2,284,242.1z M278.4,239.4c-0.7-0.3-1.5-0.6-2.2-0.8c-0.4-0.1-0.6-0.5-0.5-0.9
			c0.1-0.4,0.5-0.6,0.9-0.5c0.8,0.3,1.6,0.5,2.3,0.8c0.4,0.2,0.6,0.6,0.4,1c-0.1,0.3-0.3,0.4-0.6,0.5
			C278.6,239.5,278.5,239.5,278.4,239.4z M239.3,243.7c-0.2-0.3-0.2-0.8,0.2-1c0.7-0.5,1.4-0.9,2.1-1.4c0.3-0.2,0.8-0.1,1,0.2
			c0.2,0.3,0.1,0.8-0.2,1c-0.7,0.4-1.3,0.9-2,1.3c-0.1,0.1-0.2,0.1-0.3,0.1C239.7,244.1,239.4,244,239.3,243.7z M272.4,237.6
			c-0.8-0.2-1.6-0.3-2.3-0.5c-0.4-0.1-0.7-0.4-0.6-0.9c0.1-0.4,0.4-0.7,0.9-0.6c0.8,0.1,1.6,0.3,2.4,0.5c0.4,0.1,0.7,0.5,0.6,0.9
			c-0.1,0.3-0.3,0.5-0.6,0.6C272.6,237.6,272.5,237.6,272.4,237.6z M244.7,240.4c-0.2-0.4,0-0.8,0.3-1c0.7-0.4,1.5-0.7,2.3-1
			c0.4-0.2,0.8,0,1,0.4c0.2,0.4,0,0.8-0.4,1c-0.7,0.3-1.5,0.6-2.2,1c-0.1,0-0.2,0.1-0.2,0.1C245.2,240.8,244.8,240.7,244.7,240.4z
			 M266.2,236.7c-0.8-0.1-1.6-0.1-2.4-0.1c-0.4,0-0.7-0.3-0.7-0.7c0-0.4,0.3-0.7,0.7-0.7c0.8,0,1.6,0,2.5,0.1c0.4,0,0.7,0.4,0.7,0.8
			c0,0.4-0.3,0.6-0.6,0.7C266.3,236.7,266.3,236.7,266.2,236.7z M250.6,237.9c-0.1-0.4,0.1-0.8,0.5-0.9c0.8-0.2,1.6-0.5,2.4-0.7
			c0.4-0.1,0.8,0.1,0.9,0.5c0.1,0.4-0.1,0.8-0.5,0.9c-0.8,0.2-1.5,0.4-2.3,0.6c0,0-0.1,0-0.1,0C251,238.5,250.7,238.3,250.6,237.9z
			 M260,236.8c-0.8,0.1-1.6,0.2-2.4,0.3c-0.4,0.1-0.8-0.2-0.8-0.6c-0.1-0.4,0.2-0.8,0.6-0.8c0.8-0.1,1.6-0.2,2.5-0.3
			c0.4,0,0.8,0.3,0.8,0.7C260.7,236.4,260.4,236.7,260,236.8C260,236.8,260,236.8,260,236.8z"/>
		<linearGradient id="SVGID_11_" gradientUnits="userSpaceOnUse" x1="235.1039" y1="246.1098" x2="237.4839" y2="246.1098">
			<stop  offset="0" style="stop-color:#002FF5"/>
			<stop  offset="0.1894" style="stop-color:#003FF5"/>
			<stop  offset="0.5594" style="stop-color:#0069F4"/>
			<stop  offset="1" style="stop-color:#00A2F4"/>
		</linearGradient>
		<path class="st23" d="M235.9,247.2c0.1,0,0.3-0.1,0.4-0.2c0.3-0.3,0.6-0.5,0.9-0.8c0.3-0.3,0.4-0.7,0.1-1c-0.3-0.3-0.7-0.4-1-0.1
			c-0.3,0.3-0.6,0.5-0.9,0.8c-0.3,0.3-0.3,0.7-0.1,1C235.5,247.2,235.7,247.3,235.9,247.2z"/>
	</g>
	<g class="st2">
		<linearGradient id="SVGID_12_" gradientUnits="userSpaceOnUse" x1="221.4595" y1="274.7703" x2="223.0163" y2="274.7703">
			<stop  offset="0" style="stop-color:#002FF5"/>
			<stop  offset="0.1894" style="stop-color:#003FF5"/>
			<stop  offset="0.5594" style="stop-color:#0069F4"/>
			<stop  offset="1" style="stop-color:#00A2F4"/>
		</linearGradient>
		<path class="st24" d="M222.3,276.1c0.4,0,0.6-0.3,0.6-0.7c0-0.4,0-0.8,0.1-1.2c0-0.4-0.3-0.8-0.7-0.8c-0.4,0-0.8,0.3-0.8,0.7
			c0,0.4-0.1,0.8-0.1,1.2c0,0.4,0.3,0.8,0.7,0.8C222.2,276.1,222.3,276.1,222.3,276.1z"/>
		<linearGradient id="SVGID_13_" gradientUnits="userSpaceOnUse" x1="221.469" y1="298.9383" x2="289.5509" y2="298.9383">
			<stop  offset="0" style="stop-color:#002FF5"/>
			<stop  offset="0.1894" style="stop-color:#003FF5"/>
			<stop  offset="0.5594" style="stop-color:#0069F4"/>
			<stop  offset="1" style="stop-color:#00A2F4"/>
		</linearGradient>
		<path class="st25" d="M268.8,318.3c-0.1-0.4,0.2-0.8,0.6-0.8c0.7-0.1,1.4-0.2,2.1-0.4l0.2-0.1c0.4-0.1,0.8,0.2,0.9,0.6
			c0.1,0.4-0.2,0.8-0.6,0.9l-0.3,0.1c-0.7,0.1-1.4,0.3-2.1,0.4c0,0,0,0,0,0C269.2,319,268.8,318.7,268.8,318.3z M265.7,319.3
			c-0.8,0-1.6,0.1-2.4,0.1c-0.4,0-0.7-0.3-0.7-0.7c0-0.4,0.3-0.7,0.7-0.7c0.8,0,1.6,0,2.3-0.1c0.4,0,0.8,0.3,0.8,0.7
			C266.4,318.9,266.1,319.3,265.7,319.3C265.7,319.3,265.7,319.3,265.7,319.3z M274.9,317c-0.1-0.4,0.1-0.8,0.5-0.9
			c0.7-0.2,1.5-0.5,2.2-0.7c0.4-0.1,0.8,0.1,1,0.4c0.1,0.4-0.1,0.8-0.4,1c-0.8,0.3-1.5,0.5-2.3,0.8c0,0-0.1,0-0.1,0
			C275.3,317.6,275,317.4,274.9,317z M259.3,319.2c-0.8-0.1-1.6-0.2-2.4-0.3c-0.4-0.1-0.7-0.4-0.6-0.9c0.1-0.4,0.4-0.7,0.9-0.6
			c0.8,0.1,1.6,0.2,2.3,0.3c0.4,0,0.7,0.4,0.7,0.8c0,0.4-0.3,0.6-0.6,0.7C259.4,319.2,259.4,319.2,259.3,319.2z M280.8,314.9
			c-0.2-0.4,0-0.8,0.3-1c0.7-0.3,1.4-0.7,2.1-1.1c0.4-0.2,0.8-0.1,1,0.3c0.2,0.4,0.1,0.8-0.3,1c-0.7,0.4-1.4,0.8-2.2,1.1
			c-0.1,0-0.2,0.1-0.2,0.1C281.2,315.3,280.9,315.2,280.8,314.9z M253,318c-0.8-0.2-1.6-0.4-2.3-0.7c-0.4-0.1-0.6-0.5-0.5-0.9
			c0.1-0.4,0.5-0.6,0.9-0.5c0.7,0.2,1.5,0.5,2.2,0.7c0.4,0.1,0.6,0.5,0.5,0.9c-0.1,0.3-0.3,0.5-0.6,0.6
			C253.2,318.1,253.1,318.1,253,318z M286.3,311.9c-0.2-0.3-0.1-0.8,0.2-1c0.6-0.4,1.3-0.9,1.9-1.4c0.3-0.3,0.8-0.2,1,0.1
			c0.3,0.3,0.2,0.8-0.1,1c-0.6,0.5-1.3,1-2,1.4c-0.1,0.1-0.2,0.1-0.3,0.1C286.7,312.2,286.4,312.1,286.3,311.9z M247,316
			c-0.7-0.3-1.5-0.7-2.2-1c-0.4-0.2-0.5-0.6-0.3-1c0.2-0.4,0.6-0.5,1-0.3c0.7,0.3,1.4,0.7,2.1,1c0.4,0.2,0.6,0.6,0.4,1
			c-0.1,0.3-0.3,0.4-0.6,0.4C247.2,316,247.1,316,247,316z M241.3,313c-0.7-0.4-1.4-0.9-2-1.3c-0.3-0.2-0.4-0.7-0.2-1
			c0.2-0.3,0.7-0.4,1-0.2c0.6,0.4,1.3,0.9,2,1.3c0.3,0.2,0.5,0.7,0.2,1c-0.1,0.2-0.3,0.3-0.5,0.3C241.7,313.2,241.5,313.1,241.3,313
			z M236.2,309.3c-0.6-0.5-1.2-1.1-1.8-1.6c-0.3-0.3-0.3-0.8,0-1.1c0.3-0.3,0.8-0.3,1.1,0c0.6,0.5,1.1,1.1,1.7,1.6
			c0.3,0.3,0.3,0.7,0.1,1c-0.1,0.1-0.3,0.2-0.5,0.3C236.6,309.5,236.3,309.4,236.2,309.3z M231.7,304.8c-0.5-0.6-1-1.2-1.5-1.9
			c-0.3-0.3-0.2-0.8,0.1-1c0.3-0.2,0.8-0.2,1,0.1c0.5,0.6,1,1.2,1.5,1.8c0.3,0.3,0.2,0.8-0.1,1c-0.1,0.1-0.3,0.2-0.4,0.2
			C232.1,305.1,231.8,305,231.7,304.8z M227.9,299.6c-0.4-0.7-0.8-1.4-1.2-2.1c-0.2-0.4-0.1-0.8,0.3-1c0.4-0.2,0.8-0.1,1,0.3
			c0.4,0.7,0.8,1.4,1.2,2c0.2,0.3,0.1,0.8-0.2,1c-0.1,0.1-0.2,0.1-0.3,0.1C228.3,300,228,299.9,227.9,299.6z M224.9,294
			c-0.3-0.7-0.6-1.5-0.9-2.3c-0.1-0.4,0.1-0.8,0.4-1c0.4-0.1,0.8,0.1,1,0.4c0.3,0.7,0.6,1.5,0.9,2.2c0.2,0.4,0,0.8-0.4,1
			c-0.1,0-0.1,0-0.2,0.1C225.3,294.5,225,294.3,224.9,294z M222.8,288c-0.2-0.8-0.4-1.6-0.5-2.4c-0.1-0.4,0.2-0.8,0.6-0.9
			c0.4-0.1,0.8,0.2,0.9,0.6c0.2,0.8,0.3,1.5,0.5,2.3c0.1,0.4-0.1,0.8-0.5,0.9c0,0-0.1,0-0.1,0C223.3,288.6,222.9,288.3,222.8,288z
			 M222.5,282.4c-0.4,0-0.8-0.3-0.8-0.7c-0.1-0.8-0.2-1.6-0.2-2.4c0-0.4,0.3-0.8,0.7-0.8c0.4,0,0.8,0.3,0.8,0.7
			c0,0.8,0.1,1.6,0.2,2.3C223.2,281.9,222.9,282.3,222.5,282.4C222.5,282.4,222.5,282.4,222.5,282.4z"/>
		<linearGradient id="SVGID_14_" gradientUnits="userSpaceOnUse" x1="291.0403" y1="307.088" x2="293.383" y2="307.088">
			<stop  offset="0" style="stop-color:#002FF5"/>
			<stop  offset="0.1894" style="stop-color:#003FF5"/>
			<stop  offset="0.5594" style="stop-color:#0069F4"/>
			<stop  offset="1" style="stop-color:#00A2F4"/>
		</linearGradient>
		<path class="st26" d="M291.9,308.2c0.1,0,0.3-0.1,0.4-0.2c0.3-0.3,0.6-0.6,0.9-0.8c0.3-0.3,0.3-0.8,0-1.1c-0.3-0.3-0.8-0.3-1.1,0
			c-0.3,0.3-0.6,0.5-0.8,0.8c-0.3,0.3-0.3,0.8,0,1.1C291.4,308.2,291.6,308.3,291.9,308.2z"/>
	</g>
	<g>
		
			<linearGradient id="SVGID_15_" gradientUnits="userSpaceOnUse" x1="301.7014" y1="360.0321" x2="431.0262" y2="209.8225" gradientTransform="matrix(-1 0 0 1 636.7293 0)">
			<stop  offset="0" style="stop-color:#002FF5"/>
			<stop  offset="0.1894" style="stop-color:#003FF5"/>
			<stop  offset="0.5594" style="stop-color:#0069F4"/>
			<stop  offset="1" style="stop-color:#00A2F4"/>
		</linearGradient>
		<path class="st27" d="M292.4,290.7c0.1-0.2,0.1-0.4,0-0.6l-3.8-4.7c0.9-2.7,1.4-5.5,1.4-8.4l5.1-3.2c0.2-0.1,0.3-0.3,0.2-0.5
			l-1.6-7.1c0-0.2-0.2-0.4-0.4-0.4l-6-0.6c-1.3-2.6-3-4.9-5-6.9l1.4-5.9c0-0.2,0-0.4-0.2-0.5l-6.2-3.8c-0.2-0.1-0.4-0.1-0.6,0
			l-4.7,3.8c-2.7-0.9-5.5-1.4-8.4-1.4l-3.2-5.1c-0.1-0.2-0.3-0.3-0.5-0.2l-7.1,1.6c-0.2,0-0.4,0.2-0.4,0.4l-0.6,6
			c-2.6,1.3-4.9,3-6.9,5l-5.9-1.4c-0.2,0-0.4,0-0.5,0.2l-3.8,6.2c-0.1,0.2-0.1,0.4,0,0.6l3.8,4.7c-0.9,2.7-1.4,5.5-1.4,8.4l-5.1,3.2
			c-0.2,0.1-0.3,0.3-0.2,0.5l1.6,7.1c0,0.2,0.2,0.4,0.4,0.4l6,0.6c1.3,2.6,3,4.9,5,6.9l-1.4,5.9c0,0.2,0,0.4,0.2,0.5l6.2,3.8
			c0.2,0.1,0.4,0.1,0.6,0l4.7-3.8c2.7,0.9,5.5,1.4,8.4,1.4l3.2,5.1c0.1,0.2,0.3,0.3,0.5,0.2l7.1-1.6c0.2,0,0.4-0.2,0.4-0.4l0.6-6
			c2.6-1.3,4.9-3,6.9-5l5.9,1.4c0.2,0,0.4,0,0.5-0.2L292.4,290.7z"/>
		<path class="st1" d="M263.3,284c-3.9-0.1-7-3.3-6.9-7.2c0.1-3.9,3.3-7,7.2-6.9c1.9,0,3.6,0.8,4.9,2.2c1.3,1.4,2,3.1,2,5
			c0,1.9-0.8,3.6-2.2,4.9c-1.1,1.1-2.5,1.7-4,1.9C264,283.9,263.7,284,263.3,284z M257.6,276.8c-0.1,3.2,2.5,5.9,5.7,6
			c1.6,0,3-0.5,4.2-1.6c1.1-1.1,1.8-2.5,1.8-4.1c0-1.6-0.5-3-1.6-4.2c-1.1-1.1-2.5-1.8-4.1-1.8c-0.3,0-0.6,0-0.9,0
			C259.9,271.5,257.7,273.9,257.6,276.8z"/>
		<path class="st1" d="M265.6,294.5c0.6-0.1,1.2-0.2,1.8-0.3c0.9-0.2,1.7-0.5,2.6-0.8c0,0,0,0,0,0c0,0,0.1,0,0.1,0c0,0,0,0,0,0
			c0,0,0,0,0,0c0,0,0,0,0,0c0,0,0,0,0.1,0c0,0,0,0,0,0c0,0,0,0,0,0c0,0,0,0,0,0c0.1,0,0.1,0,0.2-0.1c0,0,0,0,0.1,0
			c0.1,0,0.2-0.1,0.3-0.2c0.1,0,0.1-0.1,0.2-0.1c0.1-0.1,0.2-0.2,0.2-0.3c0,0,0-0.1,0-0.1c-0.1-0.1-0.2-0.2-0.4-0.1
			c-1.1,0.5-2.3,0.9-3.5,1.2c-4.5,1-9.1,0.3-13-2.2c-3.9-2.4-6.6-6.2-7.6-10.7c-0.1-0.6-0.2-1.2-0.3-1.7
			c-1.1-8.6,4.5-16.9,13.2-18.9c4.5-1,9.1-0.3,13,2.2c3.9,2.4,6.6,6.2,7.6,10.7c0.1,0.6,0.2,1.1,0.3,1.7c0.3,2.5,0.1,5-0.7,7.4
			c0,0,0,0.1,0,0.1c0,0.1,0.1,0.2,0.2,0.2c0.2,0.1,0.3,0,0.4-0.2c0.8-2.5,1-5.1,0.7-7.7c-0.1-0.6-0.2-1.2-0.3-1.8
			c-1.1-4.6-3.9-8.6-7.9-11.1c-4-2.5-8.8-3.3-13.4-2.2c-9,2.1-14.8,10.6-13.6,19.6c0.1,0.6,0.2,1.2,0.3,1.8
			C248.1,289.8,256.6,295.6,265.6,294.5z"/>
	</g>
	<g>
		<g class="st2">
			<linearGradient id="SVGID_16_" gradientUnits="userSpaceOnUse" x1="299.323" y1="257.4483" x2="301.1724" y2="257.4483">
				<stop  offset="0" style="stop-color:#002FF5"/>
				<stop  offset="0.1894" style="stop-color:#003FF5"/>
				<stop  offset="0.5594" style="stop-color:#0069F4"/>
				<stop  offset="1" style="stop-color:#00A2F4"/>
			</linearGradient>
			<path class="st28" d="M299.3,257.2c0,0.2,0.1,0.4,0.2,0.5c0.3,0.2,0.7,0.3,1,0.4c0.2,0.1,0.5,0,0.6-0.2c0.1-0.2,0-0.5-0.2-0.6
				c-0.3-0.1-0.7-0.3-1-0.4c-0.2-0.1-0.5,0-0.6,0.2C299.3,257.1,299.3,257.1,299.3,257.2z"/>
			<linearGradient id="SVGID_17_" gradientUnits="userSpaceOnUse" x1="302.3177" y1="242.202" x2="336.8638" y2="242.202">
				<stop  offset="0" style="stop-color:#002FF5"/>
				<stop  offset="0.1894" style="stop-color:#003FF5"/>
				<stop  offset="0.5594" style="stop-color:#0069F4"/>
				<stop  offset="1" style="stop-color:#00A2F4"/>
			</linearGradient>
			<path class="st29" d="M302.3,258.2c0.1-0.2,0.3-0.4,0.5-0.3c0.7,0.2,1.3,0.4,2,0.5c0.2,0.1,0.4,0.3,0.3,0.5
				c-0.1,0.2-0.3,0.4-0.5,0.3c-0.7-0.2-1.4-0.3-2.1-0.6C302.4,258.7,302.3,258.5,302.3,258.2C302.3,258.3,302.3,258.3,302.3,258.2z
				 M307,258.9c0.6,0.1,1.1,0.1,1.7,0.2c0.1,0,0.3,0,0.4,0c0.2,0,0.4,0.2,0.4,0.5c0,0.2-0.2,0.4-0.5,0.4c-0.1,0-0.3,0-0.4,0
				c-0.6,0-1.2-0.1-1.8-0.2c-0.2,0-0.4-0.2-0.4-0.5c0,0,0,0,0,0C306.5,259,306.7,258.8,307,258.9z M311.1,259.1
				c0.7,0,1.4-0.1,2.1-0.1c0.2,0,0.4,0.1,0.5,0.4c0,0.2-0.1,0.4-0.4,0.5c-0.7,0.1-1.4,0.1-2.2,0.1c-0.2,0-0.4-0.2-0.4-0.4
				c0,0,0,0,0-0.1C310.8,259.3,310.9,259.1,311.1,259.1z M315.3,258.7c0.7-0.1,1.4-0.3,2-0.5c0.2-0.1,0.5,0.1,0.5,0.3
				c0.1,0.2-0.1,0.5-0.3,0.5c-0.7,0.2-1.4,0.4-2.1,0.5c-0.2,0-0.5-0.1-0.5-0.3c0,0,0-0.1,0-0.1C315,258.8,315.1,258.7,315.3,258.7z
				 M319.3,257.5c0.7-0.2,1.3-0.5,1.9-0.8c0.2-0.1,0.5,0,0.6,0.2c0.1,0.2,0,0.5-0.2,0.6c-0.7,0.3-1.3,0.6-2,0.8
				c-0.2,0.1-0.5,0-0.6-0.3c0-0.1,0-0.1,0-0.2C319.1,257.7,319.2,257.6,319.3,257.5z M323.1,255.8c0.6-0.3,1.2-0.7,1.8-1.1
				c0.2-0.1,0.5-0.1,0.6,0.1c0.1,0.2,0.1,0.5-0.1,0.6c-0.6,0.4-1.2,0.8-1.8,1.2c-0.2,0.1-0.5,0-0.6-0.2c0-0.1-0.1-0.2-0.1-0.3
				C322.9,255.9,323,255.8,323.1,255.8z M326.6,253.4c0.5-0.4,1.1-0.9,1.6-1.4c0.2-0.2,0.4-0.2,0.6,0c0.2,0.2,0.2,0.4,0,0.6
				c-0.5,0.5-1.1,1-1.6,1.4c-0.2,0.1-0.5,0.1-0.6-0.1c-0.1-0.1-0.1-0.2-0.1-0.3C326.4,253.6,326.5,253.5,326.6,253.4z M329.6,250.5
				c0.5-0.5,0.9-1.1,1.3-1.6c0.1-0.2,0.4-0.2,0.6-0.1c0.2,0.1,0.2,0.4,0.1,0.6c-0.4,0.6-0.9,1.1-1.4,1.7c-0.2,0.2-0.4,0.2-0.6,0
				c-0.1-0.1-0.2-0.2-0.1-0.4C329.5,250.6,329.5,250.6,329.6,250.5z M334.8,224.5c0.2-0.1,0.5,0,0.6,0.3c0.2,0.7,0.5,1.4,0.6,2.1
				c0.1,0.2-0.1,0.5-0.3,0.5c-0.2,0.1-0.5-0.1-0.5-0.3c-0.2-0.7-0.4-1.3-0.6-2c0-0.1,0-0.1,0-0.2
				C334.5,224.7,334.6,224.5,334.8,224.5z M332.1,247.1c0.4-0.6,0.7-1.2,1-1.8c0.1-0.2,0.4-0.3,0.6-0.2c0.2,0.1,0.3,0.4,0.2,0.6
				c-0.3,0.6-0.7,1.3-1.1,1.9c-0.1,0.2-0.4,0.3-0.6,0.1c-0.1-0.1-0.2-0.3-0.2-0.4C332.1,247.3,332.1,247.2,332.1,247.1z M336,228.6
				c0.2,0,0.5,0.1,0.5,0.3c0.1,0.7,0.2,1.4,0.3,2.1c0,0.2-0.2,0.4-0.4,0.5c-0.2,0-0.4-0.2-0.5-0.4c-0.1-0.7-0.2-1.4-0.3-2.1
				c0,0,0-0.1,0-0.1C335.6,228.7,335.8,228.6,336,228.6z M334,243.4c0.3-0.6,0.5-1.3,0.7-2c0.1-0.2,0.3-0.3,0.5-0.3
				c0.2,0.1,0.4,0.3,0.3,0.5c-0.2,0.7-0.5,1.4-0.8,2c-0.1,0.2-0.3,0.3-0.6,0.2c-0.2-0.1-0.3-0.3-0.3-0.5
				C334,243.5,334,243.5,334,243.4z M336.4,232.8c0.2,0,0.4,0.2,0.4,0.4c0,0.7,0,1.4-0.1,2.2c0,0.2-0.2,0.4-0.5,0.4
				c-0.2,0-0.4-0.2-0.4-0.5c0-0.7,0.1-1.4,0.1-2.1c0,0,0,0,0-0.1C336,233,336.2,232.8,336.4,232.8z M335.3,239.5
				c0.2-0.7,0.3-1.4,0.4-2.1c0-0.2,0.3-0.4,0.5-0.4c0.2,0,0.4,0.3,0.4,0.5c0,0,0,0,0,0c-0.1,0.7-0.2,1.4-0.4,2.1
				c-0.1,0.2-0.3,0.4-0.5,0.3C335.4,239.9,335.3,239.7,335.3,239.5C335.3,239.5,335.3,239.5,335.3,239.5z"/>
			<linearGradient id="SVGID_18_" gradientUnits="userSpaceOnUse" x1="333.2278" y1="222.3813" x2="334.5536" y2="222.3813">
				<stop  offset="0" style="stop-color:#002FF5"/>
				<stop  offset="0.1894" style="stop-color:#003FF5"/>
				<stop  offset="0.5594" style="stop-color:#0069F4"/>
				<stop  offset="1" style="stop-color:#00A2F4"/>
			</linearGradient>
			<path class="st30" d="M333.2,221.8c0,0.1,0,0.2,0,0.3c0.2,0.3,0.3,0.6,0.5,1c0.1,0.2,0.4,0.3,0.6,0.2c0.2-0.1,0.3-0.4,0.2-0.6
				c-0.2-0.3-0.3-0.7-0.5-1c-0.1-0.2-0.4-0.3-0.6-0.2C333.3,221.6,333.3,221.7,333.2,221.8z"/>
		</g>
		<g class="st2">
			<linearGradient id="SVGID_19_" gradientUnits="userSpaceOnUse" x1="317.6979" y1="208.9375" x2="319.5804" y2="208.9375">
				<stop  offset="0" style="stop-color:#002FF5"/>
				<stop  offset="0.1894" style="stop-color:#003FF5"/>
				<stop  offset="0.5594" style="stop-color:#0069F4"/>
				<stop  offset="1" style="stop-color:#00A2F4"/>
			</linearGradient>
			<path class="st31" d="M317.7,208.7c0,0.2,0.1,0.4,0.3,0.5c0.3,0.1,0.7,0.2,1,0.3c0.2,0.1,0.5,0,0.5-0.3c0.1-0.2,0-0.5-0.3-0.5
				c-0.3-0.1-0.7-0.2-1-0.3C318,208.3,317.8,208.4,317.7,208.7C317.7,208.7,317.7,208.7,317.7,208.7z"/>
			<linearGradient id="SVGID_20_" gradientUnits="userSpaceOnUse" x1="284.0765" y1="225.5363" x2="316.5331" y2="225.5363">
				<stop  offset="0" style="stop-color:#002FF5"/>
				<stop  offset="0.1894" style="stop-color:#003FF5"/>
				<stop  offset="0.5594" style="stop-color:#0069F4"/>
				<stop  offset="1" style="stop-color:#00A2F4"/>
			</linearGradient>
			<path class="st32" d="M284.5,229c0-0.2,0.3-0.4,0.5-0.3c0.2,0,0.4,0.3,0.3,0.5c0,0.3-0.1,0.6-0.1,0.8c-0.1,0.4-0.1,0.8-0.1,1.2
				c0,0.2-0.2,0.4-0.5,0.4c-0.2,0-0.4-0.2-0.4-0.5c0-0.4,0.1-0.8,0.1-1.2C284.4,229.6,284.4,229.3,284.5,229z M284.9,226.9
				c0.2-0.7,0.4-1.4,0.6-2c0.1-0.2,0.3-0.3,0.5-0.3c0.2,0.1,0.3,0.3,0.3,0.5c-0.2,0.6-0.4,1.3-0.6,2c-0.1,0.2-0.3,0.4-0.5,0.3
				C285,227.4,284.9,227.2,284.9,226.9C284.9,226.9,284.9,226.9,284.9,226.9z M284.5,232.8c0.2,0,0.4,0.2,0.4,0.4
				c0,0.7,0,1.4,0.1,2.1c0,0.2-0.2,0.4-0.4,0.5c-0.2,0-0.4-0.2-0.5-0.4c0-0.7-0.1-1.4-0.1-2.1c0,0,0,0,0-0.1
				C284.1,233,284.3,232.8,284.5,232.8z M286.3,222.9c0.3-0.6,0.6-1.3,0.9-1.9c0.1-0.2,0.4-0.3,0.6-0.2c0.2,0.1,0.3,0.4,0.2,0.6
				c-0.3,0.6-0.6,1.2-0.9,1.8c-0.1,0.2-0.4,0.3-0.6,0.2c-0.2-0.1-0.3-0.3-0.3-0.5C286.3,223,286.3,222.9,286.3,222.9z M284.7,237
				c0.2,0,0.5,0.1,0.5,0.4c0.1,0.7,0.2,1.4,0.4,2c0.1,0.2-0.1,0.5-0.3,0.5c-0.2,0.1-0.5-0.1-0.5-0.3c-0.2-0.7-0.3-1.4-0.4-2.1
				c0,0,0-0.1,0-0.1C284.4,237.2,284.5,237,284.7,237z M288.4,219.1c0.4-0.6,0.8-1.2,1.2-1.7c0.1-0.2,0.4-0.2,0.6-0.1
				c0.2,0.1,0.2,0.4,0.1,0.6c-0.4,0.5-0.8,1.1-1.2,1.7c-0.1,0.2-0.4,0.3-0.6,0.1c-0.1-0.1-0.2-0.3-0.2-0.4
				C288.3,219.3,288.3,219.2,288.4,219.1z M285.6,241.1c0.2-0.1,0.5,0.1,0.5,0.3c0.2,0.7,0.4,1.3,0.7,1.9c0.1,0.2,0,0.5-0.2,0.6
				c-0.2,0.1-0.5,0-0.6-0.2c-0.3-0.7-0.5-1.3-0.7-2c0-0.1,0-0.1,0-0.2C285.3,241.3,285.4,241.1,285.6,241.1z M291,215.8
				c0.5-0.5,1-1,1.5-1.5c0.2-0.2,0.4-0.2,0.6,0c0.2,0.2,0.2,0.4,0,0.6c-0.5,0.5-1,1-1.5,1.5c-0.2,0.2-0.4,0.2-0.6,0
				c-0.1-0.1-0.2-0.2-0.1-0.4C290.9,215.9,290.9,215.9,291,215.8z M294.1,212.9c0.6-0.4,1.1-0.9,1.7-1.3c0.2-0.1,0.5-0.1,0.6,0.1
				c0.1,0.2,0.1,0.5-0.1,0.6c-0.6,0.4-1.1,0.8-1.7,1.2c-0.2,0.1-0.5,0.1-0.6-0.1c-0.1-0.1-0.1-0.2-0.1-0.3
				C294,213.1,294,213,294.1,212.9z M297.6,210.5c0.6-0.3,1.3-0.7,1.9-1c0.2-0.1,0.5,0,0.6,0.2c0.1,0.2,0,0.5-0.2,0.6
				c-0.6,0.3-1.2,0.6-1.8,0.9c-0.2,0.1-0.5,0-0.6-0.2c0-0.1-0.1-0.2-0.1-0.3C297.4,210.7,297.5,210.6,297.6,210.5z M301.5,208.8
				c0.7-0.2,1.4-0.5,2-0.6c0.2-0.1,0.5,0.1,0.5,0.3c0.1,0.2-0.1,0.5-0.3,0.5c-0.7,0.2-1.3,0.4-2,0.6c-0.2,0.1-0.5,0-0.6-0.3
				c0-0.1,0-0.1,0-0.2C301.2,208.9,301.4,208.8,301.5,208.8z M305.6,207.6c0.7-0.1,1.4-0.2,2.1-0.3c0.2,0,0.4,0.1,0.5,0.4
				c0,0.2-0.1,0.4-0.4,0.5c-0.7,0.1-1.4,0.2-2,0.3c-0.2,0-0.5-0.1-0.5-0.3c0,0,0-0.1,0-0.1C305.3,207.8,305.4,207.7,305.6,207.6z
				 M309.8,207.2c0.7,0,1.4,0,2.1,0c0.2,0,0.4,0.2,0.4,0.5c0,0.2-0.2,0.4-0.5,0.4c-0.7,0-1.4-0.1-2.1,0c-0.2,0-0.4-0.2-0.4-0.4
				c0,0,0,0,0-0.1C309.5,207.4,309.6,207.2,309.8,207.2z M314.1,207.4L314.1,207.4c0.8,0.1,1.4,0.2,2.1,0.4c0.2,0.1,0.4,0.3,0.3,0.5
				c-0.1,0.2-0.3,0.4-0.5,0.3c-0.6-0.1-1.3-0.3-2-0.4l-0.1,0c-0.2,0-0.4-0.3-0.4-0.5C313.6,207.6,313.9,207.4,314.1,207.4z"/>
			<linearGradient id="SVGID_21_" gradientUnits="userSpaceOnUse" x1="286.9095" y1="245.8547" x2="288.2794" y2="245.8547">
				<stop  offset="0" style="stop-color:#002FF5"/>
				<stop  offset="0.1894" style="stop-color:#003FF5"/>
				<stop  offset="0.5594" style="stop-color:#0069F4"/>
				<stop  offset="1" style="stop-color:#00A2F4"/>
			</linearGradient>
			<path class="st33" d="M286.9,245.3c0,0.1,0,0.2,0,0.3c0.2,0.3,0.3,0.6,0.5,1c0.1,0.2,0.4,0.3,0.6,0.2c0.2-0.1,0.3-0.4,0.2-0.6
				c-0.2-0.3-0.3-0.6-0.5-0.9c-0.1-0.2-0.4-0.3-0.6-0.2C287,245.1,286.9,245.2,286.9,245.3z"/>
		</g>
		
			<linearGradient id="SVGID_22_" gradientUnits="userSpaceOnUse" x1="253.1696" y1="318.2478" x2="382.4941" y2="168.0384" gradientTransform="matrix(-1 0 0 1 636.7293 0)">
			<stop  offset="0" style="stop-color:#002FF5"/>
			<stop  offset="0.1894" style="stop-color:#003FF5"/>
			<stop  offset="0.5594" style="stop-color:#0069F4"/>
			<stop  offset="1" style="stop-color:#00A2F4"/>
		</linearGradient>
		<path class="st34" d="M297.6,248.8c0.1,0.1,0.2,0.1,0.4,0.1l3.5-1.5c1.5,1,3.1,1.8,4.9,2.2l1.1,3.6c0,0.1,0.2,0.2,0.3,0.2l4.5,0.2
			c0.1,0,0.3-0.1,0.3-0.2l1.4-3.5c1.8-0.3,3.5-1,5-1.9l3.3,1.8c0.1,0.1,0.3,0,0.4,0l3.3-3.1c0.1-0.1,0.1-0.2,0.1-0.4l-1.5-3.5
			c1-1.5,1.8-3.1,2.2-4.9l3.6-1.1c0.1,0,0.2-0.2,0.2-0.3l0.2-4.5c0-0.1-0.1-0.3-0.2-0.3l-3.5-1.4c-0.3-1.8-1-3.5-1.9-5l1.8-3.3
			c0.1-0.1,0-0.3,0-0.4l-3.1-3.3c-0.1-0.1-0.2-0.1-0.4-0.1l-3.5,1.5c-1.5-1-3.1-1.8-4.9-2.2l-1.1-3.6c0-0.1-0.2-0.2-0.3-0.2
			l-4.5-0.2c-0.1,0-0.3,0.1-0.3,0.2l-1.4,3.5c-1.8,0.3-3.5,1-5,1.9l-3.3-1.8c-0.1-0.1-0.3,0-0.4,0l-3.3,3.1
			c-0.1,0.1-0.1,0.2-0.1,0.4l1.5,3.5c-1,1.5-1.8,3.1-2.2,4.9l-3.6,1.1c-0.1,0-0.2,0.2-0.2,0.3l-0.2,4.5c0,0.1,0.1,0.3,0.2,0.3
			l3.5,1.4c0.3,1.8,1,3.5,1.9,5l-1.8,3.3c-0.1,0.1,0,0.3,0,0.4L297.6,248.8z"/>
		<path class="st1" d="M306.4,232.3L306.4,232.3c0.7-2.4,3.2-3.7,5.6-3c1.1,0.3,2.1,1.1,2.7,2.1c0.6,1,0.7,2.3,0.4,3.4
			c-0.3,1.1-1.1,2.1-2.1,2.7c-1,0.6-2.3,0.7-3.4,0.4c-2.2-0.6-3.5-2.8-3.2-4.9C306.3,232.8,306.3,232.5,306.4,232.3z M311.7,230.1
			c-1.9-0.6-3.9,0.5-4.5,2.4l0,0c-0.6,1.9,0.5,3.9,2.4,4.5c0.9,0.3,1.9,0.2,2.7-0.3c0.8-0.5,1.5-1.2,1.7-2.1
			c0.1-0.2,0.1-0.3,0.1-0.5C314.5,232.4,313.4,230.6,311.7,230.1z"/>
		<path class="st1" d="M299.5,231.9c-0.1,0.4-0.1,0.8-0.1,1.2l0,0c0,0.2,0,0.3,0,0.5c0,0.6,0,1.1,0.1,1.6c0,0,0,0,0,0.1
			c0,0,0,0.1,0,0.1c0,0,0,0.1,0,0.1c0,0.2,0.2,0.3,0.4,0.4c0,0,0.1,0,0.1,0c0.2,0,0.4-0.3,0.3-0.5c-0.1-0.7-0.2-1.5-0.1-2.2
			c0.1-1.7,0.5-3.3,1.3-4.7c0.5-1,1.2-1.9,2.1-2.6c2.1-1.9,4.8-2.9,7.6-2.8c0.4,0,0.7,0,1.1,0.1c2.4,0.3,4.6,1.5,6.3,3.3
			c1.9,2.1,2.9,4.8,2.8,7.6c-0.1,2.8-1.3,5.4-3.4,7.3c-2.1,1.9-4.8,2.9-7.6,2.8c-0.4,0-0.7,0-1.1-0.1c-1.5-0.2-3-0.8-4.3-1.6
			c-0.1,0-0.1-0.1-0.2-0.1c-0.2,0-0.3,0-0.4,0.2c-0.1,0.2-0.1,0.5,0.1,0.6c1.4,0.9,3,1.5,4.6,1.7c0.4,0.1,0.8,0.1,1.2,0.1
			c3,0.1,6-1,8.2-3c2.2-2.1,3.5-4.9,3.7-7.9c0.1-3-1-6-3-8.2c-1.8-1.9-4.2-3.2-6.8-3.5c-0.4-0.1-0.8-0.1-1.2-0.1c-3-0.1-6,1-8.2,3
			C301.1,227,299.8,229.3,299.5,231.9z"/>
	</g>
	<path class="st4" d="M252.1,242.8c0.1,0,0.2-0.1,0.3-0.2c0-0.3,0.1-0.5,0.1-0.8c0-0.2-0.1-0.3-0.3-0.3c-0.2,0-0.3,0.1-0.3,0.3
		c0,0.2-0.1,0.5-0.1,0.7C251.8,242.6,251.9,242.7,252.1,242.8C252.1,242.8,252.1,242.8,252.1,242.8z"/>
	<path class="st4" d="M247.9,250.5c0.1,0,0.1,0,0.2-0.1c0.2-0.2,0.4-0.3,0.6-0.5c0.1-0.1,0.1-0.3,0-0.4c-0.1-0.1-0.3-0.1-0.4,0
		c-0.2,0.2-0.3,0.3-0.5,0.5c-0.1,0.1-0.1,0.3,0,0.4C247.7,250.5,247.8,250.5,247.9,250.5z"/>
</g>
<g>
	<g>
		<path class="st35" d="M369.6,294.9l3,3c4.3-0.4,7.6-1.8,10.2-3.5c-1.5-3.8-3.1-6.1-4.3-7.4C374.5,292.7,369.6,294.9,369.6,294.9z"
			/>
		<path class="st35" d="M390.7,283.7l-7.2-11.2c-0.5,6.3-2.6,11.1-5.1,14.5c1.2,1.3,2.8,3.6,4.3,7.4
			C389.2,290.2,390.7,283.7,390.7,283.7z"/>
	</g>
	<path d="M404.1,370.7c-0.3-3.3-1.3-4.7-1.3-4.7l-2.8,0.2c-4.1,1.3-8.9,4.5-11,6c0,0,0,0,0,0c-0.4,0.3-0.2,0.9,0.3,0.9
		c3.5,0.2,10.7-0.3,13.7-0.5c0.7-0.1,1.3-0.7,1.2-1.4C404.1,371,404.1,370.8,404.1,370.7z"/>
	<path d="M431,371.6c-0.7-1.2-1.7-2.9-2-3.5c-0.6-0.9-1.8-1.5-1.8-1.5s-1.7-1-2.2,0c-0.3,0.6-0.7,3-1,4.7c-0.1,0.3,0,0.7,0.2,1
		c0.3,0.4,0.7,0.7,1.2,0.7l5-0.1c0.4,0,0.8-0.4,0.8-0.8C431.1,371.8,431,371.7,431,371.6z"/>
	<path class="st18" d="M423.4,361c0.1,0.2,1,4.6,1.4,6.5c0.1,0.5,0.6,0.9,1.1,0.9c0.3,0,0.6,0,1-0.1c0.6-0.1,1.1-0.6,1.1-1.3
		c0.1-1.7,0.1-4.9-0.5-6.1C426.6,359.1,423.4,361,423.4,361z"/>
	<path class="st18" d="M403.3,362.2c-0.4,0,0.2,2-0.4,4c-0.1,0.4-0.5,0.8-0.9,0.8c-0.3,0-0.7,0-1,0c-0.5,0-1-0.5-1-1l-0.5-5.1
		L403.3,362.2z"/>
	<path class="st20" d="M392.5,307.9c0.2,0.8,6.3,36.3,6.6,54.7c0,0.3,0.2,0.6,0.5,0.6c0.8,0.1,2.3,0.2,3.7,0c0.2,0,0.4-0.2,0.4-0.4
		c0.2-3.4,1.9-32.4-0.2-46c0,0,17.3,36.4,19.9,46.4c0.1,0.2,0.3,0.4,0.5,0.4c0.7,0,2.3-0.2,3.5-0.6c0.4-0.2,0.7-0.6,0.6-1.1
		c-1.5-6-11.7-47.4-18.7-56.5L392.5,307.9z"/>
	
		<linearGradient id="SVGID_23_" gradientUnits="userSpaceOnUse" x1="766.1437" y1="281.0049" x2="767.1866" y2="297.8661" gradientTransform="matrix(-1 0 0 1 1170.7479 0)">
		<stop  offset="0" style="stop-color:#09005D"/>
		<stop  offset="1" style="stop-color:#1A0F91"/>
	</linearGradient>
	<path class="st36" d="M403.6,317c0.1,0,0.1,0,0.2-0.1c0.1-0.1,0.1-0.2,0-0.3l-2.3-2.4c-0.1-0.1-0.2-0.1-0.3,0
		c-0.1,0.1-0.1,0.2,0,0.3l2.3,2.4C403.5,317,403.6,317,403.6,317z"/>
	<path class="st37" d="M382.6,263.4c4.4-1.2,12.6-3,19.2-2.6c1.5,0.1,2.7,1.3,2.8,2.8c1,17.4,2.3,32.8,4.9,41.8
		c-5.7,2.3-11.4,3.3-16.9,2.5c-4.2-8.9-7.8-19.3-10.9-31c0,0-1.8-9.4-0.1-12.5C381.8,263.9,382.2,263.6,382.6,263.4z"/>
	<path class="st14" d="M393.3,251.3c0,0,1.1,6.7,1.5,9.8c0.1,0.5-0.2,1-0.7,1.2c-1.2,0.6-3.8,1.6-6.7,0.7c-0.5-0.2-0.8-0.6-0.8-1.1
		l0.2-8.9L393.3,251.3z"/>
	<path class="st18" d="M386,243.9c0,0-2.2,5-2.3,7.6c-0.1,2.6-0.7,4.3,2.3,4.8c3,0.5,5.6-1,6.9-3.6c0,0,2.2-4,1.7-5.6
		C394.1,245.4,386,243.9,386,243.9z"/>
	<path d="M391.9,250.8h-0.4c0,0,1.6-3.2,0.2-3.8c-1.4-0.6-6.9-1.7-8-3.6c-1.1-1.9-0.1-4.3,1.4-5c0.1,0,0.2,0,0.3,0.1l0.1,0.2
		c0.1,0.2,0.3,0.1,0.4,0l0,0c0-0.2,0.3-0.2,0.4-0.1c0.4,0.6,1.3,1.5,4,2c3.7,0.7,6.2,2.2,6.2,4.8c0,0.2,0.2,0.3,0.3,0.2
		c0.3-0.2,0.7-0.2,1.3,0.2c1,0.9,0.6,3.1-1.6,4.9c-0.1,0.1-0.1,0.3,0,0.3c0.4,0.3,1,0.9-0.6,1.7c-1.6,0.9-2.6,0.8-2.9,0.7
		c-0.1,0-0.2-0.1-0.2-0.2l0.1-2.3c0-0.1-0.1-0.2-0.2-0.2H391.9z"/>
	<path class="st18" d="M391.8,251.3c0,0,0.8-3.2,2.3-2.3c1.4,0.9-0.7,3.6-1.9,3.7L391.8,251.3z"/>
	<g>
		<g>
			<path class="st1" d="M437.5,302.8l-87.6-18.2l-2.2,8.8l85.7,25.7c0.2,0.1,0.4,0.1,0.6,0.2l2.9,0.7c5,1.3,9.8-0.4,10.6-3.8l1-4
				c0.9-3.4-2.5-7.2-7.5-8.4L438,303C437.8,302.9,437.7,302.9,437.5,302.8z M442.6,312.8c-0.6,2.2-4.1,3.3-7.9,2.3
				c-3.8-1-6.4-3.5-5.8-5.8c0.6-2.2,4.1-3.3,7.9-2.3C440.6,307.9,443.2,310.5,442.6,312.8z"/>
		</g>
		<path class="st1" d="M321.3,272.8l17,4.3c1.2,0.3,2.2,1.2,2.7,2.3l2.5,5.9c0.7,1.7,0.2,3.6-1.2,4.8l-5,4c-1,0.8-2.3,1-3.5,0.7
			l-17-4.3c-2.6-0.6-4.7,2-3.5,4.4c2.9,5.6,8.2,10.1,14.9,11.8c12.2,3.1,23-4.3,26-16c3-11.7-3-23.4-15.2-26.5
			c-6.7-1.7-13.5-0.3-18.7,3.2C318.1,268.7,318.8,272.1,321.3,272.8z"/>
		
			<linearGradient id="SVGID_24_" gradientUnits="userSpaceOnUse" x1="460.5771" y1="293.2823" x2="596.2734" y2="293.2823" gradientTransform="matrix(-1 0 0 1 908.8875 0)">
			<stop  offset="0" style="stop-color:#002FF5"/>
			<stop  offset="0.1894" style="stop-color:#003FF5"/>
			<stop  offset="0.5594" style="stop-color:#0069F4"/>
			<stop  offset="1" style="stop-color:#00A2F4"/>
		</linearGradient>
		<path class="st38" d="M313,296.3c2.9,5.6,8.2,10.1,14.9,11.8c10.7,2.7,20.3-2.6,24.5-11.9l80.6,24.1c0.2,0.1,0.4,0.1,0.6,0.2
			l2.9,0.7c5,1.3,9.8-0.4,10.6-3.8l1-4c0.9-3.4-2.5-7.2-7.5-8.4l-2.9-0.7c-0.2,0-0.4-0.1-0.6-0.1L354.6,287
			c0.4-9.9-5.5-18.8-15.9-21.4c-6.7-1.7-13.5-0.3-18.7,3.2c-2.2,1.5-1.5,4.9,1,5.5l17,4.3c1.2,0.3,2.2,1.2,2.7,2.3l2.5,5.9
			c0.7,1.7,0.2,3.6-1.2,4.8l-5,4c-1,0.8-2.3,1-3.5,0.7l-17-4.3C313.9,291.3,311.7,294,313,296.3z M428.6,310.6
			c0.6-2.2,4.1-3.3,7.9-2.3c3.8,1,6.4,3.5,5.8,5.8c-0.6,2.2-4.1,3.3-7.9,2.3C430.6,315.4,428,312.8,428.6,310.6z"/>
	</g>
	<g>
		<path class="st37" d="M416.1,286.6c2.2,6.2,1,12.8,1,12.8l2.9,0.8c0,0,3.7-4.5,2.9-14.3C420.2,285.4,417.7,286,416.1,286.6z"/>
		<path class="st37" d="M422.8,285.8c-0.1-1.1-0.2-2.3-0.5-3.5c-2-10.9-15.9-19.3-19.2-21.1c-0.3-0.2-0.7,0.1-0.7,0.4l0.5,14.8
			c7.8,1,11.5,5.5,13.1,10.2C417.7,286,420.2,285.4,422.8,285.8z"/>
	</g>
	<path class="st18" d="M363.5,300.4c-0.5-0.1-1-0.5-1.2-1.1c-0.4-1-0.9-2.6,0.1-3.1c1.6-0.7,4.5,2.2,4.5,2.2l1.4,2.3l1.3,0.6
		C368.4,301.7,366.1,301.2,363.5,300.4z"/>
	<path class="st18" d="M417.2,297.9h-3.6c0,0,2.9,1.7,3,3.6s-1.2,5.6-1.7,6.7c-0.6,1.1,8.1-1.7,5-10.2H417.2z"/>
</g>
</svg>
