<?xml version="1.0" encoding="utf-8"?>
<!-- Generator: Adobe Illustrator 24.1.0, SVG Export Plug-In . SVG Version: 6.00 Build 0)  -->
<svg version="1.1" id="Layer_1" xmlns="http://www.w3.org/2000/svg" xmlns:xlink="http://www.w3.org/1999/xlink" x="0px" y="0px"
	 viewBox="0 0 800 700" style="enable-background:new 0 0 800 700;" xml:space="preserve">
<style type="text/css">
	.st0{opacity:0.2;fill:#91B3FA;enable-background:new    ;}
	.st1{opacity:0.1;fill:#91B3FA;enable-background:new    ;}
	.st2{fill:url(#Rectangle_7366_1_);}
	.st3{fill:#FFFFFF;}
	.st4{fill:url(#Rectangle_7368_1_);}
	.st5{fill:url(#Rectangle_7369_1_);}
	.st6{fill:none;stroke:#3076FF;stroke-width:4;stroke-miterlimit:10;}
	.st7{fill:#3076FF;}
	.st8{opacity:0.6;fill:#3076FF;enable-background:new    ;}
	.st9{opacity:0.6;}
	.st10{fill:url(#Path_8109_1_);}
	.st11{opacity:0.42;fill:url(#Ellipse_382_1_);enable-background:new    ;}
	.st12{fill:url(#Path_8112_1_);}
	.st13{fill:url(#Path_8113_1_);}
	.st14{fill:url(#Path_8114_1_);}
	.st15{fill:url(#Path_8115_1_);}
	.st16{fill:url(#Path_8116_1_);}
	.st17{fill:url(#Path_8117_1_);}
	.st18{fill:url(#Path_8118_1_);}
	.st19{fill:url(#Path_8119_1_);}
	.st20{fill:url(#Path_8120_1_);}
	.st21{fill:url(#Path_8121_1_);}
	.st22{fill:url(#Path_8122_1_);}
	.st23{fill:url(#Path_8123_1_);}
	.st24{fill:#FFFFFF;stroke:#263238;stroke-miterlimit:10;}
	.st25{fill:url(#Rectangle_7383_1_);}
	.st26{fill:url(#Path_8124_1_);}
	.st27{fill:url(#Rectangle_7386_1_);}
	.st28{fill:url(#Ellipse_385_1_);}
	.st29{fill:url(#Rectangle_7389_1_);}
	.st30{fill:url(#Path_8126_1_);}
	.st31{fill:url(#Rectangle_7392_1_);}
	.st32{fill:url(#Ellipse_389_1_);}
	.st33{fill:url(#Rectangle_7395_1_);}
	.st34{fill:url(#Path_8128_1_);}
	.st35{fill:none;stroke:#000000;stroke-miterlimit:10;}
	.st36{fill:url(#Path_8129_1_);}
	.st37{fill:none;stroke:#263238;stroke-linecap:round;stroke-linejoin:round;}
	.st38{fill:url(#Rectangle_7396_1_);}
	.st39{fill:url(#Path_8134_1_);}
	.st40{fill:url(#Rectangle_7398_1_);}
	.st41{fill:url(#Rectangle_7399_1_);}
	.st42{fill:url(#Rectangle_7400_1_);}
	.st43{fill:url(#Path_8135_1_);}
	.st44{fill:url(#Path_8136_1_);}
	.st45{fill:url(#Rectangle_7402_1_);}
	.st46{fill:url(#Rectangle_7403_1_);}
	.st47{fill:url(#Rectangle_7404_1_);}
	.st48{fill:url(#Path_8137_1_);}
	.st49{fill:url(#Path_8138_1_);}
	.st50{fill:url(#Rectangle_7406_1_);}
	.st51{fill:url(#Path_8139_1_);}
	.st52{fill:none;stroke:#3076FF;stroke-miterlimit:10;}
	.st53{fill:url(#Rectangle_7407_1_);}
	.st54{fill:#FFBF99;}
	.st55{fill:#F39F11;}
	.st56{fill:#0737A0;}
	.st57{fill:#073ED0;}
	.st58{fill:url(#Path_8160_1_);}
	.st59{fill:url(#Path_8161_1_);}
	.st60{fill:url(#Path_8163_1_);}
</style>
<g id="Group_2681" transform="translate(-135.148 -238.452)">
	<g id="Group_2650">
		<path id="Path_8041" class="st0" d="M601.9,828.2c36.6-0.6,76.2-14.8,99.4-27.2c106.1-56.8,153.8-173.3,152.2-282.1
			s-73-216-176.2-250.4c-22.3-7.4-45.8-11.6-69.3-10.9c-61.6,1.9-118,37.3-160.1,82.2c-18.9,20.2-35.8,42.5-57.5,59.5
			c-27.1,21.1-60.1,32.8-90.3,49.3c-50.7,27.7-95.8,74.6-101.2,132.1c-5,54.1,26.7,106.4,69.2,140.3s94.7,52.8,145.9,71.1
			C454.6,806.7,558.1,829.8,601.9,828.2"/>
		<path id="Path_8042" class="st1" d="M738.9,891.2c39.3-13.1,77-40.9,97.4-61.1c93.7-93,102.2-225.5,60.3-333.7
			S737.9,305.6,613.5,306.5c-26.9,0.2-53.8,4-79,12.8c-65.9,22.9-113.8,77.5-142.8,136.8c-13,26.6-23,54.7-40.2,79.1
			c-21.5,30.4-52.9,53.3-79.4,80c-44.6,45-76.1,107.2-60.6,166.5c14.6,55.8,68.2,97.2,126.7,116.5s121.9,20.4,184.1,21.2
			C571.7,920,692.1,907.7,738.9,891.2"/>
	</g>
	<g id="Group_2680">
		<g id="Group_2651">
			
				<linearGradient id="Rectangle_7366_1_" gradientUnits="userSpaceOnUse" x1="228.9249" y1="984.8096" x2="229.9249" y2="984.8096" gradientTransform="matrix(356.505 0 0 -449.876 -81282.5391 443567.125)">
				<stop  offset="0" style="stop-color:#062684"/>
				<stop  offset="1" style="stop-color:#3054D4"/>
			</linearGradient>
			<path id="Rectangle_7366" class="st2" d="M347.3,300h322.6c9.4,0,17,7.6,17,17v415.9c0,9.4-7.6,17-17,17H347.3
				c-9.4,0-17-7.6-17-17V317C330.3,307.6,337.9,300,347.3,300z"/>
			<rect id="Rectangle_7367" x="347.3" y="317" class="st3" width="322.6" height="415.9"/>
		</g>
		
			<linearGradient id="Rectangle_7368_1_" gradientUnits="userSpaceOnUse" x1="225.6112" y1="933.0811" x2="226.6112" y2="933.0811" gradientTransform="matrix(33.913 0 0 -1.235 -7075.4966 1746.7412)">
			<stop  offset="0" style="stop-color:#09005D"/>
			<stop  offset="1" style="stop-color:#1A0F91"/>
		</linearGradient>
		<rect id="Rectangle_7368" x="616.1" y="593.8" class="st4" width="33.9" height="1.2"/>
		<g id="Group_2652">
			
				<linearGradient id="Rectangle_7369_1_" gradientUnits="userSpaceOnUse" x1="228.6549" y1="984.6776" x2="229.6549" y2="984.6776" gradientTransform="matrix(161.276 0 0 -233.426 -36720.4648 230480.9062)">
				<stop  offset="0" style="stop-color:#062684"/>
				<stop  offset="1" style="stop-color:#3054D4"/>
			</linearGradient>
			<path id="Rectangle_7369" class="st5" d="M164.3,514.9h144.8c4.5,0,8.2,3.7,8.2,8.2v217c0,4.5-3.7,8.2-8.2,8.2H164.3
				c-4.5,0-8.2-3.7-8.2-8.2v-217C156.1,518.5,159.8,514.9,164.3,514.9z"/>
			<rect id="Rectangle_7370" x="163.8" y="523.7" class="st3" width="145.9" height="215.8"/>
			<path id="Rectangle_7371" class="st6" d="M175.2,560.4h120.9c2.4,0,4.4,2,4.4,4.4v162.7c0,2.4-2,4.4-4.4,4.4H175.2
				c-2.4,0-4.4-2-4.4-4.4V564.8C170.8,562.4,172.8,560.4,175.2,560.4z"/>
			<path id="Rectangle_7372" class="st7" d="M172.8,545.4h77c1.5,0,2.7,1.2,2.7,2.7v1.5c0,1.5-1.2,2.7-2.7,2.7h-77
				c-1.5,0-2.7-1.2-2.7-2.7v-1.5C170.1,546.6,171.3,545.4,172.8,545.4z"/>
			<path id="Rectangle_7373" class="st7" d="M172.8,533.3h77c1.5,0,2.7,1.2,2.7,2.7v1.5c0,1.5-1.2,2.7-2.7,2.7h-77
				c-1.5,0-2.7-1.2-2.7-2.7V536C170.1,534.5,171.3,533.3,172.8,533.3z"/>
		</g>
		<g id="Group_2654">
			<path id="Rectangle_7374" class="st8" d="M185.5,653.2h12.8c0.9,0,1.6,0.7,1.6,1.6v54.8c0,0.9-0.7,1.6-1.6,1.6h-12.8
				c-0.9,0-1.6-0.7-1.6-1.6v-54.8C183.9,653.9,184.6,653.2,185.5,653.2z"/>
			<path id="Path_8043" class="st8" d="M239.1,646.2h-12.7c-1,0.1-1.7,0.9-1.6,1.9v61.2c0,1,0.7,1.8,1.6,1.9h12.7
				c1-0.1,1.8-0.9,1.8-1.9v-61.2C240.9,647.1,240.1,646.3,239.1,646.2z"/>
			<path id="Rectangle_7375" class="st8" d="M205.5,635.1h12.8c0.9,0,1.6,0.7,1.6,1.6v72.9c0,0.9-0.7,1.6-1.6,1.6h-12.8
				c-0.9,0-1.6-0.7-1.6-1.6v-72.9C203.9,635.8,204.6,635.1,205.5,635.1z"/>
			<path id="Rectangle_7376" class="st8" d="M274.7,609.2h12.8c0.9,0,1.6,0.7,1.6,1.6v98.8c0,0.9-0.7,1.6-1.6,1.6h-12.8
				c-0.9,0-1.6-0.7-1.6-1.6v-98.8C273.1,609.9,273.8,609.2,274.7,609.2z"/>
			<path id="Rectangle_7377" class="st8" d="M251,623.3h12.8c0.9,0,1.6,0.7,1.6,1.6v84.7c0,0.9-0.7,1.6-1.6,1.6H251
				c-0.9,0-1.6-0.7-1.6-1.6v-84.7C249.3,624,250.1,623.3,251,623.3z"/>
			<g id="Group_2653" class="st9">
				<path id="Path_8044" class="st7" d="M191.4,633.6l-0.3-0.6l21.3-11.6l19.8,8.7l17-16.7l0,0l19.9-11.8l0.3,0.5l-19.9,11.8
					l-17.2,16.9l-19.9-8.7L191.4,633.6z"/>
				<path id="Path_8045" class="st7" d="M193.5,633.3c0,1.3-1,2.3-2.3,2.3s-2.3-1-2.3-2.3s1-2.3,2.3-2.3S193.5,632,193.5,633.3
					L193.5,633.3z"/>
				<circle id="Ellipse_379" class="st7" cx="212.4" cy="621.7" r="2.3"/>
				<circle id="Ellipse_380" class="st7" cx="232.2" cy="630" r="2.3"/>
				<circle id="Ellipse_381" class="st7" cx="248.8" cy="613.7" r="2.3"/>
				<path id="Path_8046" class="st7" d="M271.5,601.9c0,1.3-1,2.3-2.3,2.3s-2.3-1-2.3-2.3s1-2.3,2.3-2.3S271.5,600.6,271.5,601.9
					L271.5,601.9z"/>
			</g>
		</g>
		<g id="Group_2656">
			<g id="Group_2655">
				<path id="Path_8047" d="M680,352.1l3.8-0.1c0.4,0,0.8,0.3,0.8,0.7s-0.3,0.8-0.7,0.8h0l-3.8,0.1h0c-0.4,0-0.8-0.3-0.8-0.7
					C679.2,352.4,679.5,352.1,680,352.1L680,352.1z"/>
				<path id="Path_8048" d="M687.6,351.9l3.8,0c0.4,0,0.8,0.3,0.8,0.8c0,0.4-0.3,0.8-0.8,0.8l0,0h0l-3.8,0h0c-0.4,0-0.8-0.3-0.8-0.7
					S687.1,351.9,687.6,351.9C687.5,351.9,687.6,351.9,687.6,351.9L687.6,351.9z"/>
				<path id="Path_8049" d="M695.2,351.9l3.8,0.1c0.4,0,0.7,0.3,0.7,0.8c0,0.4-0.3,0.7-0.8,0.7l0,0h0l-3.8-0.1l0,0
					c-0.4,0-0.8-0.3-0.8-0.7C694.4,352.3,694.7,351.9,695.2,351.9C695.2,351.9,695.2,351.9,695.2,351.9L695.2,351.9z"/>
				<path id="Path_8050" d="M702.8,352.1l3.8,0.1c0.4,0,0.7,0.4,0.7,0.8s-0.4,0.7-0.8,0.7h0l-3.8-0.1h0c-0.4,0-0.7-0.4-0.7-0.8
					C702.1,352.4,702.4,352.1,702.8,352.1L702.8,352.1z"/>
				<path id="Path_8051" d="M710.4,352.4l3.8,0.2c0.4,0,0.7,0.4,0.7,0.8c0,0.4-0.4,0.7-0.8,0.7l0,0h0l-3.8-0.2h0
					c-0.4,0-0.7-0.4-0.7-0.8S710,352.4,710.4,352.4L710.4,352.4z"/>
				<path id="Path_8052" d="M718,352.8l3.8,0.3c0.4,0,0.7,0.4,0.7,0.8c0,0.4-0.4,0.7-0.8,0.7h0l-3.8-0.3h0c-0.4,0-0.7-0.4-0.7-0.8
					S717.6,352.8,718,352.8L718,352.8L718,352.8z"/>
				<path id="Path_8053" d="M725.6,353.4l3.8,0.3c0.4,0,0.7,0.4,0.7,0.8c0,0.4-0.4,0.7-0.8,0.7c0,0,0,0,0,0h0l-3.8-0.3h0
					c-0.4-0.1-0.7-0.4-0.6-0.8C724.9,353.7,725.3,353.4,725.6,353.4L725.6,353.4z"/>
				<path id="Path_8054" d="M733.2,354.1l3.8,0.4c0.4,0,0.7,0.4,0.7,0.8s-0.4,0.7-0.8,0.7c0,0,0,0,0,0h0l-3.8-0.4h0
					c-0.4-0.1-0.7-0.4-0.6-0.8C732.5,354.4,732.8,354.1,733.2,354.1L733.2,354.1z"/>
				<path id="Path_8055" d="M740.8,355l3.8,0.5c0.4,0.1,0.7,0.4,0.6,0.8c-0.1,0.4-0.4,0.7-0.8,0.6h0l-3.8-0.5h0
					c-0.4-0.1-0.7-0.4-0.6-0.8C740,355.3,740.4,355,740.8,355L740.8,355L740.8,355z"/>
				<path id="Path_8056" d="M748.4,356.1l3.8,0.6c0.4,0.1,0.7,0.5,0.6,0.8c-0.1,0.4-0.4,0.7-0.8,0.6h0l-3.7-0.6h0
					c-0.4-0.1-0.7-0.4-0.6-0.8S748,356.1,748.4,356.1L748.4,356.1z"/>
				<path id="Path_8057" d="M755.9,357.4l3.7,0.7c0.4,0.1,0.6,0.5,0.6,0.9c-0.1,0.4-0.5,0.6-0.8,0.6h0l-3.7-0.7h0
					c-0.4-0.1-0.7-0.5-0.6-0.9S755.5,357.3,755.9,357.4L755.9,357.4L755.9,357.4z"/>
				<path id="Path_8058" d="M763.4,358.9l3.7,0.8c0.4,0.1,0.6,0.5,0.5,0.9c-0.1,0.4-0.5,0.6-0.9,0.6h0l-3.7-0.8h0
					c-0.4-0.1-0.6-0.5-0.6-0.9C762.6,359.1,762.9,358.8,763.4,358.9C763.3,358.9,763.4,358.9,763.4,358.9L763.4,358.9z"/>
				<path id="Path_8059" d="M770.8,360.6l3.7,1c0.4,0.1,0.6,0.5,0.5,0.9c-0.1,0.4-0.5,0.6-0.9,0.5h0l-3.7-1h0
					c-0.4-0.1-0.6-0.5-0.6-0.9S770.4,360.5,770.8,360.6C770.8,360.6,770.8,360.6,770.8,360.6L770.8,360.6z"/>
				<path id="Path_8060" d="M778.2,362.6l3.7,1.1c0.4,0.1,0.6,0.5,0.5,0.9c-0.1,0.4-0.5,0.6-0.9,0.5h0l-3.6-1.1l0,0
					c-0.4-0.1-0.6-0.5-0.5-0.9C777.3,362.7,777.7,362.5,778.2,362.6C778.1,362.6,778.1,362.6,778.2,362.6L778.2,362.6z"/>
				<path id="Path_8061" d="M785.5,364.9l3.6,1.3c0.4,0.1,0.6,0.5,0.4,0.9c-0.1,0.4-0.5,0.6-0.9,0.4l0,0l-3.6-1.3l0,0
					c-0.4-0.1-0.6-0.6-0.4-0.9C784.7,365,785.1,364.8,785.5,364.9L785.5,364.9z"/>
				<path id="Path_8062" d="M792.6,367.6l3.5,1.5c0.4,0.2,0.5,0.6,0.4,0.9c-0.2,0.4-0.6,0.5-0.9,0.4l0,0l0,0l-3.5-1.5l0,0
					c-0.4-0.2-0.5-0.6-0.4-0.9C791.8,367.6,792.3,367.4,792.6,367.6z"/>
				<path id="Path_8063" d="M799.6,370.7l3.4,1.7c0.4,0.2,0.5,0.6,0.3,1c-0.2,0.4-0.6,0.5-1,0.3l0,0L799,372l0,0
					c-0.3-0.2-0.5-0.6-0.3-1C798.9,370.6,799.3,370.5,799.6,370.7L799.6,370.7z"/>
				<path id="Path_8064" d="M806.4,374.2l3.3,2c0.3,0.2,0.4,0.6,0.2,1c-0.2,0.3-0.6,0.4-1,0.2l0,0l-3.2-2l0,0
					c-0.3-0.2-0.4-0.6-0.2-1C805.6,374.1,806.1,374,806.4,374.2z"/>
				<path id="Path_8065" d="M812.9,378.3l3.2,2.1c0.3,0.2,0.4,0.7,0.2,1c-0.2,0.3-0.7,0.4-1,0.2l0,0l-3.1-2.1l0,0
					c-0.3-0.2-0.4-0.7-0.2-1C812.1,378.2,812.6,378.1,812.9,378.3L812.9,378.3z"/>
				<path id="Path_8066" d="M819.2,382.7l3.1,2.3c0.3,0.2,0.4,0.7,0.1,1s-0.7,0.4-1,0.1l0,0l0,0l-3-2.3l0,0c-0.3-0.2-0.4-0.7-0.1-1
					C818.4,382.5,818.8,382.4,819.2,382.7L819.2,382.7z"/>
				<path id="Path_8067" d="M825.2,387.4l2.9,2.5c0.3,0.3,0.3,0.7,0,1c-0.2,0.2-0.6,0.3-0.9,0.1l0,0l-2.9-2.4l0,0
					c-0.3-0.3-0.3-0.7,0-1C824.5,387.2,824.9,387.2,825.2,387.4L825.2,387.4z"/>
				<path id="Path_8068" d="M831,392.4l2.7,2.7c0.3,0.3,0.3,0.7,0,1s-0.7,0.3-1,0l0,0l-2.7-2.6l0,0c-0.3-0.3-0.2-0.7,0.1-1
					C830.3,392.2,830.7,392.2,831,392.4L831,392.4z"/>
				<path id="Path_8069" d="M836.3,397.9l2.5,2.9c0.3,0.3,0.2,0.7,0,1c-0.3,0.3-0.7,0.2-1,0c0,0,0,0,0,0l0,0l-2.4-2.9l0,0
					c-0.2-0.3-0.2-0.7,0.1-1C835.6,397.6,836.1,397.6,836.3,397.9L836.3,397.9z"/>
				<path id="Path_8070" d="M841.1,403.9l2.1,3.2c0.2,0.3,0.1,0.7-0.2,0.9c-0.3,0.2-0.7,0.1-0.9-0.2l0,0l-2.1-3.1l0,0
					c-0.2-0.3-0.1-0.7,0.2-1S840.9,403.6,841.1,403.9L841.1,403.9L841.1,403.9z"/>
				<path id="Path_8071" d="M845.1,410.5l1.6,3.5c0.2,0.3,0,0.7-0.3,0.9c-0.3,0.2-0.7,0-0.9-0.3l0,0l0-0.1l-1.5-3.4l0-0.1
					c-0.2-0.3,0-0.8,0.3-0.9C844.6,410,845,410.1,845.1,410.5L845.1,410.5z"/>
				<path id="Path_8072" d="M848,417.6c0.4,1.2,0.6,2.5,0.9,3.8c0.1,0.4-0.2,0.7-0.5,0.8c-0.4,0.1-0.7-0.2-0.8-0.5c0,0,0,0,0,0
					c-0.2-1.2-0.5-2.4-0.8-3.6c-0.1-0.4,0.1-0.7,0.4-0.9C847.5,417.1,847.9,417.3,848,417.6C848,417.6,848,417.6,848,417.6
					L848,417.6z"/>
				<path id="Path_8073" d="M849.3,425.3c0.1,1.3,0.1,2.6,0,3.9c0,0.4-0.4,0.6-0.7,0.6c-0.4,0-0.6-0.3-0.6-0.7
					c0.1-1.2,0.1-2.5,0-3.7c0-0.4,0.3-0.7,0.6-0.7C848.9,424.6,849.3,424.9,849.3,425.3L849.3,425.3z"/>
				<path id="Path_8074" d="M848.7,433c-0.2,1.3-0.6,2.5-1,3.8c-0.1,0.3-0.5,0.5-0.9,0.4c-0.3-0.1-0.5-0.5-0.4-0.8
					c0.4-1.2,0.7-2.4,0.9-3.6c0.1-0.4,0.4-0.6,0.8-0.5C848.6,432.3,848.8,432.7,848.7,433L848.7,433z"/>
				<path id="Path_8075" d="M846.4,440.4l-1.7,3.5c-0.2,0.3-0.6,0.5-0.9,0.3c-0.3-0.2-0.5-0.6-0.3-0.9l0-0.1l1.6-3.4l0-0.1
					c0.2-0.3,0.6-0.5,0.9-0.3C846.5,439.7,846.6,440.1,846.4,440.4L846.4,440.4z"/>
				<path id="Path_8076" d="M842.7,447.2l-2.2,3.1c-0.2,0.3-0.6,0.4-0.9,0.2c-0.3-0.2-0.4-0.6-0.2-0.9l0,0l2.2-3.1l0,0
					c0.2-0.3,0.6-0.4,0.9-0.1C842.9,446.5,842.9,446.9,842.7,447.2L842.7,447.2z"/>
				<path id="Path_8077" d="M838.1,453.3l-2.6,2.8c-0.3,0.3-0.7,0.3-0.9,0c-0.3-0.2-0.3-0.6,0-0.9l0,0l2.5-2.8l0,0
					c0.3-0.3,0.7-0.2,0.9,0C838.3,452.6,838.3,453,838.1,453.3L838.1,453.3z"/>
				<path id="Path_8078" d="M832.7,458.8l-2.8,2.6c-0.3,0.2-0.7,0.2-0.9,0s-0.2-0.7,0-0.9l0,0l2.8-2.5l0,0c0.3-0.3,0.7-0.2,0.9,0
					C833,458.1,833,458.5,832.7,458.8C832.7,458.8,832.7,458.8,832.7,458.8L832.7,458.8z"/>
				<path id="Path_8079" d="M826.9,463.8l-3,2.4l0,0c-0.3,0.2-0.7,0.2-0.9-0.1c-0.2-0.3-0.2-0.7,0.1-0.9l3-2.4h0
					c0.3-0.2,0.7-0.2,0.9,0.1S827.3,463.5,826.9,463.8C827,463.8,827,463.8,826.9,463.8L826.9,463.8z"/>
				<path id="Path_8080" d="M821,468.6l-2.9,2.4l0,0c-0.3,0.2-0.7,0.2-0.9-0.1c-0.2-0.3-0.2-0.7,0.1-0.9l0,0l2.9-2.5
					c0.3-0.2,0.7-0.2,0.9,0.1C821.3,467.9,821.3,468.3,821,468.6L821,468.6L821,468.6L821,468.6z"/>
				<path id="Path_8081" d="M815.2,473.5l-2.8,2.6l0,0c-0.3,0.2-0.7,0.2-0.9,0s-0.2-0.7,0-0.9l2.8-2.6c0.3-0.2,0.7-0.2,0.9,0
					S815.5,473.2,815.2,473.5L815.2,473.5L815.2,473.5z"/>
				<path id="Path_8082" d="M809.7,478.7l-2.6,2.7l0,0c-0.2,0.3-0.6,0.3-0.9,0.1s-0.3-0.6-0.1-0.9c0,0,0,0,0.1-0.1l2.7-2.8
					c0.2-0.3,0.6-0.3,0.9-0.1S810,478.3,809.7,478.7C809.8,478.6,809.7,478.6,809.7,478.7L809.7,478.7L809.7,478.7z"/>
				<path id="Path_8083" d="M804.6,484.2l-2.3,3l0,0c-0.2,0.3-0.6,0.3-0.9,0.1c-0.3-0.2-0.3-0.6-0.1-0.9l0,0l2.4-3
					c0.2-0.3,0.6-0.3,0.9-0.1C804.8,483.5,804.8,483.9,804.6,484.2L804.6,484.2L804.6,484.2L804.6,484.2z"/>
				<path id="Path_8084" d="M800.2,490.3c-0.6,1.1-1.2,2.2-1.7,3.3c-0.1,0.3-0.5,0.5-0.9,0.3s-0.5-0.5-0.3-0.9
					c0.5-1.2,1.1-2.3,1.8-3.4c0.2-0.3,0.6-0.4,0.9-0.3C800.3,489.6,800.4,490,800.2,490.3C800.2,490.3,800.2,490.3,800.2,490.3
					L800.2,490.3z"/>
				<path id="Path_8085" d="M797.2,497.1c-0.3,1.2-0.5,2.4-0.7,3.6c0,0.4-0.3,0.6-0.7,0.6c-0.4,0-0.6-0.3-0.6-0.7l0,0
					c0.1-1.3,0.4-2.6,0.7-3.8c0.1-0.3,0.4-0.5,0.8-0.5C797.1,496.4,797.3,496.8,797.2,497.1L797.2,497.1z"/>
				<path id="Path_8086" d="M796.6,504.4c0.1,1.2,0.3,2.5,0.6,3.7c0.1,0.3-0.1,0.7-0.5,0.8c-0.3,0.1-0.7-0.1-0.8-0.5
					c-0.3-1.3-0.5-2.5-0.6-3.8c0-0.4,0.2-0.7,0.6-0.7C796.2,503.8,796.5,504.1,796.6,504.4L796.6,504.4z"/>
				<path id="Path_8087" d="M798.2,511.7l1.4,3.5l0,0c0.1,0.3,0,0.7-0.3,0.8c-0.3,0.1-0.7,0-0.8-0.3c0,0,0,0,0,0l-1.4-3.6
					c-0.1-0.3,0-0.7,0.4-0.8C797.7,511.2,798.1,511.3,798.2,511.7L798.2,511.7L798.2,511.7z"/>
				<path id="Path_8088" d="M801.1,518.6l1.7,3.4l0,0c0.2,0.3,0,0.7-0.3,0.8c-0.3,0.2-0.7,0-0.8-0.3l-1.7-3.4
					c-0.2-0.3,0-0.7,0.3-0.8C800.6,518.2,801,518.3,801.1,518.6L801.1,518.6L801.1,518.6L801.1,518.6z"/>
				<path id="Path_8089" d="M804.5,525.4l1.5,3.6c0.1,0.3,0,0.7-0.3,0.8c-0.3,0.1-0.7,0-0.8-0.3c0,0,0,0,0,0l0,0l-1.4-3.5l0-0.1
					c-0.1-0.3,0-0.7,0.4-0.8C804,525,804.4,525.1,804.5,525.4L804.5,525.4z"/>
				<path id="Path_8090" d="M807.2,532.7l0.9,3.7c0.1,0.3-0.1,0.7-0.5,0.8c-0.3,0.1-0.7-0.1-0.8-0.5l0,0L806,533l0,0
					c-0.1-0.3,0.1-0.7,0.5-0.7C806.8,532.2,807.1,532.4,807.2,532.7L807.2,532.7z"/>
				<path id="Path_8091" d="M808.8,540.2l0.5,3.8c0,0.3-0.2,0.7-0.5,0.7s-0.7-0.2-0.7-0.5v0l-0.5-3.7l0,0c-0.1-0.3,0.2-0.7,0.5-0.7
					C808.4,539.5,808.8,539.8,808.8,540.2C808.8,540.1,808.8,540.1,808.8,540.2L808.8,540.2z"/>
				<path id="Path_8092" d="M809.6,547.8l0.1,3.8c0,0.3-0.3,0.6-0.6,0.6c-0.3,0-0.6-0.3-0.6-0.6v0l-0.1-3.8v0c0-0.3,0.3-0.6,0.6-0.6
					C809.4,547.2,809.6,547.5,809.6,547.8L809.6,547.8z"/>
				<path id="Path_8093" d="M809.7,555.5l-0.3,3.8c0,0.3-0.3,0.6-0.7,0.6c-0.3,0-0.6-0.3-0.6-0.7v0l0.3-3.8v0c0-0.3,0.3-0.6,0.7-0.6
					C809.4,554.8,809.7,555.1,809.7,555.5L809.7,555.5z"/>
				<path id="Path_8094" d="M808.8,563.1l-0.7,3.8c-0.1,0.3-0.4,0.5-0.7,0.5c-0.3-0.1-0.5-0.4-0.5-0.7l0,0l0.7-3.7l0,0
					c0.1-0.3,0.4-0.6,0.7-0.5S808.9,562.7,808.8,563.1C808.8,563.1,808.8,563.1,808.8,563.1L808.8,563.1z"/>
				<path id="Path_8095" d="M807.2,570.6l-1.1,3.7c-0.1,0.3-0.4,0.5-0.8,0.4s-0.5-0.4-0.4-0.8l0,0l1.1-3.6l0,0
					c0.1-0.3,0.5-0.5,0.8-0.4C807.1,570,807.3,570.3,807.2,570.6L807.2,570.6z"/>
				<path id="Path_8096" d="M804.8,577.8l-1.5,3.5c-0.1,0.3-0.5,0.5-0.8,0.3c-0.3-0.1-0.5-0.5-0.3-0.8c0,0,0,0,0,0l0,0l1.5-3.5l0,0
					c0.1-0.3,0.5-0.5,0.8-0.3C804.8,577.2,804.9,577.5,804.8,577.8L804.8,577.8z"/>
				<path id="Path_8097" d="M801.5,584.8l-1.9,3.3c-0.2,0.3-0.5,0.4-0.8,0.2s-0.4-0.5-0.2-0.8l0,0l0,0l1.9-3.3l0,0
					c0.2-0.3,0.5-0.4,0.8-0.2C801.6,584.1,801.7,584.5,801.5,584.8L801.5,584.8z"/>
				<path id="Path_8098" d="M797.6,591.4l-2.2,3.1c-0.2,0.3-0.6,0.3-0.8,0.1c-0.3-0.2-0.3-0.6-0.1-0.8l0,0l2.2-3.1l0,0
					c0.2-0.3,0.6-0.3,0.8-0.1S797.8,591.1,797.6,591.4L797.6,591.4z"/>
				<path id="Path_8099" d="M793,597.5l-2.5,2.9c-0.2,0.2-0.6,0.2-0.8,0c-0.2-0.2-0.2-0.5-0.1-0.8l0,0l2.5-2.8l0,0
					c0.2-0.2,0.6-0.3,0.8-0.1C793.2,596.9,793.2,597.3,793,597.5L793,597.5z"/>
				<path id="Path_8100" d="M787.8,603.2l-2.8,2.6c-0.2,0.3-0.6,0.3-0.8,0.1s-0.3-0.6-0.1-0.8c0,0,0.1-0.1,0.1-0.1l0,0l2.7-2.6l0,0
					c0.2-0.3,0.6-0.3,0.8-0.1C788.1,602.4,788.1,602.8,787.8,603.2C787.9,603.1,787.9,603.1,787.8,603.2L787.8,603.2z"/>
				<path id="Path_8101" d="M782.2,608.3l-3,2.4c-0.3,0.2-0.6,0.2-0.8-0.1c-0.2-0.3-0.2-0.6,0.1-0.8l0,0l2.9-2.4l0,0
					c0.2-0.2,0.6-0.2,0.8,0.1C782.5,607.7,782.5,608.1,782.2,608.3C782.2,608.3,782.2,608.3,782.2,608.3L782.2,608.3z"/>
				<path id="Path_8102" d="M776.2,613l-3.1,2.2c-0.3,0.2-0.6,0.1-0.8-0.1s-0.1-0.6,0.1-0.8l0,0l3.1-2.2l0,0
					c0.3-0.2,0.6-0.1,0.8,0.2C776.5,612.5,776.4,612.9,776.2,613L776.2,613z"/>
				<path id="Path_8103" d="M769.8,617.3l-3.3,2c-0.3,0.1-0.6,0-0.8-0.3c-0.1-0.3-0.1-0.6,0.2-0.7l0,0l3.2-2l0,0
					c0.3-0.2,0.6-0.1,0.8,0.2S770.1,617.1,769.8,617.3C769.8,617.3,769.8,617.3,769.8,617.3L769.8,617.3z"/>
				<path id="Path_8104" d="M763.2,621.1l-3.4,1.8c-0.3,0.1-0.6,0-0.8-0.2s0-0.6,0.2-0.8l0,0l0,0l3.4-1.8l0,0c0.3-0.1,0.6,0,0.8,0.3
					C763.6,620.6,763.5,621,763.2,621.1L763.2,621.1z"/>
				<path id="Path_8105" d="M756.4,624.6l-3.5,1.6c-0.3,0.1-0.6,0-0.8-0.3c-0.1-0.3,0-0.6,0.3-0.8c0,0,0,0,0,0l0,0l3.4-1.6l0,0
					c0.3-0.1,0.6,0,0.8,0.3C756.8,624.1,756.6,624.4,756.4,624.6L756.4,624.6z"/>
				<path id="Path_8106" d="M749.4,627.7l-3.5,1.4c-0.3,0.1-0.6,0-0.8-0.3c-0.1-0.3,0-0.6,0.3-0.8c0,0,0,0,0,0l0,0l3.5-1.4l0,0
					c0.3-0.1,0.6,0,0.8,0.3C749.8,627.2,749.7,627.5,749.4,627.7z"/>
				<path id="Path_8107" d="M742.3,630.4l-3.6,1.3c-0.3,0.1-0.6-0.1-0.7-0.4s0.1-0.6,0.4-0.7l0,0h0l3.6-1.3h0
					c0.3-0.1,0.6,0.1,0.7,0.4S742.6,630.3,742.3,630.4L742.3,630.4z"/>
			</g>
			<path id="Path_8108" d="M666.6,342.2l2,12.3l-9.2-3.9L666.6,342.2z"/>
			
				<linearGradient id="Path_8109_1_" gradientUnits="userSpaceOnUse" x1="227.9243" y1="983.447" x2="228.9243" y2="983.447" gradientTransform="matrix(64.9807 0 0 -42.5649 -14200.5811 42207.457)">
				<stop  offset="0" style="stop-color:#002FF5"/>
				<stop  offset="0.189" style="stop-color:#003EF4"/>
				<stop  offset="0.559" style="stop-color:#0068F4"/>
				<stop  offset="1" style="stop-color:#00A2F4"/>
			</linearGradient>
			<path id="Path_8109" class="st10" d="M610.1,344.2l38,23.7c1.5,0.9,3.4,0.5,4.4-1c0,0,0-0.1,0.1-0.1l22.4-39.1
				c0.3-0.6,0.1-1.4-0.5-1.7c-0.3-0.2-0.7-0.2-1-0.1L610.1,344.2z"/>
			<path id="Path_8110" d="M666.6,342.2l-56.5,2l52.9,4.3l0.7,3.4L666.6,342.2z"/>
			<path id="Path_8111" d="M660.9,352.3l7.8,2.3l-5.6-6L660.9,352.3z"/>
		</g>
		<g id="Group_2657">
			
				<linearGradient id="Ellipse_382_1_" gradientUnits="userSpaceOnUse" x1="228.14" y1="984.5173" x2="229.14" y2="984.5173" gradientTransform="matrix(86.28 -25.9361 -25.4686 -84.7248 5615.5459 89970.9609)">
				<stop  offset="0" style="stop-color:#DAE3FE"/>
				<stop  offset="1" style="stop-color:#E9EFFD"/>
			</linearGradient>
			<path id="Ellipse_382" class="st11" d="M252,586.6c23.8-7.2,48.8,6,55.9,29.4c7,23.4-6.6,48.2-30.4,55.3
				c-23.8,7.2-48.8-6-55.9-29.4C214.5,618.6,228.1,593.8,252,586.6z"/>
			
				<linearGradient id="Path_8112_1_" gradientUnits="userSpaceOnUse" x1="228.6097" y1="984.1362" x2="229.6307" y2="984.9052" gradientTransform="matrix(165.1216 0 0 -151.5056 -37608.125 149817.125)">
				<stop  offset="0" style="stop-color:#0575E6"/>
				<stop  offset="1" style="stop-color:#021B79"/>
			</linearGradient>
			<path id="Path_8112" class="st12" d="M312.7,614.6c-7.8-26-35.7-40.7-62.2-32.7s-41.7,35.5-33.8,61.6c2.1,7,5.8,13.5,10.8,18.9
				l-75,56c-3.1,2.3-3.7,6.7-1.4,9.8c0.1,0.1,0.2,0.3,0.3,0.4l0.4,0.5c2.4,2.7,6.5,3,9.2,0.6c0,0,0,0,0,0l71-62.9
				c13,10.9,30.6,14.4,46.9,9.5C305.4,668.2,320.5,640.6,312.7,614.6z M276.8,669.2c-22.6,6.8-46.4-5.7-53-27.9s6.2-45.7,28.9-52.5
				c22.6-6.8,46.4,5.7,53,27.9S299.4,662.4,276.8,669.2L276.8,669.2z"/>
		</g>
		<g id="Group_2667">
			<g id="Group_2658">
				
					<linearGradient id="Path_8113_1_" gradientUnits="userSpaceOnUse" x1="1462.1534" y1="1042.6954" x2="1453.9524" y2="1042.3035" gradientTransform="matrix(2.252 0 0 -22.4274 71.5059 22455.3164)">
					<stop  offset="0" style="stop-color:#09005D"/>
					<stop  offset="1" style="stop-color:#1A0F91"/>
				</linearGradient>
				<path id="Path_8113" class="st13" d="M509.2,440.6c-0.6,0-1.1-0.5-1.1-1.1v-20.1c0-0.6,0.5-1.1,1.1-1.2c0.6,0,1.1,0.5,1.2,1.1
					c0,0,0,0,0,0.1v20.1C510.3,440.1,509.8,440.6,509.2,440.6z"/>
				
					<linearGradient id="Path_8114_1_" gradientUnits="userSpaceOnUse" x1="167.3587" y1="1107.913" x2="166.9717" y2="1108.854" gradientTransform="matrix(9.218 0 0 -7.983 -1528.7373 8237.8262)">
					<stop  offset="0" style="stop-color:#09005D"/>
					<stop  offset="1" style="stop-color:#1A0F91"/>
				</linearGradient>
				<path id="Path_8114" class="st14" d="M513.3,435l-4.6,8l-4.6-8H513.3z"/>
			</g>
			<g id="Group_2659">
				
					<linearGradient id="Path_8115_1_" gradientUnits="userSpaceOnUse" x1="1501.6185" y1="1042.3839" x2="1493.1045" y2="1041.9918" gradientTransform="matrix(2.251 0 0 -23.2266 71.7372 23331.1094)">
					<stop  offset="0" style="stop-color:#09005D"/>
					<stop  offset="1" style="stop-color:#1A0F91"/>
				</linearGradient>
				<path id="Path_8115" class="st15" d="M509.2,529.7c-0.6,0-1.1-0.5-1.1-1.1l0,0v-21c0-0.6,0.5-1.1,1.2-1.1c0.6,0,1.1,0.5,1.1,1.1
					v21C510.3,529.2,509.8,529.7,509.2,529.7z"/>
				
					<linearGradient id="Path_8116_1_" gradientUnits="userSpaceOnUse" x1="164.8422" y1="1113.8245" x2="164.4542" y2="1114.7665" gradientTransform="matrix(9.218 0 0 -7.984 -1528.7373 8327.873)">
					<stop  offset="0" style="stop-color:#09005D"/>
					<stop  offset="1" style="stop-color:#1A0F91"/>
				</linearGradient>
				<path id="Path_8116" class="st16" d="M513.3,524.1l-4.6,8l-4.6-8L513.3,524.1z"/>
			</g>
			<g id="Group_2660">
				
					<linearGradient id="Path_8117_1_" gradientUnits="userSpaceOnUse" x1="1553.7986" y1="1031.3146" x2="1542.8376" y2="1030.9236" gradientTransform="matrix(2.252 0 0 -30.0465 70.0049 30163.0195)">
					<stop  offset="0" style="stop-color:#09005D"/>
					<stop  offset="1" style="stop-color:#1A0F91"/>
				</linearGradient>
				<path id="Path_8117" class="st17" d="M507.7,647.7c-0.6,0-1.1-0.5-1.1-1.1v-27.8c0-0.6,0.5-1.1,1.1-1.2c0.6,0,1.1,0.5,1.2,1.1
					c0,0,0,0,0,0.1v27.8C508.8,647.2,508.3,647.7,507.7,647.7z"/>
				
					<linearGradient id="Path_8118_1_" gradientUnits="userSpaceOnUse" x1="161.5618" y1="1121.7833" x2="161.1738" y2="1122.7253" gradientTransform="matrix(9.218 0 0 -7.983 -1529.8912 8444.8809)">
					<stop  offset="0" style="stop-color:#09005D"/>
					<stop  offset="1" style="stop-color:#1A0F91"/>
				</linearGradient>
				<path id="Path_8118" class="st18" d="M512.1,642.1l-4.6,8l-4.6-8H512.1z"/>
			</g>
			<g id="Group_2661">
				
					<linearGradient id="Path_8119_1_" gradientUnits="userSpaceOnUse" x1="228.89" y1="984.3326" x2="227.747" y2="983.7086" gradientTransform="matrix(64.1176 0 0 -55.898 -14207.6494 55503.8164)">
					<stop  offset="0" style="stop-color:#09005D"/>
					<stop  offset="1" style="stop-color:#1A0F91"/>
				</linearGradient>
				<path id="Path_8119" class="st19" d="M406.4,538.9c-0.6,0-1.1-0.5-1.1-1.1c0,0,0,0,0,0v-53.6c0-0.6,0.5-1.1,1.1-1.1h61.9
					c0.6,0,1.1,0.5,1.1,1.2c0,0.6-0.5,1.1-1.1,1.1h-60.8v52.5C407.5,538.4,407,538.9,406.4,538.9L406.4,538.9z"/>
				
					<linearGradient id="Path_8120_1_" gradientUnits="userSpaceOnUse" x1="170.6375" y1="1099.6202" x2="170.2495" y2="1100.5613" gradientTransform="matrix(9.217 0 0 -7.983 -1631.2985 8339.835)">
					<stop  offset="0" style="stop-color:#09005D"/>
					<stop  offset="1" style="stop-color:#1A0F91"/>
				</linearGradient>
				<path id="Path_8120" class="st20" d="M410.5,537.1l-4.6,8l-4.6-8H410.5z"/>
			</g>
			<g id="Group_2662">
				
					<linearGradient id="Path_8121_1_" gradientUnits="userSpaceOnUse" x1="231.5587" y1="985.5261" x2="230.4157" y2="984.9022" gradientTransform="matrix(64.1176 0 0 -55.898 -14063.1973 55503.8164)">
					<stop  offset="0" style="stop-color:#09005D"/>
					<stop  offset="1" style="stop-color:#1A0F91"/>
				</linearGradient>
				<path id="Path_8121" class="st21" d="M612.7,538.9c-0.6,0-1.1-0.5-1.1-1.1v-52.5h-60.8c-0.6,0-1.1-0.5-1.1-1.2
					c0-0.6,0.5-1.1,1.1-1.1h61.9c0.6,0,1.1,0.5,1.1,1.1v53.6C613.8,538.4,613.3,538.9,612.7,538.9L612.7,538.9z"/>
				
					<linearGradient id="Path_8122_1_" gradientUnits="userSpaceOnUse" x1="151.5766" y1="1145.848" x2="151.1886" y2="1146.7891" gradientTransform="matrix(9.217 0 0 -7.983 -1424.3135 8339.835)">
					<stop  offset="0" style="stop-color:#09005D"/>
					<stop  offset="1" style="stop-color:#1A0F91"/>
				</linearGradient>
				<path id="Path_8122" class="st22" d="M608.2,537.1l4.6,8l4.6-8H608.2z"/>
			</g>
			
				<linearGradient id="Path_8123_1_" gradientUnits="userSpaceOnUse" x1="228.7668" y1="982.0579" x2="229.7668" y2="982.0579" gradientTransform="matrix(208.586 0 0 -22.1345 -47313.0547 22345.8516)">
				<stop  offset="0" style="stop-color:#09005D"/>
				<stop  offset="1" style="stop-color:#1A0F91"/>
			</linearGradient>
			<path id="Path_8123" class="st23" d="M611.9,619.6H405.6c-0.6,0-1.1-0.5-1.1-1.1v-19.9c0-0.6,0.5-1.1,1.2-1.1
				c0.6,0,1.1,0.5,1.1,1.1v18.8h204.1v-18.8c0-0.6,0.5-1.1,1.1-1.1s1.1,0.5,1.1,1.1v19.9C613.1,619.1,612.6,619.6,611.9,619.6z"/>
			<g id="Group_2664">
				<g id="Group_2663">
					<rect id="Rectangle_7378" x="540.2" y="368.1" width="2.2" height="5.9"/>
					<rect id="Rectangle_7379" x="540.2" y="403" width="2.2" height="5.9"/>
					<rect id="Rectangle_7380" x="480.1" y="333.9" width="2.2" height="5.9"/>
					<rect id="Rectangle_7381" x="480.1" y="385.8" width="2.2" height="5.9"/>
					<rect id="Rectangle_7382" x="482.1" y="330.6" class="st24" width="58.8" height="12.7"/>
					
						<linearGradient id="Rectangle_7383_1_" gradientUnits="userSpaceOnUse" x1="227.1871" y1="974.6891" x2="228.1871" y2="974.6891" gradientTransform="matrix(40.552 0 0 -6.242 -8727.957 6421.0205)">
						<stop  offset="0" style="stop-color:#3054D4"/>
						<stop  offset="1" style="stop-color:#062684"/>
					</linearGradient>
					<rect id="Rectangle_7383" x="484.9" y="333.9" class="st25" width="40.6" height="6.2"/>
					<circle id="Ellipse_383" cx="531" cy="336.7" r="1.6"/>
					
						<linearGradient id="Path_8124_1_" gradientUnits="userSpaceOnUse" x1="203.8558" y1="964.5768" x2="204.8557" y2="964.5768" gradientTransform="matrix(3.144 0 0 -3.144 -105.3652 3369.4114)">
						<stop  offset="0" style="stop-color:#09005D"/>
						<stop  offset="1" style="stop-color:#1A0F91"/>
					</linearGradient>
					<path id="Path_8124" class="st26" d="M538.7,336.7c0-0.9-0.7-1.6-1.6-1.6s-1.6,0.7-1.6,1.6c0,0.9,0.7,1.6,1.6,1.6
						C538,338.3,538.7,337.6,538.7,336.7z"/>
					<circle id="Ellipse_384" class="st3" cx="521.8" cy="336.7" r="1.6"/>
					<rect id="Rectangle_7384" x="484.3" y="343.4" width="54.4" height="4.4"/>
					<rect id="Rectangle_7385" x="482.1" y="347.7" class="st24" width="58.8" height="12.7"/>
					
						<linearGradient id="Rectangle_7386_1_" gradientUnits="userSpaceOnUse" x1="227.1871" y1="974.6891" x2="228.1871" y2="974.6891" gradientTransform="matrix(40.552 0 0 -6.242 -8727.957 6438.1304)">
						<stop  offset="0" style="stop-color:#3054D4"/>
						<stop  offset="1" style="stop-color:#062684"/>
					</linearGradient>
					<rect id="Rectangle_7386" x="484.9" y="351" class="st27" width="40.6" height="6.2"/>
					
						<linearGradient id="Ellipse_385_1_" gradientUnits="userSpaceOnUse" x1="203.8715" y1="964.5894" x2="204.8715" y2="964.5894" gradientTransform="matrix(3.146 0 0 -3.146 -111.9746 3388.4468)">
						<stop  offset="0" style="stop-color:#09005D"/>
						<stop  offset="1" style="stop-color:#1A0F91"/>
					</linearGradient>
					<circle id="Ellipse_385" class="st28" cx="531" cy="353.8" r="1.6"/>
					<path id="Path_8125" d="M538.7,353.8c0-0.9-0.7-1.6-1.6-1.6s-1.6,0.7-1.6,1.6c0,0.9,0.7,1.6,1.6,1.6
						C538,355.4,538.7,354.7,538.7,353.8z"/>
					<circle id="Ellipse_386" class="st3" cx="521.8" cy="353.8" r="1.6"/>
					<rect id="Rectangle_7387" x="484.3" y="360.5" width="54.4" height="4.4"/>
					<rect id="Rectangle_7388" x="482.1" y="364.9" class="st24" width="58.8" height="12.7"/>
					
						<linearGradient id="Rectangle_7389_1_" gradientUnits="userSpaceOnUse" x1="227.1871" y1="974.6891" x2="228.1871" y2="974.6891" gradientTransform="matrix(40.552 0 0 -6.242 -8727.957 6455.2393)">
						<stop  offset="0" style="stop-color:#3054D4"/>
						<stop  offset="1" style="stop-color:#062684"/>
					</linearGradient>
					<rect id="Rectangle_7389" x="484.9" y="368.1" class="st29" width="40.6" height="6.2"/>
					<circle id="Ellipse_387" cx="531" cy="371" r="1.6"/>
					
						<linearGradient id="Path_8126_1_" gradientUnits="userSpaceOnUse" x1="203.8558" y1="964.5768" x2="204.8557" y2="964.5768" gradientTransform="matrix(3.144 0 0 -3.144 -105.3652 3403.6323)">
						<stop  offset="0" style="stop-color:#09005D"/>
						<stop  offset="1" style="stop-color:#1A0F91"/>
					</linearGradient>
					<path id="Path_8126" class="st30" d="M538.7,371c0-0.9-0.7-1.6-1.6-1.6s-1.6,0.7-1.6,1.6c0,0.9,0.7,1.6,1.6,1.6
						C538,372.5,538.7,371.8,538.7,371C538.7,371,538.7,371,538.7,371z"/>
					<circle id="Ellipse_388" class="st3" cx="521.8" cy="371" r="1.6"/>
					<rect id="Rectangle_7390" x="484.3" y="377.6" width="54.4" height="4.4"/>
					<rect id="Rectangle_7391" x="482.1" y="382" class="st24" width="58.8" height="12.7"/>
					
						<linearGradient id="Rectangle_7392_1_" gradientUnits="userSpaceOnUse" x1="227.1871" y1="974.6891" x2="228.1871" y2="974.6891" gradientTransform="matrix(40.552 0 0 -6.242 -8727.957 6472.3486)">
						<stop  offset="0" style="stop-color:#3054D4"/>
						<stop  offset="1" style="stop-color:#062684"/>
					</linearGradient>
					<rect id="Rectangle_7392" x="484.9" y="385.2" class="st31" width="40.6" height="6.2"/>
					
						<linearGradient id="Ellipse_389_1_" gradientUnits="userSpaceOnUse" x1="203.8715" y1="964.5894" x2="204.8715" y2="964.5894" gradientTransform="matrix(3.146 0 0 -3.146 -111.9746 3422.6658)">
						<stop  offset="0" style="stop-color:#09005D"/>
						<stop  offset="1" style="stop-color:#1A0F91"/>
					</linearGradient>
					<circle id="Ellipse_389" class="st32" cx="531" cy="388.1" r="1.6"/>
					<path id="Path_8127" d="M538.7,388.1c0-0.9-0.7-1.6-1.6-1.6c-0.9,0-1.6,0.7-1.6,1.6c0,0.9,0.7,1.6,1.6,1.6
						C538,389.6,538.7,388.9,538.7,388.1z"/>
					<circle id="Ellipse_390" class="st3" cx="521.8" cy="388.1" r="1.6"/>
					<rect id="Rectangle_7393" x="484.3" y="394.7" width="54.4" height="4.4"/>
					<rect id="Rectangle_7394" x="482.1" y="399.1" class="st24" width="58.8" height="12.7"/>
					
						<linearGradient id="Rectangle_7395_1_" gradientUnits="userSpaceOnUse" x1="227.1871" y1="974.6891" x2="228.1871" y2="974.6891" gradientTransform="matrix(40.552 0 0 -6.242 -8727.957 6489.4585)">
						<stop  offset="0" style="stop-color:#3054D4"/>
						<stop  offset="1" style="stop-color:#062684"/>
					</linearGradient>
					<rect id="Rectangle_7395" x="484.9" y="402.3" class="st33" width="40.6" height="6.2"/>
					<circle id="Ellipse_391" cx="531" cy="405.2" r="1.6"/>
					
						<linearGradient id="Path_8128_1_" gradientUnits="userSpaceOnUse" x1="203.8558" y1="964.5768" x2="204.8557" y2="964.5768" gradientTransform="matrix(3.144 0 0 -3.144 -105.3652 3437.8484)">
						<stop  offset="0" style="stop-color:#09005D"/>
						<stop  offset="1" style="stop-color:#1A0F91"/>
					</linearGradient>
					<path id="Path_8128" class="st34" d="M538.7,405.2c0-0.9-0.7-1.6-1.6-1.6s-1.6,0.7-1.6,1.6c0,0.9,0.7,1.6,1.6,1.6
						C538,406.7,538.7,406,538.7,405.2z"/>
					<circle id="Ellipse_392" class="st3" cx="521.8" cy="405.2" r="1.6"/>
				</g>
				<line id="Line_185" class="st35" x1="515.4" y1="328.9" x2="518.7" y2="328.9"/>
				<line id="Line_186" class="st35" x1="492.6" y1="328.9" x2="511.7" y2="328.9"/>
				<line id="Line_187" class="st35" x1="479.7" y1="406.3" x2="479.7" y2="408.7"/>
				<line id="Line_188" class="st35" x1="479.7" y1="399" x2="479.7" y2="404"/>
			</g>
			
				<linearGradient id="Path_8129_1_" gradientUnits="userSpaceOnUse" x1="227.6742" y1="983.8582" x2="229.4052" y2="982.3403" gradientTransform="matrix(65.6631 0 0 -38.99 -14490.4248 38817.9609)">
				<stop  offset="0" style="stop-color:#3054D4"/>
				<stop  offset="1" style="stop-color:#062684"/>
			</linearGradient>
			<path id="Path_8129" class="st36" d="M531.1,475.8c-2,0-3.9,0.5-5.6,1.5c1.4-8.4-4.2-16.4-12.6-17.8c-8.3-1.4-16.2,4.1-17.8,12.3
				c-7.1-2.7-14.9,0.9-17.6,7.9c-2.7,7.1,0.9,14.9,7.9,17.6c1.5,0.6,3.2,0.9,4.8,0.9h40.8c6.2,0,11.2-5,11.2-11.2
				C542.3,480.8,537.3,475.8,531.1,475.8L531.1,475.8z"/>
			<path id="Path_8130" class="st37" d="M479.8,497.1c0.6,0.4,1.2,0.7,1.8,1"/>
			<path id="Path_8131" class="st37" d="M475.3,491.9c0.5,1.3,1.3,2.5,2.3,3.5"/>
			<path id="Path_8132" class="st37" d="M500.5,458.4c2.4-1.6,5.2-2.4,8-2.3"/>
			<path id="Path_8133" class="st37" d="M498.1,460.7c0.4-0.5,0.8-1,1.3-1.4"/>
			
				<linearGradient id="Rectangle_7396_1_" gradientUnits="userSpaceOnUse" x1="227.7711" y1="983.3331" x2="228.7711" y2="983.3331" gradientTransform="matrix(57.752 0 0 -39.571 -12674.0859 39471.0078)">
				<stop  offset="0" style="stop-color:#09005D"/>
				<stop  offset="1" style="stop-color:#1A0F91"/>
			</linearGradient>
			<rect id="Rectangle_7396" x="480.1" y="539.7" class="st38" width="57.8" height="39.6"/>
			
				<linearGradient id="Path_8134_1_" gradientUnits="userSpaceOnUse" x1="228.0888" y1="981.2899" x2="229.0888" y2="981.2899" gradientTransform="matrix(75.078 0 0 -17.493 -16652.9609 17753.752)">
				<stop  offset="0" style="stop-color:#1A0F91"/>
				<stop  offset="1" style="stop-color:#09005D"/>
			</linearGradient>
			<path id="Path_8134" class="st39" d="M546.6,596.8h-75.1l8.7-17.5h57.8L546.6,596.8z"/>
			<rect id="Rectangle_7397" x="483.6" y="542.9" class="st3" width="50.8" height="33.3"/>
			
				<linearGradient id="Rectangle_7398_1_" gradientUnits="userSpaceOnUse" x1="228.0893" y1="924.8576" x2="229.0893" y2="924.8576" gradientTransform="matrix(75.112 0 0 -1.066 -16660.7578 1583.2438)">
				<stop  offset="0" style="stop-color:#09005D"/>
				<stop  offset="1" style="stop-color:#1A0F91"/>
			</linearGradient>
			<rect id="Rectangle_7398" x="471.5" y="596.8" class="st40" width="75.1" height="1.1"/>
			<g id="Group_2665">
				
					<linearGradient id="Rectangle_7399_1_" gradientUnits="userSpaceOnUse" x1="231.596" y1="987.2007" x2="232.596" y2="987.2007" gradientTransform="matrix(-32.483 0 0 28.487 7952.1157 -27554.7031)">
					<stop  offset="0" style="stop-color:#1A0F91"/>
					<stop  offset="1" style="stop-color:#09005D"/>
				</linearGradient>
				<path id="Rectangle_7399" class="st41" d="M428.4,581.9h-31.7l0,0v-28.5l0,0h31.7c0.4,0,0.8,0.3,0.8,0.8v27
					C429.2,581.6,428.8,581.9,428.4,581.9z"/>
				
					<linearGradient id="Rectangle_7400_1_" gradientUnits="userSpaceOnUse" x1="231.5782" y1="987.2007" x2="232.5782" y2="987.2007" gradientTransform="matrix(-32.721 0 0 28.487 8005.7969 -27554.7031)">
					<stop  offset="0" style="stop-color:#09005D"/>
					<stop  offset="1" style="stop-color:#1A0F91"/>
				</linearGradient>
				<rect id="Rectangle_7400" x="395.6" y="553.4" class="st42" width="32.7" height="28.5"/>
				<rect id="Rectangle_7401" x="397.4" y="555.7" class="st3" width="28.4" height="24"/>
				
					<linearGradient id="Path_8135_1_" gradientUnits="userSpaceOnUse" x1="227.7827" y1="976.02" x2="228.7827" y2="976.02" gradientTransform="matrix(58.245 0 0 -7.172 -12897.124 7585.5269)">
					<stop  offset="0" style="stop-color:#1A0F91"/>
					<stop  offset="1" style="stop-color:#09005D"/>
				</linearGradient>
				<path id="Path_8135" class="st43" d="M428.3,581.9l-24.8,7.2h-33.4l25.5-7.2H428.3z"/>
				
					<linearGradient id="Path_8136_1_" gradientUnits="userSpaceOnUse" x1="225.9426" y1="977.3167" x2="226.9426" y2="977.3167" gradientTransform="matrix(24.808 0 0 -8.39 -5201.6626 8785.8242)">
					<stop  offset="0" style="stop-color:#09005D"/>
					<stop  offset="1" style="stop-color:#1A0F91"/>
				</linearGradient>
				<path id="Path_8136" class="st44" d="M428.3,581.9v1l-24.8,7.4l0-1.2L428.3,581.9z"/>
				
					<linearGradient id="Rectangle_7402_1_" gradientUnits="userSpaceOnUse" x1="231.5261" y1="1037.5469" x2="232.5261" y2="1037.5469" gradientTransform="matrix(-33.438 0 0 1.218 8145.2915 -674.0226)">
					<stop  offset="0" style="stop-color:#09005D"/>
					<stop  offset="1" style="stop-color:#1A0F91"/>
				</linearGradient>
				<rect id="Rectangle_7402" x="370.1" y="589.1" class="st45" width="33.4" height="1.2"/>
			</g>
			<g id="Group_2666">
				
					<linearGradient id="Rectangle_7403_1_" gradientUnits="userSpaceOnUse" x1="226.9959" y1="982.7032" x2="227.9959" y2="982.7032" gradientTransform="matrix(32.483 0 0 -28.487 -6772.1328 28561.9512)">
					<stop  offset="0" style="stop-color:#1A0F91"/>
					<stop  offset="1" style="stop-color:#09005D"/>
				</linearGradient>
				<path id="Rectangle_7403" class="st46" d="M592.5,553.4h31.7l0,0v28.5l0,0h-31.7c-0.4,0-0.8-0.3-0.8-0.8v-27
					C591.8,553.8,592.1,553.4,592.5,553.4z"/>
				
					<linearGradient id="Rectangle_7404_1_" gradientUnits="userSpaceOnUse" x1="226.9528" y1="982.7032" x2="227.9528" y2="982.7032" gradientTransform="matrix(32.721 0 0 -28.487 -6825.8145 28561.9512)">
					<stop  offset="0" style="stop-color:#09005D"/>
					<stop  offset="1" style="stop-color:#1A0F91"/>
				</linearGradient>
				<rect id="Rectangle_7404" x="592.6" y="553.4" class="st47" width="32.7" height="28.5"/>
				<rect id="Rectangle_7405" x="595.1" y="555.7" class="st3" width="28.4" height="24"/>
				
					<linearGradient id="Path_8137_1_" gradientUnits="userSpaceOnUse" x1="227.4766" y1="976.02" x2="228.4766" y2="976.02" gradientTransform="matrix(58.238 0 0 -7.172 -12672.9785 7585.5269)">
					<stop  offset="0" style="stop-color:#1A0F91"/>
					<stop  offset="1" style="stop-color:#09005D"/>
				</linearGradient>
				<path id="Path_8137" class="st48" d="M592.6,581.9l24.8,7.2h33.4l-25.5-7.2H592.6z"/>
				
					<linearGradient id="Path_8138_1_" gradientUnits="userSpaceOnUse" x1="226.5716" y1="977.3167" x2="227.5716" y2="977.3167" gradientTransform="matrix(24.808 0 0 -8.39 -5012.5625 8785.8242)">
					<stop  offset="0" style="stop-color:#09005D"/>
					<stop  offset="1" style="stop-color:#1A0F91"/>
				</linearGradient>
				<path id="Path_8138" class="st49" d="M592.6,581.9v1l24.8,7.4l0-1.2L592.6,581.9z"/>
				
					<linearGradient id="Rectangle_7406_1_" gradientUnits="userSpaceOnUse" x1="225.4949" y1="932.3571" x2="226.4949" y2="932.3571" gradientTransform="matrix(33.438 0 0 -1.218 -6965.3096 1725.3206)">
					<stop  offset="0" style="stop-color:#09005D"/>
					<stop  offset="1" style="stop-color:#1A0F91"/>
				</linearGradient>
				<rect id="Rectangle_7406" x="617.4" y="589.1" class="st50" width="33.4" height="1.2"/>
			</g>
			
				<linearGradient id="Path_8139_1_" gradientUnits="userSpaceOnUse" x1="228.1343" y1="984.2274" x2="229.9063" y2="983.1694" gradientTransform="matrix(100.4433 0 0 -59.6693 -22477.8164 59396.3711)">
				<stop  offset="0" style="stop-color:#3054D4"/>
				<stop  offset="1" style="stop-color:#062684"/>
			</linearGradient>
			<path id="Path_8139" class="st51" d="M542.3,684.6c-3,0-6,0.8-8.6,2.3c2.2-12.8-6.4-25.1-19.2-27.3c-12.7-2.2-24.9,6.2-27.3,18.9
				c-10.8-4.1-22.8,1.4-26.9,12.1c-4.1,10.8,1.4,22.8,12.1,26.9c2.4,0.9,4.9,1.3,7.4,1.3h62.4c9.5,0,17.2-7.7,17.2-17.2
				S551.8,684.6,542.3,684.6L542.3,684.6z"/>
		</g>
		<path id="Path_8140" class="st52" d="M222.8,690.8"/>
		<g id="Group_2679">
			<g id="Group_2671">
				<g id="Group_2668">
					<path id="Path_8141" d="M793.2,751.9h0.1c0.6,0,1.1-0.5,1.1-1.1c0,0,0,0,0,0l-1.7-74.1l-5-0.6l4.3,74.6
						C792,751.4,792.5,751.9,793.2,751.9z"/>
				</g>
				<g id="Group_2669">
					<path id="Path_8142" d="M822.5,751.9h0.1c0.6,0,1.1-0.5,1.1-1.1c0,0,0,0,0,0l-1.7-74.1l-5-0.6l4.3,74.6
						C821.3,751.4,821.9,751.9,822.5,751.9z"/>
				</g>
				<g id="Group_2670">
					<path id="Path_8143" d="M741.6,751.9h-0.1c-0.6,0-1.1-0.5-1.1-1.1c0,0,0,0,0,0l1.7-74.1l5-0.6l-4.3,74.6
						C742.8,751.4,742.2,751.9,741.6,751.9z"/>
				</g>
				<path id="Path_8144" d="M825.8,672.1v-50.7c0-8.9-7.2-16.2-16.2-16.2h-36.6c-8.9,0-16.2,7.2-16.2,16.2V674L825.8,672.1z"/>
				
					<linearGradient id="Rectangle_7407_1_" gradientUnits="userSpaceOnUse" x1="230.2021" y1="992.9485" x2="231.2021" y2="992.9485" gradientTransform="matrix(-75.44 0 0 8.011 18192.2891 -7278.4258)">
					<stop  offset="0" style="stop-color:#666666"/>
					<stop  offset="1" style="stop-color:#1A1A1A"/>
				</linearGradient>
				<path id="Rectangle_7407" class="st53" d="M818.7,680.1h-68.3l0,0v-8l0,0h75.4l0,0v0.9C825.8,676.9,822.6,680.1,818.7,680.1z"/>
				<path id="Rectangle_7408" d="M795.4,680.1h-53.4c-2,0-3.6-1.6-3.6-3.6v-0.9c0-2,1.6-3.6,3.6-3.6h53.4c2,0,3.6,1.6,3.6,3.6v0.9
					C798.9,678.5,797.3,680.1,795.4,680.1z"/>
			</g>
			<g id="Group_2676">
				<path id="Path_8145" d="M772.8,557.8c0,0-5.9-5.9-5.9-20.5s21-4.4,25.1-1.4c4.7,3.4,9.8-1,11.7,7.1s-5.8,17.8-5.8,17.8
					L772.8,557.8z"/>
				<g id="Group_2672">
					<path id="Path_8146" class="st54" d="M776.9,592.2c0,10.4,28.5,8.3,28.5-0.5s-7.4-12.9-7.4-12.9c-0.7-4.3-2.1-7.8-1.8-12.1
						c0.5-7.9,2.9-15.4,5.3-22.9c-6.9-5.9-16.2-6.3-27.2-2.1c-0.9,3-1.6,6-2.1,9.1c-0.5,3.1-0.3,6.2,0.5,9.2
						c1.1,4.1,3.2,10.7,6.9,12.8c1.9,1.1,5-0.9,6.2,1c1.1,1.7,0.2,3-0.5,5C785.3,578.7,776.9,583.1,776.9,592.2z"/>
				</g>
				<g id="Group_2673">
					<path id="Path_8147" d="M802.8,543.7c0,0-0.2-5.7-13.1-5.7s-16.1,2.6-16.1,2.6c-1.1,1.8-1.9,3.7-2.4,5.7
						c-0.5,2.7,5.2,1.1,9.1-1.4s10.1,0.5,10.1,0.5c-1.1,2,5,0.4,5,0.4c-0.6,8.6,2.4,13,2.4,13L802.8,543.7z"/>
					<path id="Path_8148" d="M796.2,560.9c0,0-1.4,9.5,0,9.5c1,0,1.9-7.2,1.9-7.2L796.2,560.9z"/>
				</g>
				<g id="Group_2674">
					<path id="Path_8149" class="st54" d="M800.3,554.4c1.6,0.7,2.1,3,1.1,5.3s-3,3.5-4.7,2.8s-2.1-3-1.1-5.3
						C796.7,555,798.8,553.7,800.3,554.4z"/>
				</g>
				<path id="Path_8150" class="st54" d="M771.6,609.5c0,0-5.5,20.4-13.3,25.6s-38.7-6.8-38.7-6.8l1.7-7.5l30.5,4.6l9.1-18.8
					L771.6,609.5z"/>
				<path id="Path_8151" class="st55" d="M777.9,593.6l-5.7,17.8l-14-4.2c3.4-7,13.3-20.3,13.3-20.3L777.9,593.6z"/>
				<path id="Path_8152" class="st55" d="M798.1,578.5c0,0,14.5,4.2,17.4,7.5s8.2,60.6,8.2,60.6s-20.7,3.1-34.3,3.1
					c-7.7,0.1-15.3-0.7-22.8-2.4c-0.3-5,2.6-57.4,4.7-60.2s14.1-8.5,14.1-8.5C788.4,586.6,798.1,578.5,798.1,578.5z"/>
				<g id="Group_2675">
					<path id="Path_8153" class="st54" d="M825.2,604.6c0,0,8.2,23,2.6,28.9s-40,6.9-40,6.9l-1.3-8.9l31.1-5.9l-2.9-17.3
						L825.2,604.6z"/>
					<path id="Path_8154" class="st54" d="M767.7,631c0.1,0.3,0.4,0.4,0.7,0.4c0.7,0.1,1.4-0.1,2.1-0.3c-0.4,0.1-0.5,0.7-0.5,1.1
						c0.1,2.5,1,5,2.4,7.1c0.3,0.5,0.8,0.9,1.4,1.1c0.9,0.2,1.8-0.6,2.4-1.3c2.4,1,5,1.6,7.6,1.8c1.3,0.1,2.6,0,3.9-0.3
						c1.4-0.3,2.6-1.3,3.1-2.7v-0.5c-0.2-1.6-0.8-3.2-1.7-4.5c-1.3-1.7-3-3.1-4.9-4c-1.8-0.9-3.7-1.6-5.6-2.4
						c-1.2-0.6-2.4-0.9-3.7-0.9c-1.2,0.2-2.3,0.6-3.2,1.4c-1.4,1-2.7,2.1-3.9,3.4C767.7,630.6,767.6,630.8,767.7,631z"/>
				</g>
				<path id="Path_8155" class="st55" d="M807.5,593.2l5.7,17.8l15.3-4.8c-3.4-7-13.2-20.3-13.2-20.3L807.5,593.2z"/>
				<path id="Path_8156" d="M763.3,728.5l-5,4.3c-0.6,2.8-13.6,12.9-12.2,16.2c1.4,3.2,26-8,27.5-10.5c1.5-2.6-3.5-9.8-3.5-9.8
					L763.3,728.5z"/>
				<path id="Path_8157" class="st56" d="M804.8,647c0,0-65.3-0.8-74,10.9c-8.7,11.8,27.6,75,27.6,75l11.7-4.1l-18.6-56.2
					c5.7-0.5,49.1-1.8,49.1-1.8L804.8,647z"/>
				<path id="Path_8158" d="M709.5,701.4l-6.6-1.1c-2.5,1.3-18.6-2.2-20.2,0.9s22.7,14.9,25.6,14.5s5.3-8.9,5.3-8.9L709.5,701.4z"/>
				<path id="Path_8159" class="st57" d="M740,644.1c-14.6,3.7-37.1,56.2-37.1,56.2l10.7,6.5l31.6-45.1c0,0,40.7,10.7,57.6,8.9
					c16.9-1.8,21-23.9,21-23.9C808.7,643.9,754.7,640.3,740,644.1z"/>
			</g>
			<g id="Group_2678">
				<g id="Group_2677">
					
						<linearGradient id="Path_8160_1_" gradientUnits="userSpaceOnUse" x1="227.8959" y1="983.1981" x2="228.8959" y2="983.1981" gradientTransform="matrix(63.51 0 0 -36.524 -13761.1914 36529.043)">
						<stop  offset="0" style="stop-color:#666666"/>
						<stop  offset="1" style="stop-color:#1A1A1A"/>
					</linearGradient>
					<path id="Path_8160" class="st58" d="M776,637h-48.8l-14.7-36.5h48.8L776,637z"/>
					
						<linearGradient id="Path_8161_1_" gradientUnits="userSpaceOnUse" x1="227.9146" y1="939.9332" x2="228.9146" y2="939.9332" gradientTransform="matrix(64.474 0 0 -1.423 -13967.9756 1973.7822)">
						<stop  offset="0" style="stop-color:#666666"/>
						<stop  offset="1" style="stop-color:#1A1A1A"/>
					</linearGradient>
					<path id="Path_8161" class="st59" d="M726.6,635.6h64.5v1.4h-63.9L726.6,635.6z"/>
				</g>
				<path id="Path_8162" class="st3" d="M739.5,618.7c-0.4-0.9,0.1-1.9,0.9-2.2c0.2-0.1,0.5-0.1,0.7-0.1c1.4,0.1,2.6,1,3,2.3
					c0.4,0.9-0.1,1.9-0.9,2.2c-0.2,0.1-0.5,0.1-0.7,0.1C741.1,621,739.9,620.1,739.5,618.7z"/>
			</g>
			
				<linearGradient id="Path_8163_1_" gradientUnits="userSpaceOnUse" x1="228.7815" y1="984.3909" x2="229.7815" y2="984.3909" gradientTransform="matrix(216.9977 0 0 -114.1651 -49017.9297 113077.1562)">
				<stop  offset="0" style="stop-color:#021B79"/>
				<stop  offset="1" style="stop-color:#0575E6"/>
			</linearGradient>
			<path id="Path_8163" class="st60" d="M843.6,637.8c-0.4-0.5-1-0.8-1.6-0.9H629.6c-0.9,0-1.6,0.5-2,1.2c-0.4,0.8-0.5,1.8-0.2,2.6
				l2.3,5.6c0.5,1.2,1.6,2.1,2.9,2.1H647l18.3,41.3l-25.9,58.3c-0.5,1.1,0,2.3,1.1,2.8c0,0,0,0,0.1,0c0.3,0.1,0.6,0.2,0.9,0.2
				c0.9,0,1.7-0.5,2-1.3l24.3-54.6l24.3,54.6c0.4,0.8,1.2,1.3,2,1.3c0.3,0,0.6-0.1,0.9-0.2c1.1-0.4,1.6-1.7,1.2-2.8c0,0,0,0,0-0.1
				l-25.9-58.4l18.3-41.3h103l18.4,41.3L784,748.1c-0.5,1.1,0,2.3,1.1,2.8c0,0,0,0,0.1,0c0.3,0.1,0.6,0.2,0.9,0.2
				c0.9,0,1.7-0.5,2-1.3l24.3-54.6l24.3,54.6c0.4,0.8,1.2,1.3,2,1.3c0.3,0,0.6-0.1,0.9-0.2c1.1-0.4,1.6-1.7,1.2-2.8c0,0,0,0,0-0.1
				l-25.9-58.4l18.3-41.3h7.5c1.2-0.1,2.2-1,2.4-2.2l1.1-6.5C844.2,639.1,844,638.4,843.6,637.8z M667.7,684.3l-15.9-35.8h31.8
				L667.7,684.3z M812.3,684.3l-15.9-35.8h31.8L812.3,684.3z"/>
		</g>
	</g>
</g>
</svg>
