<?xml version="1.0" encoding="utf-8"?>
<!-- Generator: Adobe Illustrator 24.1.0, SVG Export Plug-In . SVG Version: 6.00 Build 0)  -->
<svg version="1.1" id="Layer_1" xmlns="http://www.w3.org/2000/svg" xmlns:xlink="http://www.w3.org/1999/xlink" x="0px" y="0px"
	 viewBox="0 0 800 700" style="enable-background:new 0 0 800 700;" xml:space="preserve">
<style type="text/css">
	.st0{fill:#EEEEEE;}
	.st1{opacity:0.2;}
	.st2{fill:#91B3FA;}
	.st3{opacity:0.1;}
	.st4{fill:url(#SVGID_1_);}
	.st5{fill:#FFFFFF;}
	.st6{fill:url(#XMLID_8_);}
	.st7{fill:url(#SVGID_2_);}
	.st8{fill:none;stroke:#3076FF;stroke-width:4;stroke-miterlimit:10;}
	.st9{fill:#3076FF;}
	.st10{opacity:0.6;fill:#3076FF;}
	.st11{opacity:0.6;}
	.st12{fill:url(#SVGID_3_);}
	.st13{opacity:0.42;fill:url(#SVGID_4_);}
	.st14{fill:url(#SVGID_5_);}
	.st15{fill:url(#SVGID_6_);}
	.st16{fill:url(#SVGID_7_);}
	.st17{fill:url(#SVGID_8_);}
	.st18{fill:url(#SVGID_9_);}
	.st19{fill:url(#SVGID_10_);}
	.st20{fill:url(#SVGID_11_);}
	.st21{fill:url(#SVGID_12_);}
	.st22{fill:url(#SVGID_13_);}
	.st23{fill:url(#SVGID_14_);}
	.st24{fill:url(#SVGID_15_);}
	.st25{fill:url(#SVGID_16_);}
	.st26{fill:#FFFFFF;stroke:#263238;stroke-miterlimit:10;}
	.st27{fill:url(#SVGID_17_);}
	.st28{fill:url(#SVGID_18_);}
	.st29{fill:url(#SVGID_19_);}
	.st30{fill:url(#SVGID_20_);}
	.st31{fill:none;stroke:#000000;stroke-miterlimit:10;}
	.st32{fill:url(#XMLID_9_);}
	.st33{fill:none;stroke:#263238;stroke-linecap:round;stroke-linejoin:round;stroke-miterlimit:10;}
	.st34{fill:url(#XMLID_10_);}
	.st35{fill:url(#XMLID_11_);}
	.st36{fill:url(#XMLID_12_);}
	.st37{fill:url(#XMLID_13_);}
	.st38{fill:url(#XMLID_14_);}
	.st39{fill:url(#XMLID_15_);}
	.st40{fill:url(#XMLID_16_);}
	.st41{fill:url(#XMLID_17_);}
	.st42{fill:url(#XMLID_18_);}
	.st43{fill:url(#XMLID_19_);}
	.st44{fill:url(#XMLID_20_);}
	.st45{fill:url(#XMLID_21_);}
	.st46{fill:url(#XMLID_22_);}
	.st47{fill:url(#SVGID_21_);}
	.st48{fill:url(#SVGID_22_);}
	.st49{fill:#FFBF99;}
	.st50{fill:#F39F11;}
	.st51{fill:#0737A0;}
	.st52{fill:#073ED0;}
	.st53{fill:url(#SVGID_23_);}
	.st54{fill:url(#SVGID_24_);}
	.st55{fill:url(#SVGID_25_);}
</style>
<g>
	<g>
		<path class="st0" d="M2421.5,366.6c3.2,0,3.2-5,0-5C2418.2,361.6,2418.2,366.6,2421.5,366.6L2421.5,366.6z"/>
	</g>
</g>
<g>
	<g>
		<g class="st1">
			<path class="st2" d="M466.8,589.8c36.6-0.6,76.2-14.8,99.4-27.2c106.1-56.8,153.8-173.3,152.2-282.1
				c-1.5-108.8-73-216-176.2-250.4c-22.3-7.4-45.8-11.6-69.3-10.9c-61.6,1.9-118,37.3-160.1,82.2c-18.9,20.2-35.8,42.5-57.5,59.5
				c-27.1,21.1-60.1,32.8-90.3,49.3C114.2,237.9,69,284.8,63.7,342.3c-5,54.1,26.7,106.4,69.2,140.3c42.5,33.9,94.7,52.8,145.9,71.1
				C319.5,568.3,422.9,591.4,466.8,589.8"/>
		</g>
		<g class="st3">
			<path class="st2" d="M603.7,652.7c39.3-13.1,77-40.9,97.4-61.1c93.7-93,102.2-225.5,60.3-333.7C719.6,149.7,602.7,67.1,478.3,68
				c-26.9,0.2-53.8,4-79,12.8c-65.9,22.9-113.8,77.5-142.8,136.8c-13,26.6-23,54.7-40.2,79.1c-21.5,30.4-52.9,53.3-79.4,80
				c-44.6,45-76.1,107.2-60.6,166.5C90.9,599,144.6,640.3,203,659.7c58.5,19.4,121.9,20.4,184.1,21.2
				C436.5,681.6,556.9,669.3,603.7,652.7"/>
		</g>
	</g>
	<g>
		<g>
			<linearGradient id="SVGID_1_" gradientUnits="userSpaceOnUse" x1="195.1968" y1="286.4705" x2="551.7019" y2="286.4705">
				<stop  offset="0" style="stop-color:#062684"/>
				<stop  offset="1" style="stop-color:#3054D4"/>
			</linearGradient>
			<path class="st4" d="M534.7,511.4H212.2c-9.4,0-17-7.6-17-17V78.5c0-9.4,7.6-17,17-17h322.6c9.4,0,17,7.6,17,17v415.9
				C551.7,503.8,544.1,511.4,534.7,511.4z"/>
			
				<rect x="165.5" y="125.2" transform="matrix(-1.836970e-16 1 -1 -1.836970e-16 659.9196 -86.979)" class="st5" width="415.9" height="322.6"/>
		</g>
		
			<linearGradient id="XMLID_8_" gradientUnits="userSpaceOnUse" x1="481.8304" y1="355.9343" x2="515.7431" y2="355.9343" gradientTransform="matrix(-1 0 0 1 996.6748 0)">
			<stop  offset="0" style="stop-color:#09005D"/>
			<stop  offset="1" style="stop-color:#1A0F91"/>
		</linearGradient>
		<rect id="XMLID_473_" x="480.9" y="355.3" class="st6" width="33.9" height="1.2"/>
		<g>
			<linearGradient id="SVGID_2_" gradientUnits="userSpaceOnUse" x1="20.9401" y1="393.1134" x2="182.2162" y2="393.1134">
				<stop  offset="0" style="stop-color:#062684"/>
				<stop  offset="1" style="stop-color:#3054D4"/>
			</linearGradient>
			<path class="st7" d="M174,509.8H29.2c-4.5,0-8.2-3.7-8.2-8.2v-217c0-4.5,3.7-8.2,8.2-8.2H174c4.5,0,8.2,3.7,8.2,8.2v217
				C182.2,506.1,178.5,509.8,174,509.8z"/>
			
				<rect x="-6.3" y="320.2" transform="matrix(-1.836970e-16 1 -1 -1.836970e-16 494.6915 291.5352)" class="st5" width="215.8" height="145.9"/>
			<path class="st8" d="M160.9,322H40c-2.4,0-4.4,2-4.4,4.4v162.7c0,2.4,2,4.4,4.4,4.4h120.9c2.4,0,4.4-2,4.4-4.4V326.3
				C165.3,323.9,163.4,322,160.9,322z"/>
			<path class="st9" d="M114.7,306.9h-77c-1.5,0-2.7,1.2-2.7,2.7v1.5c0,1.5,1.2,2.7,2.7,2.7h77c1.5,0,2.7-1.2,2.7-2.7v-1.5
				C117.5,308.1,116.2,306.9,114.7,306.9z"/>
			<path class="st9" d="M114.7,294.9h-77c-1.5,0-2.7,1.2-2.7,2.7v1.5c0,1.5,1.2,2.7,2.7,2.7h77c1.5,0,2.7-1.2,2.7-2.7v-1.5
				C117.5,296.1,116.2,294.9,114.7,294.9z"/>
		</g>
		<g>
			<path class="st10" d="M64.8,416.3c0-0.9-0.7-1.6-1.6-1.6H50.4c-0.9,0-1.6,0.7-1.6,1.6v54.8c0,0.9,0.7,1.6,1.6,1.6h12.8
				c0.9,0,1.6-0.7,1.6-1.6V416.3z"/>
			<path class="st10" d="M103.9,407.8H91.2c-0.9,0-1.6,0.9-1.6,1.9v61.2c0,1,0.7,1.9,1.6,1.9h12.7c0.9,0,1.8-0.9,1.8-1.9v-61.2
				C105.8,408.6,104.8,407.8,103.9,407.8z"/>
			<path class="st10" d="M84.7,398.2c0-0.9-0.7-1.6-1.6-1.6H70.4c-0.9,0-1.6,0.7-1.6,1.6v72.9c0,0.9,0.7,1.6,1.6,1.6h12.8
				c0.9,0,1.6-0.7,1.6-1.6V398.2z"/>
			<path class="st10" d="M154,372.3c0-0.9-0.7-1.6-1.6-1.6h-12.8c-0.9,0-1.6,0.7-1.6,1.6v98.8c0,0.9,0.7,1.6,1.6,1.6h12.8
				c0.9,0,1.6-0.7,1.6-1.6V372.3z"/>
			<path class="st10" d="M130.2,386.4c0-0.9-0.7-1.6-1.6-1.6h-12.8c-0.9,0-1.6,0.7-1.6,1.6v84.7c0,0.9,0.7,1.6,1.6,1.6h12.8
				c0.9,0,1.6-0.7,1.6-1.6V386.4z"/>
			<g class="st11">
				<polygon class="st9" points="56.2,395.1 55.9,394.6 77.2,382.9 97,391.6 114,375 114,374.9 133.9,363.2 134.3,363.7 
					114.3,375.5 97.1,392.4 77.2,383.6 				"/>
				<path class="st9" d="M58.3,394.8c0,1.3-1,2.3-2.3,2.3c-1.3,0-2.3-1-2.3-2.3c0-1.3,1-2.3,2.3-2.3
					C57.3,392.6,58.3,393.6,58.3,394.8z"/>
				<circle class="st9" cx="77.2" cy="383.3" r="2.3"/>
				<circle class="st9" cx="97" cy="391.6" r="2.3"/>
				<circle class="st9" cx="113.6" cy="375.2" r="2.3"/>
				<path class="st9" d="M136.4,363.4c0,1.3-1,2.3-2.3,2.3c-1.3,0-2.3-1-2.3-2.3c0-1.3,1-2.3,2.3-2.3
					C135.4,361.2,136.4,362.2,136.4,363.4z"/>
			</g>
		</g>
		<g>
			<g>
				<path d="M544.8,113.6l3.8-0.1c0.4,0,0.8,0.3,0.8,0.7c0,0.4-0.3,0.8-0.7,0.8l0,0l-3.8,0.1l0,0c-0.4,0-0.8-0.3-0.8-0.7
					C544.1,114,544.4,113.6,544.8,113.6L544.8,113.6z"/>
				<path d="M552.4,113.5l3.8,0c0.4,0,0.8,0.3,0.8,0.8c0,0.4-0.3,0.8-0.8,0.8h0l-3.8,0h0c-0.4,0-0.8-0.3-0.8-0.8
					C551.7,113.8,552,113.5,552.4,113.5L552.4,113.5z"/>
				<path d="M560.1,113.5l3.8,0.1c0.4,0,0.7,0.3,0.7,0.8c0,0.4-0.3,0.7-0.8,0.7h0L560,115l0,0c-0.4,0-0.7-0.3-0.7-0.8
					C559.3,113.8,559.6,113.5,560.1,113.5L560.1,113.5z"/>
				<path d="M567.7,113.6l3.8,0.1c0.4,0,0.7,0.4,0.7,0.8c0,0.4-0.4,0.7-0.8,0.7l0,0l-3.8-0.1l0,0c-0.4,0-0.7-0.4-0.7-0.8
					C566.9,113.9,567.3,113.6,567.7,113.6L567.7,113.6z"/>
				<path d="M575.3,113.9l3.8,0.2c0.4,0,0.7,0.4,0.7,0.8c0,0.4-0.4,0.7-0.8,0.7l0,0l-3.8-0.2l0,0c-0.4,0-0.7-0.4-0.7-0.8
					C574.5,114.2,574.9,113.9,575.3,113.9L575.3,113.9z"/>
				<path d="M582.9,114.4l3.8,0.3c0.4,0,0.7,0.4,0.7,0.8c0,0.4-0.4,0.7-0.8,0.7l0,0l-3.8-0.3l0,0c-0.4,0-0.7-0.4-0.7-0.8
					C582.1,114.6,582.5,114.3,582.9,114.4L582.9,114.4z"/>
				<path d="M590.5,114.9l3.8,0.3c0.4,0,0.7,0.4,0.7,0.8s-0.4,0.7-0.8,0.7l0,0l-3.8-0.3l0,0c-0.4,0-0.7-0.4-0.7-0.8
					S590.1,114.9,590.5,114.9L590.5,114.9z"/>
				<path d="M598.1,115.7l3.8,0.4c0.4,0,0.7,0.4,0.7,0.8c0,0.4-0.4,0.7-0.8,0.7l0,0l-3.8-0.4l0,0c-0.4,0-0.7-0.4-0.7-0.8
					C597.3,115.9,597.7,115.6,598.1,115.7L598.1,115.7z"/>
				<path d="M605.7,116.6l3.8,0.5c0.4,0.1,0.7,0.4,0.6,0.8c-0.1,0.4-0.4,0.7-0.8,0.6l0,0l-3.8-0.5l0,0c-0.4-0.1-0.7-0.4-0.6-0.8
					C604.9,116.8,605.2,116.5,605.7,116.6L605.7,116.6z"/>
				<path d="M613.2,117.7l3.8,0.6c0.4,0.1,0.7,0.4,0.6,0.8c-0.1,0.4-0.4,0.7-0.8,0.6l0,0l-3.7-0.6l0,0c-0.4-0.1-0.7-0.4-0.6-0.8
					C612.4,117.9,612.8,117.6,613.2,117.7L613.2,117.7z"/>
				<path d="M620.7,118.9l3.7,0.7c0.4,0.1,0.7,0.5,0.6,0.9c-0.1,0.4-0.5,0.7-0.9,0.6l0,0l-3.7-0.7l0,0c-0.4-0.1-0.7-0.5-0.6-0.9
					C619.9,119.1,620.3,118.9,620.7,118.9L620.7,118.9z"/>
				<path d="M628.2,120.4l3.7,0.8c0.4,0.1,0.6,0.5,0.5,0.9c-0.1,0.4-0.5,0.6-0.9,0.5l0,0l-3.7-0.8l0,0c-0.4-0.1-0.6-0.5-0.6-0.9
					S627.8,120.3,628.2,120.4L628.2,120.4z"/>
				<path d="M635.6,122.2l3.7,1c0.4,0.1,0.6,0.5,0.5,0.9c-0.1,0.4-0.5,0.6-0.9,0.5l0,0l-3.7-1l0,0c-0.4-0.1-0.6-0.5-0.5-0.9
					C634.9,122.3,635.3,122.1,635.6,122.2L635.6,122.2z"/>
				<path d="M643,124.2l3.7,1.1c0.4,0.1,0.6,0.5,0.5,0.9c-0.1,0.4-0.5,0.6-0.9,0.5l0,0l-3.6-1.1l0,0c-0.4-0.1-0.6-0.5-0.5-0.9
					C642.2,124.3,642.6,124,643,124.2L643,124.2z"/>
				<path d="M650.3,126.5l3.6,1.3c0.4,0.1,0.6,0.5,0.4,0.9c-0.1,0.4-0.5,0.6-0.9,0.4l0,0l-3.6-1.3l0,0c-0.4-0.1-0.6-0.5-0.4-0.9
					C649.5,126.5,649.9,126.3,650.3,126.5L650.3,126.5z"/>
				<path d="M657.5,129.1l3.5,1.5c0.4,0.2,0.5,0.6,0.4,0.9c-0.2,0.4-0.6,0.5-0.9,0.4l0,0l-3.5-1.5l0,0c-0.4-0.2-0.5-0.6-0.4-0.9
					C656.7,129.2,657.1,129,657.5,129.1L657.5,129.1z"/>
				<path d="M664.5,132.2l3.4,1.7c0.4,0.2,0.5,0.6,0.3,1c-0.2,0.4-0.6,0.5-1,0.3l0,0l-3.4-1.7l0,0c-0.4-0.2-0.5-0.6-0.3-1
					C663.7,132.2,664.1,132,664.5,132.2L664.5,132.2z"/>
				<path d="M671.3,135.8l3.3,2c0.3,0.2,0.4,0.6,0.2,1c-0.2,0.3-0.6,0.4-1,0.2l0,0l-3.2-2l0,0c-0.3-0.2-0.4-0.6-0.2-1
					C670.5,135.7,670.9,135.6,671.3,135.8L671.3,135.8z"/>
				<path d="M677.7,139.9l3.2,2.2c0.3,0.2,0.4,0.7,0.2,1c-0.2,0.3-0.7,0.4-1,0.2l0,0L677,141l0,0c-0.3-0.2-0.4-0.7-0.2-1
					C677,139.7,677.4,139.6,677.7,139.9L677.7,139.9z"/>
				<path d="M684,144.2l3.1,2.3c0.3,0.2,0.4,0.7,0.1,1c-0.2,0.3-0.7,0.4-1,0.1l0,0l-3-2.3l0,0c-0.3-0.2-0.4-0.7-0.1-1
					C683.3,144.1,683.7,144,684,144.2L684,144.2z"/>
				<path d="M690.1,148.9l2.9,2.5c0.3,0.2,0.3,0.7,0.1,1c-0.2,0.3-0.7,0.3-1,0.1l0,0l-2.9-2.4l0,0c-0.3-0.2-0.3-0.7-0.1-1
					C689.3,148.7,689.8,148.7,690.1,148.9L690.1,148.9z"/>
				<path d="M695.8,154l2.7,2.7c0.3,0.3,0.3,0.7,0,1c-0.3,0.3-0.7,0.3-1,0l0,0l-2.7-2.6l0,0c-0.3-0.3-0.3-0.7,0-1
					C695.1,153.7,695.5,153.7,695.8,154L695.8,154z"/>
				<path d="M701.2,159.4l2.5,2.9c0.2,0.3,0.2,0.7-0.1,1c-0.3,0.2-0.7,0.2-1-0.1l0,0l-2.4-2.9l0,0c-0.2-0.3-0.2-0.7,0.1-1
					C700.5,159.1,700.9,159.1,701.2,159.4L701.2,159.4z"/>
				<path d="M706,165.4l2.1,3.2c0.2,0.3,0.1,0.7-0.2,1c-0.3,0.2-0.7,0.1-1-0.2l0,0l-2.1-3.1l0,0c-0.2-0.3-0.1-0.7,0.2-1
					C705.3,165,705.8,165.1,706,165.4L706,165.4z"/>
				<path d="M710,172l1.6,3.5c0.2,0.3,0,0.7-0.3,0.9c-0.3,0.2-0.7,0-0.9-0.3l0-0.1l-1.6-3.4l0-0.1c-0.2-0.3,0-0.8,0.3-0.9
					C709.4,171.5,709.8,171.7,710,172L710,172z"/>
				<path d="M712.8,179.2c0.4,1.2,0.6,2.5,0.9,3.8c0.1,0.4-0.2,0.7-0.6,0.8c-0.4,0.1-0.7-0.2-0.8-0.6c-0.2-1.2-0.5-2.4-0.8-3.6
					c-0.1-0.4,0.1-0.7,0.5-0.8C712.4,178.6,712.7,178.8,712.8,179.2L712.8,179.2z"/>
				<path d="M714.1,186.8c0.1,1.3,0.1,2.6,0,3.9c0,0.4-0.4,0.7-0.7,0.6c-0.4,0-0.7-0.4-0.6-0.7c0.1-1.2,0.1-2.5,0-3.7
					c0-0.4,0.3-0.7,0.6-0.7S714.1,186.5,714.1,186.8L714.1,186.8z"/>
				<path d="M713.6,194.6c-0.2,1.3-0.6,2.5-1,3.8c-0.1,0.4-0.5,0.6-0.8,0.4c-0.4-0.1-0.6-0.5-0.4-0.8c0.4-1.2,0.7-2.4,0.9-3.6
					c0.1-0.4,0.4-0.6,0.8-0.5C713.4,193.8,713.7,194.2,713.6,194.6L713.6,194.6z"/>
				<path d="M711.3,202l-1.7,3.5c-0.2,0.3-0.6,0.5-0.9,0.3c-0.3-0.2-0.5-0.6-0.3-0.9l0-0.1l1.6-3.4l0-0.1c0.2-0.3,0.6-0.5,0.9-0.3
					C711.3,201.2,711.4,201.6,711.3,202L711.3,202z"/>
				<path d="M707.6,208.7l-2.2,3.1c-0.2,0.3-0.6,0.4-0.9,0.2c-0.3-0.2-0.4-0.6-0.2-0.9l0,0l2.2-3.1l0,0c0.2-0.3,0.6-0.4,0.9-0.2
					C707.7,208,707.8,208.4,707.6,208.7L707.6,208.7z"/>
				<path d="M702.9,214.8l-2.6,2.8c-0.2,0.3-0.7,0.3-0.9,0c-0.3-0.2-0.3-0.7,0-0.9l0,0l2.5-2.8l0,0c0.2-0.3,0.7-0.3,0.9,0
					C703.1,214.1,703.2,214.6,702.9,214.8L702.9,214.8z"/>
				<path d="M697.6,220.4l-2.8,2.6c-0.3,0.2-0.7,0.2-0.9,0c-0.2-0.3-0.2-0.7,0-0.9l0,0l2.8-2.5l0,0c0.3-0.2,0.7-0.2,0.9,0
					C697.9,219.7,697.9,220.1,697.6,220.4L697.6,220.4z"/>
				<path d="M691.8,225.4l-3,2.4l0,0c-0.3,0.2-0.7,0.2-0.9-0.1c-0.2-0.3-0.2-0.7,0.1-0.9l3-2.4l0,0c0.3-0.2,0.7-0.2,0.9,0.1
					C692.1,224.7,692.1,225.1,691.8,225.4L691.8,225.4z"/>
				<path d="M685.9,230.1l-2.9,2.4l0,0c-0.3,0.2-0.7,0.2-0.9-0.1c-0.2-0.3-0.2-0.7,0.1-0.9l2.9-2.5c0.3-0.2,0.7-0.2,0.9,0.1
					C686.2,229.5,686.1,229.9,685.9,230.1L685.9,230.1L685.9,230.1z"/>
				<path d="M680.1,235l-2.8,2.6l0,0c-0.3,0.2-0.7,0.2-0.9,0c-0.2-0.3-0.2-0.7,0-0.9l2.8-2.6c0.3-0.2,0.7-0.2,0.9,0
					C680.4,234.4,680.4,234.8,680.1,235L680.1,235L680.1,235z"/>
				<path d="M674.6,240.2l-2.6,2.7l0,0c-0.2,0.3-0.7,0.3-0.9,0c-0.3-0.2-0.3-0.7,0-0.9l2.7-2.8c0.2-0.3,0.7-0.3,0.9,0
					C674.8,239.5,674.8,239.9,674.6,240.2L674.6,240.2L674.6,240.2z"/>
				<path d="M669.4,245.8l-2.3,3l0,0c-0.2,0.3-0.6,0.3-0.9,0.1c-0.3-0.2-0.3-0.6-0.1-0.9l2.4-3c0.2-0.3,0.6-0.3,0.9-0.1
					C669.6,245.1,669.7,245.5,669.4,245.8L669.4,245.8L669.4,245.8z"/>
				<path d="M665.1,251.9c-0.6,1.1-1.2,2.2-1.7,3.3c-0.1,0.3-0.5,0.5-0.9,0.3c-0.3-0.1-0.5-0.5-0.3-0.9c0.5-1.2,1.1-2.3,1.8-3.4
					c0.2-0.3,0.6-0.4,0.9-0.2C665.1,251.2,665.2,251.6,665.1,251.9L665.1,251.9z"/>
				<path d="M662.1,258.7c-0.3,1.2-0.5,2.4-0.7,3.6c0,0.4-0.3,0.6-0.7,0.6c-0.4,0-0.6-0.3-0.6-0.7c0.1-1.3,0.4-2.6,0.7-3.8
					c0.1-0.3,0.4-0.5,0.8-0.5C662,258,662.2,258.3,662.1,258.7L662.1,258.7z"/>
				<path d="M661.4,266c0.1,1.2,0.3,2.5,0.6,3.7c0.1,0.3-0.1,0.7-0.5,0.8c-0.3,0.1-0.7-0.1-0.8-0.5c-0.3-1.3-0.5-2.5-0.6-3.8
					c0-0.4,0.2-0.7,0.6-0.7C661.1,265.4,661.4,265.6,661.4,266L661.4,266z"/>
				<path d="M663.1,273.2l1.4,3.5l0,0c0.1,0.3,0,0.7-0.4,0.8c-0.3,0.1-0.7,0-0.8-0.4l-1.4-3.6c-0.1-0.3,0-0.7,0.4-0.8
					C662.5,272.7,662.9,272.9,663.1,273.2L663.1,273.2L663.1,273.2z"/>
				<path d="M666,280.2l1.7,3.4l0,0c0.2,0.3,0,0.7-0.3,0.8c-0.3,0.2-0.7,0-0.8-0.3l-1.7-3.4c-0.2-0.3,0-0.7,0.3-0.8
					C665.4,279.7,665.8,279.8,666,280.2L666,280.2L666,280.2z"/>
				<path d="M669.4,287l1.5,3.6c0.1,0.3,0,0.7-0.3,0.8c-0.3,0.1-0.7,0-0.8-0.3l0,0l-1.4-3.5l0-0.1c-0.1-0.3,0-0.7,0.3-0.8
					C668.9,286.5,669.2,286.7,669.4,287L669.4,287z"/>
				<path d="M672,294.2l0.9,3.7c0.1,0.3-0.1,0.7-0.5,0.8c-0.3,0.1-0.7-0.1-0.8-0.5l0,0l-0.9-3.6l0,0c-0.1-0.3,0.1-0.7,0.5-0.8
					C671.6,293.7,671.9,293.9,672,294.2L672,294.2z"/>
				<path d="M673.7,301.7l0.5,3.8c0,0.3-0.2,0.7-0.5,0.7c-0.3,0-0.7-0.2-0.7-0.5l0,0l-0.5-3.7l0,0c0-0.3,0.2-0.7,0.5-0.7
					C673.3,301.1,673.6,301.4,673.7,301.7L673.7,301.7z"/>
				<path d="M674.5,309.3l0.1,3.8c0,0.3-0.3,0.6-0.6,0.6c-0.3,0-0.6-0.3-0.6-0.6l0,0l-0.1-3.8l0,0c0-0.3,0.3-0.6,0.6-0.6
					C674.2,308.7,674.5,309,674.5,309.3L674.5,309.3z"/>
				<path d="M674.5,317l-0.3,3.8c0,0.3-0.3,0.6-0.7,0.6c-0.3,0-0.6-0.3-0.6-0.7l0,0l0.3-3.8l0,0c0-0.3,0.3-0.6,0.7-0.6
					C674.3,316.4,674.5,316.7,674.5,317L674.5,317z"/>
				<path d="M673.7,324.6l-0.7,3.8c-0.1,0.3-0.4,0.6-0.7,0.5c-0.3-0.1-0.6-0.4-0.5-0.7l0,0l0.7-3.7l0,0c0.1-0.3,0.4-0.6,0.7-0.5
					C673.5,324,673.8,324.3,673.7,324.6L673.7,324.6z"/>
				<path d="M672.1,332.1l-1.1,3.7c-0.1,0.3-0.4,0.5-0.8,0.4c-0.3-0.1-0.5-0.4-0.4-0.8l0,0l1.1-3.6l0,0c0.1-0.3,0.4-0.5,0.8-0.4
					C672,331.5,672.2,331.8,672.1,332.1L672.1,332.1z"/>
				<path d="M669.6,339.4l-1.5,3.5c-0.1,0.3-0.5,0.5-0.8,0.3c-0.3-0.1-0.5-0.5-0.3-0.8l0,0l1.5-3.5l0,0c0.1-0.3,0.5-0.5,0.8-0.3
					C669.6,338.7,669.8,339.1,669.6,339.4L669.6,339.4z"/>
				<path d="M666.4,346.4l-1.9,3.3c-0.2,0.3-0.5,0.4-0.8,0.2c-0.3-0.2-0.4-0.5-0.2-0.8l0,0l1.9-3.3l0,0c0.2-0.3,0.5-0.4,0.8-0.2
					C666.5,345.7,666.6,346.1,666.4,346.4L666.4,346.4z"/>
				<path d="M662.4,352.9l-2.2,3.1c-0.2,0.3-0.6,0.3-0.8,0.1c-0.3-0.2-0.3-0.6-0.1-0.8l0,0l2.2-3.1l0,0c0.2-0.3,0.6-0.3,0.8-0.1
					C662.6,352.3,662.6,352.7,662.4,352.9L662.4,352.9z"/>
				<path d="M657.8,359.1l-2.5,2.9c-0.2,0.2-0.6,0.3-0.8,0.1c-0.2-0.2-0.3-0.6-0.1-0.8l0,0l2.5-2.8l0,0c0.2-0.3,0.6-0.3,0.8-0.1
					C658,358.4,658.1,358.8,657.8,359.1L657.8,359.1z"/>
				<path d="M652.7,364.7l-2.8,2.6c-0.2,0.2-0.6,0.2-0.8,0c-0.2-0.2-0.2-0.6,0-0.8l0,0l2.7-2.6l0,0c0.2-0.2,0.6-0.2,0.8,0
					C652.9,364.1,652.9,364.5,652.7,364.7L652.7,364.7z"/>
				<path d="M647,369.9l-3,2.4c-0.3,0.2-0.6,0.2-0.8-0.1c-0.2-0.3-0.2-0.6,0.1-0.8l0,0l2.9-2.4l0,0c0.3-0.2,0.6-0.2,0.8,0.1
					C647.3,369.3,647.3,369.7,647,369.9L647,369.9z"/>
				<path d="M641,374.6l-3.1,2.2c-0.3,0.2-0.6,0.1-0.8-0.1c-0.2-0.3-0.1-0.6,0.1-0.8l0,0l3.1-2.2l0,0c0.3-0.2,0.6-0.1,0.8,0.1
					C641.3,374,641.3,374.4,641,374.6L641,374.6z"/>
				<path d="M634.7,378.8l-3.3,2c-0.3,0.2-0.6,0.1-0.8-0.2c-0.2-0.3-0.1-0.6,0.2-0.8l0,0l3.2-2l0,0c0.3-0.2,0.6-0.1,0.8,0.2
					C635,378.3,634.9,378.7,634.7,378.8L634.7,378.8z"/>
				<path d="M628,382.7l-3.4,1.8c-0.3,0.1-0.6,0-0.8-0.2c-0.1-0.3,0-0.6,0.2-0.8l0,0l3.4-1.8l0,0c0.3-0.1,0.6,0,0.8,0.2
					S628.3,382.5,628,382.7L628,382.7z"/>
				<path d="M621.2,386.1l-3.5,1.6c-0.3,0.1-0.6,0-0.8-0.3c-0.1-0.3,0-0.6,0.3-0.8l0,0l3.4-1.6l0,0c0.3-0.1,0.6,0,0.8,0.3
					C621.6,385.6,621.5,386,621.2,386.1L621.2,386.1z"/>
				<path d="M614.2,389.2l-3.5,1.4c-0.3,0.1-0.6,0-0.8-0.3c-0.1-0.3,0-0.6,0.3-0.8l0,0l3.5-1.4l0,0c0.3-0.1,0.6,0,0.8,0.3
					C614.7,388.8,614.5,389.1,614.2,389.2L614.2,389.2z"/>
				<path d="M607.1,392l-3.6,1.3c-0.3,0.1-0.6-0.1-0.7-0.4c-0.1-0.3,0.1-0.6,0.4-0.7l0,0l3.6-1.3l0,0c0.3-0.1,0.6,0.1,0.7,0.4
					C607.6,391.5,607.4,391.9,607.1,392L607.1,392z"/>
			</g>
			<polygon points="531.5,103.8 533.5,116.1 524.3,112.1 			"/>
			<linearGradient id="SVGID_3_" gradientUnits="userSpaceOnUse" x1="474.9515" y1="108.6721" x2="539.9316" y2="108.6721">
				<stop  offset="0" style="stop-color:#002FF5"/>
				<stop  offset="0.1894" style="stop-color:#003FF5"/>
				<stop  offset="0.5594" style="stop-color:#0069F4"/>
				<stop  offset="1" style="stop-color:#00A2F4"/>
			</linearGradient>
			<path class="st12" d="M475,105.8l38,23.7c0.7,0.5,1.6,0.6,2.4,0.4c0.8-0.2,1.5-0.7,2-1.5l22.4-39.1c0.3-0.4,0.2-1-0.1-1.4
				c-0.3-0.4-0.9-0.6-1.3-0.4L475,105.8z"/>
			<polygon points="531.5,103.8 475,105.8 527.9,110.1 528.6,113.5 			"/>
			<polygon points="525.7,113.8 533.5,116.1 527.9,110.1 			"/>
		</g>
		<g>
			
				<linearGradient id="SVGID_4_" gradientUnits="userSpaceOnUse" x1="97.7877" y1="394.6785" x2="187.8553" y2="394.6785" gradientTransform="matrix(0.991 -0.1342 0.1342 0.991 -64.9604 18.5904)">
				<stop  offset="0" style="stop-color:#DAE3FE"/>
				<stop  offset="1" style="stop-color:#E9EFFD"/>
			</linearGradient>
			<path class="st13" d="M172.7,377.6c7,23.4-6.6,48.2-30.4,55.3c-23.8,7.2-48.8-6-55.9-29.4c-7-23.4,6.6-48.2,30.4-55.3
				C140.6,341,165.6,354.2,172.7,377.6z"/>
			
				<linearGradient id="SVGID_5_" gradientUnits="userSpaceOnUse" x1="19.1359" y1="480.0889" x2="187.7122" y2="363.6795" gradientTransform="matrix(0.991 -0.1342 0.1342 0.991 -64.9604 18.5904)">
				<stop  offset="0" style="stop-color:#0575E6"/>
				<stop  offset="1" style="stop-color:#021B79"/>
			</linearGradient>
			<path class="st14" d="M177.5,376.1c-7.8-26-35.7-40.7-62.2-32.7c-26.5,8-41.7,35.5-33.8,61.6c2.2,7.3,5.9,13.6,10.8,18.9l-75,56
				c-3.3,2.4-3.8,7.1-1.1,10.2l0.4,0.5c2.4,2.7,6.5,3,9.2,0.6l71-62.9c12.5,10.4,29.9,14.6,46.9,9.5
				C170.2,429.7,185.4,402.1,177.5,376.1z M141.6,430.7c-22.6,6.8-46.4-5.7-53-27.9c-6.7-22.2,6.2-45.7,28.9-52.5
				c22.6-6.8,46.4,5.7,53,27.9C177.2,400.4,164.2,423.9,141.6,430.7z"/>
		</g>
		<g>
			<g>
				
					<linearGradient id="SVGID_6_" gradientUnits="userSpaceOnUse" x1="3174.929" y1="-1954.0159" x2="3156.4702" y2="-1945.2352" gradientTransform="matrix(0 1 -1 0 -1575.6171 -2974.6987)">
					<stop  offset="0" style="stop-color:#09005D"/>
					<stop  offset="1" style="stop-color:#1A0F91"/>
				</linearGradient>
				<path class="st15" d="M374,202.2c-0.6,0-1.1-0.5-1.1-1.1v-20.1c0-0.6,0.5-1.1,1.1-1.1c0.6,0,1.1,0.5,1.1,1.1v20.1
					C375.1,201.7,374.6,202.2,374,202.2z"/>
				
					<linearGradient id="SVGID_7_" gradientUnits="userSpaceOnUse" x1="3175.4177" y1="-1946.4757" x2="3171.842" y2="-1953.9926" gradientTransform="matrix(0 1 -1 0 -1575.6171 -2974.6987)">
					<stop  offset="0" style="stop-color:#09005D"/>
					<stop  offset="1" style="stop-color:#1A0F91"/>
				</linearGradient>
				<polygon class="st16" points="378.1,196.6 373.5,204.6 368.9,196.6 				"/>
			</g>
			<g>
				
					<linearGradient id="SVGID_8_" gradientUnits="userSpaceOnUse" x1="3263.9036" y1="-1954.184" x2="3244.7385" y2="-1945.0673" gradientTransform="matrix(0 1 -1 0 -1575.6171 -2974.6987)">
					<stop  offset="0" style="stop-color:#09005D"/>
					<stop  offset="1" style="stop-color:#1A0F91"/>
				</linearGradient>
				<path class="st17" d="M374,291.3c-0.6,0-1.1-0.5-1.1-1.1v-21c0-0.6,0.5-1.1,1.1-1.1c0.6,0,1.1,0.5,1.1,1.1v21
					C375.1,290.7,374.6,291.3,374,291.3z"/>
				
					<linearGradient id="SVGID_9_" gradientUnits="userSpaceOnUse" x1="3264.4724" y1="-1946.4757" x2="3260.8965" y2="-1953.9926" gradientTransform="matrix(0 1 -1 0 -1575.6171 -2974.6987)">
					<stop  offset="0" style="stop-color:#09005D"/>
					<stop  offset="1" style="stop-color:#1A0F91"/>
				</linearGradient>
				<polygon class="st18" points="378.1,285.6 373.5,293.6 368.9,285.6 				"/>
			</g>
			<g>
				
					<linearGradient id="SVGID_10_" gradientUnits="userSpaceOnUse" x1="3381.311" y1="-1953.993" x2="3356.6392" y2="-1942.2568" gradientTransform="matrix(0 1 -1 0 -1575.6171 -2974.6987)">
					<stop  offset="0" style="stop-color:#09005D"/>
					<stop  offset="1" style="stop-color:#1A0F91"/>
				</linearGradient>
				<path class="st19" d="M372.5,409.3c-0.6,0-1.1-0.5-1.1-1.1v-27.8c0-0.6,0.5-1.1,1.1-1.1c0.6,0,1.1,0.5,1.1,1.1v27.8
					C373.6,408.8,373.1,409.3,372.5,409.3z"/>
				
					<linearGradient id="SVGID_11_" gradientUnits="userSpaceOnUse" x1="3382.5027" y1="-1945.3218" x2="3378.927" y2="-1952.8387" gradientTransform="matrix(0 1 -1 0 -1575.6171 -2974.6987)">
					<stop  offset="0" style="stop-color:#09005D"/>
					<stop  offset="1" style="stop-color:#1A0F91"/>
				</linearGradient>
				<polygon class="st20" points="376.9,403.7 372.3,411.6 367.7,403.7 				"/>
			</g>
			<g>
				<linearGradient id="SVGID_12_" gradientUnits="userSpaceOnUse" x1="333.1161" y1="243.0935" x2="259.7945" y2="277.9722">
					<stop  offset="0" style="stop-color:#09005D"/>
					<stop  offset="1" style="stop-color:#1A0F91"/>
				</linearGradient>
				<path class="st21" d="M271.2,300.5c-0.6,0-1.1-0.5-1.1-1.1v-53.6c0-0.6,0.5-1.1,1.1-1.1h61.9c0.6,0,1.1,0.5,1.1,1.1
					s-0.5,1.1-1.1,1.1h-60.8v52.5C272.3,300,271.8,300.5,271.2,300.5z"/>
				
					<linearGradient id="SVGID_13_" gradientUnits="userSpaceOnUse" x1="3277.4597" y1="-1843.6835" x2="3273.8838" y2="-1851.2003" gradientTransform="matrix(0 1 -1 0 -1575.6171 -2974.6987)">
					<stop  offset="0" style="stop-color:#09005D"/>
					<stop  offset="1" style="stop-color:#1A0F91"/>
				</linearGradient>
				<polygon class="st22" points="275.3,298.6 270.7,306.6 266.1,298.6 				"/>
			</g>
			<g>
				
					<linearGradient id="SVGID_14_" gradientUnits="userSpaceOnUse" x1="732.0264" y1="243.3725" x2="658.7047" y2="278.2513" gradientTransform="matrix(-1 0 0 1 1147.6776 -0.279)">
					<stop  offset="0" style="stop-color:#09005D"/>
					<stop  offset="1" style="stop-color:#1A0F91"/>
				</linearGradient>
				<path class="st23" d="M477.6,300.5c-0.6,0-1.1-0.5-1.1-1.1v-52.5h-60.8c-0.6,0-1.1-0.5-1.1-1.1s0.5-1.1,1.1-1.1h61.9
					c0.6,0,1.1,0.5,1.1,1.1v53.6C478.7,300,478.2,300.5,477.6,300.5z"/>
				
					<linearGradient id="SVGID_15_" gradientUnits="userSpaceOnUse" x1="3277.7385" y1="-2242.9795" x2="3274.1628" y2="-2250.4963" gradientTransform="matrix(0 1 1 0 2723.2947 -2974.9775)">
					<stop  offset="0" style="stop-color:#09005D"/>
					<stop  offset="1" style="stop-color:#1A0F91"/>
				</linearGradient>
				<polygon class="st24" points="473.1,298.6 477.7,306.6 482.3,298.6 				"/>
			</g>
			<linearGradient id="SVGID_16_" gradientUnits="userSpaceOnUse" x1="269.3405" y1="370.0789" x2="477.9262" y2="370.0789">
				<stop  offset="0" style="stop-color:#09005D"/>
				<stop  offset="1" style="stop-color:#1A0F91"/>
			</linearGradient>
			<path class="st25" d="M476.8,381.1H270.5c-0.6,0-1.1-0.5-1.1-1.1v-19.9c0-0.6,0.5-1.1,1.1-1.1s1.1,0.5,1.1,1.1v18.8h204.1v-18.8
				c0-0.6,0.5-1.1,1.1-1.1c0.6,0,1.1,0.5,1.1,1.1V380C477.9,380.6,477.4,381.1,476.8,381.1z"/>
			<g>
				<rect id="XMLID_95_" x="349.2" y="109.1" width="54.4" height="47.3"/>
				<rect id="XMLID_102_" x="344.9" y="106" width="2.2" height="5.9"/>
				<rect id="XMLID_100_" x="347" y="102.7" class="st26" width="58.8" height="12.7"/>
				<linearGradient id="SVGID_17_" gradientUnits="userSpaceOnUse" x1="349.7845" y1="109.1021" x2="403.562" y2="109.1021">
					<stop  offset="0" style="stop-color:#3054D4"/>
					<stop  offset="1" style="stop-color:#062684"/>
				</linearGradient>
				<path class="st27" d="M349.8,106v6.2h53.8V106H349.8z M388.2,110.4c-0.9,0-1.6-0.7-1.6-1.6c0-0.9,0.7-1.6,1.6-1.6
					c0.9,0,1.6,0.7,1.6,1.6C389.8,109.7,389.1,110.4,388.2,110.4z M393.2,110.4c-0.9,0-1.6-0.7-1.6-1.6c0-0.9,0.7-1.6,1.6-1.6
					c0.9,0,1.6,0.7,1.6,1.6C394.8,109.7,394,110.4,393.2,110.4z M398.1,110.5c-0.9,0-1.6-0.7-1.6-1.6c0-0.9,0.7-1.6,1.6-1.6
					c0.9,0,1.6,0.7,1.6,1.6C399.7,109.8,399,110.5,398.1,110.5z"/>
				<rect id="XMLID_2_" x="405.8" y="123.2" width="2.2" height="5.9"/>
				<rect id="XMLID_1_" x="347" y="119.9" class="st26" width="58.8" height="12.7"/>
				<linearGradient id="SVGID_18_" gradientUnits="userSpaceOnUse" x1="349.7845" y1="126.2749" x2="403.562" y2="126.2749">
					<stop  offset="0" style="stop-color:#3054D4"/>
					<stop  offset="1" style="stop-color:#062684"/>
				</linearGradient>
				<path class="st28" d="M349.8,123.2v6.2h53.8v-6.2H349.8z M388.2,127.6c-0.9,0-1.6-0.7-1.6-1.6c0-0.9,0.7-1.6,1.6-1.6
					c0.9,0,1.6,0.7,1.6,1.6C389.8,126.9,389.1,127.6,388.2,127.6z M393.2,127.6c-0.9,0-1.6-0.7-1.6-1.6c0-0.9,0.7-1.6,1.6-1.6
					c0.9,0,1.6,0.7,1.6,1.6C394.8,126.9,394,127.6,393.2,127.6z M398.1,127.7c-0.9,0-1.6-0.7-1.6-1.6c0-0.9,0.7-1.6,1.6-1.6
					c0.9,0,1.6,0.7,1.6,1.6C399.7,127,399,127.7,398.1,127.7z"/>
				<rect id="XMLID_7_" x="344.9" y="139.9" width="2.2" height="5.9"/>
				<rect id="XMLID_6_" x="347" y="136.7" class="st26" width="58.8" height="12.7"/>
				<linearGradient id="SVGID_19_" gradientUnits="userSpaceOnUse" x1="349.7845" y1="143.0452" x2="403.562" y2="143.0452">
					<stop  offset="0" style="stop-color:#3054D4"/>
					<stop  offset="1" style="stop-color:#062684"/>
				</linearGradient>
				<path class="st29" d="M349.8,139.9v6.2h53.8v-6.2H349.8z M388.2,144.3c-0.9,0-1.6-0.7-1.6-1.6c0-0.9,0.7-1.6,1.6-1.6
					c0.9,0,1.6,0.7,1.6,1.6C389.8,143.6,389.1,144.3,388.2,144.3z M393.2,144.3c-0.9,0-1.6-0.7-1.6-1.6c0-0.9,0.7-1.6,1.6-1.6
					c0.9,0,1.6,0.7,1.6,1.6C394.8,143.6,394,144.3,393.2,144.3z M398.1,144.5c-0.9,0-1.6-0.7-1.6-1.6c0-0.9,0.7-1.6,1.6-1.6
					c0.9,0,1.6,0.7,1.6,1.6C399.7,143.8,399,144.5,398.1,144.5z"/>
				<rect id="XMLID_5_" x="405.8" y="157.1" width="2.2" height="5.9"/>
				<rect id="XMLID_4_" x="347" y="153.8" class="st26" width="58.8" height="12.7"/>
				<linearGradient id="SVGID_20_" gradientUnits="userSpaceOnUse" x1="349.7845" y1="160.2181" x2="403.562" y2="160.2181">
					<stop  offset="0" style="stop-color:#3054D4"/>
					<stop  offset="1" style="stop-color:#062684"/>
				</linearGradient>
				<path class="st30" d="M349.8,157.1v6.2h53.8v-6.2H349.8z M388.2,161.5c-0.9,0-1.6-0.7-1.6-1.6c0-0.9,0.7-1.6,1.6-1.6
					c0.9,0,1.6,0.7,1.6,1.6C389.8,160.8,389.1,161.5,388.2,161.5z M393.2,161.5c-0.9,0-1.6-0.7-1.6-1.6c0-0.9,0.7-1.6,1.6-1.6
					c0.9,0,1.6,0.7,1.6,1.6C394.8,160.8,394,161.5,393.2,161.5z M398.1,161.6c-0.9,0-1.6-0.7-1.6-1.6c0-0.9,0.7-1.6,1.6-1.6
					c0.9,0,1.6,0.7,1.6,1.6C399.7,160.9,399,161.6,398.1,161.6z"/>
				<line class="st31" x1="380.3" y1="101" x2="383.6" y2="101"/>
				<line class="st31" x1="357.5" y1="101" x2="376.5" y2="101"/>
				<line class="st31" x1="344.5" y1="163" x2="344.5" y2="165.3"/>
				<line class="st31" x1="344.5" y1="155.7" x2="344.5" y2="160.6"/>
			</g>
			<linearGradient id="XMLID_9_" gradientUnits="userSpaceOnUse" x1="324.2272" y1="218.8696" x2="437.9115" y2="278.1001">
				<stop  offset="0" style="stop-color:#3054D4"/>
				<stop  offset="1" style="stop-color:#062684"/>
			</linearGradient>
			<path id="XMLID_70_" class="st32" d="M395.9,237.4c-2,0-3.9,0.6-5.6,1.5c0.1-0.9,0.2-1.7,0.2-2.6c0-8.5-6.9-15.4-15.4-15.4
				c-7.6,0-13.8,5.4-15.2,12.6c-1.5-0.6-3.1-0.9-4.8-0.9c-7.5,0-13.7,6.1-13.7,13.7c0,7.5,6.1,13.7,13.7,13.7h40.8
				c6.2,0,11.2-5,11.2-11.2C407.1,242.4,402.1,237.4,395.9,237.4z"/>
			<path class="st33" d="M344.7,258.7c0.5,0.4,1.1,0.7,1.8,1"/>
			<path class="st33" d="M340.2,253.4c0,0,0.6,1.7,2.3,3.5"/>
			<path class="st33" d="M365.4,219.9c1.7-1.2,4.4-2.4,8-2.3"/>
			<path class="st33" d="M362.9,222.2c0,0,0.4-0.6,1.3-1.4"/>
			<linearGradient id="XMLID_10_" gradientUnits="userSpaceOnUse" x1="345.0008" y1="321.0825" x2="402.753" y2="321.0825">
				<stop  offset="0" style="stop-color:#09005D"/>
				<stop  offset="1" style="stop-color:#1A0F91"/>
			</linearGradient>
			<rect id="XMLID_69_" x="345" y="301.3" class="st34" width="57.8" height="39.6"/>
			<linearGradient id="XMLID_11_" gradientUnits="userSpaceOnUse" x1="336.3379" y1="349.6145" x2="411.4158" y2="349.6145">
				<stop  offset="0" style="stop-color:#1A0F91"/>
				<stop  offset="1" style="stop-color:#09005D"/>
			</linearGradient>
			<polygon id="XMLID_68_" class="st35" points="411.4,358.4 336.3,358.4 345,340.9 402.8,340.9 			"/>
			<rect id="XMLID_67_" x="348.5" y="304.4" class="st5" width="50.8" height="33.3"/>
			<linearGradient id="XMLID_12_" gradientUnits="userSpaceOnUse" x1="336.3379" y1="358.8939" x2="411.45" y2="358.8939">
				<stop  offset="0" style="stop-color:#09005D"/>
				<stop  offset="1" style="stop-color:#1A0F91"/>
			</linearGradient>
			<rect id="XMLID_66_" x="336.3" y="358.4" class="st36" width="75.1" height="1.1"/>
			<g>
				<linearGradient id="XMLID_13_" gradientUnits="userSpaceOnUse" x1="261.55" y1="329.2334" x2="294.0328" y2="329.2334">
					<stop  offset="0" style="stop-color:#1A0F91"/>
					<stop  offset="1" style="stop-color:#09005D"/>
				</linearGradient>
				<path id="XMLID_65_" class="st37" d="M261.5,343.5h31.7c0.4,0,0.8-0.3,0.8-0.8v-27c0-0.4-0.3-0.8-0.8-0.8h-31.7V343.5z"/>
				<linearGradient id="XMLID_14_" gradientUnits="userSpaceOnUse" x1="260.4562" y1="329.2334" x2="293.1776" y2="329.2334">
					<stop  offset="0" style="stop-color:#09005D"/>
					<stop  offset="1" style="stop-color:#1A0F91"/>
				</linearGradient>
				<polygon id="XMLID_64_" class="st38" points="260.5,343.5 293.2,343.5 293.2,315 260.5,315 				"/>
				
					<rect id="XMLID_63_" x="262.2" y="317.2" transform="matrix(-1 -1.224647e-16 1.224647e-16 -1 552.9009 658.4667)" class="st5" width="28.4" height="24"/>
				<linearGradient id="XMLID_15_" gradientUnits="userSpaceOnUse" x1="234.9354" y1="347.0629" x2="293.1776" y2="347.0629">
					<stop  offset="0" style="stop-color:#1A0F91"/>
					<stop  offset="1" style="stop-color:#09005D"/>
				</linearGradient>
				<polygon id="XMLID_62_" class="st39" points="293.2,343.5 268.4,350.6 234.9,350.6 260.5,343.5 				"/>
				<linearGradient id="XMLID_16_" gradientUnits="userSpaceOnUse" x1="268.3735" y1="347.6718" x2="293.1776" y2="347.6718">
					<stop  offset="0" style="stop-color:#09005D"/>
					<stop  offset="1" style="stop-color:#1A0F91"/>
				</linearGradient>
				<polygon id="XMLID_61_" class="st40" points="293.2,343.5 293.2,344.4 268.4,351.9 268.4,350.6 				"/>
				<linearGradient id="XMLID_17_" gradientUnits="userSpaceOnUse" x1="234.9354" y1="351.2578" x2="268.3735" y2="351.2578">
					<stop  offset="0" style="stop-color:#09005D"/>
					<stop  offset="1" style="stop-color:#1A0F91"/>
				</linearGradient>
				<polygon id="XMLID_60_" class="st41" points="234.9,351.9 268.4,351.9 268.4,350.6 234.9,350.6 				"/>
			</g>
			<g>
				
					<linearGradient id="XMLID_18_" gradientUnits="userSpaceOnUse" x1="507.578" y1="329.2334" x2="540.0609" y2="329.2334" gradientTransform="matrix(-1 0 0 1 996.6748 0)">
					<stop  offset="0" style="stop-color:#1A0F91"/>
					<stop  offset="1" style="stop-color:#09005D"/>
				</linearGradient>
				<path id="XMLID_59_" class="st42" d="M489.1,343.5h-31.7c-0.4,0-0.8-0.3-0.8-0.8v-27c0-0.4,0.3-0.8,0.8-0.8h31.7V343.5z"/>
				
					<linearGradient id="XMLID_19_" gradientUnits="userSpaceOnUse" x1="506.4842" y1="329.2334" x2="539.2056" y2="329.2334" gradientTransform="matrix(-1 0 0 1 996.6748 0)">
					<stop  offset="0" style="stop-color:#09005D"/>
					<stop  offset="1" style="stop-color:#1A0F91"/>
				</linearGradient>
				<rect id="XMLID_58_" x="457.5" y="315" class="st43" width="32.7" height="28.5"/>
				<rect id="XMLID_57_" x="460" y="317.2" class="st5" width="28.4" height="24"/>
				
					<linearGradient id="XMLID_20_" gradientUnits="userSpaceOnUse" x1="480.9634" y1="347.0629" x2="539.2056" y2="347.0629" gradientTransform="matrix(-1 0 0 1 996.6748 0)">
					<stop  offset="0" style="stop-color:#1A0F91"/>
					<stop  offset="1" style="stop-color:#09005D"/>
				</linearGradient>
				<polygon id="XMLID_56_" class="st44" points="457.5,343.5 482.3,350.6 515.7,350.6 490.2,343.5 				"/>
				
					<linearGradient id="XMLID_21_" gradientUnits="userSpaceOnUse" x1="514.4015" y1="347.6718" x2="539.2056" y2="347.6718" gradientTransform="matrix(-1 0 0 1 996.6748 0)">
					<stop  offset="0" style="stop-color:#09005D"/>
					<stop  offset="1" style="stop-color:#1A0F91"/>
				</linearGradient>
				<polygon id="XMLID_55_" class="st45" points="457.5,343.5 457.5,344.4 482.3,351.9 482.3,350.6 				"/>
				
					<linearGradient id="XMLID_22_" gradientUnits="userSpaceOnUse" x1="480.9634" y1="351.2578" x2="514.4015" y2="351.2578" gradientTransform="matrix(-1 0 0 1 996.6748 0)">
					<stop  offset="0" style="stop-color:#09005D"/>
					<stop  offset="1" style="stop-color:#1A0F91"/>
				</linearGradient>
				<rect id="XMLID_54_" x="482.3" y="350.6" class="st46" width="33.4" height="1.2"/>
			</g>
			<linearGradient id="SVGID_21_" gradientUnits="userSpaceOnUse" x1="300.4364" y1="425.7196" x2="474.3883" y2="487.4444">
				<stop  offset="0" style="stop-color:#3054D4"/>
				<stop  offset="1" style="stop-color:#062684"/>
			</linearGradient>
			<path class="st47" d="M408.6,474.8h-71.1c-5.5,0-10-4.5-10-10v-26.6c0-5.5,4.5-10,10-10h71.1c5.5,0,10,4.5,10,10v26.6
				C418.6,470.3,414.1,474.8,408.6,474.8z"/>
		</g>
		<g>
			<g>
				<g>
					<path d="M658,513.4h0.1c0.6,0,1.1-0.5,1.1-1.2l-1.7-74.1l-5-0.6l4.3,74.6C656.9,512.9,657.4,513.4,658,513.4z"/>
				</g>
				<g>
					<path d="M687.4,513.4h0.1c0.6,0,1.1-0.5,1.1-1.2l-1.7-74.1l-5-0.6l4.3,74.6C686.2,512.9,686.7,513.4,687.4,513.4z"/>
				</g>
				<g>
					<path d="M606.4,513.4h-0.1c-0.6,0-1.1-0.5-1.1-1.2l1.7-74.1l5-0.6l-4.3,74.6C607.6,512.9,607.1,513.4,606.4,513.4z"/>
				</g>
				<path d="M690.7,433.6v-50.7c0-8.9-7.2-16.2-16.2-16.2H638c-8.9,0-16.2,7.2-16.2,16.2v52.7L690.7,433.6z"/>
				<linearGradient id="SVGID_22_" gradientUnits="userSpaceOnUse" x1="615.2505" y1="437.6334" x2="690.6951" y2="437.6334">
					<stop  offset="0" style="stop-color:#666666"/>
					<stop  offset="1" style="stop-color:#1A1A1A"/>
				</linearGradient>
				<path class="st48" d="M615.3,441.6h68.3c3.9,0,7.1-3.2,7.1-7.1v-0.9h-75.4V441.6z"/>
				<path d="M606.8,441.6h53.4c2,0,3.6-1.6,3.6-3.6v-0.9c0-2-1.6-3.6-3.6-3.6h-53.4c-2,0-3.6,1.6-3.6,3.6v0.9
					C603.2,440,604.8,441.6,606.8,441.6z"/>
			</g>
			<g>
				<path d="M637.7,319.3c0,0-5.9-5.9-5.9-20.5c0-14.6,21-4.4,25.1-1.4c4.7,3.4,9.8-1,11.7,7.1c2,8.1-5.8,17.8-5.8,17.8L637.7,319.3
					z"/>
				<g>
					<path class="st49" d="M641.8,353.7c0,10.4,28.5,8.3,28.5-0.5s-7.4-12.9-7.4-12.9c-0.7-4.3-2.1-7.8-1.8-12.1
						c0.5-7.9,2.9-15.4,5.3-22.9c-6.9-5.9-16.2-6.3-27.2-2.1c-0.8,3-1.7,6-2.1,9.1c-0.4,3-0.4,6.3,0.5,9.2
						c1.1,4.1,3.2,10.7,6.9,12.8c1.9,1.1,5-0.9,6.2,1c1.1,1.7,0.2,3-0.5,5C650.2,340.2,641.8,344.7,641.8,353.7z"/>
				</g>
				<g>
					<path d="M667.6,305.2c0,0-0.2-5.7-13.1-5.7c-12.9,0-16.1,2.6-16.1,2.6s-1.9,3-2.4,5.7c-0.5,2.7,5.2,1.1,9.1-1.4
						c3.9-2.5,10.1,0.5,10.1,0.5c-1.1,2,5,0.4,5,0.4c-0.6,8.6,2.4,13,2.4,13L667.6,305.2z"/>
					<path d="M661.1,322.5c0,0-1.4,9.5,0,9.5c1,0,1.9-7.2,1.9-7.2L661.1,322.5z"/>
				</g>
				<g>
					<path class="st49" d="M665.2,316c1.6,0.7,2.1,3,1.1,5.3c-1,2.3-3,3.5-4.7,2.8c-1.6-0.7-2.1-3-1.1-5.3
						C661.5,316.6,663.7,315.3,665.2,316z"/>
				</g>
				<path class="st49" d="M636.4,371c0,0-5.5,20.4-13.3,25.6c-7.9,5.2-38.7-6.8-38.7-6.8l1.7-7.5l30.5,4.6l9.1-18.8L636.4,371z"/>
				<path class="st50" d="M642.8,355.1l-5.7,17.8l-14-4.2c3.4-7,13.3-20.3,13.3-20.3L642.8,355.1z"/>
				<path class="st50" d="M662.9,340.1c0,0,14.5,4.2,17.4,7.5c2.9,3.3,8.2,60.6,8.2,60.6s-20.7,3.1-34.3,3.1
					c-13.6,0-22.8-2.4-22.8-2.4c-0.3-5,2.6-57.4,4.7-60.2c2.1-2.8,14.1-8.5,14.1-8.5C653.2,348.2,662.9,340.1,662.9,340.1z"/>
				<g>
					<path class="st49" d="M690,366.2c0,0,8.2,23,2.6,28.9s-40,6.9-40,6.9l-1.3-8.9l31.1-5.9l-2.9-17.3L690,366.2z"/>
					<path class="st49" d="M632.6,392.5c0.1,0.3,0.4,0.4,0.7,0.4c0.7,0.1,1.4-0.1,2.1-0.3c-0.4,0.1-0.5,0.7-0.5,1.1
						c0.2,2.5,1,5,2.4,7.1c0.4,0.5,0.8,1,1.4,1.1c0.9,0.2,1.8-0.6,2.4-1.3c2.4,1,5,1.5,7.6,1.8c1.3,0.1,2.7,0.1,3.9-0.3
						c1.4-0.4,2.7-1.3,3.1-2.7v-0.5c-0.2-1.6-0.7-3.1-1.7-4.5c-1.2-1.8-3-3-4.9-4c-1.8-0.9-3.7-1.6-5.6-2.4c-1.2-0.5-2.4-1-3.7-0.9
						c-1.1,0.1-2.2,0.7-3.2,1.4c-1.4,1-2.7,2.1-3.9,3.4C632.6,392.2,632.4,392.4,632.6,392.5z"/>
				</g>
				<path class="st50" d="M672.4,354.8l5.7,17.8l15.3-4.8c-3.4-7-13.2-20.3-13.2-20.3L672.4,354.8z"/>
				<path d="M628.1,490.1l-5,4.3c-0.6,2.8-13.6,12.9-12.2,16.2c1.4,3.2,26-8,27.5-10.5c1.5-2.6-3.5-9.8-3.5-9.8L628.1,490.1z"/>
				<path class="st51" d="M669.7,408.6c0,0-65.3-0.8-74,10.9c-8.7,11.8,27.6,75,27.6,75l11.7-4.1l-18.6-56.2
					c5.7-0.5,49.1-1.8,49.1-1.8L669.7,408.6z"/>
				<path d="M574.4,462.9l-6.6-1.1c-2.5,1.3-18.6-2.2-20.2,0.9c-1.6,3.1,22.7,14.9,25.6,14.5c2.9-0.5,5.3-8.9,5.3-8.9L574.4,462.9z"
					/>
				<path class="st52" d="M604.9,405.7c-14.6,3.7-37.1,56.2-37.1,56.2l10.7,6.5l31.6-45.1c0,0,40.7,10.7,57.6,8.9
					c16.9-1.8,21-23.9,21-23.9C673.6,405.4,619.6,401.8,604.9,405.7z"/>
			</g>
			<g>
				<g>
					<linearGradient id="SVGID_23_" gradientUnits="userSpaceOnUse" x1="577.3289" y1="380.2803" x2="640.8419" y2="380.2803">
						<stop  offset="0" style="stop-color:#666666"/>
						<stop  offset="1" style="stop-color:#1A1A1A"/>
					</linearGradient>
					<polygon class="st53" points="640.8,398.5 592,398.5 577.3,362 626.1,362 					"/>
					<linearGradient id="SVGID_24_" gradientUnits="userSpaceOnUse" x1="591.4442" y1="397.8306" x2="655.9182" y2="397.8306">
						<stop  offset="0" style="stop-color:#666666"/>
						<stop  offset="1" style="stop-color:#1A1A1A"/>
					</linearGradient>
					<polygon class="st54" points="591.4,397.1 655.9,397.1 655.9,398.5 592,398.5 					"/>
				</g>
				<path class="st5" d="M604.3,380.3c-0.4-1.3,0.4-2.3,1.7-2.3c1.3,0,2.6,1,3,2.3c0.4,1.3-0.4,2.3-1.7,2.3
					C606,382.6,604.7,381.6,604.3,380.3z"/>
			</g>
			<linearGradient id="SVGID_25_" gradientUnits="userSpaceOnUse" x1="491.9855" y1="455.6246" x2="708.9745" y2="455.6246">
				<stop  offset="0" style="stop-color:#021B79"/>
				<stop  offset="1" style="stop-color:#0575E6"/>
			</linearGradient>
			<path class="st55" d="M708.5,399.4c-0.4-0.5-1-0.9-1.6-0.9H494.4c-0.8,0-1.6,0.5-2,1.2c-0.4,0.8-0.5,1.8-0.2,2.6l2.3,5.6
				c0.5,1.3,1.7,2.1,2.9,2.1h14.4l18.3,41.3l-25.9,58.4c-0.5,1.1,0,2.4,1.2,2.8c0.3,0.1,0.6,0.2,0.9,0.2c0.9,0,1.7-0.5,2-1.3
				l24.3-54.6l24.3,54.6c0.4,0.8,1.2,1.3,2,1.3c0.3,0,0.6-0.1,0.9-0.2c1.1-0.5,1.7-1.7,1.2-2.8L535,451.3l18.3-41.3h103l18.3,41.3
				l-25.9,58.4c-0.5,1.1,0,2.4,1.2,2.8c0.3,0.1,0.6,0.2,0.9,0.2c0.9,0,1.7-0.5,2-1.3l24.3-54.6l24.3,54.6c0.4,0.8,1.2,1.3,2,1.3
				c0.3,0,0.6-0.1,0.9-0.2c1.1-0.5,1.7-1.7,1.2-2.8l-25.9-58.4l18.3-41.3h7.5c1.2,0,2.2-0.9,2.4-2.2l1.1-6.5
				C709.1,400.7,708.9,399.9,708.5,399.4z M532.6,445.9l-15.9-35.8h31.8L532.6,445.9z M677.2,445.9l-15.9-35.8h31.8L677.2,445.9z"/>
		</g>
	</g>
</g>
</svg>
