<?xml version="1.0" encoding="utf-8"?>
<!-- Generator: Adobe Illustrator 24.1.0, SVG Export Plug-In . SVG Version: 6.00 Build 0)  -->
<svg version="1.1" id="Layer_1" xmlns="http://www.w3.org/2000/svg" xmlns:xlink="http://www.w3.org/1999/xlink" x="0px" y="0px"
	 viewBox="0 0 750 650" style="enable-background:new 0 0 750 650;" xml:space="preserve">
<style type="text/css">
	.st0{opacity:0.2;fill:#91B3FA;enable-background:new    ;}
	.st1{opacity:0.1;fill:#91B3FA;enable-background:new    ;}
	.st2{fill:url(#Rectangle_2057_1_);}
	.st3{fill:#FFFFFF;}
	.st4{opacity:0.2;}
	.st5{fill:#0F37A5;}
	.st6{opacity:0.5;}
	.st7{fill:url(#Rectangle_2066_1_);}
	.st8{fill:url(#Rectangle_2067_1_);}
	.st9{fill:url(#Rectangle_2068_1_);}
	.st10{fill:url(#Rectangle_2069_1_);}
	.st11{fill:url(#Rectangle_2070_1_);}
	.st12{fill:url(#Rectangle_2071_1_);}
	.st13{fill:url(#Rectangle_2072_1_);}
	.st14{opacity:0.1;fill:#032E9B;enable-background:new    ;}
	.st15{clip-path:url(#SVGID_2_);}
	.st16{fill:url(#Rectangle_2073_1_);}
	.st17{clip-path:url(#SVGID_4_);}
	.st18{fill:url(#Rectangle_2074_1_);}
	.st19{opacity:0.1;fill:#3054D4;enable-background:new    ;}
	.st20{opacity:0.2;fill:url(#Path_5186_1_);enable-background:new    ;}
	.st21{fill:url(#Ellipse_285_1_);}
	.st22{fill:url(#Path_5187_1_);}
	.st23{fill:url(#Path_5188_1_);}
	.st24{fill:url(#Path_5189_1_);}
	.st25{fill:url(#Path_5190_1_);}
	.st26{fill:url(#Path_5191_1_);}
	.st27{fill:#E1E3FD;}
	.st28{opacity:0.5;fill:#FFFFFF;enable-background:new    ;}
	.st29{opacity:0.2;fill:#0F37A5;enable-background:new    ;}
	.st30{fill:url(#Ellipse_287_1_);}
	.st31{opacity:0.2;fill:#3054D4;enable-background:new    ;}
	.st32{fill:url(#Path_5205_1_);}
	.st33{fill:url(#Path_5206_1_);}
	.st34{fill:url(#Path_5207_1_);}
	.st35{fill:none;stroke:#707070;stroke-miterlimit:10;}
	.st36{fill:url(#Path_5208_1_);}
	.st37{fill:#F8BE99;}
	.st38{fill:#133282;}
	.st39{fill:#F5BE42;}
	.st40{fill:#F39F11;}
	.st41{fill:#FFB48F;}
	.st42{fill:#EC384E;}
	.st43{fill:#1B3D98;}
	.st44{fill:url(#Path_5240_1_);}
	.st45{fill:#DE151F;}
	.st46{fill:#91B3FA;}
	.st47{fill:url(#Path_5248_1_);}
</style>
<g id="Group_1761" transform="translate(-150 -242.32)">
	<g id="Group_1739">
		<path id="Path_5179" class="st0" d="M590.9,799.8c35.5-0.6,73.9-14.4,96.4-26.4c102.9-55.1,149.1-168,147.6-273.6
			C833.4,394.3,764.1,290.4,664,257c-21.6-7.2-44.4-11.3-67.2-10.6c-59.7,1.8-114.4,36.2-155.3,79.7c-18.3,19.5-34.7,41.2-55.8,57.7
			c-26.2,20.5-58.3,31.8-87.6,47.8c-49.2,26.9-92.9,72.3-98.1,128.1c-4.9,52.5,25.9,103.2,67.1,136.1c41.2,32.9,91.9,51.2,141.5,69
			C448.1,779,548.4,801.4,590.9,799.8"/>
		<path id="Path_5180" class="st1" d="M723.7,860.9c38.1-12.7,74.6-39.6,94.5-59.3c90.9-90.2,99.1-218.7,58.5-323.6
			C836,373.1,722.7,293,602.1,293.9c-26,0.2-52.2,3.9-76.6,12.4c-63.9,22.2-110.4,75.2-138.5,132.6c-12.6,25.8-22.3,53-39,76.7
			c-20.8,29.4-51.3,51.7-77,77.6c-43.2,43.6-73.8,104-58.8,161.4c14.1,54.1,66.2,94.2,122.9,113c56.7,18.8,118.3,19.8,178.5,20.6
			C561.5,888.9,678.3,877,723.7,860.9"/>
	</g>
	<g id="Group_1760">
		<g id="Group_1751">
			
				<linearGradient id="Rectangle_2057_1_" gradientUnits="userSpaceOnUse" x1="-434.8727" y1="1322.8356" x2="-433.3113" y2="1322.8356" gradientTransform="matrix(2.483510e-14 405.588 652.897 -3.997841e-14 -863208.75 176603.1875)">
				<stop  offset="0" style="stop-color:#062684"/>
				<stop  offset="1" style="stop-color:#3054D4"/>
			</linearGradient>
			<path id="Rectangle_2057" class="st2" d="M783.1,382.4V699c0,21.2-17.2,38.4-38.4,38.4H188.4c-21.2,0-38.4-17.2-38.4-38.4V382.4
				c0-21.2,17.2-38.4,38.4-38.4h556.4C766,344,783.1,361.2,783.1,382.4z"/>
			<path id="Rectangle_2058" class="st3" d="M188.4,363.2h556.4c10.6,0,19.2,8.6,19.2,19.2V699c0,10.6-8.6,19.2-19.2,19.2H188.4
				c-10.6,0-19.2-8.6-19.2-19.2V382.4C169.2,371.8,177.8,363.2,188.4,363.2z"/>
			<g id="Group_1740" class="st4">
				<rect id="Rectangle_2059" x="190.4" y="462" class="st5" width="15.7" height="214"/>
				<rect id="Rectangle_2060" x="216.7" y="462" class="st5" width="15.7" height="214"/>
				<rect id="Rectangle_2061" x="243" y="462" class="st5" width="15.7" height="214"/>
				<rect id="Rectangle_2062" x="269.4" y="462" class="st5" width="15.7" height="214"/>
				<rect id="Rectangle_2063" x="295.7" y="462" class="st5" width="15.7" height="214"/>
				<rect id="Rectangle_2064" x="322" y="462" class="st5" width="15.7" height="214"/>
				<rect id="Rectangle_2065" x="348.3" y="462" class="st5" width="15.7" height="214"/>
			</g>
			<g id="Group_1741" class="st6">
				
					<linearGradient id="Rectangle_2066_1_" gradientUnits="userSpaceOnUse" x1="-432.8461" y1="1325.1576" x2="-431.8764" y2="1325.1576" gradientTransform="matrix(16.241 0 0 -103.851 7220.2539 138244.5156)">
					<stop  offset="0" style="stop-color:#002FF5"/>
					<stop  offset="0.189" style="stop-color:#003EF4"/>
					<stop  offset="0.559" style="stop-color:#0068F4"/>
					<stop  offset="1" style="stop-color:#00A2F4"/>
				</linearGradient>
				<rect id="Rectangle_2066" x="190.4" y="575.2" class="st7" width="15.7" height="100.7"/>
				
					<linearGradient id="Rectangle_2067_1_" gradientUnits="userSpaceOnUse" x1="-432.8967" y1="1326.3895" x2="-431.9269" y2="1326.3895" gradientTransform="matrix(16.241 0 0 -68.159 7247.3906 91048.2734)">
					<stop  offset="0" style="stop-color:#002FF5"/>
					<stop  offset="0.189" style="stop-color:#003EF4"/>
					<stop  offset="0.559" style="stop-color:#0068F4"/>
					<stop  offset="1" style="stop-color:#00A2F4"/>
				</linearGradient>
				<rect id="Rectangle_2067" x="216.7" y="609.8" class="st8" width="15.7" height="66.1"/>
				
					<linearGradient id="Rectangle_2068_1_" gradientUnits="userSpaceOnUse" x1="-432.9472" y1="1324.3674" x2="-431.9774" y2="1324.3674" gradientTransform="matrix(16.241 0 0 -156.37 7274.5288 207691.4375)">
					<stop  offset="0" style="stop-color:#002FF5"/>
					<stop  offset="0.189" style="stop-color:#003EF4"/>
					<stop  offset="0.559" style="stop-color:#0068F4"/>
					<stop  offset="1" style="stop-color:#00A2F4"/>
				</linearGradient>
				<rect id="Rectangle_2068" x="243" y="524.3" class="st9" width="15.7" height="151.6"/>
				
					<linearGradient id="Rectangle_2069_1_" gradientUnits="userSpaceOnUse" x1="-432.9977" y1="1329.3088" x2="-432.028" y2="1329.3088" gradientTransform="matrix(16.241 0 0 -37.566 7301.6665 50594.543)">
					<stop  offset="0" style="stop-color:#002FF5"/>
					<stop  offset="0.189" style="stop-color:#003EF4"/>
					<stop  offset="0.559" style="stop-color:#0068F4"/>
					<stop  offset="1" style="stop-color:#00A2F4"/>
				</linearGradient>
				<rect id="Rectangle_2069" x="269.4" y="639.5" class="st10" width="15.7" height="36.4"/>
				
					<linearGradient id="Rectangle_2070_1_" gradientUnits="userSpaceOnUse" x1="-433.0483" y1="1324.6085" x2="-432.0785" y2="1324.6085" gradientTransform="matrix(16.241 0 0 -135.464 7328.8047 180047.0312)">
					<stop  offset="0" style="stop-color:#002FF5"/>
					<stop  offset="0.189" style="stop-color:#003EF4"/>
					<stop  offset="0.559" style="stop-color:#0068F4"/>
					<stop  offset="1" style="stop-color:#00A2F4"/>
				</linearGradient>
				<rect id="Rectangle_2070" x="295.7" y="544.6" class="st11" width="15.7" height="131.4"/>
				
					<linearGradient id="Rectangle_2071_1_" gradientUnits="userSpaceOnUse" x1="-433.0988" y1="1324.9862" x2="-432.1291" y2="1324.9862" gradientTransform="matrix(16.241 0 0 -112.009 7355.9429 149032.0156)">
					<stop  offset="0" style="stop-color:#002FF5"/>
					<stop  offset="0.189" style="stop-color:#003EF4"/>
					<stop  offset="0.559" style="stop-color:#0068F4"/>
					<stop  offset="1" style="stop-color:#00A2F4"/>
				</linearGradient>
				<rect id="Rectangle_2071" x="322" y="567.3" class="st12" width="15.7" height="108.6"/>
				
					<linearGradient id="Rectangle_2072_1_" gradientUnits="userSpaceOnUse" x1="-433.1494" y1="1325.629" x2="-432.1796" y2="1325.629" gradientTransform="matrix(16.241 0 0 -86.515 7383.0796 115320.7812)">
					<stop  offset="0" style="stop-color:#002FF5"/>
					<stop  offset="0.189" style="stop-color:#003EF4"/>
					<stop  offset="0.559" style="stop-color:#0068F4"/>
					<stop  offset="1" style="stop-color:#00A2F4"/>
				</linearGradient>
				<rect id="Rectangle_2072" x="348.3" y="592" class="st13" width="15.7" height="83.9"/>
			</g>
			<g id="Group_1743">
				<path id="Path_5181" class="st14" d="M441.2,385.4c-21.1,0-38.3,17.1-38.3,38.3s17.1,38.3,38.3,38.3s38.3-17.1,38.3-38.3l0,0
					C479.5,402.6,462.3,385.4,441.2,385.4z M441.2,445.5c-12,0-21.8-9.8-21.8-21.8c0-12,9.8-21.8,21.8-21.8s21.8,9.8,21.8,21.8
					C463,435.7,453.2,445.5,441.2,445.5L441.2,445.5z"/>
				<g>
					<defs>
						<path id="SVGID_1_" d="M441.2,385.4c-21.1,0-38.3,17.1-38.3,38.3s17.1,38.3,38.3,38.3s38.3-17.1,38.3-38.3l0,0
							C479.5,402.6,462.3,385.4,441.2,385.4z M441.2,445.5c-12,0-21.8-9.8-21.8-21.8c0-12,9.8-21.8,21.8-21.8s21.8,9.8,21.8,21.8
							C463,435.7,453.2,445.5,441.2,445.5L441.2,445.5z"/>
					</defs>
					<clipPath id="SVGID_2_">
						<use xlink:href="#SVGID_1_"  style="overflow:visible;"/>
					</clipPath>
					<g id="Group_1742" class="st15">
						
							<linearGradient id="Rectangle_2073_1_" gradientUnits="userSpaceOnUse" x1="-433.8926" y1="1327.5972" x2="-432.9229" y2="1327.5972" gradientTransform="matrix(117.204 0 0 -49.6 51241.707 66288.1641)">
							<stop  offset="0" style="stop-color:#002FF5"/>
							<stop  offset="0.189" style="stop-color:#003EF4"/>
							<stop  offset="0.559" style="stop-color:#0068F4"/>
							<stop  offset="1" style="stop-color:#00A2F4"/>
						</linearGradient>
						<rect id="Rectangle_2073" x="387.8" y="415.3" class="st16" width="113.7" height="48.1"/>
					</g>
				</g>
			</g>
			<g id="Group_1745">
				<path id="Path_5183" class="st14" d="M534.5,385.4c-21.1,0-38.3,17.1-38.3,38.3s17.1,38.3,38.3,38.3c21.1,0,38.3-17.1,38.3-38.3
					l0,0C572.7,402.6,555.6,385.4,534.5,385.4z M534.5,445.5c-12,0-21.8-9.8-21.8-21.8c0-12,9.8-21.8,21.8-21.8s21.8,9.8,21.8,21.8
					C556.3,435.7,546.5,445.5,534.5,445.5L534.5,445.5z"/>
				<g>
					<defs>
						<path id="SVGID_3_" d="M534.5,385.4c-21.1,0-38.3,17.1-38.3,38.3s17.1,38.3,38.3,38.3c21.1,0,38.3-17.1,38.3-38.3l0,0
							C572.7,402.6,555.6,385.4,534.5,385.4z M534.5,445.5c-12,0-21.8-9.8-21.8-21.8c0-12,9.8-21.8,21.8-21.8s21.8,9.8,21.8,21.8
							C556.3,435.7,546.5,445.5,534.5,445.5L534.5,445.5z"/>
					</defs>
					<clipPath id="SVGID_4_">
						<use xlink:href="#SVGID_3_"  style="overflow:visible;"/>
					</clipPath>
					<g id="Group_1744" class="st17">
						
							<linearGradient id="Rectangle_2074_1_" gradientUnits="userSpaceOnUse" x1="-433.9174" y1="1326.2612" x2="-432.9477" y2="1326.2612" gradientTransform="matrix(117.204 0 0 -68.772 51337.8906 91639.6875)">
							<stop  offset="0" style="stop-color:#002FF5"/>
							<stop  offset="0.189" style="stop-color:#003EF4"/>
							<stop  offset="0.559" style="stop-color:#0068F4"/>
							<stop  offset="1" style="stop-color:#00A2F4"/>
						</linearGradient>
						<rect id="Rectangle_2074" x="481" y="396.7" class="st18" width="113.7" height="66.7"/>
					</g>
				</g>
			</g>
			<path id="Path_5185" class="st19" d="M741.8,677.5l-245.4-1.8c-4.8,0-8.7-4-8.7-8.8V540.7c0-4.9,3.9-8.8,8.8-8.8h245.4
				c4.9,0,8.8,3.9,8.8,8.8c0,0,0,0,0,0v127.9C750.7,673.5,746.7,677.5,741.8,677.5C741.8,677.5,741.8,677.5,741.8,677.5z"/>
			
				<linearGradient id="Path_5186_1_" gradientUnits="userSpaceOnUse" x1="-433.9636" y1="1324.9213" x2="-432.9938" y2="1324.9213" gradientTransform="matrix(252.308 0 0 -115.3212 109989.2812 153402.9219)">
				<stop  offset="0" style="stop-color:#3054D4"/>
				<stop  offset="1" style="stop-color:#062684"/>
			</linearGradient>
			<path id="Path_5186" class="st20" d="M703.7,588.8l-31.6-33.4l-45.3,49.2L595,570.2L565,604.1l-23-27.9l-45.3,47.1v34.1
				c0,4.5,3.6,8.2,8.1,8.2l228.3,1.7c4.5,0,8.2-3.6,8.3-8.1c0,0,0,0,0-0.1v-92.7L703.7,588.8z"/>
			<rect id="Rectangle_2075" x="703.9" y="587.9" class="st3" width="0.8" height="79.4"/>
			<rect id="Rectangle_2076" x="671.7" y="555.5" class="st3" width="0.8" height="111.4"/>
			<rect id="Rectangle_2077" x="626.5" y="604.1" class="st3" width="0.8" height="62.4"/>
			<rect id="Rectangle_2078" x="595.4" y="571.5" class="st3" width="0.8" height="95"/>
			<rect id="Rectangle_2079" x="564.6" y="603.1" class="st3" width="0.8" height="63.4"/>
			<rect id="Rectangle_2080" x="542.1" y="573.8" class="st3" width="0.8" height="92.1"/>
			
				<linearGradient id="Ellipse_285_1_" gradientUnits="userSpaceOnUse" x1="-418.2" y1="1328.7712" x2="-417.2303" y2="1328.7712" gradientTransform="matrix(5.4731 -13.2133 -13.2133 -5.4731 20386.2344 2326.9666)">
				<stop  offset="0" style="stop-color:#3054D4"/>
				<stop  offset="1" style="stop-color:#062684"/>
			</linearGradient>
			<circle id="Ellipse_285" class="st21" cx="542.5" cy="573.8" r="6.9"/>
			
				<linearGradient id="Path_5187_1_" gradientUnits="userSpaceOnUse" x1="-433.236" y1="1348.5104" x2="-432.2662" y2="1348.5104" gradientTransform="matrix(9.422 0 0 -9.422 4642.3945 13308.7402)">
				<stop  offset="0" style="stop-color:#002FF5"/>
				<stop  offset="0.189" style="stop-color:#003EF4"/>
				<stop  offset="0.559" style="stop-color:#0068F4"/>
				<stop  offset="1" style="stop-color:#00A2F4"/>
			</linearGradient>
			<path id="Path_5187" class="st22" d="M569.6,603.1c0,2.5-2,4.6-4.6,4.6c-2.5,0-4.6-2-4.6-4.6s2-4.6,4.6-4.6l0,0
				C567.5,598.5,569.6,600.6,569.6,603.1z"/>
			
				<linearGradient id="Path_5188_1_" gradientUnits="userSpaceOnUse" x1="-433.338" y1="1348.4056" x2="-432.3682" y2="1348.4056" gradientTransform="matrix(9.422 0 0 -9.422 4674.1519 13276.1309)">
				<stop  offset="0" style="stop-color:#002FF5"/>
				<stop  offset="0.189" style="stop-color:#003EF4"/>
				<stop  offset="0.559" style="stop-color:#0068F4"/>
				<stop  offset="1" style="stop-color:#00A2F4"/>
			</linearGradient>
			<path id="Path_5188" class="st23" d="M600.4,571.5c0,2.5-2,4.6-4.6,4.6s-4.6-2-4.6-4.6c0-2.5,2-4.6,4.6-4.6l0,0
				C598.3,566.9,600.4,568.9,600.4,571.5z"/>
			
				<linearGradient id="Path_5189_1_" gradientUnits="userSpaceOnUse" x1="-433.4408" y1="1348.5137" x2="-432.4711" y2="1348.5137" gradientTransform="matrix(9.422 0 0 -9.422 4706.2056 13309.7832)">
				<stop  offset="0" style="stop-color:#002FF5"/>
				<stop  offset="0.189" style="stop-color:#003EF4"/>
				<stop  offset="0.559" style="stop-color:#0068F4"/>
				<stop  offset="1" style="stop-color:#00A2F4"/>
			</linearGradient>
			<path id="Path_5189" class="st24" d="M631.5,604.1c0,2.5-2,4.6-4.6,4.6c-2.5,0-4.6-2-4.6-4.6c0-2.5,2-4.6,4.6-4.6l0,0
				C629.4,599.5,631.5,601.6,631.5,604.1z"/>
			
				<linearGradient id="Path_5190_1_" gradientUnits="userSpaceOnUse" x1="-433.5906" y1="1348.3528" x2="-432.6209" y2="1348.3528" gradientTransform="matrix(9.422 0 0 -9.422 4752.8716 13259.6455)">
				<stop  offset="0" style="stop-color:#002FF5"/>
				<stop  offset="0.189" style="stop-color:#003EF4"/>
				<stop  offset="0.559" style="stop-color:#0068F4"/>
				<stop  offset="1" style="stop-color:#00A2F4"/>
			</linearGradient>
			<path id="Path_5190" class="st25" d="M676.7,555.5c0,2.5-2,4.6-4.6,4.6c-2.5,0-4.6-2-4.6-4.6s2-4.6,4.6-4.6l0,0
				C674.7,550.9,676.7,552.9,676.7,555.5z"/>
			
				<linearGradient id="Path_5191_1_" gradientUnits="userSpaceOnUse" x1="-432.8068" y1="1349.6859" x2="-434.8414" y2="1343.5348" gradientTransform="matrix(9.422 0 0 -9.422 4786.0449 13293.0986)">
				<stop  offset="0" style="stop-color:#002FF5"/>
				<stop  offset="0.189" style="stop-color:#003EF4"/>
				<stop  offset="0.559" style="stop-color:#0068F4"/>
				<stop  offset="1" style="stop-color:#00A2F4"/>
			</linearGradient>
			<path id="Path_5191" class="st26" d="M708.9,587.9c0,2.5-2,4.6-4.6,4.6c-2.5,0-4.6-2-4.6-4.6c0-2.5,2-4.6,4.6-4.6l0,0
				C706.8,583.3,708.9,585.4,708.9,587.9z"/>
			<g id="Group_1746" class="st4">
				<path id="Path_5192" class="st5" d="M473.8,510.9h-67.3c-2.8,0-5.1,1.6-5.1,3.5c0,2,2.3,3.5,5.1,3.5h67.3c2.8,0,5.1-1.6,5.1-3.5
					S476.7,510.9,473.8,510.9z"/>
				<path id="Path_5193" class="st5" d="M473.8,495.2h-67.3c-2.8,0-5.1,1.6-5.1,3.5s2.3,3.5,5.1,3.5h67.3c2.8,0,5.1-1.6,5.1-3.5
					S476.7,495.2,473.8,495.2z"/>
				<path id="Path_5194" class="st5" d="M473.8,479.5h-67.3c-2.8,0-5.1,1.6-5.1,3.5s2.3,3.6,5.1,3.6h67.3c2.8,0,5.1-1.6,5.1-3.5
					S476.7,479.5,473.8,479.5z"/>
			</g>
			<g id="Group_1747" class="st4">
				<path id="Path_5195" class="st5" d="M567.4,510.9h-67.3c-2.8,0-5.1,1.6-5.1,3.5c0,2,2.3,3.5,5.1,3.5h67.3c2.8,0,5.1-1.6,5.1-3.5
					S570.2,510.9,567.4,510.9z"/>
				<path id="Path_5196" class="st5" d="M567.4,495.2h-67.3c-2.8,0-5.1,1.6-5.1,3.5s2.3,3.5,5.1,3.5h67.3c2.8,0,5.1-1.6,5.1-3.5
					S570.2,495.2,567.4,495.2z"/>
				<path id="Path_5197" class="st5" d="M567.4,479.5h-67.3c-2.8,0-5.1,1.6-5.1,3.5s2.3,3.6,5.1,3.6h67.3c2.8,0,5.1-1.6,5.1-3.5
					S570.2,479.5,567.4,479.5z"/>
			</g>
			<g id="Group_1748" class="st4">
				<path id="Path_5198" class="st5" d="M660.9,510.9h-67.3c-2.8,0-5.1,1.6-5.1,3.5c0,2,2.3,3.5,5.1,3.5h67.3c2.8,0,5.1-1.6,5.1-3.5
					S663.7,510.9,660.9,510.9z"/>
				<path id="Path_5199" class="st5" d="M660.9,495.2h-67.3c-2.8,0-5.1,1.6-5.1,3.5s2.3,3.5,5.1,3.5h67.3c2.8,0,5.1-1.6,5.1-3.5
					S663.7,495.2,660.9,495.2z"/>
				<path id="Path_5200" class="st5" d="M660.9,479.5h-67.3c-2.8,0-5.1,1.6-5.1,3.5s2.3,3.6,5.1,3.6h67.3c2.8,0,5.1-1.6,5.1-3.5
					S663.7,479.5,660.9,479.5z"/>
			</g>
			<circle id="Ellipse_286" class="st27" cx="719.7" cy="425.6" r="31.1"/>
			<path id="Path_5201" class="st28" d="M730.3,443.6c-9.3,5.9-21.7,3.1-27.6-6.3c-5.9-9.3-3.1-21.7,6.3-27.6
				c3.2-2,6.9-3.1,10.7-3.1c0.3,0,0.7,0,1,0v-5.1c-0.3,0-0.7,0-1,0c-13.8,0-25.1,11.2-25.1,25.1s11.2,25.1,25.1,25.1
				c4.6,0,9.2-1.3,13.2-3.7L730.3,443.6z"/>
			<path id="Path_5202" class="st29" d="M745.6,469.9h-50.7c-3.2,0-5.8,2.6-5.8,5.8c0,3.2,2.6,5.8,5.8,5.8l0,0h50.7
				c3.2,0,5.8-2.6,5.8-5.8C751.3,472.5,748.7,469.9,745.6,469.9z"/>
			
				<linearGradient id="Ellipse_287_1_" gradientUnits="userSpaceOnUse" x1="-430.2266" y1="1322.8751" x2="-429.2568" y2="1322.8751" gradientTransform="matrix(3.9808 -64.0776 -64.0776 -3.9808 86902.0391 -21700.1074)">
				<stop  offset="0" style="stop-color:#3054D4"/>
				<stop  offset="1" style="stop-color:#062684"/>
			</linearGradient>
			<circle id="Ellipse_287" class="st30" cx="424.7" cy="570.6" r="31.1"/>
			<path id="Path_5203" class="st3" d="M441.7,581.9c-6.2,9.1-18.6,11.5-27.8,5.3c-9.1-6.2-11.5-18.6-5.3-27.8
				c3.7-5.5,9.9-8.8,16.5-8.8c0.3,0,0.7,0,1,0v-5.1c-0.3,0-0.7,0-1,0c-13.8,0-25.1,11.2-25.1,25.1c0,13.8,11.2,25.1,25.1,25.1
				c8.2,0,16-4.1,20.6-10.8L441.7,581.9z"/>
			<path id="Path_5204" class="st31" d="M399.3,625.5h50.7c3.2,0,5.8-2.6,5.8-5.8s-2.6-5.8-5.8-5.8h-50.7c-3.2,0-5.8,2.6-5.8,5.8
				S396.1,625.5,399.3,625.5L399.3,625.5z"/>
			<g id="Group_1750">
				<g id="Group_1749">
					
						<linearGradient id="Path_5205_1_" gradientUnits="userSpaceOnUse" x1="-433.258" y1="1330.5789" x2="-432.2882" y2="1330.5789" gradientTransform="matrix(24.409 0 0 -30.4 10785.9443 40854.3867)">
						<stop  offset="0" style="stop-color:#062684"/>
						<stop  offset="1" style="stop-color:#3054D4"/>
					</linearGradient>
					<path id="Path_5205" class="st32" d="M234.2,413.1v6.4h-23.7v-29.5h23.1v6.4h-14.9v5h13.1v6.2h-13.1v5.4L234.2,413.1z"/>
					
						<linearGradient id="Path_5206_1_" gradientUnits="userSpaceOnUse" x1="-433.385" y1="1330.5767" x2="-432.4153" y2="1330.5767" gradientTransform="matrix(28.016 0 0 -30.4087 12380.5605 40865.9297)">
						<stop  offset="0" style="stop-color:#062684"/>
						<stop  offset="1" style="stop-color:#3054D4"/>
					</linearGradient>
					<path id="Path_5206" class="st33" d="M251.7,411.7h-4.5v7.8h-8.3v-29.5h13.5c2.4-0.1,4.8,0.4,6.9,1.3c5.4,2.5,7.7,8.9,5.1,14.3
						c-0.1,0.3-0.3,0.6-0.5,0.9c-1,1.6-2.5,2.9-4.3,3.7l6.4,9.3h-8.9L251.7,411.7z M255.7,397.8c-1.1-0.8-2.5-1.2-3.9-1.1h-4.6v8.6
						h4.6c1.4,0.1,2.8-0.3,3.9-1.1c0.9-0.8,1.4-2,1.3-3.2C257.1,399.7,256.6,398.6,255.7,397.8z"/>
					
						<linearGradient id="Path_5207_1_" gradientUnits="userSpaceOnUse" x1="-433.4105" y1="1330.5776" x2="-432.4408" y2="1330.5776" gradientTransform="matrix(27.5775 0 0 -30.4049 12222.3809 40860.9219)">
						<stop  offset="0" style="stop-color:#062684"/>
						<stop  offset="1" style="stop-color:#3054D4"/>
					</linearGradient>
					<path id="Path_5207" class="st34" d="M290.5,391.4c5.3,2.3,7.7,8.4,5.5,13.6c-1.1,2.5-3,4.4-5.5,5.5c-2.2,0.9-4.6,1.4-6.9,1.3
						h-5.1v7.7H270v-29.5h13.5C285.9,390,288.3,390.4,290.5,391.4z M286.9,404.1c0.9-0.8,1.4-2,1.3-3.2c0.1-1.2-0.4-2.4-1.3-3.2
						c-1.1-0.8-2.5-1.2-3.9-1.1h-4.6v8.6h4.6C284.4,405.4,285.8,405,286.9,404.1L286.9,404.1z"/>
				</g>
				<rect id="Rectangle_2081" x="189.7" y="376.5" class="st35" width="127.8" height="62.1"/>
			</g>
		</g>
		<g id="Group_1752">
			
				<linearGradient id="Path_5208_1_" gradientUnits="userSpaceOnUse" x1="-433.9382" y1="1325.0649" x2="-432.9684" y2="1325.0649" gradientTransform="matrix(104.482 0 0 -104.482 45922.9648 138807.9219)">
				<stop  offset="0" style="stop-color:#002FF5"/>
				<stop  offset="0.189" style="stop-color:#003EF4"/>
				<stop  offset="0.559" style="stop-color:#0068F4"/>
				<stop  offset="1" style="stop-color:#00A2F4"/>
			</linearGradient>
			<path id="Path_5208" class="st36" d="M634.9,311.8c-28,0-50.7,22.7-50.7,50.7s22.7,50.7,50.7,50.7c28,0,50.7-22.7,50.7-50.7
				c0,0,0,0,0,0C685.6,334.5,662.9,311.8,634.9,311.8z M634.9,391.4c-15.9,0-28.9-12.9-28.9-28.9c0-15.9,12.9-28.9,28.9-28.9
				c15.9,0,28.9,12.9,28.9,28.9C663.8,378.4,650.8,391.4,634.9,391.4C634.9,391.4,634.9,391.4,634.9,391.4L634.9,391.4z"/>
		</g>
		<g id="Group_1753">
			<path id="Path_5209" d="M682.2,746.3c1.3,0,2.4-0.8,2.7-2l42.7-225.8c0.2-1.4-0.8-2.6-2.1-2.8c0,0-0.1,0-0.1,0
				c-1.4-0.3-2.8,0.6-3.2,2l-42.7,225.8c-0.2,1.4,0.8,2.6,2.1,2.8c0,0,0.1,0,0.1,0C681.9,746.3,682,746.3,682.2,746.3z"/>
			<path id="Path_5210" d="M826.1,746.3c0.2,0,0.4,0,0.5,0c1.4-0.2,2.3-1.4,2.2-2.7c0,0,0-0.1,0-0.1l-50.3-222.8
				c-0.4-1.4-1.8-2.2-3.2-1.9c-1.4,0.2-2.3,1.4-2.2,2.7c0,0,0,0.1,0,0.1l50.3,222.8C823.7,745.6,824.8,746.4,826.1,746.3z"/>
			<path id="Path_5211" d="M714.7,574.3h72.9c1.4,0.2,2.6-0.8,2.7-2.2c0.2-1.4-0.8-2.6-2.2-2.7c-0.2,0-0.4,0-0.6,0h-72.9
				c-1.4-0.2-2.6,0.8-2.7,2.2c-0.2,1.4,0.8,2.6,2.2,2.7C714.4,574.3,714.5,574.3,714.7,574.3z"/>
			<path id="Path_5212" d="M716.1,574.3h70.2c1.4,0.1,2.5-0.9,2.6-2.3c0.1-1.4-0.9-2.5-2.3-2.6c-0.1,0-0.2,0-0.4,0h-70.2
				c-1.4-0.1-2.5,0.9-2.6,2.3c-0.1,1.4,0.9,2.5,2.3,2.6C715.8,574.3,715.9,574.3,716.1,574.3z"/>
			<path id="Path_5213" d="M714.7,615.1h72.9c1.4,0.2,2.6-0.8,2.7-2.2c0.2-1.4-0.8-2.6-2.2-2.7c-0.2,0-0.4,0-0.6,0h-72.9
				c-1.4-0.2-2.6,0.8-2.7,2.2c-0.2,1.4,0.8,2.6,2.2,2.7C714.4,615.1,714.5,615.1,714.7,615.1z"/>
			<path id="Path_5214" d="M708.1,615.1h88.4c1.4,0.2,2.6-0.8,2.7-2.2c0.2-1.4-0.8-2.6-2.2-2.7c-0.2,0-0.4,0-0.6,0h-88.4
				c-1.4-0.2-2.6,0.8-2.7,2.2c-0.2,1.4,0.8,2.6,2.2,2.7C707.7,615.1,707.9,615.1,708.1,615.1z"/>
			<path id="Path_5215" d="M714.7,655.9h72.9c1.4,0.2,2.6-0.8,2.7-2.2c0.2-1.4-0.8-2.6-2.2-2.7c-0.2,0-0.4,0-0.6,0h-72.9
				c-1.4-0.2-2.6,0.8-2.7,2.2c-0.2,1.4,0.8,2.6,2.2,2.7C714.4,656,714.5,656,714.7,655.9z"/>
			<path id="Path_5216" d="M699.7,655.9h105.8c1.4,0.2,2.6-0.8,2.7-2.2c0.2-1.4-0.8-2.6-2.2-2.7c-0.2,0-0.4,0-0.6,0H699.7
				c-1.4-0.2-2.6,0.8-2.7,2.2c-0.2,1.4,0.8,2.6,2.2,2.7C699.3,656,699.5,656,699.7,655.9z"/>
			<path id="Path_5217" d="M714.7,696.8H814c1.4,0.2,2.6-0.8,2.7-2.2c0.2-1.4-0.8-2.6-2.2-2.7c-0.2,0-0.4,0-0.6,0h-99.2
				c-1.4-0.2-2.6,0.8-2.7,2.2c-0.2,1.4,0.8,2.6,2.2,2.7C714.4,696.8,714.5,696.8,714.7,696.8z"/>
			<path id="Path_5218" d="M692.8,696.8H814c1.4,0.2,2.6-0.8,2.7-2.2c0.2-1.4-0.8-2.6-2.2-2.7c-0.2,0-0.4,0-0.6,0H692.8
				c-1.4-0.2-2.6,0.8-2.7,2.2c-0.2,1.4,0.8,2.6,2.2,2.7C692.5,696.8,692.7,696.8,692.8,696.8z"/>
		</g>
		<g id="Group_1754">
			<path id="Path_5219" d="M780.3,559.7c0,0,1.8,2.8,2.2,10.7c0,0.7-0.5,1.3-1.2,1.4c0,0,0,0-0.1,0h-13.9c-0.5,0-0.8-0.4-0.8-0.8
				c0-0.1,0-0.2,0-0.3c0.8-2.4,3.3-8.3,8.8-11.7L780.3,559.7z"/>
			<path id="Path_5220" class="st37" d="M780.9,554.4l-0.8,6.6c-0.1,0.6-0.5,1-1.1,1.1c-1,0.1-2,0.1-2.9,0c-1-0.2-1.7-1-1.7-2v-6.4
				L780.9,554.4z"/>
			<path id="Path_5221" d="M745.9,559c1.7,3,2.6,6.4,2.6,9.8c0,1.3-1.1,2.4-2.5,2.4h-21.6c-0.6,0-1-0.5-1-1c0-0.3,0.2-0.7,0.4-0.8
				c4.1-2.9,12.1-8.2,17.9-10.3H745.9z"/>
			<path id="Path_5222" class="st37" d="M748.1,551.9l-1.7,8.1c-0.2,0.9-1.1,1.5-2,1.3c0,0,0,0,0,0c-0.7-0.2-1.3-0.4-1.9-0.8
				c-0.7-0.4-1-1.2-0.9-2l1.7-9.9L748.1,551.9z"/>
			<path id="Path_5223" class="st38" d="M777.8,438.6c0,0,5.8,5.1,6.9,11.3c1.1,6.2-3.1,106.8-3.1,106.8s-5.8,1-8.8-0.9
				c0,0-3.6-65.3-6.3-80.4c0,0-14.2,67.6-18.2,79.9c0,0-5.6,0.7-7.4-0.4c0,0,3.7-87.7,8.4-103.3L777.8,438.6z"/>
			<path id="Path_5224" class="st39" d="M720.2,380.4c24.6-2,31,3,31,3l-11.8,18.6c0,0-24.1-0.5-41.4-13.8c2.8-3.1,5.1-6.6,6.9-10.3
				C709.7,380,715,380.9,720.2,380.4z"/>
			<path id="Path_5225" class="st37" d="M681.8,344.4c0-0.4,0.4-0.7,0.8-0.7c0.3,0,0.5,0.2,0.7,0.4l3.1,6.7c0.6,1.3,0.8,2.7,0.6,4.1
				l-1.1,3.9c-0.3,1.9,0.2,3.8,1.4,5.3c2.9,3.6,9,10.2,17.7,13.8c-1.8,3.8-4.1,7.3-6.9,10.3c-6.9-5.2-12-12.3-14.7-20.5
				c-1.4-0.4-2.4-1.8-2.3-3.3L681.8,344.4z"/>
			<path id="Path_5226" class="st40" d="M712.2,391.2c8.6-9.3,25.1-13.5,34.7-15.3c4.2-0.8,8.3,1.6,9.8,5.5
				c4.3,11.5,16,41.6,18.2,46.7c1.9,4.2,3.8,8.4,5,11c0.7,1.5,0.1,3.4-1.4,4.1c-8,3.9-22.5,8.2-28.3,10c-1.1,0.3-2.2-0.3-2.5-1.4
				c-0.1-0.2-0.1-0.4-0.1-0.6c0-1.1-0.3-2.3-0.9-3.2l-22.2-36.9c-13.8,15.3-25.9,16.7-35.2,13.4c1.5-4.7,2.6-9.6,3.1-14.5
				C706,407.7,712.2,391.2,712.2,391.2z"/>
			<path id="Path_5227" class="st37" d="M669.6,407.4l2.5-3.3c8,5.5,14.7,6.8,20.2,5.9c-0.5,4.9-1.5,9.8-3.1,14.5
				C677,420.1,669.6,407.4,669.6,407.4z"/>
			<path id="Path_5228" class="st37" d="M671.4,407.5l-14,0.5l-12.9-7.2c1.8-1.2,12.3,1.2,12.3,1.2s10.9-1.6,13.9-1.6
				c2.5,0,2.1,3.5,1.9,4.7c0,0.2-0.1,0.4-0.1,0.4L671.4,407.5z"/>
			<path id="Path_5229" class="st41" d="M733.7,358.9l7.4,18c0,0-8.5,5.9-15.3,5.3l-3.7-16.2L733.7,358.9z"/>
			<path id="Path_5230" class="st37" d="M721.2,346.6c-0.2,0.2-5.3,18.9-5.3,18.9l10.7,2.7l7.5-16.9
				C734.1,351.3,724.1,342.6,721.2,346.6z"/>
			<path id="Path_5231" d="M730.1,353.8l-3.3,9.2c0,0.1-0.1,0.2-0.2,0.3c-0.4,0.6-2.1,2.7-4.1,0.8c-1.8-1.7-3.5-3.2-5-3.5
				c-0.7-0.1-1.4,0.3-1.6,1c-0.8,2.9-1.4,6-1.8,9c-0.1,0.7,0.4,1.3,1.1,1.5c3.4,0.7,6.8,1,10.2,0.9c0.5,0,0.9-0.3,1.2-0.8
				c1-2.2,4.1-9,5.3-10.7c1.1-1.6,3.8-1.6,4.9-1.5c0.4,0,0.7-0.1,1-0.3c1-0.9,2.8-3.1,0.2-5.7c-0.5-0.5-0.5-1.4,0-1.9c0,0,0,0,0,0
				c1.1-1.1,2.3-2.9,0.5-5.3c-1.4-1.8-3.9-2.4-6-1.4c-0.6,0.2-1.3,0-1.6-0.6c-0.2-0.4-0.7-0.6-1.1-0.5c-0.7,0-1.4-0.5-1.4-1.3
				c0,0,0-0.1,0-0.1c0.1-2-1.2-3.8-3.2-4.3c-4.7-1.5-7.6,3.1-7.9,6.4c-0.3,3.4,4.9,4.7,7.9,4.4c2.3-0.2,4,2.1,4.7,3.2
				C730.2,353,730.2,353.4,730.1,353.8z"/>
			<path id="Path_5232" class="st41" d="M730.8,364.9c0,0,0.8-5.9,3.2-6.1c2.4-0.3,4.8,1.7,2.4,5
				C733.3,367.8,730.8,364.9,730.8,364.9z"/>
		</g>
		<g id="Group_1759">
			<g id="Group_1755">
				<path id="Path_5233" class="st42" d="M326.4,628.1l-4.6,4.5c-5.5-0.4-10.8-2.2-15.4-5.2c2.3-5.8,4.7-9.2,6.5-11.2
					C316.4,621.2,321.1,625.3,326.4,628.1z"/>
				<path id="Path_5234" class="st42" d="M294.5,611.2l10.8-16.9c0.5,7.9,3.1,15.5,7.7,22c-1.9,2-4.2,5.4-6.5,11.2
					C300.7,623.5,296.4,617.8,294.5,611.2z"/>
			</g>
			<path id="Path_5235" d="M274.3,742.7c0.5-5,1.9-7.1,1.9-7.1l4.2,0.3c6.1,2,13.5,6.9,16.6,9.1l0,0c0.3,0.2,0.4,0.7,0.2,1
				c-0.1,0.2-0.3,0.3-0.6,0.3c-5.3,0.3-16.3-0.5-20.7-0.8c-1.1-0.1-1.9-1-1.8-2.1c0,0,0,0,0,0C274.2,743.2,274.3,742.9,274.3,742.7z
				"/>
			<path id="Path_5236" d="M233.6,744.1c1-1.8,2.5-4.4,3.1-5.3c0.7-1,1.6-1.8,2.7-2.3c0,0,2.6-1.5,3.4,0c0.5,0.9,1.1,4.6,1.5,7.1
				c0.2,1.2-0.6,2.3-1.8,2.4c-0.1,0-0.2,0-0.4,0l-7.5-0.2c-0.6,0-1.1-0.5-1.2-1.2C233.5,744.5,233.5,744.3,233.6,744.1z"/>
			<path id="Path_5237" class="st37" d="M245.1,728c-0.1,0.3-1.5,6.9-2.1,9.8c-0.2,0.8-0.9,1.4-1.7,1.3c-0.4,0-1-0.1-1.5-0.1
				c-1-0.1-1.7-0.9-1.7-1.9c-0.1-2.5-0.1-7.4,0.8-9.3C240.2,725.2,245.1,728,245.1,728z"/>
			<path id="Path_5238" class="st37" d="M275.4,729.9c0.6,0-0.2,3,0.7,6c0.1,0.7,0.7,1.2,1.4,1.2c0.5,0,1,0,1.5,0
				c0.8-0.1,1.5-0.7,1.6-1.5l0.7-7.7L275.4,729.9z"/>
			<path id="Path_5239" class="st43" d="M291.7,647.7c-0.3,1.3-9.5,55-10,82.7c0,0.5-0.4,0.9-0.8,0.9c-1.9,0.3-3.8,0.3-5.7,0
				c-0.3-0.1-0.5-0.3-0.5-0.6c-0.3-5.2-2.9-48.9,0.3-69.5c0,0-26.2,55.1-30.1,70.3c-0.1,0.4-0.4,0.6-0.8,0.6
				c-1.8-0.1-3.6-0.4-5.3-0.9c-0.7-0.2-1-0.9-0.9-1.6c2.2-9.1,17.7-71.7,28.3-85.5L291.7,647.7z"/>
			
				<linearGradient id="Path_5240_1_" gradientUnits="userSpaceOnUse" x1="-430.3013" y1="1386.34" x2="-429.9366" y2="1380.5476" gradientTransform="matrix(4.3202 0 0 -4.4068 2133.4905 6732.5669)">
				<stop  offset="0" style="stop-color:#09005D"/>
				<stop  offset="1" style="stop-color:#1A0F91"/>
			</linearGradient>
			<path id="Path_5240" class="st44" d="M275,661.5c-0.2,0-0.3-0.2-0.3-0.3c0-0.1,0-0.2,0.1-0.2l3.5-3.6c0.1-0.1,0.4-0.1,0.5,0
				c0.1,0.1,0.1,0.4,0,0.5l-3.5,3.6C275.1,661.5,275.1,661.5,275,661.5z"/>
			<path id="Path_5241" class="st45" d="M306.7,580.5c-6.7-1.8-19.1-4.5-29-3.9c-2.3,0.1-4.1,1.9-4.2,4.2
				c-1.5,26.3-3.5,49.6-7.4,63.2c8.6,3.4,17.2,5,25.6,3.8c6.9-15.1,12.4-30.8,16.6-46.9c0,0,2.8-14.2,0.1-18.9
				C308,581.2,307.4,580.7,306.7,580.5z"/>
			<path id="Path_5242" class="st41" d="M290.5,562.1c0,0-1.7,10.1-2.2,14.8c-0.1,0.8,0.3,1.5,1,1.8c3.1,1.7,6.7,2.1,10.1,1.1
				c0.7-0.2,1.2-0.9,1.2-1.7l-0.3-13.5L290.5,562.1z"/>
			<path id="Path_5243" class="st37" d="M301.6,550.8c0,0,3.3,7.5,3.5,11.5s1.1,6.5-3.5,7.3c-4.6,0.8-8.4-1.5-10.5-5.4
				c0,0-3.3-6.1-2.5-8.5S301.6,550.8,301.6,550.8z"/>
			<path id="Path_5244" d="M292.7,561.4h0.6c0,0-2.4-4.9-0.3-5.7c2.1-0.9,10.4-2.5,12.2-5.5c1.5-2.6,0.6-6-2-7.5c0,0-0.1,0-0.1-0.1
				c-0.1-0.1-0.3,0-0.4,0.1l-0.2,0.4c-0.1,0.2-0.3,0.2-0.4,0.1c-0.1,0-0.1-0.1-0.2-0.2l0,0c0-0.2-0.2-0.3-0.4-0.2
				c-0.1,0-0.1,0.1-0.2,0.1c-0.5,0.9-2,2.3-6,3c-5.6,1-9.4,3.3-9.4,7.2c0,0.2-0.1,0.3-0.3,0.3c-0.1,0-0.1,0-0.2-0.1
				c-0.4-0.3-1.1-0.4-2,0.4c-1.5,1.3-0.9,4.7,2.5,7.5c0.1,0.1,0.2,0.3,0.1,0.4c0,0,0,0-0.1,0.1c-0.6,0.4-1.5,1.4,0.8,2.6
				c2.4,1.3,3.9,1.2,4.4,1c0.1,0,0.2-0.2,0.2-0.3l-0.2-3.5c0-0.2,0.1-0.3,0.3-0.3c0,0,0,0,0,0L292.7,561.4z"/>
			<path id="Path_5245" class="st37" d="M292.8,562.1c0,0-1.2-4.8-3.4-3.5c-2.2,1.3,1.1,5.4,2.9,5.6L292.8,562.1z"/>
			<g id="Group_1757">
				<g id="Group_1756">
					<path id="Path_5246" class="st46" d="M222.9,640.3l-4.4,1.1c-7.6,1.9-12.7,7.6-11.4,12.7l1.5,6.1c1.3,5.1,8.5,7.7,16.1,5.8
						l4.4-1.1c0.3-0.1,0.6-0.2,0.9-0.2l129.7-38.8l-3.4-13.3l-132.6,27.5C223.5,640.2,223.2,640.2,222.9,640.3z M224.8,646.4
						c5.7-1.4,11,0.1,11.9,3.5c0.9,3.4-3.1,7.3-8.8,8.8s-11-0.1-11.9-3.5S219.1,647.8,224.8,646.4L224.8,646.4z"/>
				</g>
				<path id="Path_5247" class="st46" d="M399.5,594.6l-25.7,6.5c-1.8,0.5-3.3,1.7-4.1,3.5l-3.8,8.9c-1.1,2.5-0.3,5.5,1.8,7.2l7.6,6
					c1.5,1.2,3.4,1.6,5.2,1.1l25.7-6.5c2.5-0.6,5,0.9,5.7,3.4c0.3,1.1,0.2,2.2-0.3,3.2c-4.6,8.9-12.9,15.4-22.6,17.8
					c-18.5,4.7-34.8-6.5-39.3-24.3c-4.5-17.8,4.6-35.4,23-40c9.7-2.5,20-0.7,28.3,4.9c2.1,1.5,2.6,4.4,1.1,6.5
					C401.5,593.7,400.6,594.3,399.5,594.6z"/>
				
					<linearGradient id="Path_5248_1_" gradientUnits="userSpaceOnUse" x1="-433.914" y1="1325.5591" x2="-432.9442" y2="1325.5591" gradientTransform="matrix(211.6664 0 0 -88.6282 92052.3516 118107.5)">
					<stop  offset="0" style="stop-color:#002FF5"/>
					<stop  offset="0.189" style="stop-color:#003EF4"/>
					<stop  offset="0.559" style="stop-color:#0068F4"/>
					<stop  offset="1" style="stop-color:#00A2F4"/>
				</linearGradient>
				<path id="Path_5248" class="st47" d="M406.8,623.6l-25.7,6.5c-1.8,0.5-3.8,0-5.2-1.1l-7.6-6c-2.2-1.7-2.9-4.7-1.8-7.2l3.8-8.9
					c0.7-1.7,2.3-3,4.1-3.5l25.7-6.5c2.5-0.6,4-3.2,3.4-5.7c-0.3-1.1-0.9-2-1.8-2.7c-8.3-5.6-18.6-7.4-28.3-4.9
					c-15.8,4-24.7,17.5-24.1,32.4L224.3,642c-0.3,0.1-0.6,0.1-0.9,0.2l-4.4,1.1c-7.6,1.9-12.7,7.6-11.4,12.7l1.5,6.1
					c1.3,5.1,8.5,7.7,16.1,5.8l4.4-1.1c0.3-0.1,0.6-0.2,0.9-0.2l122-36.5c6.4,14,20.9,22,37.1,17.9c9.7-2.4,18-8.9,22.6-17.8
					c1.2-2.3,0.2-5.1-2.1-6.3C409,623.5,407.9,623.4,406.8,623.6z M228.4,660.6c-5.7,1.4-11-0.1-11.9-3.5s3.1-7.3,8.8-8.8
					c5.7-1.4,11,0.1,11.9,3.5C238.1,655.2,234.1,659.1,228.4,660.6L228.4,660.6z"/>
			</g>
			<g id="Group_1758">
				<path id="Path_5249" class="st45" d="M256.1,615.5c-3.3,9.3-1.5,19.3-1.5,19.3l-4.4,1.2c0,0-5.7-6.7-4.4-21.7
					C249.4,613.9,252.9,614.3,256.1,615.5z"/>
				<path id="Path_5250" class="st45" d="M245.9,614.3c0.1-1.7,0.4-3.5,0.7-5.3c3-16.5,24.1-29.2,29.1-31.9c0.3-0.2,0.7-0.1,0.9,0.3
					c0.1,0.1,0.1,0.2,0.1,0.4l-0.7,22.4c-11.8,1.6-17.3,8.3-19.9,15.4C252.9,614.3,249.4,613.9,245.9,614.3z"/>
			</g>
			<path id="Path_5251" class="st37" d="M335.7,636.3c0.8-0.2,1.5-0.8,1.8-1.6c0.7-1.5,1.4-3.9-0.2-4.7c-2.4-1.1-6.8,3.4-6.8,3.4
				l-2.1,3.5l-2,1C328.2,638.4,331.7,637.6,335.7,636.3z"/>
			<path id="Path_5252" class="st37" d="M254.4,632.6h5.4c0,0-4.4,2.6-4.5,5.4c-0.1,2.8,1.7,8.5,2.6,10.1c1,1.7-12.3-2.5-7.6-15.5
				H254.4z"/>
		</g>
	</g>
</g>
</svg>
