<?xml version="1.0" encoding="utf-8"?>
<!-- Generator: Adobe Illustrator 24.1.0, SVG Export Plug-In . SVG Version: 6.00 Build 0)  -->
<svg version="1.1" id="Layer_1" xmlns="http://www.w3.org/2000/svg" xmlns:xlink="http://www.w3.org/1999/xlink" x="0px" y="0px"
	 viewBox="0 0 800 700" style="enable-background:new 0 0 800 700;" xml:space="preserve">
<style type="text/css">
	.st0{opacity:0.2;fill:#91B3FA;enable-background:new    ;}
	.st1{opacity:0.1;fill:#91B3FA;enable-background:new    ;}
	.st2{fill:url(#Rectangle_2057_1_);}
	.st3{fill:#FFFFFF;}
	.st4{opacity:0.2;}
	.st5{fill:#0F37A5;}
	.st6{opacity:0.5;}
	.st7{fill:url(#Rectangle_2066_1_);}
	.st8{fill:url(#Rectangle_2067_1_);}
	.st9{fill:url(#Rectangle_2068_1_);}
	.st10{fill:url(#Rectangle_2069_1_);}
	.st11{fill:url(#Rectangle_2070_1_);}
	.st12{fill:url(#Rectangle_2071_1_);}
	.st13{fill:url(#Rectangle_2072_1_);}
	.st14{opacity:0.1;fill:#032E9B;enable-background:new    ;}
	.st15{clip-path:url(#SVGID_2_);}
	.st16{fill:url(#Rectangle_2073_1_);}
	.st17{clip-path:url(#SVGID_4_);}
	.st18{fill:url(#Rectangle_2074_1_);}
	.st19{opacity:0.1;fill:#3054D4;enable-background:new    ;}
	.st20{opacity:0.2;fill:url(#Path_5186_1_);enable-background:new    ;}
	.st21{fill:url(#Ellipse_285_1_);}
	.st22{fill:url(#Path_5187_1_);}
	.st23{fill:url(#Path_5188_1_);}
	.st24{fill:url(#Path_5189_1_);}
	.st25{fill:url(#Path_5190_1_);}
	.st26{fill:url(#Path_5191_1_);}
	.st27{fill:#E1E3FD;}
	.st28{opacity:0.5;fill:#FFFFFF;enable-background:new    ;}
	.st29{opacity:0.2;fill:#0F37A5;enable-background:new    ;}
	.st30{fill:url(#Ellipse_287_1_);}
	.st31{opacity:0.2;fill:#3054D4;enable-background:new    ;}
	.st32{fill:url(#Path_5205_1_);}
	.st33{fill:url(#Path_5206_1_);}
	.st34{fill:url(#Path_5207_1_);}
	.st35{fill:none;stroke:#707070;stroke-miterlimit:10;}
	.st36{fill:url(#Path_5208_1_);}
	.st37{fill:#F8BE99;}
	.st38{fill:#133282;}
	.st39{fill:#F5BE42;}
	.st40{fill:#F39F11;}
	.st41{fill:#FFB48F;}
	.st42{fill:#EC384E;}
	.st43{fill:#1B3D98;}
	.st44{fill:url(#Path_5240_1_);}
	.st45{fill:#DE151F;}
	.st46{fill:#91B3FA;}
	.st47{fill:url(#Path_5248_1_);}
</style>
<g id="Group_1761" transform="translate(-150 -242.32)">
	<g id="Group_1739">
		<path id="Path_5179" class="st0" d="M618,832.1c36.6-0.6,76.2-14.8,99.4-27.2C823.5,748,871.1,631.6,869.5,522.8
			s-73-216-176.2-250.4c-22.3-7.4-45.8-11.6-69.3-10.9c-61.6,1.9-118,37.3-160.1,82.2c-18.9,20.2-35.8,42.5-57.5,59.5
			c-27.1,21.1-60.1,32.8-90.3,49.3c-50.7,27.7-95.8,74.6-101.2,132.1c-5,54.1,26.7,106.4,69.2,140.3s94.7,52.8,145.9,71.1
			C470.7,810.6,574.1,833.7,618,832.1"/>
		<path id="Path_5180" class="st1" d="M754.9,895.1c39.3-13.1,77-40.9,97.4-61.1c93.7-93,102.2-225.5,60.3-333.7
			S753.9,309.5,629.5,310.3c-26.9,0.2-53.8,4-79,12.8c-65.9,22.9-113.8,77.5-142.8,136.8c-13,26.6-23,54.7-40.2,79.1
			c-21.5,30.4-52.9,53.3-79.4,80c-44.6,45-76.1,107.2-60.6,166.5c14.6,55.8,68.2,97.2,126.7,116.5s121.9,20.4,184.1,21.2
			C587.7,923.9,708.1,911.6,754.9,895.1"/>
	</g>
	<g id="Group_1760">
		<g id="Group_1751">
			
				<linearGradient id="Rectangle_2057_1_" gradientUnits="userSpaceOnUse" x1="243.853" y1="988.6964" x2="245.463" y2="988.6964" gradientTransform="matrix(2.483510e-14 405.588 652.897 -3.997841e-14 -645027.125 -98665.4844)">
				<stop  offset="0" style="stop-color:#062684"/>
				<stop  offset="1" style="stop-color:#3054D4"/>
			</linearGradient>
			<path id="Rectangle_2057" class="st2" d="M816.2,401.6v326.4c0,21.9-17.7,39.6-39.6,39.6H202.9c-21.9,0-39.6-17.7-39.6-39.6
				V401.6c0-21.9,17.7-39.6,39.6-39.6h573.8C798.5,362,816.2,379.8,816.2,401.6z"/>
			<path id="Rectangle_2058" class="st3" d="M202.9,381.8h573.8c10.9,0,19.8,8.9,19.8,19.8v326.4c0,10.9-8.9,19.8-19.8,19.8H202.9
				c-10.9,0-19.8-8.9-19.8-19.8V401.6C183.1,390.7,191.9,381.8,202.9,381.8z"/>
			<g id="Group_1740" class="st4">
				<rect id="Rectangle_2059" x="205" y="483.7" class="st5" width="16.2" height="220.6"/>
				<rect id="Rectangle_2060" x="232.1" y="483.7" class="st5" width="16.2" height="220.6"/>
				<rect id="Rectangle_2061" x="259.2" y="483.7" class="st5" width="16.2" height="220.6"/>
				<rect id="Rectangle_2062" x="286.4" y="483.7" class="st5" width="16.2" height="220.6"/>
				<rect id="Rectangle_2063" x="313.5" y="483.7" class="st5" width="16.2" height="220.6"/>
				<rect id="Rectangle_2064" x="340.7" y="483.7" class="st5" width="16.2" height="220.6"/>
				<rect id="Rectangle_2065" x="367.8" y="483.7" class="st5" width="16.2" height="220.6"/>
			</g>
			<g id="Group_1741" class="st6">
				
					<linearGradient id="Rectangle_2066_1_" gradientUnits="userSpaceOnUse" x1="239.0313" y1="988.2031" x2="240.0313" y2="988.2031" gradientTransform="matrix(16.241 0 0 -103.851 -3677.1438 103278.2891)">
					<stop  offset="0" style="stop-color:#002FF5"/>
					<stop  offset="0.189" style="stop-color:#003EF4"/>
					<stop  offset="0.559" style="stop-color:#0068F4"/>
					<stop  offset="1" style="stop-color:#00A2F4"/>
				</linearGradient>
				<rect id="Rectangle_2066" x="205" y="600.5" class="st7" width="16.2" height="103.9"/>
				
					<linearGradient id="Rectangle_2067_1_" gradientUnits="userSpaceOnUse" x1="239.0313" y1="987.8801" x2="240.0313" y2="987.8801" gradientTransform="matrix(16.241 0 0 -68.159 -3650.0068 68003.1719)">
					<stop  offset="0" style="stop-color:#002FF5"/>
					<stop  offset="0.189" style="stop-color:#003EF4"/>
					<stop  offset="0.559" style="stop-color:#0068F4"/>
					<stop  offset="1" style="stop-color:#00A2F4"/>
				</linearGradient>
				<rect id="Rectangle_2067" x="232.1" y="636.2" class="st8" width="16.2" height="68.2"/>
				
					<linearGradient id="Rectangle_2068_1_" gradientUnits="userSpaceOnUse" x1="239.0313" y1="988.4103" x2="240.0313" y2="988.4103" gradientTransform="matrix(16.241 0 0 -156.37 -3622.8689 155183.8594)">
					<stop  offset="0" style="stop-color:#002FF5"/>
					<stop  offset="0.189" style="stop-color:#003EF4"/>
					<stop  offset="0.559" style="stop-color:#0068F4"/>
					<stop  offset="1" style="stop-color:#00A2F4"/>
				</linearGradient>
				<rect id="Rectangle_2068" x="259.2" y="548" class="st9" width="16.2" height="156.4"/>
				
					<linearGradient id="Rectangle_2069_1_" gradientUnits="userSpaceOnUse" x1="239.0313" y1="987.1147" x2="240.0313" y2="987.1147" gradientTransform="matrix(16.241 0 0 -37.566 -3595.7307 37767.5)">
					<stop  offset="0" style="stop-color:#002FF5"/>
					<stop  offset="0.189" style="stop-color:#003EF4"/>
					<stop  offset="0.559" style="stop-color:#0068F4"/>
					<stop  offset="1" style="stop-color:#00A2F4"/>
				</linearGradient>
				<rect id="Rectangle_2069" x="286.4" y="666.8" class="st10" width="16.2" height="37.6"/>
				
					<linearGradient id="Rectangle_2070_1_" gradientUnits="userSpaceOnUse" x1="239.0313" y1="988.3471" x2="240.0313" y2="988.3471" gradientTransform="matrix(16.241 0 0 -135.464 -3568.5928 134522.0625)">
					<stop  offset="0" style="stop-color:#002FF5"/>
					<stop  offset="0.189" style="stop-color:#003EF4"/>
					<stop  offset="0.559" style="stop-color:#0068F4"/>
					<stop  offset="1" style="stop-color:#00A2F4"/>
				</linearGradient>
				<rect id="Rectangle_2070" x="313.5" y="568.9" class="st11" width="16.2" height="135.5"/>
				
					<linearGradient id="Rectangle_2071_1_" gradientUnits="userSpaceOnUse" x1="239.0313" y1="988.2481" x2="240.0313" y2="988.2481" gradientTransform="matrix(16.241 0 0 -112.009 -3541.4548 111341.0078)">
					<stop  offset="0" style="stop-color:#002FF5"/>
					<stop  offset="0.189" style="stop-color:#003EF4"/>
					<stop  offset="0.559" style="stop-color:#0068F4"/>
					<stop  offset="1" style="stop-color:#00A2F4"/>
				</linearGradient>
				<rect id="Rectangle_2071" x="340.7" y="592.3" class="st12" width="16.2" height="112"/>
				
					<linearGradient id="Rectangle_2072_1_" gradientUnits="userSpaceOnUse" x1="239.0313" y1="988.0795" x2="240.0313" y2="988.0795" gradientTransform="matrix(16.241 0 0 -86.515 -3514.3179 86144.7734)">
					<stop  offset="0" style="stop-color:#002FF5"/>
					<stop  offset="0.189" style="stop-color:#003EF4"/>
					<stop  offset="0.559" style="stop-color:#0068F4"/>
					<stop  offset="1" style="stop-color:#00A2F4"/>
				</linearGradient>
				<rect id="Rectangle_2072" x="367.8" y="617.8" class="st13" width="16.2" height="86.5"/>
			</g>
			<g id="Group_1743">
				<path id="Path_5181" class="st14" d="M463.6,404.8c-21.8,0-39.5,17.7-39.5,39.5s17.7,39.5,39.5,39.5S503,466,503,444.2l0,0
					C503,422.4,485.4,404.8,463.6,404.8z M463.6,466.7c-12.4,0-22.5-10.1-22.5-22.5s10.1-22.5,22.5-22.5c12.4,0,22.5,10.1,22.5,22.5
					S476,466.7,463.6,466.7L463.6,466.7z"/>
				<g>
					<defs>
						<path id="SVGID_1_" d="M463.6,404.8c-21.8,0-39.5,17.7-39.5,39.5s17.7,39.5,39.5,39.5S503,466,503,444.2l0,0
							C503,422.4,485.4,404.8,463.6,404.8z M463.6,466.7c-12.4,0-22.5-10.1-22.5-22.5s10.1-22.5,22.5-22.5
							c12.4,0,22.5,10.1,22.5,22.5S476,466.7,463.6,466.7L463.6,466.7z"/>
					</defs>
					<clipPath id="SVGID_2_">
						<use xlink:href="#SVGID_1_"  style="overflow:visible;"/>
					</clipPath>
					<g id="Group_1742" class="st15">
						
							<linearGradient id="Rectangle_2073_1_" gradientUnits="userSpaceOnUse" x1="243.3115" y1="987.5284" x2="244.3115" y2="987.5284" gradientTransform="matrix(117.204 0 0 -49.6 -28108.6055 49441.7617)">
							<stop  offset="0" style="stop-color:#002FF5"/>
							<stop  offset="0.189" style="stop-color:#003EF4"/>
							<stop  offset="0.559" style="stop-color:#0068F4"/>
							<stop  offset="1" style="stop-color:#00A2F4"/>
						</linearGradient>
						<rect id="Rectangle_2073" x="408.5" y="435.6" class="st16" width="117.2" height="49.6"/>
					</g>
				</g>
			</g>
			<g id="Group_1745">
				<path id="Path_5183" class="st14" d="M559.8,404.8c-21.8,0-39.5,17.7-39.5,39.5s17.7,39.5,39.5,39.5s39.5-17.7,39.5-39.5l0,0
					C599.2,422.4,581.5,404.8,559.8,404.8z M559.8,466.7c-12.4,0-22.5-10.1-22.5-22.5s10.1-22.5,22.5-22.5s22.5,10.1,22.5,22.5
					S572.2,466.7,559.8,466.7L559.8,466.7z"/>
				<g>
					<defs>
						<path id="SVGID_3_" d="M559.8,404.8c-21.8,0-39.5,17.7-39.5,39.5s17.7,39.5,39.5,39.5s39.5-17.7,39.5-39.5l0,0
							C599.2,422.4,581.5,404.8,559.8,404.8z M559.8,466.7c-12.4,0-22.5-10.1-22.5-22.5s10.1-22.5,22.5-22.5s22.5,10.1,22.5,22.5
							S572.2,466.7,559.8,466.7L559.8,466.7z"/>
					</defs>
					<clipPath id="SVGID_4_">
						<use xlink:href="#SVGID_3_"  style="overflow:visible;"/>
					</clipPath>
					<g id="Group_1744" class="st17">
						
							<linearGradient id="Rectangle_2074_1_" gradientUnits="userSpaceOnUse" x1="243.3115" y1="987.8885" x2="244.3115" y2="987.8885" gradientTransform="matrix(117.204 0 0 -68.772 -28012.4238 68389.8359)">
							<stop  offset="0" style="stop-color:#002FF5"/>
							<stop  offset="0.189" style="stop-color:#003EF4"/>
							<stop  offset="0.559" style="stop-color:#0068F4"/>
							<stop  offset="1" style="stop-color:#00A2F4"/>
						</linearGradient>
						<rect id="Rectangle_2074" x="504.7" y="416.4" class="st18" width="117.2" height="68.8"/>
					</g>
				</g>
			</g>
			<path id="Path_5185" class="st19" d="M773.5,705.9L520.4,704c-5,0-9-4.1-9-9.1v-130c0-5,4.1-9.1,9.1-9.1h253.1
				c5,0,9.1,4.1,9.1,9.1c0,0,0,0,0,0v131.9C782.7,701.8,778.6,705.9,773.5,705.9C773.6,705.9,773.6,705.9,773.5,705.9z"/>
			
				<linearGradient id="Path_5186_1_" gradientUnits="userSpaceOnUse" x1="243.6802" y1="988.2645" x2="244.6802" y2="988.2645" gradientTransform="matrix(252.308 0 0 -115.3212 -60961.5508 114605.6406)">
				<stop  offset="0" style="stop-color:#3054D4"/>
				<stop  offset="1" style="stop-color:#062684"/>
			</linearGradient>
			<path id="Path_5186" class="st20" d="M734.3,614.5l-32.5-34.4l-46.7,50.8l-32.9-35.5l-30.9,34.9l-23.7-28.8l-46.7,48.6v35.1
				c0,4.6,3.7,8.4,8.4,8.5l235.4,1.8c4.7,0,8.5-3.7,8.5-8.4c0,0,0,0,0-0.1v-95.6L734.3,614.5z"/>
			<rect id="Rectangle_2075" x="734.5" y="613.6" class="st3" width="0.9" height="81.9"/>
			<rect id="Rectangle_2076" x="701.3" y="580.1" class="st3" width="0.9" height="114.8"/>
			<rect id="Rectangle_2077" x="654.6" y="630.2" class="st3" width="0.9" height="64.4"/>
			<rect id="Rectangle_2078" x="622.6" y="596.6" class="st3" width="0.9" height="98"/>
			<rect id="Rectangle_2079" x="590.8" y="629.2" class="st3" width="0.9" height="65.4"/>
			<rect id="Rectangle_2080" x="567.7" y="599" class="st3" width="0.9" height="94.9"/>
			
				<linearGradient id="Ellipse_285_1_" gradientUnits="userSpaceOnUse" x1="237.7026" y1="992.3187" x2="238.7026" y2="992.3187" gradientTransform="matrix(5.4731 -13.2133 -13.2133 -5.4731 12376.1953 9177.5723)">
				<stop  offset="0" style="stop-color:#3054D4"/>
				<stop  offset="1" style="stop-color:#062684"/>
			</linearGradient>
			<circle id="Ellipse_285" class="st21" cx="568.1" cy="599" r="7.2"/>
			
				<linearGradient id="Path_5187_1_" gradientUnits="userSpaceOnUse" x1="235.4354" y1="982.0209" x2="236.4354" y2="982.0209" gradientTransform="matrix(9.422 0 0 -9.422 -1631.7192 9881.793)">
				<stop  offset="0" style="stop-color:#002FF5"/>
				<stop  offset="0.189" style="stop-color:#003EF4"/>
				<stop  offset="0.559" style="stop-color:#0068F4"/>
				<stop  offset="1" style="stop-color:#00A2F4"/>
			</linearGradient>
			<path id="Path_5187" class="st22" d="M596,629.2c0,2.6-2.1,4.7-4.7,4.7s-4.7-2.1-4.7-4.7s2.1-4.7,4.7-4.7l0,0
				C593.9,624.5,596,626.6,596,629.2z"/>
			
				<linearGradient id="Path_5188_1_" gradientUnits="userSpaceOnUse" x1="235.4354" y1="982.0209" x2="236.4354" y2="982.0209" gradientTransform="matrix(9.422 0 0 -9.422 -1599.9623 9849.1846)">
				<stop  offset="0" style="stop-color:#002FF5"/>
				<stop  offset="0.189" style="stop-color:#003EF4"/>
				<stop  offset="0.559" style="stop-color:#0068F4"/>
				<stop  offset="1" style="stop-color:#00A2F4"/>
			</linearGradient>
			<path id="Path_5188" class="st23" d="M627.7,596.6c0,2.6-2.1,4.7-4.7,4.7s-4.7-2.1-4.7-4.7s2.1-4.7,4.7-4.7l0,0
				C625.6,591.9,627.7,594,627.7,596.6z"/>
			
				<linearGradient id="Path_5189_1_" gradientUnits="userSpaceOnUse" x1="235.4354" y1="982.0209" x2="236.4354" y2="982.0209" gradientTransform="matrix(9.422 0 0 -9.422 -1567.9082 9882.8359)">
				<stop  offset="0" style="stop-color:#002FF5"/>
				<stop  offset="0.189" style="stop-color:#003EF4"/>
				<stop  offset="0.559" style="stop-color:#0068F4"/>
				<stop  offset="1" style="stop-color:#00A2F4"/>
			</linearGradient>
			<path id="Path_5189" class="st24" d="M659.8,630.2c0,2.6-2.1,4.7-4.7,4.7s-4.7-2.1-4.7-4.7s2.1-4.7,4.7-4.7l0,0
				C657.7,625.5,659.8,627.6,659.8,630.2z"/>
			
				<linearGradient id="Path_5190_1_" gradientUnits="userSpaceOnUse" x1="235.4354" y1="982.0209" x2="236.4354" y2="982.0209" gradientTransform="matrix(9.422 0 0 -9.422 -1521.2423 9832.6982)">
				<stop  offset="0" style="stop-color:#002FF5"/>
				<stop  offset="0.189" style="stop-color:#003EF4"/>
				<stop  offset="0.559" style="stop-color:#0068F4"/>
				<stop  offset="1" style="stop-color:#00A2F4"/>
			</linearGradient>
			<path id="Path_5190" class="st25" d="M706.5,580.1c0,2.6-2.1,4.7-4.7,4.7s-4.7-2.1-4.7-4.7s2.1-4.7,4.7-4.7l0,0
				C704.3,575.4,706.5,577.5,706.5,580.1z"/>
			
				<linearGradient id="Path_5191_1_" gradientUnits="userSpaceOnUse" x1="236.3534" y1="983.2849" x2="234.2554" y2="976.9419" gradientTransform="matrix(9.422 0 0 -9.422 -1488.0693 9866.1514)">
				<stop  offset="0" style="stop-color:#002FF5"/>
				<stop  offset="0.189" style="stop-color:#003EF4"/>
				<stop  offset="0.559" style="stop-color:#0068F4"/>
				<stop  offset="1" style="stop-color:#00A2F4"/>
			</linearGradient>
			<path id="Path_5191" class="st26" d="M739.6,613.6c0,2.6-2.1,4.7-4.7,4.7s-4.7-2.1-4.7-4.7s2.1-4.7,4.7-4.7l0,0
				C737.5,608.8,739.6,611,739.6,613.6z"/>
			<g id="Group_1746" class="st4">
				<path id="Path_5192" class="st5" d="M497.3,534.1h-69.4c-2.9,0-5.3,1.6-5.3,3.7s2.4,3.7,5.3,3.7h69.4c2.9,0,5.3-1.6,5.3-3.7
					S500.2,534.1,497.3,534.1z"/>
				<path id="Path_5193" class="st5" d="M497.3,517.9h-69.4c-2.9,0-5.3,1.6-5.3,3.7c0,2,2.4,3.7,5.3,3.7h69.4c2.9,0,5.3-1.6,5.3-3.7
					S500.2,517.9,497.3,517.9z"/>
				<path id="Path_5194" class="st5" d="M497.3,501.7h-69.4c-2.9,0-5.3,1.6-5.3,3.7s2.4,3.7,5.3,3.7h69.4c2.9,0,5.3-1.6,5.3-3.7
					S500.2,501.7,497.3,501.7z"/>
			</g>
			<g id="Group_1747" class="st4">
				<path id="Path_5195" class="st5" d="M593.7,534.1h-69.4c-2.9,0-5.3,1.6-5.3,3.7s2.4,3.7,5.3,3.7h69.4c2.9,0,5.3-1.6,5.3-3.7
					S596.6,534.1,593.7,534.1z"/>
				<path id="Path_5196" class="st5" d="M593.7,517.9h-69.4c-2.9,0-5.3,1.6-5.3,3.7c0,2,2.4,3.7,5.3,3.7h69.4c2.9,0,5.3-1.6,5.3-3.7
					S596.6,517.9,593.7,517.9z"/>
				<path id="Path_5197" class="st5" d="M593.7,501.7h-69.4c-2.9,0-5.3,1.6-5.3,3.7s2.4,3.7,5.3,3.7h69.4c2.9,0,5.3-1.6,5.3-3.7
					S596.6,501.7,593.7,501.7z"/>
			</g>
			<g id="Group_1748" class="st4">
				<path id="Path_5198" class="st5" d="M690.1,534.1h-69.4c-2.9,0-5.3,1.6-5.3,3.7s2.4,3.7,5.3,3.7h69.4c2.9,0,5.3-1.6,5.3-3.7
					S693,534.1,690.1,534.1z"/>
				<path id="Path_5199" class="st5" d="M690.1,517.9h-69.4c-2.9,0-5.3,1.6-5.3,3.7c0,2,2.4,3.7,5.3,3.7h69.4c2.9,0,5.3-1.6,5.3-3.7
					S693,517.9,690.1,517.9z"/>
				<path id="Path_5200" class="st5" d="M690.1,501.7h-69.4c-2.9,0-5.3,1.6-5.3,3.7s2.4,3.7,5.3,3.7h69.4c2.9,0,5.3-1.6,5.3-3.7
					S693,501.7,690.1,501.7z"/>
			</g>
			<circle id="Ellipse_286" class="st27" cx="750.8" cy="446.2" r="32.1"/>
			<path id="Path_5201" class="st28" d="M761.7,464.7c-9.6,6.1-22.4,3.2-28.4-6.5c-6.1-9.6-3.2-22.4,6.5-28.4
				c3.3-2.1,7.1-3.2,11-3.2c0.3,0,0.7,0,1,0v-5.2c-0.3,0-0.7,0-1,0c-14.3,0-25.8,11.6-25.8,25.8s11.6,25.8,25.8,25.8
				c4.8,0,9.5-1.3,13.6-3.9L761.7,464.7z"/>
			<path id="Path_5202" class="st29" d="M777.4,491.9h-52.3c-3.3,0-5.9,2.7-5.9,5.9s2.7,5.9,5.9,5.9l0,0h52.3c3.3,0,5.9-2.7,5.9-5.9
				S780.7,491.9,777.4,491.9z"/>
			
				<linearGradient id="Ellipse_287_1_" gradientUnits="userSpaceOnUse" x1="242.9262" y1="990.0126" x2="243.9262" y2="990.0126" gradientTransform="matrix(3.9808 -64.0776 -64.0776 -3.9808 62915.1641 20134.9199)">
				<stop  offset="0" style="stop-color:#3054D4"/>
				<stop  offset="1" style="stop-color:#062684"/>
			</linearGradient>
			<circle id="Ellipse_287" class="st30" cx="446.6" cy="595.7" r="32.1"/>
			<path id="Path_5203" class="st3" d="M464.1,607.3c-6.4,9.4-19.2,11.9-28.6,5.5c-9.4-6.4-11.9-19.2-5.5-28.6
				c3.8-5.6,10.2-9,17.1-9c0.3,0,0.7,0,1,0v-5.2c-0.3,0-0.7,0-1,0c-14.3,0-25.8,11.6-25.8,25.8c0,14.3,11.6,25.8,25.8,25.8
				c8.5,0,16.5-4.2,21.3-11.2L464.1,607.3z"/>
			<path id="Path_5204" class="st31" d="M420.4,652.3h52.3c3.3,0,5.9-2.7,5.9-5.9c0-3.3-2.7-5.9-5.9-5.9h-52.3
				c-3.3,0-5.9,2.7-5.9,5.9C414.5,649.6,417.1,652.3,420.4,652.3L420.4,652.3z"/>
			<g id="Group_1750">
				<g id="Group_1749">
					
						<linearGradient id="Path_5205_1_" gradientUnits="userSpaceOnUse" x1="240.694" y1="986.7128" x2="241.694" y2="986.7128" gradientTransform="matrix(24.409 0 0 -30.4 -5649.355 30420.7871)">
						<stop  offset="0" style="stop-color:#062684"/>
						<stop  offset="1" style="stop-color:#3054D4"/>
					</linearGradient>
					<path id="Path_5205" class="st32" d="M250.2,433.3v6.6h-24.4v-30.4h23.8v6.6h-15.3v5.1h13.5v6.4h-13.5v5.6L250.2,433.3z"/>
					
						<linearGradient id="Path_5206_1_" gradientUnits="userSpaceOnUse" x1="241.1196" y1="986.7134" x2="242.1196" y2="986.7134" gradientTransform="matrix(28.016 0 0 -30.4087 -6500.271 30429.418)">
						<stop  offset="0" style="stop-color:#062684"/>
						<stop  offset="1" style="stop-color:#3054D4"/>
					</linearGradient>
					<path id="Path_5206" class="st33" d="M268.2,431.8h-4.7v8.1h-8.6v-30.4h13.9c2.5-0.1,4.9,0.4,7.2,1.4c5.5,2.6,7.9,9.2,5.3,14.7
						c-0.1,0.3-0.3,0.6-0.5,0.9c-1.1,1.7-2.6,3-4.4,3.8l6.6,9.6h-9.2L268.2,431.8z M272.3,417.5c-1.1-0.9-2.6-1.3-4-1.2h-4.8v8.9
						h4.8c1.4,0.1,2.8-0.3,4-1.2c0.9-0.8,1.4-2,1.3-3.3C273.7,419.5,273.2,418.3,272.3,417.5z"/>
					
						<linearGradient id="Path_5207_1_" gradientUnits="userSpaceOnUse" x1="241.0738" y1="986.7131" x2="242.0738" y2="986.7131" gradientTransform="matrix(27.5775 0 0 -30.4049 -6361.1328 30425.6738)">
						<stop  offset="0" style="stop-color:#062684"/>
						<stop  offset="1" style="stop-color:#3054D4"/>
					</linearGradient>
					<path id="Path_5207" class="st34" d="M308.1,410.9c5.4,2.3,8,8.6,5.6,14.1c-1.1,2.5-3.1,4.6-5.6,5.6c-2.3,1-4.7,1.4-7.2,1.4
						h-5.3v7.9h-8.6v-30.4H301C303.4,409.5,305.9,409.9,308.1,410.9z M304.4,424.1c0.9-0.8,1.4-2,1.3-3.3c0.1-1.2-0.4-2.5-1.3-3.3
						c-1.1-0.9-2.6-1.3-4-1.2h-4.8v8.9h4.8C301.9,425.3,303.3,424.9,304.4,424.1L304.4,424.1z"/>
				</g>
				<rect id="Rectangle_2081" x="204.3" y="395.5" class="st35" width="131.8" height="64"/>
			</g>
		</g>
		<g id="Group_1752">
			
				<linearGradient id="Path_5208_1_" gradientUnits="userSpaceOnUse" x1="243.2277" y1="988.2069" x2="244.2277" y2="988.2069" gradientTransform="matrix(104.482 0 0 -104.482 -24801.8281 103630.9375)">
				<stop  offset="0" style="stop-color:#002FF5"/>
				<stop  offset="0.189" style="stop-color:#003EF4"/>
				<stop  offset="0.559" style="stop-color:#0068F4"/>
				<stop  offset="1" style="stop-color:#00A2F4"/>
			</linearGradient>
			<path id="Path_5208" class="st36" d="M663.3,328.9c-28.9,0-52.2,23.4-52.2,52.2s23.4,52.2,52.2,52.2c28.9,0,52.2-23.4,52.2-52.2
				c0,0,0,0,0,0C715.6,352.3,692.2,328.9,663.3,328.9z M663.3,410.9c-16.4,0-29.8-13.3-29.8-29.8s13.3-29.8,29.8-29.8
				c16.4,0,29.8,13.3,29.8,29.8C693.1,397.5,679.8,410.9,663.3,410.9C663.3,410.9,663.3,410.9,663.3,410.9L663.3,410.9z"/>
		</g>
		<g id="Group_1753">
			<path id="Path_5209" d="M712.1,776.9c1.3,0,2.5-0.8,2.8-2.1l44-232.8c0.2-1.4-0.8-2.7-2.2-2.9c0,0-0.1,0-0.1,0
				c-1.5-0.3-2.9,0.6-3.3,2.1l-44,232.8c-0.2,1.4,0.8,2.7,2.2,2.9c0,0,0.1,0,0.1,0C711.8,776.9,711.9,776.9,712.1,776.9z"/>
			<path id="Path_5210" d="M860.5,776.9c0.2,0,0.4,0,0.6-0.1c1.4-0.2,2.4-1.4,2.2-2.8c0,0,0-0.1,0-0.1l-51.8-229.8
				c-0.4-1.4-1.9-2.3-3.3-2c-1.4,0.2-2.4,1.4-2.2,2.8c0,0,0,0.1,0,0.1l51.8,229.8C858,776.1,859.2,777,860.5,776.9z"/>
			<path id="Path_5211" d="M745.6,599.5h75.2c1.4,0.2,2.7-0.8,2.8-2.2c0.2-1.4-0.8-2.7-2.2-2.8c-0.2,0-0.4,0-0.6,0h-75.2
				c-1.4-0.2-2.7,0.8-2.8,2.2c-0.2,1.4,0.8,2.7,2.2,2.8C745.3,599.5,745.5,599.5,745.6,599.5z"/>
			<path id="Path_5212" d="M747,599.5h72.4c1.4,0.1,2.6-0.9,2.7-2.3s-0.9-2.6-2.3-2.7c-0.1,0-0.3,0-0.4,0H747
				c-1.4-0.1-2.6,0.9-2.7,2.3s0.9,2.6,2.3,2.7C746.8,599.5,746.9,599.5,747,599.5z"/>
			<path id="Path_5213" d="M745.6,641.6h75.2c1.4,0.2,2.7-0.8,2.8-2.2c0.2-1.4-0.8-2.7-2.2-2.8c-0.2,0-0.4,0-0.6,0h-75.2
				c-1.4-0.2-2.7,0.8-2.8,2.2c-0.2,1.4,0.8,2.7,2.2,2.8C745.3,641.6,745.5,641.6,745.6,641.6z"/>
			<path id="Path_5214" d="M738.8,641.6h91.1c1.4,0.2,2.7-0.8,2.8-2.2c0.2-1.4-0.8-2.7-2.2-2.8c-0.2,0-0.4,0-0.6,0h-91.1
				c-1.4-0.2-2.7,0.8-2.8,2.2c-0.2,1.4,0.8,2.7,2.2,2.8C738.4,641.6,738.6,641.6,738.8,641.6z"/>
			<path id="Path_5215" d="M745.6,683.7h75.2c1.4,0.2,2.7-0.8,2.8-2.2c0.2-1.4-0.8-2.7-2.2-2.8c-0.2,0-0.4,0-0.6,0h-75.2
				c-1.4-0.2-2.7,0.8-2.8,2.2c-0.2,1.4,0.8,2.7,2.2,2.8C745.3,683.7,745.5,683.7,745.6,683.7z"/>
			<path id="Path_5216" d="M730.1,683.7h109.1c1.4,0.2,2.7-0.8,2.8-2.2c0.2-1.4-0.8-2.7-2.2-2.8c-0.2,0-0.4,0-0.6,0H730.1
				c-1.4-0.2-2.7,0.8-2.8,2.2c-0.2,1.4,0.8,2.7,2.2,2.8C729.7,683.7,729.9,683.7,730.1,683.7z"/>
			<path id="Path_5217" d="M745.6,725.8H848c1.4,0.2,2.7-0.8,2.8-2.2c0.2-1.4-0.8-2.7-2.2-2.8c-0.2,0-0.4,0-0.6,0H745.6
				c-1.4-0.2-2.7,0.8-2.8,2.2c-0.2,1.4,0.8,2.7,2.2,2.8C745.3,725.8,745.5,725.8,745.6,725.8z"/>
			<path id="Path_5218" d="M723.1,725.8H848c1.4,0.2,2.7-0.8,2.8-2.2c0.2-1.4-0.8-2.7-2.2-2.8c-0.2,0-0.4,0-0.6,0H723.1
				c-1.4-0.2-2.7,0.8-2.8,2.2c-0.2,1.4,0.8,2.7,2.2,2.8C722.7,725.8,722.9,725.8,723.1,725.8z"/>
		</g>
		<g id="Group_1754">
			<path id="Path_5219" d="M813.3,584.5c0,0,1.8,2.9,2.3,11c0,0.7-0.5,1.4-1.2,1.4c0,0,0,0-0.1,0h-14.4c-0.5,0-0.8-0.4-0.8-0.8
				c0-0.1,0-0.2,0-0.3c0.8-2.5,3.4-8.6,9.1-12L813.3,584.5z"/>
			<path id="Path_5220" class="st37" d="M813.9,579l-0.8,6.8c-0.1,0.6-0.5,1.1-1.1,1.1c-1,0.1-2,0.1-3,0c-1-0.2-1.7-1.1-1.7-2.1
				v-6.6L813.9,579z"/>
			<path id="Path_5221" d="M777.8,583.7c1.8,3.1,2.7,6.6,2.7,10.1c0,1.4-1.2,2.5-2.5,2.5h-22.3c-0.6,0-1.1-0.5-1.1-1.1
				c0-0.3,0.2-0.7,0.5-0.9c4.2-3,12.5-8.5,18.5-10.7H777.8z"/>
			<path id="Path_5222" class="st37" d="M780.1,576.4l-1.7,8.4c-0.2,0.9-1.1,1.6-2,1.4c0,0,0,0,0,0c-0.7-0.2-1.4-0.4-2-0.8
				c-0.7-0.4-1-1.2-0.9-2l1.8-10.2L780.1,576.4z"/>
			<path id="Path_5223" class="st38" d="M810.7,459.5c0,0,6,5.3,7.2,11.7s-3.2,110.1-3.2,110.1s-6,1-9.1-0.9c0,0-3.7-67.3-6.5-82.9
				c0,0-14.7,69.7-18.7,82.3c0,0-5.8,0.7-7.7-0.4c0,0,3.8-90.4,8.7-106.5L810.7,459.5z"/>
			<path id="Path_5224" class="st39" d="M751.3,399.6c25.3-2.1,32,3.1,32,3.1L771.1,422c0,0-24.9-0.5-42.7-14.2
				c2.9-3.2,5.3-6.8,7.1-10.7C740.5,399.2,745.9,400,751.3,399.6z"/>
			<path id="Path_5225" class="st37" d="M711.7,362.4c0-0.4,0.4-0.8,0.8-0.7c0.3,0,0.6,0.2,0.7,0.4l3.2,6.9c0.6,1.3,0.8,2.8,0.6,4.3
				l-1.1,4c-0.3,2,0.2,4,1.4,5.5c3,3.7,9.3,10.5,18.3,14.2c-1.8,3.9-4.2,7.5-7.1,10.7c-7.1-5.3-12.4-12.7-15.2-21.1
				c-1.5-0.5-2.5-1.8-2.4-3.4L711.7,362.4z"/>
			<path id="Path_5226" class="st40" d="M743,410.7c8.9-9.6,25.9-14,35.7-15.7c4.3-0.8,8.6,1.6,10.1,5.7
				c4.4,11.9,16.5,42.9,18.8,48.2c1.9,4.4,3.9,8.6,5.2,11.3c0.8,1.6,0.1,3.5-1.5,4.3c-8.3,4-23.2,8.5-29.2,10.3
				c-1.1,0.3-2.2-0.3-2.6-1.4c-0.1-0.2-0.1-0.4-0.1-0.6c0-1.2-0.3-2.3-0.9-3.3l-22.9-38.1c-14.2,15.8-26.7,17.2-36.3,13.8
				c1.6-4.9,2.6-9.9,3.2-15C736.7,427.7,743,410.7,743,410.7z"/>
			<path id="Path_5227" class="st37" d="M699.1,427.5l2.6-3.4c8.3,5.7,15.2,7,20.9,6.1c-0.5,5.1-1.6,10.1-3.2,15
				C706.7,440.5,699.1,427.5,699.1,427.5z"/>
			<path id="Path_5228" class="st37" d="M700.9,427.5l-14.4,0.6l-13.3-7.4c1.9-1.2,12.7,1.2,12.7,1.2s11.2-1.7,14.3-1.7
				c2.5,0,2.2,3.6,2,4.9c0,0.3-0.1,0.4-0.1,0.4L700.9,427.5z"/>
			<path id="Path_5229" class="st41" d="M765.2,377.4l7.6,18.5c0,0-8.7,6-15.8,5.5l-3.8-16.7L765.2,377.4z"/>
			<path id="Path_5230" class="st37" d="M752.4,364.7c-0.2,0.2-5.5,19.5-5.5,19.5l11,2.8l7.8-17.5
				C765.7,369.5,755.3,360.6,752.4,364.7z"/>
			<path id="Path_5231" d="M761.5,372.2l-3.4,9.5c0,0.1-0.1,0.2-0.2,0.3c-0.5,0.6-2.2,2.8-4.2,0.9c-1.9-1.7-3.6-3.3-5.2-3.6
				c-0.7-0.1-1.4,0.3-1.6,1c-0.9,3-1.5,6.1-1.9,9.3c-0.1,0.7,0.4,1.4,1.1,1.5c3.5,0.7,7,1,10.5,0.9c0.5,0,1-0.3,1.2-0.8
				c1.1-2.3,4.3-9.3,5.5-11.1c1.1-1.7,3.9-1.6,5-1.5c0.4,0,0.8-0.1,1-0.3c1-0.9,2.9-3.2,0.2-5.9c-0.6-0.6-0.6-1.4,0-2c0,0,0,0,0,0
				c1.2-1.1,2.4-3,0.5-5.4c-1.5-1.8-4-2.5-6.2-1.5c-0.6,0.2-1.4,0-1.7-0.6c-0.2-0.4-0.7-0.6-1.2-0.5c-0.8,0.1-1.4-0.5-1.5-1.3
				c0,0,0-0.1,0-0.1c0.1-2.1-1.2-3.9-3.3-4.4c-4.8-1.5-7.8,3.2-8.1,6.6s5,4.8,8.2,4.6c2.4-0.2,4.1,2.2,4.9,3.3
				C761.6,371.3,761.6,371.8,761.5,372.2z"/>
			<path id="Path_5232" class="st41" d="M762.2,383.6c0,0,0.8-6,3.3-6.3s5,1.8,2.5,5.2C764.8,386.6,762.2,383.6,762.2,383.6z"/>
		</g>
		<g id="Group_1759">
			<g id="Group_1755">
				<path id="Path_5233" class="st42" d="M345.2,655l-4.7,4.7c-5.7-0.4-11.1-2.3-15.9-5.4c2.4-6,4.8-9.5,6.7-11.6
					C334.9,647.9,339.7,652.1,345.2,655z"/>
				<path id="Path_5234" class="st42" d="M312.3,637.5l11.2-17.5c0.5,8.1,3.2,16,7.9,22.7c-1.9,2.1-4.3,5.6-6.7,11.6
					C318.7,650.3,314.3,644.4,312.3,637.5z"/>
			</g>
			<path id="Path_5235" d="M291.5,773.2c0.5-5.1,2-7.4,2-7.4l4.3,0.3c6.3,2,13.9,7.1,17.1,9.4l0,0c0.3,0.2,0.4,0.7,0.2,1.1
				c-0.1,0.2-0.3,0.3-0.6,0.3c-5.5,0.3-16.8-0.5-21.3-0.8c-1.1-0.1-2-1.1-1.9-2.2c0,0,0,0,0,0C291.4,773.6,291.5,773.4,291.5,773.2z
				"/>
			<path id="Path_5236" d="M249.5,774.6c1-1.8,2.6-4.5,3.2-5.5c0.7-1,1.7-1.8,2.8-2.4c0,0,2.7-1.5,3.5,0c0.5,1,1.2,4.7,1.6,7.4
				c0.2,1.2-0.6,2.3-1.8,2.5c-0.1,0-0.3,0-0.4,0l-7.7-0.2c-0.7,0-1.2-0.5-1.2-1.2C249.4,775,249.4,774.8,249.5,774.6z"/>
			<path id="Path_5237" class="st37" d="M261.4,758.1c-0.1,0.3-1.5,7.1-2.1,10.1c-0.2,0.8-0.9,1.4-1.8,1.4c-0.5,0-1-0.1-1.6-0.1
				c-1-0.1-1.8-1-1.8-2c-0.1-2.6-0.1-7.6,0.8-9.6C256.3,755.2,261.4,758.1,261.4,758.1z"/>
			<path id="Path_5238" class="st37" d="M292.6,760c0.6,0-0.2,3.1,0.7,6.2c0.1,0.7,0.7,1.2,1.4,1.2c0.5,0,1,0,1.6,0
				c0.8-0.1,1.5-0.7,1.6-1.6l0.7-8L292.6,760z"/>
			<path id="Path_5239" class="st43" d="M309.5,675.2c-0.3,1.3-9.8,56.7-10.3,85.3c0,0.5-0.4,0.9-0.8,0.9c-1.9,0.3-3.9,0.3-5.8,0
				c-0.3-0.1-0.5-0.3-0.6-0.6c-0.3-5.3-3-50.5,0.3-71.7c0,0-27,56.8-31.1,72.5c-0.1,0.4-0.5,0.6-0.8,0.6c-1.9-0.1-3.7-0.4-5.5-1
				c-0.7-0.2-1.1-1-0.9-1.7c2.3-9.4,18.3-73.9,29.2-88.2L309.5,675.2z"/>
			
				<linearGradient id="Path_5240_1_" gradientUnits="userSpaceOnUse" x1="225.2894" y1="982.7329" x2="225.6654" y2="976.7599" gradientTransform="matrix(4.3202 0 0 -4.4068 -681.6194 4980.6958)">
				<stop  offset="0" style="stop-color:#09005D"/>
				<stop  offset="1" style="stop-color:#1A0F91"/>
			</linearGradient>
			<path id="Path_5240" class="st44" d="M292.2,689.4c-0.2,0-0.4-0.2-0.4-0.4c0-0.1,0-0.2,0.1-0.2l3.6-3.7c0.1-0.1,0.4-0.1,0.5,0
				c0.1,0.1,0.1,0.4,0,0.5l-3.6,3.7C292.4,689.4,292.3,689.4,292.2,689.4z"/>
			<path id="Path_5241" class="st45" d="M324.9,605.9c-6.9-1.8-19.7-4.7-29.9-4.1c-2.3,0.1-4.2,2-4.3,4.3
				c-1.5,27.1-3.6,51.2-7.6,65.2c8.9,3.5,17.7,5.2,26.4,3.9c7.1-15.6,12.8-31.8,17.1-48.4c0,0,2.9-14.6,0.1-19.5
				C326.3,606.7,325.7,606.1,324.9,605.9z"/>
			<path id="Path_5242" class="st41" d="M308.2,586.9c0,0-1.8,10.4-2.3,15.3c-0.1,0.8,0.3,1.5,1,1.9c3.2,1.7,7,2.1,10.4,1.1
				c0.7-0.2,1.2-0.9,1.2-1.7l-0.3-13.9L308.2,586.9z"/>
			<path id="Path_5243" class="st37" d="M319.6,575.3c0,0,3.4,7.8,3.6,11.8s1.1,6.7-3.6,7.5s-8.7-1.5-10.8-5.6c0,0-3.4-6.2-2.6-8.8
				S319.6,575.3,319.6,575.3z"/>
			<path id="Path_5244" d="M310.4,586.2h0.6c0,0-2.5-5-0.3-5.9s10.7-2.6,12.5-5.7c1.6-2.7,0.6-6.1-2.1-7.7c0,0-0.1,0-0.1-0.1
				c-0.2-0.1-0.3,0-0.4,0.1l-0.2,0.4c-0.1,0.2-0.3,0.2-0.4,0.1c-0.1,0-0.1-0.1-0.2-0.2l0,0c0-0.2-0.2-0.3-0.4-0.2
				c-0.1,0-0.1,0.1-0.2,0.1c-0.6,0.9-2.1,2.4-6.2,3.1c-5.8,1.1-9.6,3.4-9.7,7.4c0,0.2-0.1,0.3-0.3,0.3c-0.1,0-0.1,0-0.2-0.1
				c-0.4-0.3-1.1-0.4-2,0.4c-1.6,1.3-0.9,4.8,2.6,7.7c0.1,0.1,0.2,0.3,0.1,0.4c0,0,0,0-0.1,0.1c-0.6,0.4-1.6,1.4,0.9,2.7
				c2.5,1.3,4,1.2,4.5,1c0.1,0,0.3-0.2,0.2-0.3l-0.2-3.6c0-0.2,0.1-0.3,0.3-0.3c0,0,0,0,0,0L310.4,586.2z"/>
			<path id="Path_5245" class="st37" d="M310.6,586.9c0,0-1.3-5-3.5-3.6s1.2,5.6,2.9,5.7L310.6,586.9z"/>
			<g id="Group_1757">
				<g id="Group_1756">
					<path id="Path_5246" class="st46" d="M238.5,667.6l-4.6,1.2c-7.8,2-13.1,7.9-11.8,13.1l1.6,6.3c1.3,5.3,8.8,8,16.6,6l4.6-1.2
						c0.3-0.1,0.6-0.2,0.9-0.2l133.7-40l-3.5-13.7l-136.7,28.3C239.1,667.4,238.8,667.5,238.5,667.6z M240.4,673.8
						c5.9-1.5,11.4,0.1,12.3,3.6s-3.2,7.5-9.1,9s-11.4-0.1-12.3-3.6S234.6,675.3,240.4,673.8L240.4,673.8z"/>
				</g>
				<path id="Path_5247" class="st46" d="M420.5,620.4l-26.5,6.7c-1.9,0.5-3.4,1.8-4.2,3.6l-4,9.1c-1.1,2.6-0.4,5.7,1.9,7.4l7.8,6.2
					c1.5,1.2,3.5,1.6,5.4,1.2l26.5-6.7c2.6-0.7,5.2,0.9,5.9,3.5c0.3,1.1,0.2,2.3-0.4,3.3c-4.8,9.2-13.3,15.9-23.3,18.3
					c-19,4.8-35.9-6.7-40.5-25s4.7-36.5,23.7-41.3c10-2.6,20.7-0.7,29.2,5.1c2.2,1.5,2.7,4.5,1.2,6.7
					C422.7,619.5,421.7,620.2,420.5,620.4z"/>
				
					<linearGradient id="Path_5248_1_" gradientUnits="userSpaceOnUse" x1="243.6188" y1="988.0972" x2="244.6188" y2="988.0972" gradientTransform="matrix(211.6664 0 0 -88.6282 -51343.4336 88225.6875)">
					<stop  offset="0" style="stop-color:#002FF5"/>
					<stop  offset="0.189" style="stop-color:#003EF4"/>
					<stop  offset="0.559" style="stop-color:#0068F4"/>
					<stop  offset="1" style="stop-color:#00A2F4"/>
				</linearGradient>
				<path id="Path_5248" class="st47" d="M428.1,650.4l-26.5,6.7c-1.9,0.5-3.9,0.1-5.4-1.2l-7.8-6.2c-2.2-1.8-3-4.8-1.9-7.4l4-9.1
					c0.8-1.8,2.3-3.1,4.2-3.6l26.5-6.7c2.6-0.6,4.1-3.3,3.5-5.8c-0.3-1.1-1-2.1-1.9-2.8c-8.6-5.8-19.2-7.7-29.2-5.1
					c-16.3,4.1-25.5,18-24.9,33.4l-128.8,26.7c-0.3,0.1-0.6,0.1-0.9,0.2l-4.6,1.2c-7.8,2-13.1,7.9-11.8,13.1l1.6,6.3
					c1.3,5.3,8.8,8,16.6,6l4.6-1.2c0.3-0.1,0.6-0.2,0.9-0.2l125.8-37.6c6.6,14.4,21.6,22.7,38.2,18.5c10-2.5,18.5-9.2,23.3-18.3
					c1.2-2.4,0.2-5.3-2.2-6.5C430.4,650.2,429.2,650.1,428.1,650.4z M244.2,688.5c-5.9,1.5-11.4-0.1-12.3-3.6s3.2-7.5,9.1-9
					s11.4,0.1,12.3,3.6S250,687,244.2,688.5L244.2,688.5z"/>
			</g>
			<g id="Group_1758">
				<path id="Path_5249" class="st45" d="M272.7,642c-3.4,9.6-1.5,19.9-1.5,19.9l-4.5,1.2c0,0-5.8-6.9-4.5-22.3
					C265.8,640.3,269.4,640.7,272.7,642z"/>
				<path id="Path_5250" class="st45" d="M262.2,640.8c0.1-1.7,0.4-3.6,0.7-5.5c3.1-17,24.8-30.1,30-32.9c0.3-0.2,0.8-0.1,1,0.3
					c0.1,0.1,0.1,0.2,0.1,0.4l-0.7,23.1c-12.1,1.6-17.9,8.6-20.5,15.9C269.4,640.7,265.8,640.3,262.2,640.8z"/>
			</g>
			<path id="Path_5251" class="st37" d="M354.8,663.5c0.8-0.2,1.5-0.8,1.9-1.6c0.7-1.6,1.5-4-0.2-4.8c-2.5-1.1-7,3.5-7,3.5l-2.2,3.6
				l-2,1C347.1,665.6,350.7,664.8,354.8,663.5z"/>
			<path id="Path_5252" class="st37" d="M270.9,659.7h5.6c0,0-4.5,2.7-4.7,5.6s1.8,8.8,2.7,10.4c1,1.8-12.6-2.6-7.8-16H270.9z"/>
		</g>
	</g>
</g>
</svg>
