<?xml version="1.0" encoding="utf-8"?>
<!-- Generator: Adobe Illustrator 24.1.0, SVG Export Plug-In . SVG Version: 6.00 Build 0)  -->
<svg version="1.1" id="Layer_1" xmlns="http://www.w3.org/2000/svg" xmlns:xlink="http://www.w3.org/1999/xlink" x="0px" y="0px"
	 viewBox="0 0 800 700" style="enable-background:new 0 0 800 700;" xml:space="preserve">
<style type="text/css">
	.st0{opacity:0.2;}
	.st1{fill:#91B3FA;}
	.st2{opacity:0.1;}
	.st3{fill:url(#SVGID_1_);}
	.st4{fill:#FFFFFF;}
	.st5{opacity:0.2;fill:#0F37A5;}
	.st6{opacity:0.5;fill:url(#SVGID_2_);}
	.st7{opacity:0.5;fill:url(#SVGID_3_);}
	.st8{opacity:0.5;fill:url(#SVGID_4_);}
	.st9{opacity:0.5;fill:url(#SVGID_5_);}
	.st10{opacity:0.5;fill:url(#SVGID_6_);}
	.st11{clip-path:url(#SVGID_8_);fill:url(#SVGID_9_);}
	.st12{clip-path:url(#SVGID_11_);fill:url(#SVGID_12_);}
	.st13{opacity:5.000000e-02;fill:#0F37A5;}
	.st14{opacity:0.1;fill:#0F37A5;}
	.st15{fill:url(#SVGID_13_);}
	.st16{fill:url(#SVGID_14_);}
	.st17{fill:url(#SVGID_15_);}
	.st18{fill:url(#SVGID_16_);}
	.st19{fill:url(#SVGID_17_);}
	.st20{fill:url(#SVGID_18_);}
	.st21{fill:url(#SVGID_19_);}
	.st22{opacity:0.2;fill:#3054D4;}
	.st23{fill:url(#SVGID_20_);}
	.st24{fill:url(#SVGID_21_);}
	.st25{fill:url(#SVGID_22_);}
	.st26{fill:none;stroke:url(#SVGID_23_);stroke-miterlimit:10;}
	.st27{fill:url(#SVGID_24_);}
	.st28{fill:#F8BE99;}
	.st29{fill:#133282;}
	.st30{fill:#F5BE42;}
	.st31{fill:#F39F11;}
	.st32{fill:#FFB48F;}
	.st33{fill:#EC384E;}
	.st34{fill:#1B3D98;}
	.st35{fill:url(#SVGID_25_);}
	.st36{fill:#DE151F;}
	.st37{fill:url(#SVGID_26_);}
</style>
<g>
	<g>
		<g class="st0">
			<path class="st1" d="M468,589.8c36.6-0.6,76.2-14.8,99.4-27.2c106.1-56.8,153.8-173.3,152.2-282.1c-1.5-108.8-73-216-176.2-250.4
				C521,22.6,497.5,18.4,474,19.1c-61.6,1.9-118,37.3-160.1,82.2c-18.9,20.2-35.8,42.5-57.5,59.5c-27.1,21.1-60.1,32.8-90.3,49.3
				c-50.7,27.7-95.8,74.6-101.2,132.1c-5,54.1,26.7,106.4,69.2,140.3c42.5,33.9,94.7,52.8,145.9,71.1
				C320.7,568.3,424.1,591.4,468,589.8"/>
		</g>
		<g class="st2">
			<path class="st1" d="M604.9,652.7c39.3-13.1,77-40.9,97.4-61.1c93.7-93,102.2-225.5,60.3-333.7C720.7,149.7,603.9,67.1,479.5,68
				c-26.9,0.2-53.8,4-79,12.8c-65.9,22.9-113.8,77.5-142.8,136.8c-13,26.6-23,54.7-40.2,79.1c-21.5,30.4-52.9,53.3-79.4,80
				c-44.6,45-76.1,107.2-60.6,166.5c14.6,55.8,68.2,97.2,126.7,116.5c58.5,19.4,121.9,20.4,184.1,21.2
				C437.7,681.6,558.1,669.3,604.9,652.7"/>
		</g>
	</g>
	<g>
		<g>
			<linearGradient id="SVGID_1_" gradientUnits="userSpaceOnUse" x1="13.3041" y1="322.5212" x2="666.2009" y2="322.5212">
				<stop  offset="0" style="stop-color:#062684"/>
				<stop  offset="1" style="stop-color:#3054D4"/>
			</linearGradient>
			<path class="st3" d="M52.9,525.3c-21.8,0-39.6-17.8-39.6-39.6V159.3c0-21.8,17.8-39.6,39.6-39.6h573.8
				c21.8,0,39.6,17.8,39.6,39.6v326.4c0,21.8-17.8,39.6-39.6,39.6H52.9z"/>
			<path class="st4" d="M626.6,505.5H52.9c-10.9,0-19.8-8.9-19.8-19.8V159.3c0-10.9,8.9-19.8,19.8-19.8h573.8
				c10.9,0,19.8,8.9,19.8,19.8v326.4C646.4,496.7,637.6,505.5,626.6,505.5z"/>
			<rect x="217.8" y="241.4" class="st5" width="16.2" height="220.6"/>
			<g>
				<rect x="55" y="241.4" class="st5" width="16.2" height="220.6"/>
				<linearGradient id="SVGID_2_" gradientUnits="userSpaceOnUse" x1="54.9636" y1="410.0838" x2="71.205" y2="410.0838">
					<stop  offset="0" style="stop-color:#002FF5"/>
					<stop  offset="0.1894" style="stop-color:#003FF5"/>
					<stop  offset="0.5594" style="stop-color:#0069F4"/>
					<stop  offset="1" style="stop-color:#00A2F4"/>
				</linearGradient>
				<rect x="55" y="358.2" class="st6" width="16.2" height="103.9"/>
			</g>
			<g>
				<rect x="95.7" y="241.4" class="st5" width="16.2" height="220.6"/>
				<linearGradient id="SVGID_3_" gradientUnits="userSpaceOnUse" x1="95.6703" y1="383.8247" x2="111.9117" y2="383.8247">
					<stop  offset="0" style="stop-color:#002FF5"/>
					<stop  offset="0.1894" style="stop-color:#003FF5"/>
					<stop  offset="0.5594" style="stop-color:#0069F4"/>
					<stop  offset="1" style="stop-color:#00A2F4"/>
				</linearGradient>
				<rect x="95.7" y="305.6" class="st7" width="16.2" height="156.4"/>
			</g>
			<g>
				<rect x="136.4" y="241.4" class="st5" width="16.2" height="220.6"/>
				<linearGradient id="SVGID_4_" gradientUnits="userSpaceOnUse" x1="136.377" y1="443.2265" x2="152.6184" y2="443.2265">
					<stop  offset="0" style="stop-color:#002FF5"/>
					<stop  offset="0.1894" style="stop-color:#003FF5"/>
					<stop  offset="0.5594" style="stop-color:#0069F4"/>
					<stop  offset="1" style="stop-color:#00A2F4"/>
				</linearGradient>
				<rect x="136.4" y="424.4" class="st8" width="16.2" height="37.6"/>
			</g>
			<g>
				<rect x="177.1" y="241.4" class="st5" width="16.2" height="220.6"/>
				<linearGradient id="SVGID_5_" gradientUnits="userSpaceOnUse" x1="177.0837" y1="394.2774" x2="193.3251" y2="394.2774">
					<stop  offset="0" style="stop-color:#002FF5"/>
					<stop  offset="0.1894" style="stop-color:#003FF5"/>
					<stop  offset="0.5594" style="stop-color:#0069F4"/>
					<stop  offset="1" style="stop-color:#00A2F4"/>
				</linearGradient>
				<rect x="177.1" y="326.5" class="st9" width="16.2" height="135.5"/>
			</g>
			<linearGradient id="SVGID_6_" gradientUnits="userSpaceOnUse" x1="217.7904" y1="418.7519" x2="234.0318" y2="418.7519">
				<stop  offset="0" style="stop-color:#002FF5"/>
				<stop  offset="0.1894" style="stop-color:#003FF5"/>
				<stop  offset="0.5594" style="stop-color:#0069F4"/>
				<stop  offset="1" style="stop-color:#00A2F4"/>
			</linearGradient>
			<rect x="217.8" y="375.5" class="st10" width="16.2" height="86.5"/>
			<g>
				<defs>
					<path id="SVGID_7_" d="M313.6,162.5c-21.8,0-39.5,17.7-39.5,39.5c0,21.8,17.7,39.5,39.5,39.5c21.8,0,39.5-17.7,39.5-39.5
						C353,180.1,335.4,162.5,313.6,162.5z M313.6,224.4c-12.4,0-22.5-10.1-22.5-22.5c0-12.4,10.1-22.5,22.5-22.5
						c12.4,0,22.5,10.1,22.5,22.5C336.1,214.3,326,224.4,313.6,224.4z"/>
				</defs>
				<use xlink:href="#SVGID_7_"  style="overflow:visible;opacity:0.1;fill:#032E9B;enable-background:new    ;"/>
				<clipPath id="SVGID_8_">
					<use xlink:href="#SVGID_7_"  style="overflow:visible;opacity:0.1;enable-background:new    ;"/>
				</clipPath>
				<linearGradient id="SVGID_9_" gradientUnits="userSpaceOnUse" x1="258.4746" y1="218.0301" x2="375.6782" y2="218.0301">
					<stop  offset="0" style="stop-color:#002FF5"/>
					<stop  offset="0.1894" style="stop-color:#003FF5"/>
					<stop  offset="0.5594" style="stop-color:#0069F4"/>
					<stop  offset="1" style="stop-color:#00A2F4"/>
				</linearGradient>
				<rect x="258.5" y="193.2" class="st11" width="117.2" height="49.6"/>
			</g>
			<g>
				<defs>
					<path id="SVGID_10_" d="M409.8,162.5c-21.8,0-39.5,17.7-39.5,39.5c0,21.8,17.7,39.5,39.5,39.5c21.8,0,39.5-17.7,39.5-39.5
						C449.2,180.1,431.5,162.5,409.8,162.5z M409.8,224.4c-12.4,0-22.5-10.1-22.5-22.5c0-12.4,10.1-22.5,22.5-22.5
						c12.4,0,22.5,10.1,22.5,22.5C432.2,214.3,422.2,224.4,409.8,224.4z"/>
				</defs>
				<use xlink:href="#SVGID_10_"  style="overflow:visible;opacity:0.1;fill:#032E9B;enable-background:new    ;"/>
				<clipPath id="SVGID_11_">
					<use xlink:href="#SVGID_10_"  style="overflow:visible;opacity:0.1;enable-background:new    ;"/>
				</clipPath>
				<linearGradient id="SVGID_12_" gradientUnits="userSpaceOnUse" x1="354.6568" y1="208.4442" x2="471.8606" y2="208.4442">
					<stop  offset="0" style="stop-color:#002FF5"/>
					<stop  offset="0.1894" style="stop-color:#003FF5"/>
					<stop  offset="0.5594" style="stop-color:#0069F4"/>
					<stop  offset="1" style="stop-color:#00A2F4"/>
				</linearGradient>
				<rect x="354.7" y="174.1" class="st12" width="117.2" height="68.8"/>
			</g>
			<path class="st13" d="M623.5,463.6l-253.1-1.9c-5,0-9-4.1-9-9.1v-130c0-5,4.1-9.1,9.1-9.1h253.1c5,0,9.1,4.1,9.1,9.1v131.9
				C632.7,459.6,628.6,463.6,623.5,463.6z"/>
			<path class="st14" d="M584.3,372.2l-32.5-34.4l-46.7,50.8L472.1,353l-30.9,34.9l-23.7-28.8l-46.7,48.6v35.1
				c0,4.6,3.7,8.4,8.4,8.5l235.4,1.8c4.7,0,8.5-3.8,8.5-8.5v-95.6L584.3,372.2z"/>
			<rect x="584.5" y="371.2" class="st4" width="0.9" height="81.9"/>
			<rect x="551.3" y="337.8" class="st4" width="0.9" height="114.8"/>
			<rect x="504.6" y="387.9" class="st4" width="0.9" height="64.4"/>
			<rect x="472.6" y="354.3" class="st4" width="0.9" height="98"/>
			<rect x="440.8" y="386.9" class="st4" width="0.9" height="65.4"/>
			<rect x="417.7" y="356.7" class="st4" width="0.9" height="94.9"/>
			<linearGradient id="SVGID_13_" gradientUnits="userSpaceOnUse" x1="410.9318" y1="356.7056" x2="425.2347" y2="356.7056">
				<stop  offset="0" style="stop-color:#3054D4"/>
				<stop  offset="1" style="stop-color:#062684"/>
			</linearGradient>
			<circle class="st15" cx="418.1" cy="356.7" r="7.2"/>
			<linearGradient id="SVGID_14_" gradientUnits="userSpaceOnUse" x1="436.5522" y1="386.8741" x2="445.9745" y2="386.8741">
				<stop  offset="0" style="stop-color:#002FF5"/>
				<stop  offset="0.1894" style="stop-color:#003FF5"/>
				<stop  offset="0.5594" style="stop-color:#0069F4"/>
				<stop  offset="1" style="stop-color:#00A2F4"/>
			</linearGradient>
			<path class="st16" d="M446,386.9c0,2.6-2.1,4.7-4.7,4.7c-2.6,0-4.7-2.1-4.7-4.7c0-2.6,2.1-4.7,4.7-4.7
				C443.9,382.2,446,384.3,446,386.9z"/>
			<linearGradient id="SVGID_15_" gradientUnits="userSpaceOnUse" x1="468.3091" y1="354.2653" x2="477.7314" y2="354.2653">
				<stop  offset="0" style="stop-color:#002FF5"/>
				<stop  offset="0.1894" style="stop-color:#003FF5"/>
				<stop  offset="0.5594" style="stop-color:#0069F4"/>
				<stop  offset="1" style="stop-color:#00A2F4"/>
			</linearGradient>
			<path class="st17" d="M477.7,354.3c0,2.6-2.1,4.7-4.7,4.7c-2.6,0-4.7-2.1-4.7-4.7c0-2.6,2.1-4.7,4.7-4.7
				C475.6,349.6,477.7,351.7,477.7,354.3z"/>
			<linearGradient id="SVGID_16_" gradientUnits="userSpaceOnUse" x1="500.3627" y1="387.9169" x2="509.7849" y2="387.9169">
				<stop  offset="0" style="stop-color:#002FF5"/>
				<stop  offset="0.1894" style="stop-color:#003FF5"/>
				<stop  offset="0.5594" style="stop-color:#0069F4"/>
				<stop  offset="1" style="stop-color:#00A2F4"/>
			</linearGradient>
			<path class="st18" d="M509.8,387.9c0,2.6-2.1,4.7-4.7,4.7c-2.6,0-4.7-2.1-4.7-4.7c0-2.6,2.1-4.7,4.7-4.7
				C507.7,383.2,509.8,385.3,509.8,387.9z"/>
			<linearGradient id="SVGID_17_" gradientUnits="userSpaceOnUse" x1="547.0287" y1="337.7797" x2="556.451" y2="337.7797">
				<stop  offset="0" style="stop-color:#002FF5"/>
				<stop  offset="0.1894" style="stop-color:#003FF5"/>
				<stop  offset="0.5594" style="stop-color:#0069F4"/>
				<stop  offset="1" style="stop-color:#00A2F4"/>
			</linearGradient>
			<path class="st19" d="M556.5,337.8c0,2.6-2.1,4.7-4.7,4.7c-2.6,0-4.7-2.1-4.7-4.7c0-2.6,2.1-4.7,4.7-4.7
				C554.3,333.1,556.5,335.2,556.5,337.8z"/>
			<linearGradient id="SVGID_18_" gradientUnits="userSpaceOnUse" x1="588.8528" y1="359.3205" x2="569.0855" y2="419.0823">
				<stop  offset="0" style="stop-color:#002FF5"/>
				<stop  offset="0.1894" style="stop-color:#003FF5"/>
				<stop  offset="0.5594" style="stop-color:#0069F4"/>
				<stop  offset="1" style="stop-color:#00A2F4"/>
			</linearGradient>
			<path class="st20" d="M589.6,371.2c0,2.6-2.1,4.7-4.7,4.7c-2.6,0-4.7-2.1-4.7-4.7c0-2.6,2.1-4.7,4.7-4.7
				C587.5,366.5,589.6,368.6,589.6,371.2z"/>
			<path class="st5" d="M347.3,275.6h-69.4c-2.9,0-5.3,1.6-5.3,3.7c0,2,2.4,3.7,5.3,3.7h69.4c2.9,0,5.3-1.6,5.3-3.7
				C352.5,277.3,350.2,275.6,347.3,275.6z"/>
			<path class="st5" d="M347.3,259.4h-69.4c-2.9,0-5.3,1.6-5.3,3.7c0,2,2.4,3.7,5.3,3.7h69.4c2.9,0,5.3-1.6,5.3-3.7
				C352.5,261.1,350.2,259.4,347.3,259.4z"/>
			<path class="st5" d="M443.7,275.6h-69.4c-2.9,0-5.3,1.6-5.3,3.7c0,2,2.4,3.7,5.3,3.7h69.4c2.9,0,5.3-1.6,5.3-3.7
				C449,277.3,446.6,275.6,443.7,275.6z"/>
			<path class="st5" d="M443.7,259.4h-69.4c-2.9,0-5.3,1.6-5.3,3.7c0,2,2.4,3.7,5.3,3.7h69.4c2.9,0,5.3-1.6,5.3-3.7
				C449,261.1,446.6,259.4,443.7,259.4z"/>
			<path class="st5" d="M540.1,275.6h-69.4c-2.9,0-5.3,1.6-5.3,3.7c0,2,2.4,3.7,5.3,3.7h69.4c2.9,0,5.3-1.6,5.3-3.7
				C545.4,277.3,543,275.6,540.1,275.6z"/>
			<path class="st5" d="M540.1,259.4h-69.4c-2.9,0-5.3,1.6-5.3,3.7c0,2,2.4,3.7,5.3,3.7h69.4c2.9,0,5.3-1.6,5.3-3.7
				C545.4,261.1,543,259.4,540.1,259.4z"/>
			<path class="st5" d="M627.4,249.6h-52.3c-3.3,0-5.9,2.7-5.9,5.9c0,3.3,2.7,5.9,5.9,5.9h52.3c3.3,0,5.9-2.7,5.9-5.9
				C633.4,252.2,630.7,249.6,627.4,249.6z"/>
			<linearGradient id="SVGID_19_" gradientUnits="userSpaceOnUse" x1="264.4663" y1="353.425" x2="328.6732" y2="353.425">
				<stop  offset="0" style="stop-color:#3054D4"/>
				<stop  offset="1" style="stop-color:#062684"/>
			</linearGradient>
			<circle class="st21" cx="296.6" cy="353.4" r="32.1"/>
			<path class="st4" d="M314.1,365c-3.7,5.4-10,9-17.1,9c-11.4,0-20.6-9.2-20.6-20.6c0-11.4,9.2-20.6,20.6-20.6c0.3,0,0.7,0,1,0
				v-5.2c-0.3,0-0.7,0-1,0c-14.3,0-25.8,11.6-25.8,25.8c0,14.3,11.6,25.8,25.8,25.8c8.8,0,16.6-4.4,21.3-11.2L314.1,365z"/>
			<path class="st22" d="M270.4,410h52.3c3.3,0,5.9-2.7,5.9-5.9c0-3.3-2.7-5.9-5.9-5.9h-52.3c-3.3,0-5.9,2.7-5.9,5.9
				C264.5,407.3,267.1,410,270.4,410z"/>
			<g>
				<g>
					<linearGradient id="SVGID_20_" gradientUnits="userSpaceOnUse" x1="75.7442" y1="182.4031" x2="100.1535" y2="182.4031">
						<stop  offset="0" style="stop-color:#062684"/>
						<stop  offset="1" style="stop-color:#3054D4"/>
					</linearGradient>
					<path class="st23" d="M100.2,191v6.6H75.7v-30.4h23.8v6.6H84.3v5.1h13.5v6.4H84.3v5.6H100.2z"/>
					<linearGradient id="SVGID_21_" gradientUnits="userSpaceOnUse" x1="104.9313" y1="182.4031" x2="132.9456" y2="182.4031">
						<stop  offset="0" style="stop-color:#062684"/>
						<stop  offset="1" style="stop-color:#3054D4"/>
					</linearGradient>
					<path class="st24" d="M118.2,189.5h-4.7v8.1h-8.6v-30.4h13.9c2.8,0,5.1,0.5,7.2,1.4c2,0.9,3.6,2.2,4.7,3.9
						c1.1,1.7,1.7,3.7,1.7,6c0,2.2-0.5,4.1-1.5,5.8c-1,1.6-2.5,2.9-4.4,3.8l6.6,9.6h-9.2L118.2,189.5z M122.3,175.1
						c-0.9-0.8-2.2-1.2-4-1.2h-4.8v8.9h4.8c1.8,0,3.1-0.4,4-1.2c0.9-0.8,1.3-1.9,1.3-3.3C123.7,177,123.2,175.9,122.3,175.1z"/>
					<linearGradient id="SVGID_22_" gradientUnits="userSpaceOnUse" x1="137.0716" y1="182.4031" x2="164.478" y2="182.4031">
						<stop  offset="0" style="stop-color:#062684"/>
						<stop  offset="1" style="stop-color:#3054D4"/>
					</linearGradient>
					<path class="st25" d="M158.1,168.6c2,0.9,3.6,2.2,4.7,3.9c1.1,1.7,1.7,3.7,1.7,6c0,2.3-0.6,4.3-1.7,6c-1.1,1.7-2.7,3-4.7,3.9
						c-2,0.9-4.4,1.4-7.2,1.4h-5.3v7.9h-8.6v-30.4H151C153.7,167.2,156.1,167.7,158.1,168.6z M154.4,181.7c0.9-0.8,1.3-1.9,1.3-3.3
						c0-1.4-0.4-2.5-1.3-3.3c-0.9-0.8-2.2-1.2-4-1.2h-4.8v8.9h4.8C152.2,182.9,153.5,182.5,154.4,181.7z"/>
				</g>
				<linearGradient id="SVGID_23_" gradientUnits="userSpaceOnUse" x1="53.7766" y1="185.2058" x2="186.562" y2="185.2058">
					<stop  offset="0" style="stop-color:#4F52FF"/>
					<stop  offset="1" style="stop-color:#4042E2"/>
				</linearGradient>
				<rect x="54.3" y="153.2" class="st26" width="131.8" height="64"/>
			</g>
		</g>
		<g>
			<linearGradient id="SVGID_24_" gradientUnits="userSpaceOnUse" x1="461.0827" y1="161.2915" x2="565.5646" y2="161.2915">
				<stop  offset="0" style="stop-color:#002FF5"/>
				<stop  offset="0.1894" style="stop-color:#003FF5"/>
				<stop  offset="0.5594" style="stop-color:#0069F4"/>
				<stop  offset="1" style="stop-color:#00A2F4"/>
			</linearGradient>
			<path class="st27" d="M513.3,109.1c-28.9,0-52.2,23.4-52.2,52.2c0,28.9,23.4,52.2,52.2,52.2c28.9,0,52.2-23.4,52.2-52.2
				C565.6,132.4,542.2,109.1,513.3,109.1z M513.3,191.1c-16.4,0-29.8-13.3-29.8-29.8c0-16.4,13.3-29.8,29.8-29.8
				c16.4,0,29.8,13.3,29.8,29.8C543.1,177.7,529.8,191.1,513.3,191.1z"/>
		</g>
		<g>
			<path d="M562.1,557.1c1.4,0,2.6-0.9,2.8-2.1l44-232.8c0.3-1.4-0.8-2.7-2.3-2.9c-1.5-0.2-3,0.7-3.3,2.1l-44,232.8
				c-0.3,1.4,0.8,2.7,2.3,2.9C561.8,557.1,561.9,557.1,562.1,557.1z"/>
			<path d="M710.5,557.1c0.2,0,0.4,0,0.6-0.1c1.5-0.3,2.5-1.6,2.2-3l-51.8-229.8c-0.3-1.4-1.8-2.3-3.3-2c-1.5,0.3-2.5,1.6-2.2,3
				l51.8,229.8C708,556.3,709.2,557.1,710.5,557.1z"/>
			<path d="M595.6,379.7h75.2c1.6,0,2.8-1.1,2.8-2.5c0-1.4-1.3-2.5-2.8-2.5h-75.2c-1.6,0-2.8,1.1-2.8,2.5
				C592.8,378.6,594.1,379.7,595.6,379.7z"/>
			<path d="M597,379.7h72.4c1.5,0,2.7-1.1,2.7-2.5c0-1.4-1.2-2.5-2.7-2.5H597c-1.5,0-2.7,1.1-2.7,2.5
				C594.3,378.6,595.5,379.7,597,379.7z"/>
			<path d="M595.6,421.8h75.2c1.6,0,2.8-1.1,2.8-2.5c0-1.4-1.3-2.5-2.8-2.5h-75.2c-1.6,0-2.8,1.1-2.8,2.5
				C592.8,420.7,594.1,421.8,595.6,421.8z"/>
			<path d="M588.8,421.8h91.1c1.6,0,2.8-1.1,2.8-2.5c0-1.4-1.3-2.5-2.8-2.5h-91.1c-1.6,0-2.8,1.1-2.8,2.5
				C586,420.7,587.3,421.8,588.8,421.8z"/>
			<path d="M595.6,463.9h75.2c1.6,0,2.8-1.1,2.8-2.5c0-1.4-1.3-2.5-2.8-2.5h-75.2c-1.6,0-2.8,1.1-2.8,2.5
				C592.8,462.8,594.1,463.9,595.6,463.9z"/>
			<path d="M580.1,463.9h109.1c1.6,0,2.8-1.1,2.8-2.5c0-1.4-1.3-2.5-2.8-2.5H580.1c-1.6,0-2.8,1.1-2.8,2.5
				C577.3,462.8,578.6,463.9,580.1,463.9z"/>
			<path d="M595.6,506H698c1.6,0,2.8-1.1,2.8-2.5c0-1.4-1.3-2.5-2.8-2.5H595.6c-1.6,0-2.8,1.1-2.8,2.5
				C592.8,504.9,594.1,506,595.6,506z"/>
			<path d="M573.1,506H698c1.6,0,2.8-1.1,2.8-2.5c0-1.4-1.3-2.5-2.8-2.5H573.1c-1.6,0-2.8,1.1-2.8,2.5
				C570.3,504.9,571.5,506,573.1,506z"/>
		</g>
		<g>
			<path d="M663.3,364.7c0,0,1.8,2.9,2.3,11c0,0.8-0.6,1.4-1.3,1.4h-14.3c-0.6,0-1-0.6-0.8-1.1c0.8-2.5,3.4-8.6,9.1-12L663.3,364.7z
				"/>
			<path class="st28" d="M663.9,359.2l-0.8,6.8c-0.1,0.6-0.5,1.1-1.1,1.1c-0.8,0.1-1.9,0.2-3,0c-1-0.2-1.7-1.1-1.7-2.1v-6.6
				L663.9,359.2z"/>
			<path d="M627.8,363.9c0,0,2.7,4.3,2.7,10.1c0,1.4-1.2,2.5-2.5,2.5h-22.3c-1,0-1.5-1.3-0.6-1.9c4.2-3,12.5-8.5,18.5-10.7H627.8z"
				/>
			<path class="st28" d="M630.1,356.6l-1.7,8.4c-0.2,0.9-1.1,1.6-2,1.4c-0.6-0.1-1.2-0.4-2-0.8c-0.7-0.4-1-1.2-0.9-2l1.8-10.2
				L630.1,356.6z"/>
			<path class="st29" d="M660.7,239.7c0,0,6,5.3,7.2,11.7c1.1,6.4-3.2,110.1-3.2,110.1s-6,1-9.1-0.9c0,0-3.7-67.3-6.5-82.9
				c0,0-14.7,69.7-18.7,82.3c0,0-5.8,0.7-7.7-0.4c0,0,3.8-90.4,8.7-106.5L660.7,239.7z"/>
			<path class="st30" d="M601.3,179.8c25.3-2.1,32,3.1,32,3.1l-12.2,19.2c0,0-24.9-0.5-42.7-14.2c3.3-3.6,5.7-7.6,7.1-10.7
				C590.1,179.1,595.4,180.3,601.3,179.8z"/>
			<path class="st28" d="M561.7,142.6c0-0.8,1.1-1,1.5-0.3l3.2,6.9c0.6,1.3,0.8,2.8,0.6,4.3l-1.1,4c-0.3,2,0.2,4,1.4,5.5
				c3,3.7,9.3,10.5,18.3,14.2c-1.5,3.1-3.8,7.1-7.1,10.7c-6.5-5-12.1-11.9-15.2-21.1c-1.5-0.5-2.5-1.8-2.4-3.4L561.7,142.6z"/>
			<path class="st31" d="M593,190.9c8.9-9.6,25.9-14,35.7-15.7c4.3-0.8,8.6,1.6,10.1,5.7c4.4,11.9,16.5,42.9,18.8,48.2
				c1.9,4.4,3.9,8.6,5.2,11.3c0.8,1.6,0.1,3.5-1.5,4.3c-8.3,4-23.2,8.5-29.2,10.3c-1.3,0.4-2.6-0.6-2.6-2c0-1.2-0.3-2.3-0.9-3.3
				l-22.9-38.1c-14.2,15.8-26.7,17.2-36.3,13.8c1.6-5,2.7-10,3.2-15C586.7,207.9,593,190.9,593,190.9z"/>
			<path class="st28" d="M549.1,207.6l2.6-3.4c8.3,5.7,15.2,7,20.9,6.1c-0.5,5-1.6,10-3.2,15C556.7,220.7,549.1,207.6,549.1,207.6z"
				/>
			<path class="st28" d="M550.9,207.7l-14.4,0.6l-13.3-7.4c1.9-1.2,12.7,1.2,12.7,1.2s11.2-1.7,14.3-1.7c2.5,0,2.2,3.6,2,4.9
				c0,0.3-0.1,0.4-0.1,0.4L550.9,207.7z"/>
			<path class="st32" d="M615.2,157.5l7.6,18.5c0,0-8.7,6-15.8,5.5l-3.8-16.7L615.2,157.5z"/>
			<path class="st28" d="M602.4,144.9c-0.2,0.2-5.5,19.5-5.5,19.5l11,2.8l7.8-17.5C615.7,149.7,605.3,140.8,602.4,144.9z"/>
			<path d="M611.5,152.4l-3.4,9.5c0,0.1-0.1,0.2-0.2,0.3c-0.5,0.6-2.2,2.8-4.2,0.9c-1.9-1.7-3.6-3.3-5.2-3.6c-0.7-0.1-1.4,0.3-1.6,1
				c-0.5,1.7-1.5,5.7-1.9,9.3c-0.1,0.7,0.4,1.4,1.1,1.5c2.2,0.4,6.7,1.1,10.5,0.9c0.5,0,1-0.3,1.2-0.8c1.1-2.3,4.3-9.3,5.5-11.1
				c1.1-1.7,3.9-1.6,5-1.5c0.4,0,0.8-0.1,1-0.3c1-0.9,2.9-3.2,0.2-5.9c-0.6-0.6-0.6-1.5,0-2c1.2-1.1,2.4-3,0.5-5.4
				c-2-2.4-4.6-2.1-6.2-1.5c-0.6,0.2-1.3,0-1.7-0.6c-0.2-0.3-0.5-0.6-1.2-0.5c-0.8,0.1-1.5-0.6-1.5-1.4c0-1.6-0.5-3.5-3.3-4.4
				c-4.8-1.5-7.8,3.2-8.1,6.6c-0.3,3.5,5,4.8,8.2,4.6c2.4-0.2,4.1,2.2,4.9,3.3C611.6,151.5,611.6,152,611.5,152.4z"/>
			<path class="st32" d="M612.2,163.8c0,0,0.8-6,3.3-6.3c2.5-0.3,5,1.8,2.5,5.2C614.8,166.8,612.2,163.8,612.2,163.8z"/>
		</g>
		<g>
			<g>
				<path class="st33" d="M195.2,412.7l-4.7,4.7c-6.7-0.6-11.9-2.7-15.9-5.4c2.4-6,4.8-9.5,6.7-11.6
					C187.6,409.2,195.2,412.7,195.2,412.7z"/>
				<path class="st33" d="M162.3,395.2l11.2-17.5c0.7,9.9,4.1,17.3,7.9,22.7c-1.9,2.1-4.3,5.6-6.7,11.6
					C164.7,405.3,162.3,395.2,162.3,395.2z"/>
			</g>
			<path d="M141.5,530.9c0.5-5.1,2-7.4,2-7.4l4.3,0.3c6.3,2,13.9,7.1,17.2,9.4c0,0,0,0,0,0c0.6,0.4,0.3,1.3-0.4,1.4
				c-5.5,0.3-16.8-0.5-21.3-0.8c-1.1-0.1-2-1.1-1.9-2.2C141.4,531.3,141.5,531.1,141.5,530.9z"/>
			<path d="M99.5,532.3c1-1.8,2.6-4.5,3.2-5.5c0.9-1.5,2.8-2.4,2.8-2.4s2.7-1.5,3.5,0c0.5,1,1.2,4.7,1.6,7.4c0.1,0.5,0,1.1-0.3,1.5
				c-0.4,0.6-1.1,1.1-1.9,1l-7.7-0.2c-0.7,0-1.2-0.6-1.2-1.2C99.4,532.7,99.4,532.5,99.5,532.3z"/>
			<path class="st28" d="M111.4,515.7c-0.1,0.3-1.5,7.1-2.1,10.1c-0.2,0.8-0.9,1.4-1.8,1.4c-0.5,0-1-0.1-1.6-0.1c-1-0.1-1.8-1-1.8-2
				c-0.1-2.6-0.1-7.6,0.8-9.6C106.3,512.8,111.4,515.7,111.4,515.7z"/>
			<path class="st28" d="M142.6,517.7c0.6,0-0.2,3.1,0.7,6.2c0.2,0.7,0.7,1.2,1.4,1.2c0.5,0,1,0,1.6,0c0.8-0.1,1.5-0.7,1.6-1.6
				l0.7-8L142.6,517.7z"/>
			<path class="st34" d="M159.5,432.9c-0.3,1.3-9.8,56.7-10.3,85.3c0,0.5-0.4,0.9-0.8,0.9c-1.2,0.2-3.6,0.4-5.8,0
				c-0.3-0.1-0.5-0.3-0.6-0.6c-0.3-5.3-3-50.5,0.3-71.7c0,0-27,56.8-31.1,72.5c-0.1,0.4-0.4,0.6-0.8,0.6c-1.2-0.1-3.6-0.3-5.5-1
				c-0.7-0.3-1.1-1-0.9-1.7c2.3-9.4,18.3-73.9,29.2-88.2L159.5,432.9z"/>
			
				<linearGradient id="SVGID_25_" gradientUnits="userSpaceOnUse" x1="402.5017" y1="390.9677" x2="404.1288" y2="417.2719" gradientTransform="matrix(1 0 0 1 -261.8604 0)">
				<stop  offset="0" style="stop-color:#09005D"/>
				<stop  offset="1" style="stop-color:#1A0F91"/>
			</linearGradient>
			<path class="st35" d="M142.2,447.1c-0.1,0-0.2,0-0.2-0.1c-0.1-0.1-0.1-0.4,0-0.5l3.6-3.7c0.1-0.1,0.4-0.1,0.5,0
				c0.1,0.1,0.1,0.4,0,0.5l-3.6,3.7C142.4,447.1,142.3,447.1,142.2,447.1z"/>
			<path class="st36" d="M174.9,363.6c-6.9-1.8-19.7-4.7-29.9-4.1c-2.3,0.1-4.2,2-4.3,4.3c-1.5,27.1-3.6,51.2-7.6,65.2
				c8.9,3.5,17.7,5.2,26.4,3.9c6.5-14,12.2-30.1,17.1-48.4c0,0,2.9-14.6,0.1-19.5C176.2,364.3,175.6,363.8,174.9,363.6z"/>
			<path class="st32" d="M158.2,344.6c0,0-1.8,10.4-2.3,15.3c-0.1,0.8,0.3,1.5,1,1.9c1.9,1,6,2.6,10.4,1.1c0.7-0.2,1.2-0.9,1.2-1.7
				l-0.3-13.9L158.2,344.6z"/>
			<path class="st28" d="M169.6,333c0,0,3.4,7.8,3.6,11.8c0.2,4.1,1.1,6.7-3.6,7.5c-4.7,0.8-8.7-1.5-10.8-5.6c0,0-3.4-6.2-2.6-8.8
				C157,335.4,169.6,333,169.6,333z"/>
			<path d="M160.4,343.9h0.6c0,0-2.5-5-0.3-5.9c2.2-0.9,10.7-2.6,12.5-5.7c1.8-2.9,0.2-6.7-2.2-7.7c-0.1-0.1-0.3,0-0.4,0.1l-0.2,0.4
				c-0.1,0.3-0.5,0.2-0.6-0.1l0,0c-0.1-0.3-0.4-0.3-0.6-0.1c-0.6,0.9-2.1,2.4-6.2,3.1c-5.8,1.1-9.6,3.4-9.7,7.4
				c0,0.3-0.3,0.4-0.5,0.3c-0.4-0.3-1.1-0.4-2,0.4c-1.6,1.3-0.9,4.8,2.6,7.7c0.2,0.1,0.2,0.4,0,0.5c-0.6,0.4-1.6,1.4,0.9,2.7
				c2.5,1.3,4,1.2,4.5,1c0.2,0,0.3-0.2,0.2-0.3l-0.2-3.6c0-0.2,0.1-0.3,0.3-0.3H160.4z"/>
			<path class="st28" d="M160.6,344.6c0,0-1.3-5-3.5-3.6c-2.2,1.4,1.2,5.6,2.9,5.7L160.6,344.6z"/>
			<g>
				<g>
					<path class="st1" d="M88.5,425.3l-4.6,1.2c-7.8,2-13.1,7.9-11.8,13.1l1.6,6.3c1.3,5.3,8.8,8,16.6,6l4.6-1.2
						c0.3-0.1,0.6-0.2,0.9-0.2l133.7-40l-3.5-13.7L89.4,425C89.1,425.1,88.8,425.2,88.5,425.3z M90.4,431.5
						c5.9-1.5,11.4,0.1,12.3,3.6c0.9,3.5-3.2,7.5-9.1,9c-5.9,1.5-11.4-0.1-12.3-3.6C80.5,437,84.5,433,90.4,431.5z"/>
				</g>
				<path class="st1" d="M270.5,378.1l-26.5,6.7c-1.9,0.5-3.4,1.8-4.2,3.6l-4,9.1c-1.1,2.6-0.4,5.7,1.9,7.4l7.8,6.2
					c1.5,1.2,3.5,1.6,5.4,1.2l26.5-6.7c4-1,7.4,3.2,5.5,6.8c-4.5,8.8-12.8,15.7-23.3,18.3c-19,4.8-35.9-6.7-40.5-25
					c-4.6-18.3,4.7-36.5,23.7-41.3c10.5-2.7,21.1-0.5,29.2,5.1C275.5,371.8,274.5,377.1,270.5,378.1z"/>
				<linearGradient id="SVGID_26_" gradientUnits="userSpaceOnUse" x1="72.4577" y1="410.1209" x2="284.15" y2="410.1209">
					<stop  offset="0" style="stop-color:#002FF5"/>
					<stop  offset="0.1894" style="stop-color:#003FF5"/>
					<stop  offset="0.5594" style="stop-color:#0069F4"/>
					<stop  offset="1" style="stop-color:#00A2F4"/>
				</linearGradient>
				<path class="st37" d="M278.1,408.1l-26.5,6.7c-1.9,0.5-3.9,0.1-5.4-1.2l-7.8-6.2c-2.2-1.8-3-4.8-1.9-7.4l4-9.1
					c0.8-1.8,2.3-3.1,4.2-3.6l26.5-6.7c4-1,5-6.3,1.6-8.6c-8.1-5.6-18.7-7.7-29.2-5.1c-16.3,4.1-25.5,18-24.9,33.4L89.9,427
					c-0.3,0.1-0.6,0.1-0.9,0.2l-4.6,1.2c-7.8,2-13.1,7.9-11.8,13.1l1.6,6.3c1.3,5.3,8.8,8,16.6,6l4.6-1.2c0.3-0.1,0.6-0.2,0.9-0.2
					l125.8-37.6c6.6,14.4,21.6,22.7,38.2,18.5c10.5-2.7,18.8-9.6,23.3-18.3C285.5,411.2,282.1,407.1,278.1,408.1z M94.2,446.2
					c-5.9,1.5-11.4-0.1-12.3-3.6c-0.9-3.5,3.2-7.5,9.1-9c5.9-1.5,11.4,0.1,12.3,3.6C104.1,440.6,100,444.7,94.2,446.2z"/>
			</g>
			<g>
				<path class="st36" d="M122.7,399.7c-3.4,9.6-1.5,19.9-1.5,19.9l-4.5,1.2c0,0-5.8-6.9-4.5-22.3
					C116.4,397.8,120.3,398.8,122.7,399.7z"/>
				<path class="st36" d="M112.2,398.5c0.2-1.7,0.4-3.6,0.7-5.5c3.1-17,24.8-30.1,30-32.9c0.5-0.3,1.1,0.1,1,0.6l-0.7,23.1
					c-12.1,1.6-17.9,8.6-20.5,15.9C120.3,398.8,116.4,397.8,112.2,398.5z"/>
			</g>
			<path class="st28" d="M204.8,421.2c0.8-0.2,1.5-0.8,1.9-1.6c0.7-1.6,1.5-4-0.2-4.8c-2.5-1.1-7,3.5-7,3.5l-2.2,3.6l-2,1
				C197.1,423.3,200.7,422.4,204.8,421.2z"/>
			<path class="st28" d="M120.9,417.3h5.6c0,0-4.5,2.7-4.7,5.6c-0.2,2.9,1.8,8.8,2.7,10.4c1,1.8-12.6-2.6-7.8-16H120.9z"/>
		</g>
	</g>
</g>
</svg>
