<?xml version="1.0" encoding="utf-8"?>
<!-- Generator: Adobe Illustrator 24.1.0, SVG Export Plug-In . SVG Version: 6.00 Build 0)  -->
<svg version="1.1" xmlns="http://www.w3.org/2000/svg" xmlns:xlink="http://www.w3.org/1999/xlink" x="0px" y="0px"
	 viewBox="0 0 790 740" style="enable-background:new 0 0 790 740;" xml:space="preserve">
<style type="text/css">
	.st0{fill:url(#Rectangle_1259-2_1_);}
	.st1{enable-background:new    ;}
	.st2{fill:#FFFFFF;}
	.st3{fill:url(#Rectangle_2251_1_);}
	.st4{fill:none;stroke:#F8F7FF;stroke-miterlimit:10;}
	.st5{fill:none;stroke:#707070;stroke-miterlimit:10;}
	.st6{fill:#DDE6FF;}
	.st7{fill:#D8E6FE;}
	.st8{fill:#6198FA;}
	.st9{fill:url(#Rectangle_2260_1_);}
	.st10{fill:#F8F7FF;}
	.st11{fill:url(#Rectangle_2266_1_);}
	.st12{fill:url(#Rectangle_2267_1_);}
	.st13{fill:#FFBF99;}
	.st14{fill:#1E1E1E;}
	.st15{fill:#F79F03;}
	.st16{fill:#FCBE42;}
	.st17{fill:url(#Path_6482_1_);}
	.st18{fill:#DE151F;}
	.st19{fill:url(#Path_6489_1_);}
	.st20{fill:url(#Path_6490_1_);}
	.st21{fill:url(#Path_6491_1_);}
</style>
<g id="Layer_1">
</g>
<g id="Layer_2">
	<g id="Group_3468" transform="translate(-245 -133)">
		<g transform="matrix(1, 0, 0, 1, 245, 133)">
			
				<linearGradient id="Rectangle_1259-2_1_" gradientUnits="userSpaceOnUse" x1="203.0868" y1="921.1906" x2="203.0868" y2="920.1906" gradientTransform="matrix(580 0 0 -740 -117500.3594 681681.0625)">
				<stop  offset="0" style="stop-color:#3054D4"/>
				<stop  offset="1" style="stop-color:#062684"/>
			</linearGradient>
			<path id="Rectangle_1259-2" class="st0" d="M20,0h540c11,0,20,9,20,20v700c0,11-9,20-20,20H20c-11,0-20-9-20-20V20C0,9,9,0,20,0z
				"/>
		</g>
		<g id="Group_2810" transform="translate(370 -1208)">
			<g class="st1">
				<path class="st2" d="M-78.8,1451l-3.8-5.4c-0.4,0-0.9,0.1-1.3,0.1h-4.5v5.3h-1.8v-16.8h6.3c2.1,0,3.8,0.5,5,1.5
					c1.2,1,1.8,2.4,1.8,4.2c0,1.3-0.3,2.4-1,3.3c-0.7,0.9-1.6,1.6-2.8,2l4.1,5.8H-78.8z M-80.2,1443.1c0.9-0.7,1.3-1.8,1.3-3.1
					c0-1.4-0.4-2.4-1.3-3.1c-0.9-0.7-2.2-1.1-3.8-1.1h-4.5v8.4h4.5C-82.4,1444.2-81.1,1443.8-80.2,1443.1z"/>
				<path class="st2" d="M-58.6,1449.5v1.5h-11.9v-16.8H-59v1.5h-9.7v6h8.7v1.5h-8.7v6.2H-58.6z"/>
				<path class="st2" d="M-41.5,1446.5h-9.4l-2,4.5h-1.8l7.7-16.8h1.8l7.7,16.8h-1.9L-41.5,1446.5z M-42.2,1445.1l-4-9l-4,9H-42.2z"
					/>
				<path class="st2" d="M-21.1,1435.7c1.2,1,1.8,2.4,1.8,4.2c0,1.8-0.6,3.2-1.8,4.2c-1.2,1-2.9,1.5-5,1.5h-4.5v5.3h-1.8v-16.8h6.3
					C-24,1434.2-22.3,1434.7-21.1,1435.7z M-22.4,1443c0.9-0.7,1.3-1.8,1.3-3.1c0-1.4-0.4-2.4-1.3-3.1c-0.9-0.7-2.2-1.1-3.8-1.1
					h-4.5v8.4h4.5C-24.5,1444.1-23.3,1443.8-22.4,1443z"/>
				<path class="st2" d="M-0.9,1435.7h-5.9v-1.5H6.8v1.5H0.9v15.3h-1.8V1435.7z"/>
				<path class="st2" d="M26.1,1434.2v16.8h-1.8v-7.8H13.8v7.8H12v-16.8h1.8v7.5h10.5v-7.5H26.1z"/>
				<path class="st2" d="M45.8,1449.5v1.5H34v-16.8h11.5v1.5h-9.7v6h8.7v1.5h-8.7v6.2H45.8z"/>
				<path class="st2" d="M61.1,1434.2h6.8c1.8,0,3.3,0.4,4.7,1.1c1.4,0.7,2.4,1.7,3.2,3c0.8,1.3,1.1,2.7,1.1,4.4
					c0,1.6-0.4,3.1-1.1,4.4c-0.8,1.3-1.8,2.3-3.2,3c-1.4,0.7-2.9,1.1-4.7,1.1h-6.8V1434.2z M67.8,1449.5c1.5,0,2.8-0.3,3.9-0.9
					s2-1.4,2.6-2.4c0.6-1,0.9-2.2,0.9-3.6c0-1.3-0.3-2.5-0.9-3.6c-0.6-1-1.5-1.8-2.6-2.4s-2.4-0.9-3.9-0.9h-5v13.7H67.8z"/>
				<path class="st2" d="M83.3,1434.2h1.8v16.8h-1.8V1434.2z"/>
				<path class="st2" d="M106.7,1434.2l-7.4,16.8h-1.8l-7.4-16.8H92l6.4,14.6l6.5-14.6H106.7z"/>
				<path class="st2" d="M111.6,1434.2h1.8v16.8h-1.8V1434.2z"/>
				<path class="st2" d="M121.2,1434.2h6.8c1.8,0,3.3,0.4,4.7,1.1c1.4,0.7,2.4,1.7,3.2,3c0.8,1.3,1.1,2.7,1.1,4.4
					c0,1.6-0.4,3.1-1.1,4.4c-0.8,1.3-1.8,2.3-3.2,3c-1.4,0.7-2.9,1.1-4.7,1.1h-6.8V1434.2z M128,1449.5c1.5,0,2.8-0.3,3.9-0.9
					s2-1.4,2.6-2.4c0.6-1,0.9-2.2,0.9-3.6c0-1.3-0.3-2.5-0.9-3.6c-0.6-1-1.5-1.8-2.6-2.4s-2.4-0.9-3.9-0.9h-5v13.7H128z"/>
				<path class="st2" d="M155.3,1449.5v1.5h-11.9v-16.8H155v1.5h-9.7v6h8.7v1.5h-8.7v6.2H155.3z"/>
				<path class="st2" d="M175.9,1434.2v16.8h-1.5l-10.8-13.6v13.6h-1.8v-16.8h1.5l10.8,13.6v-13.6H175.9z"/>
				<path class="st2" d="M183.8,1434.2h6.8c1.8,0,3.3,0.4,4.7,1.1c1.4,0.7,2.4,1.7,3.2,3c0.8,1.3,1.1,2.7,1.1,4.4
					c0,1.6-0.4,3.1-1.1,4.4c-0.8,1.3-1.8,2.3-3.2,3c-1.4,0.7-2.9,1.1-4.7,1.1h-6.8V1434.2z M190.6,1449.5c1.5,0,2.8-0.3,3.9-0.9
					s2-1.4,2.6-2.4c0.6-1,0.9-2.2,0.9-3.6c0-1.3-0.3-2.5-0.9-3.6c-0.6-1-1.5-1.8-2.6-2.4s-2.4-0.9-3.9-0.9h-5v13.7H190.6z"/>
				<path class="st2" d="M207.1,1450.5c-1.1-0.4-2-0.9-2.7-1.6l0.7-1.4c0.6,0.6,1.4,1.1,2.4,1.5c1,0.4,2,0.6,3.1,0.6
					c1.5,0,2.6-0.3,3.4-0.8s1.1-1.3,1.1-2.1c0-0.7-0.2-1.2-0.6-1.6s-0.9-0.7-1.5-0.9c-0.6-0.2-1.4-0.5-2.5-0.7
					c-1.3-0.3-2.3-0.6-3-0.9c-0.8-0.3-1.4-0.7-1.9-1.4c-0.5-0.6-0.8-1.4-0.8-2.5c0-0.8,0.2-1.6,0.7-2.3c0.4-0.7,1.1-1.2,2.1-1.7
					c0.9-0.4,2.1-0.6,3.5-0.6c1,0,1.9,0.1,2.8,0.4s1.7,0.6,2.4,1.1l-0.6,1.4c-0.7-0.5-1.5-0.8-2.3-1c-0.8-0.2-1.6-0.3-2.4-0.3
					c-1.5,0-2.6,0.3-3.3,0.9c-0.7,0.6-1.1,1.3-1.1,2.2c0,0.7,0.2,1.2,0.6,1.6c0.4,0.4,0.9,0.7,1.5,0.9c0.6,0.2,1.4,0.5,2.5,0.7
					c1.2,0.3,2.2,0.6,3,0.9c0.8,0.3,1.4,0.7,1.9,1.3c0.5,0.6,0.8,1.4,0.8,2.4c0,0.8-0.2,1.6-0.7,2.3c-0.5,0.7-1.2,1.2-2.1,1.7
					c-0.9,0.4-2.1,0.6-3.5,0.6C209.4,1451.1,208.2,1450.9,207.1,1450.5z"/>
				<path class="st2" d="M234.7,1450c-1.4-0.7-2.4-1.8-3.2-3.1c-0.8-1.3-1.1-2.8-1.1-4.4c0-1.6,0.4-3.1,1.1-4.4s1.8-2.3,3.2-3.1
					c1.4-0.7,2.9-1.1,4.5-1.1s3.2,0.4,4.5,1.1s2.4,1.8,3.2,3.1c0.8,1.3,1.2,2.8,1.2,4.4c0,1.6-0.4,3.1-1.2,4.4
					c-0.8,1.3-1.8,2.3-3.2,3.1s-2.8,1.1-4.5,1.1S236.1,1450.8,234.7,1450z M242.8,1448.7c1.1-0.6,1.9-1.4,2.5-2.5
					c0.6-1.1,0.9-2.3,0.9-3.6c0-1.3-0.3-2.5-0.9-3.6c-0.6-1.1-1.4-1.9-2.5-2.5s-2.3-0.9-3.6-0.9s-2.5,0.3-3.6,0.9s-1.9,1.4-2.5,2.5
					s-0.9,2.3-0.9,3.6c0,1.3,0.3,2.5,0.9,3.6c0.6,1.1,1.5,1.9,2.5,2.5s2.3,0.9,3.6,0.9S241.8,1449.3,242.8,1448.7z"/>
				<path class="st2" d="M256.2,1435.7v6.6h8.7v1.5h-8.7v7.1h-1.8v-16.8h11.5v1.5H256.2z"/>
			</g>
			<g class="st1">
				<path class="st2" d="M-83.3,1498.6c-2.6-1.4-4.6-3.3-6.1-5.7s-2.2-5.2-2.2-8.3s0.7-5.8,2.2-8.3s3.5-4.3,6.1-5.7
					c2.6-1.4,5.5-2,8.7-2c2.8,0,5.4,0.5,7.6,1.5s4.1,2.4,5.6,4.3l-5.5,5c-2-2.4-4.4-3.6-7.3-3.6c-1.7,0-3.2,0.4-4.5,1.1
					c-1.3,0.7-2.3,1.8-3,3.1c-0.7,1.3-1.1,2.9-1.1,4.6c0,1.7,0.4,3.3,1.1,4.6c0.7,1.3,1.7,2.4,3,3.1c1.3,0.7,2.8,1.1,4.5,1.1
					c2.8,0,5.3-1.2,7.3-3.6l5.5,5c-1.5,1.9-3.4,3.3-5.6,4.3s-4.8,1.5-7.6,1.5C-77.8,1500.6-80.7,1499.9-83.3,1498.6z"/>
				<path class="st2" d="M-47,1498.5c-2.6-1.4-4.6-3.3-6.1-5.7c-1.5-2.4-2.2-5.2-2.2-8.2c0-3,0.7-5.8,2.2-8.2
					c1.5-2.4,3.5-4.3,6.1-5.7s5.5-2.1,8.8-2.1c3.3,0,6.2,0.7,8.8,2.1c2.6,1.4,4.6,3.3,6.1,5.7c1.5,2.4,2.2,5.2,2.2,8.2
					c0,3.1-0.7,5.8-2.2,8.2c-1.5,2.4-3.5,4.3-6.1,5.7c-2.6,1.4-5.5,2.1-8.8,2.1C-41.4,1500.6-44.4,1499.9-47,1498.5z M-34,1492.3
					c1.3-0.7,2.3-1.8,3-3.1c0.7-1.3,1.1-2.9,1.1-4.6c0-1.7-0.4-3.3-1.1-4.6c-0.7-1.3-1.7-2.4-3-3.1c-1.3-0.7-2.7-1.1-4.2-1.1
					c-1.6,0-3,0.4-4.2,1.1c-1.3,0.7-2.3,1.8-3,3.1c-0.7,1.3-1.1,2.9-1.1,4.6c0,1.7,0.4,3.3,1.1,4.6c0.7,1.3,1.7,2.4,3,3.1
					c1.3,0.7,2.7,1.1,4.2,1.1C-36.6,1493.4-35.2,1493-34,1492.3z"/>
				<path class="st2" d="M-12.1,1469.2h8.7v23.9h14.7v6.9h-23.4V1469.2z"/>
				<path class="st2" d="M19.2,1469.2h8.7v23.9h14.7v6.9H19.2V1469.2z"/>
				<path class="st2" d="M71.4,1494h-13l-2.4,6H47l13.6-30.8h8.6l13.6,30.8h-9.1L71.4,1494z M68.8,1487.6l-4-9.9l-4,9.9H68.8z"/>
				<path class="st2" d="M117.5,1486.8c1,1.3,1.5,2.9,1.5,4.7c0,2.7-1.1,4.8-3.3,6.2c-2.2,1.5-5.3,2.2-9.4,2.2H89.7v-30.8h15.8
					c3.9,0,6.9,0.7,9,2.2c2.1,1.5,3.1,3.4,3.1,5.9c0,1.5-0.4,2.8-1.1,3.9c-0.7,1.2-1.7,2.1-3.1,2.8
					C115.2,1484.6,116.5,1485.5,117.5,1486.8z M98.4,1475.5v5.9h6c2.9,0,4.4-1,4.4-3c0-2-1.5-2.9-4.4-2.9H98.4z M110.2,1490.6
					c0-2.1-1.5-3.1-4.6-3.1h-7.3v6.2h7.3C108.7,1493.7,110.2,1492.7,110.2,1490.6z"/>
				<path class="st2" d="M134.7,1498.5c-2.6-1.4-4.6-3.3-6.1-5.7c-1.5-2.4-2.2-5.2-2.2-8.2c0-3,0.7-5.8,2.2-8.2
					c1.5-2.4,3.5-4.3,6.1-5.7s5.5-2.1,8.8-2.1c3.3,0,6.2,0.7,8.8,2.1c2.6,1.4,4.6,3.3,6.1,5.7c1.5,2.4,2.2,5.2,2.2,8.2
					c0,3.1-0.7,5.8-2.2,8.2c-1.5,2.4-3.5,4.3-6.1,5.7c-2.6,1.4-5.5,2.1-8.8,2.1C140.2,1500.6,137.3,1499.9,134.7,1498.5z
					 M147.7,1492.3c1.3-0.7,2.3-1.8,3-3.1c0.7-1.3,1.1-2.9,1.1-4.6c0-1.7-0.4-3.3-1.1-4.6c-0.7-1.3-1.7-2.4-3-3.1
					c-1.3-0.7-2.7-1.1-4.2-1.1c-1.6,0-3,0.4-4.2,1.1c-1.3,0.7-2.3,1.8-3,3.1c-0.7,1.3-1.1,2.9-1.1,4.6c0,1.7,0.4,3.3,1.1,4.6
					c0.7,1.3,1.7,2.4,3,3.1c1.3,0.7,2.7,1.1,4.2,1.1C145.1,1493.4,146.5,1493,147.7,1492.3z"/>
				<path class="st2" d="M183.1,1491.8h-4.8v8.2h-8.7v-30.8h14.1c2.8,0,5.2,0.5,7.3,1.4c2.1,0.9,3.6,2.2,4.8,4
					c1.1,1.7,1.7,3.7,1.7,6c0,2.2-0.5,4.2-1.6,5.8c-1,1.7-2.5,3-4.5,3.9l6.6,9.7h-9.3L183.1,1491.8z M187.2,1477.3
					c-0.9-0.8-2.3-1.2-4-1.2h-4.8v9h4.8c1.8,0,3.1-0.4,4-1.2c0.9-0.8,1.4-1.9,1.4-3.3C188.6,1479.2,188.1,1478,187.2,1477.3z"/>
				<path class="st2" d="M227.2,1494h-13l-2.4,6h-8.9l13.6-30.8h8.6l13.6,30.8h-9.1L227.2,1494z M224.6,1487.6l-4-9.9l-4,9.9H224.6z
					"/>
				<path class="st2" d="M250.5,1476.1h-9.5v-6.9h27.6v6.9h-9.4v23.9h-8.7V1476.1z"/>
				<path class="st2" d="M276.3,1469.2h8.7v30.8h-8.7V1469.2z"/>
				<path class="st2" d="M326.8,1469.2l-13.2,30.8H305l-13.2-30.8h9.4l8.4,20.1l8.5-20.1H326.8z"/>
				<path class="st2" d="M357.7,1493.3v6.7H333v-30.8h24.2v6.7h-15.5v5.2h13.7v6.5h-13.7v5.6H357.7z"/>
			</g>
			<g class="st1">
				<path class="st2" d="M-41.6,1523.2l-10,30.8h-9.3l-5.9-18.7L-73,1554h-9.3l-10-30.8h9l6.2,19.7l6.5-19.7h8l6.2,19.8l6.5-19.8
					H-41.6z"/>
				<path class="st2" d="M-27.7,1552.5c-2.6-1.4-4.6-3.3-6.1-5.7c-1.5-2.4-2.2-5.2-2.2-8.2c0-3,0.7-5.8,2.2-8.2
					c1.5-2.4,3.5-4.3,6.1-5.7s5.5-2.1,8.8-2.1c3.3,0,6.2,0.7,8.8,2.1c2.6,1.4,4.6,3.3,6.1,5.7c1.5,2.4,2.2,5.2,2.2,8.2
					c0,3.1-0.7,5.8-2.2,8.2c-1.5,2.4-3.5,4.3-6.1,5.7c-2.6,1.4-5.5,2.1-8.8,2.1C-22.2,1554.6-25.1,1553.9-27.7,1552.5z
					 M-14.7,1546.3c1.3-0.7,2.3-1.8,3-3.1c0.7-1.3,1.1-2.9,1.1-4.6c0-1.7-0.4-3.3-1.1-4.6c-0.7-1.3-1.7-2.4-3-3.1
					c-1.3-0.7-2.7-1.1-4.2-1.1c-1.6,0-3,0.4-4.2,1.1c-1.3,0.7-2.3,1.8-3,3.1c-0.7,1.3-1.1,2.9-1.1,4.6c0,1.7,0.4,3.3,1.1,4.6
					c0.7,1.3,1.7,2.4,3,3.1c1.3,0.7,2.7,1.1,4.2,1.1C-17.4,1547.4-16,1547-14.7,1546.3z"/>
				<path class="st2" d="M20.6,1545.8h-4.8v8.2H7.1v-30.8h14.1c2.8,0,5.2,0.5,7.3,1.4c2.1,0.9,3.6,2.2,4.8,4c1.1,1.7,1.7,3.7,1.7,6
					c0,2.2-0.5,4.2-1.6,5.8c-1,1.7-2.5,3-4.5,3.9l6.6,9.7h-9.3L20.6,1545.8z M24.7,1531.3c-0.9-0.8-2.3-1.2-4-1.2h-4.8v9h4.8
					c1.8,0,3.1-0.4,4-1.2c0.9-0.8,1.4-1.9,1.4-3.3C26.1,1533.2,25.7,1532,24.7,1531.3z"/>
				<path class="st2" d="M56,1542.8l-3.3,3.5v7.7h-8.6v-30.8h8.6v12.8l11.9-12.8h9.6l-12.6,13.6l13.2,17.2H64.8L56,1542.8z"/>
				<path class="st2" d="M81.6,1523.2h8.7v30.8h-8.7V1523.2z"/>
				<path class="st2" d="M130.2,1523.2v30.8H123l-13.6-16.4v16.4h-8.5v-30.8h7.2l13.6,16.4v-16.4H130.2z"/>
				<path class="st2" d="M161.4,1537.9h7.7v12.8c-1.8,1.3-3.8,2.2-6.1,2.9c-2.3,0.7-4.6,1-6.9,1c-3.2,0-6.1-0.7-8.7-2
					c-2.6-1.4-4.6-3.3-6.1-5.7s-2.2-5.2-2.2-8.3s0.7-5.8,2.2-8.3s3.5-4.3,6.1-5.7c2.6-1.4,5.6-2,8.8-2c2.9,0,5.5,0.5,7.7,1.5
					s4.2,2.4,5.7,4.2l-5.5,5c-2.1-2.3-4.6-3.4-7.5-3.4c-2.6,0-4.8,0.8-6.4,2.4s-2.4,3.7-2.4,6.4c0,1.7,0.4,3.2,1.1,4.6
					c0.7,1.3,1.8,2.4,3.1,3.1c1.3,0.7,2.8,1.1,4.5,1.1c1.7,0,3.2-0.3,4.7-1V1537.9z"/>
			</g>
		</g>
		<g id="Group_2957" transform="translate(-995.478 -90)">
			<g id="Group_2951">
				<g id="Group_2936">
					
						<linearGradient id="Rectangle_2251_1_" gradientUnits="userSpaceOnUse" x1="1441.2996" y1="1145.1792" x2="1442.2996" y2="1145.1792" gradientTransform="matrix(110 0 0 -84 -157020.8125 96734.6094)">
						<stop  offset="0" style="stop-color:#002FF5"/>
						<stop  offset="0.189" style="stop-color:#003EF4"/>
						<stop  offset="0.559" style="stop-color:#0068F4"/>
						<stop  offset="1" style="stop-color:#00A2F4"/>
					</linearGradient>
					<path id="Rectangle_2251" class="st3" d="M1527.1,497.6h100c2.8,0,5,2.2,5,5v74c0,2.8-2.2,5-5,5h-100c-2.8,0-5-2.2-5-5v-74
						C1522.1,499.8,1524.4,497.6,1527.1,497.6z"/>
					<circle id="Ellipse_52" class="st4" cx="1577.1" cy="513.8" r="11.4"/>
					<path id="Rectangle_2252" class="st4" d="M1546.5,552.5h61.3c2.8,0,5,2.2,5,5v0.7c0,2.8-2.2,5-5,5h-61.3c-2.8,0-5-2.2-5-5v-0.7
						C1541.5,554.8,1543.7,552.5,1546.5,552.5z"/>
					<path id="Rectangle_2253" class="st4" d="M1546.5,536.4h61.3c2.8,0,5,2.2,5,5v0.7c0,2.8-2.2,5-5,5h-61.3c-2.8,0-5-2.2-5-5v-0.7
						C1541.5,538.6,1543.7,536.4,1546.5,536.4z"/>
					<path id="Path_6469" class="st5" d="M2022.5,787.9"/>
				</g>
				<path id="Rectangle_2254" class="st6" d="M1571,644h260.4c2.8,0,5,2.2,5,5v28c0,2.8-2.2,5-5,5H1571c-2.8,0-5-2.2-5-5v-28
					C1566,646.2,1568.2,644,1571,644z"/>
				<path id="Rectangle_2255" class="st6" d="M1571,698.1h260.4c2.8,0,5,2.2,5,5v28c0,2.8-2.2,5-5,5H1571c-2.8,0-5-2.2-5-5v-28
					C1566,700.3,1568.2,698.1,1571,698.1z"/>
				<path id="Rectangle_2256" class="st7" d="M1628,545.9h288.6c5.5,0,10,4.5,10,10v390l0,0H1618l0,0v-390
					C1618,550.4,1622.5,545.9,1628,545.9z"/>
				<path id="Rectangle_2257" class="st8" d="M1610.2,563h288.6c5.5,0,10,4.5,10,10v390l0,0h-308.6l0,0V573
					C1600.2,567.5,1604.7,563,1610.2,563z"/>
				<path id="Rectangle_2258" class="st2" d="M1561,649h260.4c2.8,0,5,2.2,5,5v28c0,2.8-2.2,5-5,5H1561c-2.8,0-5-2.2-5-5v-28
					C1556,651.3,1558.2,649,1561,649z"/>
				<path id="Rectangle_2259" class="st2" d="M1561,703.2h260.4c2.8,0,5,2.2,5,5v28c0,2.8-2.2,5-5,5H1561c-2.8,0-5-2.2-5-5v-28
					C1556,705.4,1558.2,703.2,1561,703.2z"/>
				<g id="Group_2938">
					
						<linearGradient id="Rectangle_2260_1_" gradientUnits="userSpaceOnUse" x1="1442.9836" y1="1148.1449" x2="1443.4166" y2="1144.528" gradientTransform="matrix(308.578 0 0 -48.742 -443585.75 56464.9141)">
						<stop  offset="0" style="stop-color:#021B79"/>
						<stop  offset="1" style="stop-color:#0575E6"/>
					</linearGradient>
					<path id="Rectangle_2260" class="st9" d="M1610.2,563h288.6c5.5,0,10,4.5,10,10v38.7l0,0h-308.6l0,0V573
						C1600.2,567.5,1604.7,563,1610.2,563z"/>
					<g id="Group_2937">
						<circle id="Ellipse_53" class="st2" cx="1883.8" cy="587.4" r="4.1"/>
						<circle id="Ellipse_54" class="st2" cx="1864.7" cy="587.4" r="4.1"/>
						<circle id="Ellipse_55" class="st2" cx="1845.6" cy="587.4" r="4.1"/>
					</g>
				</g>
				<g id="Group_2939">
					<rect id="Rectangle_2261" x="1623.7" y="766.8" class="st10" width="123.8" height="4.9"/>
					<rect id="Rectangle_2262" x="1623.7" y="786.2" class="st10" width="123.8" height="4.9"/>
					<rect id="Rectangle_2263" x="1623.7" y="805.6" class="st10" width="123.8" height="4.9"/>
					<rect id="Rectangle_2264" x="1623.7" y="825.1" class="st10" width="123.8" height="4.9"/>
					<rect id="Rectangle_2265" x="1623.7" y="844.5" class="st10" width="100" height="4.9"/>
				</g>
				<g id="Group_2948">
					<g id="Group_2940">
						
							<linearGradient id="Rectangle_2266_1_" gradientUnits="userSpaceOnUse" x1="1441.49" y1="1145.4623" x2="1441.899" y2="1144.2372" gradientTransform="matrix(104.19 0 0 -99.854 -148241.5938 115235.8281)">
							<stop  offset="0" style="stop-color:#002FF5"/>
							<stop  offset="0.189" style="stop-color:#003EF4"/>
							<stop  offset="0.559" style="stop-color:#0068F4"/>
							<stop  offset="1" style="stop-color:#00A2F4"/>
						</linearGradient>
						<rect id="Rectangle_2266" x="1914.7" y="863.1" class="st11" width="104.2" height="99.9"/>
						
							<linearGradient id="Rectangle_2267_1_" gradientUnits="userSpaceOnUse" x1="1448.3884" y1="1142.6929" x2="1448.5055" y2="1141.1149" gradientTransform="matrix(-53.799 0 0 99.859 79812.0547 -113135.9766)">
							<stop  offset="0" style="stop-color:#002FF5"/>
							<stop  offset="0.189" style="stop-color:#003EF4"/>
							<stop  offset="0.559" style="stop-color:#0068F4"/>
							<stop  offset="1" style="stop-color:#00A2F4"/>
						</linearGradient>
						<rect id="Rectangle_2267" x="1860.9" y="863.1" class="st12" width="53.8" height="99.9"/>
					</g>
					<g id="Group_2947">
						<g id="Group_2944">
							<path id="Path_6470" d="M1939.2,714c0,0,9.4-11.9,7-21.8s-8.5-4.5-14.2-8.7c-5-3.7-30.4-16.2-30.4,1.7s7.1,25.1,7.1,25.1
								L1939.2,714z"/>
							<g id="Group_2941">
								<path id="Path_6471" class="st13" d="M1923.9,735.8c0.8-2.4,1.9-4,0.6-6.1c-1.4-2.3-5.1,0.2-7.5-1.2
									c-4.5-2.6-7-10.6-8.4-15.7c-0.9-3.7-1.1-7.5-0.5-11.3c0.6-3.7,1.5-7.4,2.6-11.1c13.4-5.1,24.5-4.6,33,2.6
									c-2.9,9.1-5.9,18.4-6.5,28c-0.3,5.3,1.4,9.6,2.2,14.8c0,0,8.9,4.9,8.9,15.8s-34.5,13.3-34.5,0.7
									C1913.8,741.2,1923.9,735.8,1923.9,735.8z"/>
							</g>
							<g id="Group_2942">
								<path id="Path_6472" d="M1939,711.3c0,0-3.6-5.3-2.8-15.8c0,0-7.4,1.9-6-0.4c0,0-7.6-3.6-12.2-0.6s-11.7,5.1-11,1.8
									c0.6-2.5,1.6-4.8,2.9-7c0,0,3.9-3.2,19.5-3.2s15.8,7,15.8,7L1939,711.3z"/>
								<path id="Path_6473" d="M1939.4,716.9c0,0-1.1,8.7-2.3,8.7c-1.6,0,0-11.7,0-11.7L1939.4,716.9z"/>
							</g>
							<g id="Group_2943">
								<path id="Path_6474" class="st13" d="M1936.5,709.6c-1.2,2.8-0.6,5.7,1.3,6.5s4.4-0.7,5.6-3.4s0.6-5.7-1.3-6.5
									S1937.7,706.8,1936.5,709.6z"/>
							</g>
						</g>
						<path id="Path_6475" class="st13" d="M1857.1,941.4c0,0-2,10.5-2,10.5c-0.1,1.4-0.1,4.8-0.4,6c-1.1,4.5-19.7-6.4-14.8-7.3
							c1.7-1.3,3.2-2.9,4.4-4.7c1-2.2,1.8-4.5,2.5-6.9L1857.1,941.4z"/>
						<path id="Path_6476" class="st13" d="M1814.3,940.9c0,0-2,10.5-2,10.5c-0.1,1.4-0.1,4.8-0.4,6c-1.1,4.5-19.4-5.7-14.5-6.6
							c0.4-0.1,3.3-4.1,4-5.5c1-2.2,1.8-4.5,2.5-6.9L1814.3,940.9z"/>
						<path id="Path_6477" class="st14" d="M1920.8,836.1l-55.9-13.1c0,0-25.1-6.7-31.1,1.2s-31.7,116.4-31.7,116.4
							s13.3,1.2,14.1,0.6l39-88.7l22.8,6.7c0,0,26.2,5.8,36.9-0.9S1920.8,836.1,1920.8,836.1z"/>
						<path id="Path_6478" class="st15" d="M1899.4,738.7c-0.9,0-3.3,0.9-6.8,7.6c-4.5,8.6-11.1,34.6-11.1,34.6l19.7,7.4l2.5-5.4
							l4.2-41.8C1907.8,741.1,1899.6,738.7,1899.4,738.7z"/>
						<path id="Path_6479" class="st16" d="M1939.8,735.9c2.1,0.2,4.1,0.5,5.8,0.8c12.7,2.2,13.1,2.3,13.1,2.3s-0.1,30-2.7,38.6
							s4.3,61.9,4.3,61.9l-58.4,0.8c0,0,3.7-22,1.7-29c-9-31.3-4.3-72.5-4.3-72.5c5.7-1.8,17.1-3.3,23.6-3.7
							c0.8,0.1,1.7,0.3,2.4,0.8c0.5,0.3,5.9,4.1,11.8,0.6C1938,736.1,1938.9,735.9,1939.8,735.9z"/>
						<path id="Path_6480" class="st13" d="M1959.4,743.6c-5.5-2.1-8.1,47.5-8.9,67.9c-9.7,0.9-26.5,0-30.7-0.3
							c-2-0.2-6.5-1.8-8.5-2.1c-1.6-0.3-3.2-0.4-4.8-0.2c-0.4,0.1-10.4,4.2-11.3,5.1c-1.1,1.1-4,4-3.5,5.2s5.6-3.4,5.6-3.4l2.5-1.4
							c-3.1,3-9,7-8.1,8.5c0.8,1.4,6.1-2.6,9.9-5.4c-3.2,3-7.3,8.2-6.3,9.1c0.8,0.7,5.4-5.4,10.3-7.1c1.8-0.7,3.6,1.2,5.1,1.4
							c1.2,0.3,2.5,0.4,3.7,0.2l4.9-0.5c1.4,0.1,2.7,0.3,4.1,0.6c2.1,0.5,5.6,0.9,8.3,1.6c15.5,3.8,20.7,5.6,25.5,5.6
							C1971.4,828.2,1972.3,748.4,1959.4,743.6z"/>
						<path id="Path_6481" class="st15" d="M1969.7,790.1c1-20.9,0.9-46.7-10.8-51.1c-4.6-1.7-12.7,8.7-11.2,51.5
							C1954,791,1963.1,791.5,1969.7,790.1z"/>
						
							<linearGradient id="Path_6482_1_" gradientUnits="userSpaceOnUse" x1="1433.6162" y1="1146.0818" x2="1434.6162" y2="1146.0818" gradientTransform="matrix(108.0514 0 0 -54.1168 -153893.7969 62826.6797)">
							<stop  offset="0" style="stop-color:#FFFFFF"/>
							<stop  offset="1" style="stop-color:#CCCCCC"/>
						</linearGradient>
						<path id="Path_6482" class="st17" d="M1840.2,777.3l55,3.6c1.5,0.1,2.7,1.1,3.2,2.5l14.2,42.9l30.3,2c0.9,0.1,1.5,0.8,1.4,1.7
							l0,0c-0.1,0.9-0.8,1.5-1.6,1.5c0,0,0,0,0,0l-86.3-5.7c-2.4-0.2-4.4-1.7-5.3-4l-14.6-39.5c-0.7-1.9,0.2-4,2.1-4.7
							C1839.2,777.4,1839.7,777.3,1840.2,777.3z"/>
						<path id="Path_6483" d="M1960.3,838.1l-60.9-10.6c0,0-26.3-4.1-32.4,3.8s-23.6,109.8-23.6,109.8s13.3,1.2,14.1,0.6
							c0.7-0.5,31-79,31-79l7.7,2.7c13.5,4.7,27.8,6.3,42,4.5c5.9-0.7,11.4-2,14.9-4.2C1963.7,859,1960.3,838.1,1960.3,838.1z"/>
						<g id="Group_2945">
							<path id="Path_6484" d="M1798.5,950c2.4,0.6,4.8,1.1,7.3,1.5c2.4,0.2,5.6-3.6,7.3-2.9c1.9,0.8,3,13,3,13s-30.7,1.4-38-0.6
								C1775.3,960.1,1789,953.7,1798.5,950z"/>
							<path id="Path_6485" d="M1816.1,961.6v1.4h-38.4v-2.4L1816.1,961.6z"/>
						</g>
						<g id="Group_2946">
							<path id="Path_6486" d="M1841.5,949.5c2.4,0.6,4.8,1.1,7.3,1.5c2.4,0.2,5.6-3.6,7.3-2.9c1.9,0.8,3,13,3,13s-30.7,1.4-38-0.6
								C1818.2,959.7,1831.9,953.2,1841.5,949.5z"/>
							<path id="Path_6487" d="M1859,961.1v1.4h-38.4v-2.4L1859,961.1z"/>
						</g>
					</g>
				</g>
				<g id="Group_2950">
					<circle id="Ellipse_56" class="st18" cx="1926.6" cy="545.9" r="18.1"/>
					<g id="Group_2949">
						<path id="Path_6488" class="st2" d="M1937.3,547.3h-9.5v9.2h-2.2v-9.2h-9.5v-2.1h9.5v-9.3h2.2v9.3h9.5V547.3z"/>
					</g>
				</g>
			</g>
			<g id="Group_2956">
				<g id="Group_2952">
					
						<linearGradient id="Path_6489_1_" gradientUnits="userSpaceOnUse" x1="1439.0111" y1="1146.725" x2="1440.0111" y2="1146.725" gradientTransform="matrix(50.1449 0 0 -43.739 -70678.4453 50909.6523)">
						<stop  offset="0" style="stop-color:#002FF5"/>
						<stop  offset="0.189" style="stop-color:#003EF4"/>
						<stop  offset="0.559" style="stop-color:#0068F4"/>
						<stop  offset="1" style="stop-color:#00A2F4"/>
					</linearGradient>
					<path id="Path_6489" class="st19" d="M1515.1,755l-1.6,19.9l-11.5-13l-37.1-30.7l31.6,10.1c0,0,15.6,7.6,16.3,8.7
						C1513.7,751.5,1514.5,753.2,1515.1,755z"/>
					
						<linearGradient id="Path_6490_1_" gradientUnits="userSpaceOnUse" x1="1439.8982" y1="1149.4287" x2="1440.8982" y2="1149.4287" gradientTransform="matrix(66.941 0 0 -23.792 -94923.3047 28090.2598)">
						<stop  offset="0" style="stop-color:#002FF5"/>
						<stop  offset="0.189" style="stop-color:#003EF4"/>
						<stop  offset="0.559" style="stop-color:#0068F4"/>
						<stop  offset="1" style="stop-color:#00A2F4"/>
					</linearGradient>
					<path id="Path_6490" class="st20" d="M1531.9,746.4l-66.9-15.2l50.1,23.8L1531.9,746.4z"/>
					
						<linearGradient id="Path_6491_1_" gradientUnits="userSpaceOnUse" x1="1438.1569" y1="1147.1577" x2="1439.1569" y2="1147.1577" gradientTransform="matrix(45.035 0 0 -38.564 -63302.4648 44989.4648)">
						<stop  offset="0" style="stop-color:#002FF5"/>
						<stop  offset="0.189" style="stop-color:#003EF4"/>
						<stop  offset="0.559" style="stop-color:#0068F4"/>
						<stop  offset="1" style="stop-color:#00A2F4"/>
					</linearGradient>
					<path id="Path_6491" class="st21" d="M1489.4,769.7l20.6-10.4l-45-28.2L1489.4,769.7z"/>
				</g>
				<g id="Group_2955">
					<g id="Group_2953">
						<path id="Path_6492" class="st2" d="M1522.9,766c-1.7-0.7-3.5-1.2-5.4-1.4l0.2-1.5c2,0.3,3.9,0.8,5.7,1.5L1522.9,766z"/>
					</g>
					<g id="Group_2954">
						<path id="Path_6493" class="st2" d="M1555,885c-2.7-2.5-5.2-5.3-7.4-8.2l1.2-0.9c2.2,2.9,4.6,5.6,7.3,8L1555,885z
							 M1541.8,867.3c-0.7-1.5-1.4-3.1-2-4.8c-0.7-1.8-1.3-3.8-1.8-5.7l1.4-0.4c0.5,1.9,1.1,3.8,1.7,5.6c0.6,1.6,1.2,3.1,1.9,4.6
							L1541.8,867.3z M1537.7,845.7l-1.4,0.1c-0.3-3.7-0.5-7.4-0.4-11.1l1.4,0C1537.2,838.4,1537.3,842,1537.7,845.7L1537.7,845.7z
							 M1538,823.8l-1.4-0.1c0.3-3.2,0.8-6.7,1.4-11l1.4,0.2C1538.8,817.1,1538.3,820.6,1538,823.8L1538,823.8z M1541,802l-1.4-0.2
							l0-0.1c0.5-3.6,0.7-7.2,0.5-10.8l1.4-0.1C1541.7,794.5,1541.5,798.2,1541,802L1541,802z M1537.8,780.4
							c-1.3-3.3-3.3-6.3-5.9-8.8l1-1.1c2.7,2.6,4.9,5.8,6.3,9.3L1537.8,780.4z"/>
					</g>
				</g>
			</g>
		</g>
	</g>
</g>
</svg>
