<?xml version="1.0" encoding="utf-8"?>
<!-- Generator: Adobe Illustrator 24.1.0, SVG Export Plug-In . SVG Version: 6.00 Build 0)  -->
<svg version="1.1" id="Layer_1" xmlns="http://www.w3.org/2000/svg" xmlns:xlink="http://www.w3.org/1999/xlink" x="0px" y="0px"
	 viewBox="0 0 2000 300" style="enable-background:new 0 0 2000 300;" xml:space="preserve">
<style type="text/css">
	.st0{fill:#EFEFEF;}
</style>
<path id="Path_6034" class="st0" d="M138.5,231.3c-1-2.1-1.9-4-2.9-5.8c-1-1.7-3-2.6-6.1-2.6c-3.8,0-7.7,0.5-11.4,1.4
	c-4.1,1-8.5,2-13,3s-9.1,2.1-13.8,3c-4.6,0.9-9.3,1.4-14,1.4c-10.7,0.1-21.3-2.1-31.1-6.3c-9.4-4.1-17.9-10.1-24.8-17.7
	c-7.1-8-12.6-17.3-16.1-27.4c-3.8-10.7-5.6-22.5-5.2-35.6C0.4,129,3.7,113.5,10,99C15.9,85,24.2,72.3,34.5,61.2
	c9.9-10.6,21.6-19.3,34.6-25.7c12.5-6.2,26.3-9.5,40.2-9.5c4.3-0.1,8.6,0.4,12.8,1.4c3.7,1,7.2,2,10.4,3.2c3.2,1.2,6.2,2.2,9.1,3.2
	c3,1,6.1,1.5,9.2,1.4c3.1,0,5.4-0.9,7.1-2.7c1.7-1.9,3.3-3.9,4.8-5.9L154,107h-1.4c0.6-8.8,0.4-17.6-0.6-26.4
	c-0.8-8.8-2.9-17.4-6.2-25.7c-2.9-7.4-7.5-14-13.4-19.3c-5.8-5.1-13.1-7.6-21.9-7.6c-7.7-0.1-15.1,2.5-21,7.4
	c-6.5,5.4-12,11.9-16.1,19.3c-4.9,8.6-8.8,17.7-11.5,27.2c-3.1,10.2-5.6,20.6-7.6,31.1c-2,10.6-3.6,20.9-4.6,31
	c-1.1,10.1-1.7,19-1.9,26.7c-0.2,7.5,0.1,15,1,22.5c0.7,6.4,2.3,12.8,4.8,18.7c2.1,5.1,5.4,9.5,9.7,13c4.1,3.3,9.5,4.9,16,4.9
	c5.1,0,10.2-0.8,15-2.6l14.1-90.5H85.7l0.6-2h85.1l-0.6,2h-17.6L138.5,231.3z M266.2,76.5c8-0.1,15.9,1.5,23.2,4.8
	c6.9,3.1,13,7.7,17.9,13.4c5.1,6.1,8.9,13.1,11.2,20.6c2.7,8.4,3.9,17.3,3.6,26.1c-0.4,11.8-2.7,23.4-7.1,34.3
	c-4.1,10.6-10,20.4-17.4,29c-7.1,8.2-15.6,14.9-25.2,19.9c-9.3,4.9-19.6,7.4-30.1,7.4c-7.9,0.1-15.8-1.5-23.1-4.8
	c-6.8-3.1-12.9-7.7-17.7-13.4c-5.1-6.1-8.9-13.1-11.4-20.6c-2.8-8.5-3.9-17.5-3.5-26.4c0.1-12,2.5-23.8,6.9-34.9
	c4.1-10.5,10-20.2,17.4-28.7c7-8,15.6-14.6,25.1-19.5C245.4,78.9,255.7,76.4,266.2,76.5L266.2,76.5z M242.5,229.6
	c4.4-0.8,8.4-3.5,11.8-8.1c3.9-5.4,7-11.2,9.2-17.4c2.9-7.7,5.2-15.6,6.9-23.6c1.9-8.7,3.5-17.4,4.8-26.1c1.2-8.7,2.2-17,2.9-24.9
	c0.7-8,1.1-14.8,1.3-20.6c0.2-3.9,0.1-7.9-0.3-11.8c-0.3-3.2-1-6.4-2-9.5c-0.8-2.5-2.2-4.6-4.2-6.3c-1.9-1.6-4.3-2.4-6.8-2.3
	c-4.4,0-8.4,2.3-11.8,6.9c-3.9,5.5-7.1,11.5-9.4,17.9c-3,8-5.3,16.2-7.1,24.5c-1.9,9-3.6,18.1-4.9,27.1c-1.3,9-2.4,17.5-3,25.4
	c-0.7,7.9-1,14.3-1,19.3c-0.4,8.5,0.4,15.5,2.3,21.2C233.2,226.7,237,229.6,242.5,229.6z M364.2,78.5c7.8-0.1,15.6-0.9,23.2-2.5
	c6.8-1.3,13.1-4.5,18.3-9.1c4.7-6.1,7.9-13.2,9.5-20.8c1.9-8.3,3.7-16.7,5.2-25.4h2.3l-8.9,57.7h25.1l-0.6,2.9h-25.1l-17.6,113.3
	c-0.4,2.2-0.7,4.5-0.9,6.8c-0.2,2.5-0.1,5,0.1,7.5c0.2,2.1,0.8,4.2,1.9,6.1c0.9,1.6,2.5,2.5,4.3,2.5c3.1,0,6.1-2.2,8.9-6.6
	c2.9-4.4,4.8-10,5.8-16.7h1.4c-1.7,12.7-6.4,22.3-14,28.8c-7.2,6.4-16.5,9.9-26.1,9.8c-3.7,0-7.3-0.6-10.8-1.7
	c-3.5-1.3-6.5-3.7-8.4-6.9c-2.2-3.5-3.7-8.4-4.3-14.8s-0.2-14.8,1.3-25.2l15.6-102.6h-17.3l0.6-2.9H364.2z M601,231.9
	c-9.8-0.1-19.4-2.2-28.4-6.1c-8.8-3.8-16.8-9.4-23.2-16.6c-6.8-7.7-12.1-16.8-15.4-26.5c-3.7-10.5-5.4-22.4-5-35.9
	c0.3-16,3.4-31.8,9.2-46.7c5.4-14,13.2-27,22.9-38.3c9.2-10.7,20.4-19.6,33-26.1c12.4-6.4,26.1-9.7,40.1-9.7
	c10.2-0.1,20.3,2,29.7,6.1c9,4,16.9,9.9,23.4,17.3c6.8,7.9,11.9,17.1,15,27.1c3.6,11.4,5.2,23.3,4.9,35.2c-0.3,15.6-3.4,31-9.1,45.6
	c-5.3,13.9-13,26.7-22.6,38.1c-9.2,10.8-20.3,19.7-32.7,26.4c-12.2,6.6-25.8,10.1-39.6,10.2l-26.8,43.3c4.5-6,9.6-11.6,15.1-16.7
	c4.6-4.2,9.6-8,14.8-11.4c4.2-2.7,8.6-4.8,13.3-6.5c3.4-1.2,7-1.9,10.7-2c5.3,0.1,10.5,1.1,15.4,3c5.7,2,11.3,4.3,17,6.8
	c5.7,2.5,11.2,4.8,16.6,6.8c4.6,1.9,9.5,2.9,14.4,3c3.2,0.1,6.2-1,8.7-3c2.8-2.6,5.3-5.6,7.5-8.8l0.9,0.6c-1.9,4-4.4,9-7.5,14.8
	c-3.1,5.9-6.8,11.5-11.1,16.7c-4.3,5.2-9.2,9.8-14.7,13.7c-5.2,3.7-11.4,5.8-17.7,5.8c-6.3,0-12.6-1.2-18.5-3.7
	c-5.8-2.5-11.5-5.2-17.2-8.1s-11.5-5.6-17.4-8.1c-6.1-2.5-12.7-3.8-19.3-3.7c-3,0-5.9,0.7-8.5,2.2c-2.6,1.4-5.2,4-7.9,7.6l-3.2,5.2
	l-1.7-1.2L601,231.9z M602.1,229.6c6.7,0,12.7-2.6,18-7.8s10-12,14.1-20.5c4.4-9.3,8-18.9,10.7-28.8c3-10.8,5.5-21.7,7.5-32.9
	c2-11.1,3.6-22,4.6-32.6c1.1-10.6,1.7-20,1.9-28.3c0.2-6.4,0-12.7-0.7-19c-0.5-5.5-1.8-11-3.9-16.1c-1.7-4.3-4.4-8.1-7.9-11.1
	c-3.4-2.8-7.6-4.2-12.8-4.2c-7.1,0-13.5,2.9-19,8.7c-5.6,5.8-10.4,13.2-14.6,22.2c-4.4,9.8-7.9,20.1-10.4,30.6
	c-2.8,11.3-5,22.6-6.8,33.9c-1.7,11.2-3,21.8-3.9,31.7s-1.4,18-1.6,24.4c-0.2,6.3,0,12.6,0.6,18.9c0.4,5.5,1.7,10.9,3.6,16
	c1.6,4.3,4.3,8.1,7.8,11C592.6,228.2,596.9,229.6,602.1,229.6z M854.7,194.7c-0.2,1-0.4,2.7-0.7,5.2c-0.3,2.5-0.4,5.1-0.4,7.6
	c0,2.4,0.4,4.7,1.2,6.9c0.5,1.8,2.2,3.1,4,3c3.1,0,6.1-2.2,8.9-6.6c2.9-4.4,4.8-10,5.8-16.7h1.4c-0.8,5.8-2.6,11.5-5.3,16.7
	c-2.4,4.5-5.5,8.6-9.2,12.1c-3.4,3.2-7.4,5.7-11.8,7.4c-4,1.6-8.2,2.4-12.5,2.5c-3.2,0-6.3-0.4-9.4-1.3c-3-0.9-5.8-2.6-7.9-4.9
	c-2.6-2.9-4.4-6.4-5.3-10.2c-1.2-4.4-1.8-10.1-1.6-17c-2.3,4.9-5.3,9.5-8.9,13.6c-3.5,3.9-7.5,7.4-12,10.2
	c-4.2,2.7-8.7,4.9-13.4,6.5c-4.3,1.5-8.7,2.3-13.3,2.3c-4.3,0-8.6-0.8-12.5-2.5c-3.9-1.6-7.3-4.2-9.9-7.5c-2.9-3.9-4.8-8.4-5.6-13.1
	c-1.1-5.4-1-11.8,0.1-19.3l10.7-67.2c0.4-2.3,0.8-5.1,1.2-8.4c0.4-3.1,0.5-6.1,0.4-9.2c0-2.6-0.6-5.1-1.7-7.4c-1.1-2-2.9-3-5.6-3
	c-1.9,0.1-3.8,0.8-5.3,1.9c-2.2,1.4-4.3,3-6.2,4.8l-0.6-1.4c3.2-3,6.5-5.7,10.1-8.2c3.6-2.6,7.4-4.9,11.4-6.9
	c3.9-2,7.9-3.6,12.1-4.9c4-1.2,8.1-1.9,12.2-1.9c6.7,0,11.5,2.5,14.4,7.6s3.5,13.1,1.7,24.1L779.4,182c-0.4,2.9-0.8,6.4-1.2,10.5
	c-0.4,3.9-0.4,7.8,0,11.7c0.3,3.4,1.4,6.6,3.3,9.4c1.8,2.6,4.7,3.9,8.5,3.9c2.7-0.1,5.3-1.2,7.4-2.9c2.7-2,5.1-4.4,7.2-7.1
	c2.2-2.8,4.2-5.9,5.8-9.1c1.5-2.8,2.5-5.8,3-8.9l16.4-108.1c7.2,0.4,14.4,0.3,21.6-0.1c7.2-0.5,14.3-1.4,21.3-2.7L854.7,194.7z
	 M1017.3,176c-4,7.6-8.4,14.8-13.4,21.8c-4.7,6.6-10.1,12.5-16.3,17.7c-5.8,4.9-12.2,8.9-19.2,12c-6.9,3-14.3,4.5-21.8,4.5
	c-14.8,0-26.8-5.4-35.9-16.3s-13.5-26-13.1-45.4c0.3-12.1,2.7-24.1,7.1-35.5c4.1-10.9,10-21.1,17.6-30c7.2-8.5,15.9-15.5,25.7-20.6
	c9.7-5.1,20.6-7.7,31.6-7.6c5,0,9.9,0.5,14.8,1.3c5.1,0.8,10,2.4,14.6,4.8c4.4,2.3,8.2,5.7,11,9.8c2.9,4.2,4.2,9.7,4,16.4
	c-0.2,5.5-2,10.8-5,15.4c-3.2,4.9-8,8.9-14.6,12.1c-6.5,3.2-14.8,5.2-24.9,6.1c-10.1,0.9-22.2-0.1-36.2-3v3.5
	c-0.2,6.7,0.3,13.4,1.4,20c1,6,3,11.8,5.9,17.2c2.6,4.8,6.5,9,11.1,12c4.6,3,10.2,4.5,16.7,4.5c5.6,0,11.9-1.5,18.9-4.6
	c7-3.1,13.2-8.7,18.6-16.7L1017.3,176z M977.5,78.8c-4.7,0-9.2,1.8-12.7,5c-4.2,3.8-7.7,8.3-10.4,13.3c-3.2,5.9-5.8,12.1-7.5,18.6
	c-1.9,7-3.2,14.1-3.7,21.3c7.9,0.6,14.7-0.3,20.5-2.7c5.4-2.1,10.2-5.4,14.3-9.5c3.7-3.8,6.5-8.3,8.4-13.3c1.7-4.5,2.8-9.2,3-14
	c0.3-4.6-0.6-9.2-2.7-13.3C984.9,80.8,981.4,78.7,977.5,78.8z M1080.2,231.9c-5.5,0-10.9-0.4-16.3-1.3c-5.1-0.7-10.1-2.3-14.7-4.5
	c-4.2-2-7.8-5-10.7-8.7c-2.8-3.7-4.1-8.3-3.9-13.8c0.3-6.4,2.4-12.6,6.2-17.7c3.7-5.1,8.6-7.6,14.6-7.6c4.2,0,8.2,1.7,11.1,4.8
	c3.2,3.2,4.4,8,3.6,14.6c-3.2,1.2-5.8,3.6-7.4,6.6c-1.8,3.3-2.9,6.9-3,10.7c0,4,1.6,7.7,4.6,10.4c3.1,2.9,8.8,4.3,17.3,4.3
	c3.4,0,6.8-0.3,10.2-0.7c4.2-0.5,8.2-1.6,12.1-3.2c3.8-1.5,7.2-3.8,10.1-6.8c2.8-2.9,4.3-6.7,4.5-11.5c0.3-4.6-1.6-9.1-5.1-12.1
	c-4.1-3.6-8.6-6.8-13.4-9.4c-5.4-3-11.2-6-17.6-8.9c-6.1-2.9-12-6.3-17.4-10.4c-5.3-3.9-9.8-8.7-13.3-14.3c-3.6-5.6-5.2-12.4-5-20.5
	c0.2-10,2.5-18.5,6.8-25.5c4.1-6.8,9.7-12.7,16.3-17.2c6.6-4.4,13.8-7.7,21.5-9.7c7.5-2,15.2-3,22.9-3c5,0,10,0.4,15,1.2
	c4.9,0.7,9.7,2.1,14.1,4.2c4,1.8,7.5,4.5,10.2,7.9c2.6,3.3,3.9,7.4,3.9,12.4c-0.1,5.8-2,11.5-5.5,16.1c-3.1,4.4-8.2,7-13.6,6.9
	c-3.8,0-7.3-1.7-9.8-4.5c-2.9-3-3.9-7.4-3.2-13.4c2.7-1.1,4.9-2.9,6.5-5.3c1.8-2.6,2.8-5.6,2.7-8.8c0.2-4.6-1.9-8.2-6.3-10.7
	c-4.4-2.5-10.1-3.7-17-3.7c-3,0-5.9,0.4-8.8,1.2c-3.1,0.7-6.1,2-8.8,3.7c-2.8,1.8-5.1,4.2-6.9,6.9c-2,3.2-3,6.9-2.9,10.7
	c-0.3,4.6,1.6,9,5,12c4,3.5,8.5,6.4,13.3,8.7c5.3,2.6,11.1,5.2,17.3,7.8c6.1,2.5,11.9,5.6,17.3,9.4c5.2,3.6,9.6,8.2,13,13.6
	c3.4,5.4,4.9,12.1,4.8,20.2c-0.4,10.4-2.9,19.3-7.6,26.8c-4.6,7.4-10.7,13.6-17.9,18.5c-7.3,4.8-15.3,8.4-23.8,10.5
	C1097.1,230.7,1088.6,231.8,1080.2,231.9z M1203.9,78.5c7.8-0.1,15.6-0.9,23.2-2.5c6.8-1.3,13.1-4.5,18.3-9.1
	c4.7-6.1,7.9-13.2,9.5-20.8c1.9-8.3,3.7-16.7,5.2-25.4h2.3l-8.9,57.7h25.1l-0.6,2.9h-25.1l-17.6,113.3c-0.4,2.2-0.7,4.5-0.9,6.8
	c-0.2,2.5-0.1,5,0.1,7.5c0.2,2.1,0.8,4.2,1.9,6.1c0.9,1.6,2.5,2.5,4.3,2.5c3.1,0,6.1-2.2,8.9-6.6c2.9-4.4,4.8-10,5.8-16.7h1.4
	c-1.7,12.7-6.4,22.3-14,28.8c-7.2,6.4-16.5,9.9-26.1,9.8c-3.7,0-7.3-0.6-10.8-1.7c-3.5-1.3-6.5-3.7-8.4-6.9
	c-2.2-3.5-3.7-8.4-4.3-14.8c-0.7-6.4-0.2-14.8,1.3-25.2l15.6-102.6h-17.3l0.6-2.9H1203.9z M1339.1,2.1c6-0.1,11.6,2.8,15,7.6
	c3.8,5.1,5.6,11.5,5.2,19.2c0,4.6-0.9,9.2-2.6,13.6c-1.7,4.1-4,7.9-6.9,11.2c-2.7,3.1-6,5.8-9.7,7.8c-3.4,1.9-7.2,2.9-11.1,2.9
	c-6.2,0-11.1-2.6-15-7.9c-3.8-5.3-5.6-11.8-5.2-19.5c0-4.7,0.9-9.3,2.7-13.6c1.7-4,4-7.8,6.9-11.1c2.7-3.1,5.9-5.6,9.5-7.5
	C1331.4,3,1335.2,2.1,1339.1,2.1L1339.1,2.1z M1299.3,122c0.4-2.3,0.8-5,1.3-8.2c0.5-3,0.7-6,0.6-9.1c0-2.6-0.6-5.1-1.7-7.4
	c-1.1-2-2.9-3-5.6-3c-2,0.1-3.8,0.8-5.5,1.9c-2.3,1.4-4.4,3-6.3,4.8l-0.6-1.4c3.2-3,6.5-5.7,10.1-8.2c3.6-2.6,7.4-4.9,11.4-6.9
	c3.9-2,7.9-3.6,12.1-4.9c4-1.2,8.1-1.9,12.3-1.9c6.7,0,11.5,2.5,14.4,7.6c2.9,5.1,3.5,13.1,1.7,24.1l-13.3,85.3
	c-0.2,1-0.4,2.7-0.7,5.2c-0.3,2.5-0.4,5.1-0.4,7.6c0,2.4,0.4,4.7,1.2,6.9c0.5,1.8,2.2,3.1,4,3c3.1,0,6.1-2.2,8.9-6.6
	s4.8-10,5.8-16.7h1.4c-0.8,5.8-2.6,11.5-5.3,16.7c-2.4,4.5-5.5,8.6-9.2,12.1c-3.4,3.2-7.4,5.7-11.8,7.4c-4,1.6-8.2,2.4-12.5,2.4
	c-3.6,0-7.2-0.5-10.7-1.7c-3.5-1.3-6.4-3.7-8.2-6.9c-2.2-3.5-3.7-8.4-4.3-14.8c-0.7-6.4-0.2-14.8,1.3-25.2L1299.3,122z M1459.4,76.5
	c8-0.1,15.9,1.5,23.2,4.8c6.9,3.1,13,7.7,17.9,13.4c5.1,6.1,8.9,13.1,11.2,20.6c2.7,8.4,3.9,17.3,3.6,26.1
	c-0.4,11.8-2.7,23.4-7.1,34.3c-4.1,10.6-10,20.4-17.4,29c-7.1,8.2-15.6,14.9-25.2,19.9c-9.3,4.9-19.6,7.4-30.1,7.4
	c-7.9,0.1-15.8-1.5-23.1-4.8c-6.8-3.1-12.9-7.7-17.7-13.4c-5.1-6.1-8.9-13.1-11.4-20.6c-2.8-8.5-3.9-17.5-3.5-26.4
	c0.1-12,2.5-23.8,6.9-34.9c4.1-10.5,10-20.2,17.4-28.7c7-8,15.6-14.6,25.1-19.5C1438.5,78.9,1448.9,76.4,1459.4,76.5L1459.4,76.5z
	 M1435.7,229.6c4.4-0.8,8.4-3.5,11.8-8.1c3.9-5.4,7-11.2,9.2-17.4c2.9-7.7,5.2-15.6,6.9-23.6c1.9-8.7,3.5-17.4,4.8-26.1
	c1.2-8.7,2.2-17,2.9-24.9c0.7-8,1.1-14.8,1.3-20.6c0.2-3.9,0.1-7.9-0.3-11.8c-0.3-3.2-1-6.4-2-9.5c-0.8-2.5-2.2-4.6-4.2-6.3
	c-1.9-1.6-4.3-2.4-6.8-2.3c-4.4,0-8.4,2.3-11.8,6.9c-3.9,5.5-7.1,11.5-9.4,17.9c-3,8-5.3,16.2-7.1,24.5c-1.9,9-3.6,18.1-4.9,27.1
	s-2.4,17.5-3,25.4c-0.7,7.9-1,14.3-1,19.3c-0.4,8.5,0.4,15.5,2.3,21.2C1426.4,226.7,1430.1,229.6,1435.7,229.6z M1632.6,126.4
	c1.5-10.4,1.8-17.8,0.9-22.2c-1-4.4-2.8-6.6-5.5-6.6c-1.9,0-4.1,0.9-6.6,2.7c-2.9,2.2-5.5,4.6-7.8,7.4c-3,3.5-5.7,7.1-8.2,11
	c-2.9,4.4-5.5,8.9-7.9,13.6l-15,96.9c-7.2-0.4-14.3-0.3-21.5,0.1c-7.2,0.5-14.4,1.4-21.5,2.7l17-109.6c0.4-2.3,0.8-5.1,1.2-8.4
	c0.4-3.1,0.5-6.1,0.4-9.2c0-2.6-0.6-5.1-1.7-7.4c-1.1-2-2.9-3-5.6-3c-1.9,0.1-3.8,0.8-5.3,1.9c-2.2,1.4-4.3,3-6.2,4.8l-0.6-1.4
	c3.2-3,6.5-5.7,10.1-8.2c3.6-2.6,7.4-4.9,11.4-6.9c3.9-2,7.9-3.6,12.1-4.9c4-1.2,8.1-1.9,12.3-1.9c6.7,0,11.8,2.5,15.1,7.6
	c3.4,5.1,4,13.1,1.9,24.1l-4,19.6c9.8-18.3,20-31.6,30.6-39.9c10.6-8.4,20.1-12.5,28.5-12.5c9.2,0,15.3,4.4,18.2,13.1
	s3.3,20,1.2,33.9l-11.2,71.2c-0.2,1-0.4,2.7-0.7,5.2c-0.3,2.5-0.4,5.1-0.4,7.6c0,2.4,0.4,4.7,1.2,6.9c0.5,1.8,2.2,3.1,4,3
	c3.1,0,6-2.2,8.8-6.6c2.8-4.4,4.7-10,5.6-16.7h1.7c-0.8,5.8-2.6,11.5-5.3,16.7c-2.4,4.5-5.5,8.6-9.2,12.1c-3.4,3.2-7.4,5.7-11.8,7.4
	c-4,1.6-8.2,2.4-12.5,2.4c-3.6,0-7.2-0.5-10.7-1.7c-3.4-1.3-6.3-3.7-8.2-6.9c-2.2-3.5-3.7-8.4-4.3-14.8c-0.7-6.4-0.2-14.8,1.3-25.2
	L1632.6,126.4z M1749.4,231.9c-5.5,0-10.9-0.4-16.3-1.3c-5.1-0.7-10.1-2.3-14.7-4.5c-4.2-2-7.8-5-10.7-8.7
	c-2.8-3.7-4.1-8.3-3.9-13.8c0.3-6.4,2.4-12.6,6.2-17.7c3.7-5.1,8.6-7.6,14.6-7.6c4.2,0,8.2,1.7,11.1,4.8c3.2,3.2,4.4,8,3.6,14.6
	c-3.2,1.2-5.8,3.6-7.4,6.6c-1.8,3.3-2.9,6.9-3,10.7c0,4,1.6,7.7,4.6,10.4c3.1,2.9,8.8,4.3,17.3,4.3c3.4,0,6.8-0.3,10.2-0.7
	c4.2-0.5,8.2-1.6,12.1-3.2c3.8-1.5,7.2-3.8,10.1-6.8c2.8-2.9,4.3-6.7,4.5-11.5c0.3-4.6-1.6-9.1-5-12.1c-4.1-3.6-8.6-6.8-13.4-9.4
	c-5.4-3-11.2-6-17.6-8.9c-6.1-2.9-12-6.3-17.4-10.4c-5.3-3.9-9.8-8.7-13.3-14.3c-3.6-5.6-5.2-12.4-5-20.5c0.2-10,2.5-18.5,6.8-25.5
	c4.1-6.8,9.7-12.7,16.3-17.2c6.6-4.4,13.8-7.7,21.5-9.7c7.5-2,15.2-3,22.9-3c5,0,10,0.4,15,1.2c4.9,0.7,9.7,2.1,14.1,4.2
	c4,1.8,7.5,4.5,10.2,7.9c2.6,3.3,3.9,7.4,3.9,12.4c-0.1,5.8-2,11.5-5.5,16.1c-3.1,4.4-8.2,7-13.6,6.9c-3.8,0-7.3-1.7-9.8-4.5
	c-2.9-3-3.9-7.4-3.2-13.4c2.7-1.1,4.9-2.9,6.5-5.3c1.8-2.6,2.8-5.6,2.7-8.8c0.2-4.6-1.9-8.2-6.3-10.7c-4.4-2.5-10.1-3.7-17-3.7
	c-3,0-5.9,0.4-8.8,1.2c-3.1,0.7-6.1,2-8.8,3.7c-2.8,1.8-5.1,4.2-6.9,6.9c-2,3.2-3,6.9-2.9,10.7c-0.3,4.6,1.6,9,5,12
	c4,3.5,8.5,6.4,13.3,8.7c5.3,2.6,11.1,5.2,17.3,7.8c6.1,2.5,11.9,5.6,17.3,9.4c5.2,3.6,9.6,8.2,13,13.6c3.4,5.4,4.9,12.1,4.8,20.2
	c-0.4,10.4-2.9,19.3-7.6,26.8c-4.6,7.4-10.7,13.6-17.9,18.5c-7.3,4.8-15.3,8.4-23.8,10.5C1766.3,230.7,1757.9,231.8,1749.4,231.9z
	 M1941.5,26c6.5,0.1,13,0.8,19.3,2.2c6.8,1.4,13.2,3.9,19.2,7.4c5.8,3.4,10.8,8,14.6,13.6c3.8,5.6,5.7,12.5,5.5,20.8
	c-0.2,8.8-2.3,16.4-6.3,22.8c-4,6.3-9,12-14.8,16.7c-5.9,4.8-12.2,9.1-18.9,12.8c-6.7,3.7-13,7.4-18.9,11
	c-5.3,3.1-10.2,6.9-14.7,11.1c-3.7,3.4-5.9,8.2-5.9,13.3c-0.3,3.2,0.3,6.4,1.7,9.2c-0.6,1-1.2,1.4-1.7,1.4c-0.4,0-0.9-0.9-1.6-2.6
	c-0.8-2.2-1.1-4.6-1-6.9c0.2-6.3,2.1-12.5,5.5-17.9c3.5-5.6,7.3-11.8,11.4-18.6c4.6-7.8,8.4-15.9,11.5-24.4
	c3.6-9.4,5.5-21.2,5.9-35.5c0.4-11-0.9-19.4-3.9-25.2s-7.3-8.8-12.8-8.8c-2.7,0.1-5.3,0.8-7.6,2.2c-2.7,1.6-5.1,3.7-7.1,6.2
	c-2.3,3-4,6.3-5.2,9.8c-1.4,4.3-2.2,8.8-2.3,13.3c0,7.9,1.9,13.3,5.8,16.1c-1.7,9.4-5.2,16.4-10.4,20.9s-10.7,6.8-16.4,6.8
	c-5.4,0-10.5-2.3-14-6.3c-3.9-4.2-5.7-10.7-5.3-19.3c0.2-10.6,2.8-19.2,7.8-26c4.8-6.5,10.9-11.9,18-15.9c6.9-3.8,14.4-6.5,22.2-7.9
	C1927.6,26.8,1934.5,26.1,1941.5,26L1941.5,26z M1921,176.5c5.4,0,9.8,2.3,13.1,6.9c3.4,4.6,4.9,10.3,4.8,17
	c-0.1,4.2-1,8.4-2.6,12.3c-1.4,3.6-3.4,7-5.9,9.9c-2.3,2.8-5.1,5.1-8.4,6.8c-3.1,1.6-6.5,2.4-9.9,2.5c-5.4,0-9.8-2.3-13.1-6.9
	c-3.4-4.6-5-10.3-4.8-17c0.2-4.2,1.1-8.2,2.6-12.1c1.4-3.7,3.5-7.1,6.1-10.1c2.4-2.8,5.3-5.1,8.5-6.8
	C1914.3,177.4,1917.6,176.6,1921,176.5z"/>
</svg>
