<?xml version="1.0" encoding="utf-8"?>
<!-- Generator: Adobe Illustrator 24.1.0, SVG Export Plug-In . SVG Version: 6.00 Build 0)  -->
<svg version="1.1" id="Layer_1" xmlns="http://www.w3.org/2000/svg" xmlns:xlink="http://www.w3.org/1999/xlink" x="0px" y="0px"
	 viewBox="0 0 1920 1080" style="enable-background:new 0 0 1920 1080;" xml:space="preserve">
<style type="text/css">
	.st0{fill:#FFFFFF;}
	.st1{clip-path:url(#SVGID_2_);}
	.st2{opacity:0.1;fill:url(#Path_6336_1_);enable-background:new    ;}
	.st3{opacity:0.1;fill:url(#Path_6337_1_);enable-background:new    ;}
	.st4{fill:url(#Path_6338_1_);}
	.st5{fill:url(#Path_6339_1_);}
	.st6{fill:url(#Path_6340_1_);}
</style>
<path id="Path_6342" class="st0" d="M1.8,970.5c51.9-19.6,128.3-39.5,216-25.5c50.5,8.1,73.6,22.4,127.5,37.5
	c98.7,27.8,179.3,24.2,250.5,21c152.6-6.8,242.7-50.4,401.1-68.1c69.2-7.7,118-12.2,191-8.2c226.6,12.4,347.2,74,531.9,8.5
	c93.2-33.1,160.2-82.8,202-119.5V1080H1.8V970.5z"/>
<g id="Group_1931" transform="translate(0 -2458.179)">
	<g id="Group_1930">
		<g>
			<defs>
				<rect id="SVGID_1_" y="2458.2" width="1920" height="1080"/>
			</defs>
			<clipPath id="SVGID_2_">
				<use xlink:href="#SVGID_1_"  style="overflow:visible;"/>
			</clipPath>
			<g id="Group_1929" class="st1">
				<rect id="Rectangle_2157" y="2458.2" class="st0" width="1920" height="1080"/>
				<g id="Group_1928">
					
						<linearGradient id="Path_6336_1_" gradientUnits="userSpaceOnUse" x1="1.6343" y1="3539.4507" x2="1.1393" y2="3538.7617" gradientTransform="matrix(1917.3719 0 0 -960.4883 -1349.7439 3402152.5)">
						<stop  offset="0" style="stop-color:#5445FF"/>
						<stop  offset="0.706" style="stop-color:#B6B2FF"/>
						<stop  offset="1" style="stop-color:#E1E1FF"/>
					</linearGradient>
					<path id="Path_6336" class="st2" d="M1920,2593.5v408.7c-102.1-29.8-191.9-56.6-328,68s-142.4,148.2-320.8,152.8
						s-375,47.6-451.2,168.6s-172,146.6-172,146.6H2.6v-289.8c196.5,104,883.8-104,978.2-225.1s185.8-174.5,327.4-205.2
						s187.7-52.6,283.8-157.4S1845,2572,1920,2593.5z"/>
					
						<linearGradient id="Path_6337_1_" gradientUnits="userSpaceOnUse" x1="0.5868" y1="3538.1978" x2="1.5048" y2="3539.1738" gradientTransform="matrix(1271.967 0 0 -560.9514 -58.934 1988519.625)">
						<stop  offset="0" style="stop-color:#E1E1FF"/>
						<stop  offset="0.294" style="stop-color:#B6B2FF"/>
						<stop  offset="1" style="stop-color:#5445FF"/>
					</linearGradient>
					<path id="Path_6337" class="st3" d="M1920,3002.2c-102.1-29.8-191.9-56.6-328,68s-142.4,148.2-320.8,152.8
						s-375,47.6-451.2,168.6s-172,146.6-172,146.6h1272V3002.2z"/>
					
						<linearGradient id="Path_6338_1_" gradientUnits="userSpaceOnUse" x1="1.5417" y1="3539.3359" x2="0.3717" y2="3538.187" gradientTransform="matrix(1013.905 0 0 -464.3906 457.1901 1646870.375)">
						<stop  offset="0" style="stop-color:#062684"/>
						<stop  offset="1" style="stop-color:#3054D4"/>
					</linearGradient>
					<path id="Path_6338" class="st4" d="M1920,3080.8c0,0-181.1-42.6-198.1,83s-217.6,23.1-258.6,165.1s-165.8,121.8-277.9,113.7
						s-279.2,95.6-279.2,95.6H1920V3080.8z"/>
					
						<linearGradient id="Path_6339_1_" gradientUnits="userSpaceOnUse" x1="0.9985" y1="3538.7161" x2="0.5115" y2="3539.448" gradientTransform="matrix(646.572 0 0 -379.1389 1191.856 1345234.5)">
						<stop  offset="0" style="stop-color:#062684"/>
						<stop  offset="1" style="stop-color:#3054D4"/>
					</linearGradient>
					<path id="Path_6339" class="st5" d="M1920,3176.7c0,0-134.7-64.6-187.3,53.7s-69.1,155.9-207.9,177.4s-251.3,130.5-251.3,130.5
						H1920V3176.7z"/>
					
						<linearGradient id="Path_6340_1_" gradientUnits="userSpaceOnUse" x1="-0.4073" y1="3539.4424" x2="0.5927" y2="3539.4424" gradientTransform="matrix(401.4851 0 0 -307.8657 1682.0298 1093057.25)">
						<stop  offset="0" style="stop-color:#062684"/>
						<stop  offset="1" style="stop-color:#3054D4"/>
					</linearGradient>
					<path id="Path_6340" class="st6" d="M1920,3230.3c0,0-1.7,65-113.5,97.9s-132.6,45.4-149.2,86.6s-53.9,110.5-138.8,123.3H1920
						V3230.3z"/>
				</g>
			</g>
		</g>
	</g>
</g>
</svg>
