<?xml version="1.0" encoding="utf-8"?>
<!-- Generator: Adobe Illustrator 24.1.0, SVG Export Plug-In . SVG Version: 6.00 Build 0)  -->
<svg version="1.1" id="Layer_1" xmlns="http://www.w3.org/2000/svg" xmlns:xlink="http://www.w3.org/1999/xlink" x="0px" y="0px"
	 viewBox="0 0 600 500" style="enable-background:new 0 0 600 500;" xml:space="preserve">
<style type="text/css">
	.st0{fill:url(#Path_4884_1_);}
	.st1{fill:url(#Path_4885_1_);}
	.st2{opacity:0.2;fill:#3054D4;enable-background:new    ;}
	.st3{fill:url(#Path_4887_1_);}
	.st4{opacity:0.4;fill:url(#Path_4888_1_);enable-background:new    ;}
	.st5{opacity:0.7;fill:url(#Path_4889_1_);enable-background:new    ;}
	.st6{fill:url(#Path_4890_1_);}
	.st7{fill:url(#Path_4891_1_);}
	.st8{fill:url(#Path_4892_1_);}
	.st9{fill:#FFFFFF;}
</style>
<g id="Group_1655" transform="translate(-150 -215.144)">
	
		<linearGradient id="Path_4884_1_" gradientUnits="userSpaceOnUse" x1="-508.5339" y1="1296.6785" x2="-507.5339" y2="1296.6785" gradientTransform="matrix(203.97 0 0 -221.461 104156.3984 287762.2188)">
		<stop  offset="0" style="stop-color:#002FF5"/>
		<stop  offset="0.189" style="stop-color:#003EF4"/>
		<stop  offset="0.559" style="stop-color:#0068F4"/>
		<stop  offset="1" style="stop-color:#00A2F4"/>
	</linearGradient>
	<path id="Path_4884" class="st0" d="M430.8,605.6l204-117.8l0,103.7l-204,117.8L430.8,605.6z"/>
	
		<linearGradient id="Path_4885_1_" gradientUnits="userSpaceOnUse" x1="-508.6815" y1="1296.4744" x2="-507.6815" y2="1296.4744" gradientTransform="matrix(298.559 0 0 -275.908 152021.5312 358130.0312)">
		<stop  offset="0" style="stop-color:#062684"/>
		<stop  offset="1" style="stop-color:#3054D4"/>
	</linearGradient>
	<path id="Path_4885" class="st1" d="M150.1,456.7l298.5-172.2l0,103.7L150.1,560.4L150.1,456.7z"/>
	<path id="Path_4886" class="st2" d="M311.1,509l310.7-179.4l0,125.6L311.1,634.6L311.1,509z"/>
	
		<linearGradient id="Path_4887_1_" gradientUnits="userSpaceOnUse" x1="-508.4486" y1="1297.0688" x2="-507.4486" y2="1297.0688" gradientTransform="matrix(172.424 0 0 -160.789 87907.8594 209182.4219)">
		<stop  offset="0" style="stop-color:#062684"/>
		<stop  offset="1" style="stop-color:#3054D4"/>
	</linearGradient>
	<path id="Path_4887" class="st3" d="M411.5,647.2l-172.4-99.6v61.2l172.4,99.6L411.5,647.2z"/>
	
		<linearGradient id="Path_4888_1_" gradientUnits="userSpaceOnUse" x1="-508.6945" y1="1296.9185" x2="-507.6945" y2="1296.9185" gradientTransform="matrix(311.269 0 0 -179.759 158595.0781 233624.5938)">
		<stop  offset="0" style="stop-color:#002FF5"/>
		<stop  offset="0.189" style="stop-color:#003EF4"/>
		<stop  offset="0.559" style="stop-color:#0068F4"/>
		<stop  offset="1" style="stop-color:#00A2F4"/>
	</linearGradient>
	<path id="Path_4888" class="st4" d="M409.9,401.9l155.6,89.9l-155.6,89.9l-155.6-89.9L409.9,401.9z"/>
	
		<linearGradient id="Path_4889_1_" gradientUnits="userSpaceOnUse" x1="-508.6945" y1="1296.9185" x2="-507.6945" y2="1296.9185" gradientTransform="matrix(311.269 0 0 -179.757 158595.0781 233597.6406)">
		<stop  offset="0" style="stop-color:#002FF5"/>
		<stop  offset="0.189" style="stop-color:#003EF4"/>
		<stop  offset="0.559" style="stop-color:#0068F4"/>
		<stop  offset="1" style="stop-color:#00A2F4"/>
	</linearGradient>
	<path id="Path_4889" class="st5" d="M409.9,377.6l155.6,89.9l-155.6,89.9l-155.6-89.9L409.9,377.6z"/>
	
		<linearGradient id="Path_4890_1_" gradientUnits="userSpaceOnUse" x1="-508.6945" y1="1296.9178" x2="-507.6945" y2="1296.9178" gradientTransform="matrix(311.214 0 0 -179.849 158567.1094 233692.5938)">
		<stop  offset="0" style="stop-color:#002FF5"/>
		<stop  offset="0.189" style="stop-color:#003EF4"/>
		<stop  offset="0.559" style="stop-color:#0068F4"/>
		<stop  offset="1" style="stop-color:#00A2F4"/>
	</linearGradient>
	<path id="Path_4890" class="st6" d="M409.9,353.3l155.6,89.9l-155.6,89.9l-155.6-89.9L409.9,353.3z"/>
	
		<linearGradient id="Path_4891_1_" gradientUnits="userSpaceOnUse" x1="-508.5465" y1="1297.536" x2="-507.5465" y2="1297.536" gradientTransform="matrix(209.675 0 0 -121.089 107169.7344 157513.125)">
		<stop  offset="0" style="stop-color:#062684"/>
		<stop  offset="1" style="stop-color:#3054D4"/>
	</linearGradient>
	<path id="Path_4891" class="st7" d="M669.2,335.3l80.7,46.6l-129,74.5l-80.7-46.6L669.2,335.3z"/>
	
		<linearGradient id="Path_4892_1_" gradientUnits="userSpaceOnUse" x1="-508.5835" y1="1297.3806" x2="-507.5835" y2="1297.3806" gradientTransform="matrix(228.285 0 0 -131.924 116366.7578 171442.6406)">
		<stop  offset="0" style="stop-color:#002FF5"/>
		<stop  offset="0.189" style="stop-color:#003EF4"/>
		<stop  offset="0.559" style="stop-color:#0068F4"/>
		<stop  offset="1" style="stop-color:#00A2F4"/>
	</linearGradient>
	<path id="Path_4892" class="st8" d="M412.4,221l80.7,46.6L345.4,353l-80.7-46.6L412.4,221z"/>
	<g id="Group_1654" transform="translate(336.461 386.244)">
		<g id="Group_1642" transform="translate(59.584 0)">
			<path id="Path_4893" class="st9" d="M17.6,30.9l-7.4,10.7L0.1,27.6L7.4,17L17.6,30.9z M10.2,38.6l5.3-7.7l-8-11l-5.3,7.7
				L10.2,38.6z"/>
			<path id="Path_4894" class="st9" d="M27.3,46.4l-16.6-4.6l7.4-10.7l16.6,4.6L27.3,46.4z M13.5,40.8l13.1,3.6l5.3-7.7l-13.1-3.6
				L13.5,40.8z"/>
			<path id="Path_4895" class="st9" d="M25.2,19.8l-7.4,10.7L7.7,16.6l7.4-10.7L25.2,19.8z M17.8,27.6l5.3-7.7l-8-11l-5.3,7.7
				L17.8,27.6z"/>
			<path id="Path_4896" class="st9" d="M34.9,35.4l-16.6-4.6l7.4-10.7l16.6,4.6L34.9,35.4z M21.1,29.8l13.1,3.6l5.3-7.7l-13.1-3.6
				L21.1,29.8z"/>
			<path id="Path_4897" class="st9" d="M15.1,5.9l-0.9,1.3l17.1,4.9L41.4,26l0.9-1.3l-10-14L15.1,5.9z"/>
		</g>
		<g id="Group_1653" transform="translate(0 21.035)">
			<g id="Group_1643" transform="translate(73.976 53.923)">
				
					<rect id="Rectangle_1952" x="11.9" y="4.1" transform="matrix(0.5676 -0.8233 0.8233 0.5676 -2.1605 14.187)" class="st9" width="1" height="10"/>
				
					<rect id="Rectangle_1953" x="4.1" y="15.6" transform="matrix(0.5676 -0.8233 0.8233 0.5676 -15.1002 12.7759)" class="st9" width="1" height="10.3"/>
				
					<rect id="Rectangle_1954" x="7.6" y="10" transform="matrix(0.5676 -0.8233 0.8233 0.5676 -8.4654 12.985)" class="st9" width="1" height="9.1"/>
			</g>
			<g id="Group_1644" transform="translate(22.469 18.41)">
				
					<rect id="Rectangle_1955" x="11.9" y="4.1" transform="matrix(0.5676 -0.8233 0.8233 0.5676 -2.1605 14.187)" class="st9" width="1" height="10"/>
				
					<rect id="Rectangle_1956" x="4.1" y="15.6" transform="matrix(0.5676 -0.8233 0.8233 0.5676 -15.1002 12.7759)" class="st9" width="1" height="10.3"/>
				
					<rect id="Rectangle_1957" x="7.6" y="10" transform="matrix(0.5676 -0.8233 0.8233 0.5676 -8.4654 12.985)" class="st9" width="1" height="9.1"/>
			</g>
			<g id="Group_1645" transform="translate(90.089 65.032)">
				
					<rect id="Rectangle_1958" x="11.9" y="4.1" transform="matrix(0.5676 -0.8233 0.8233 0.5676 -2.1605 14.187)" class="st9" width="1" height="10"/>
				
					<rect id="Rectangle_1959" x="4.1" y="15.6" transform="matrix(0.5676 -0.8233 0.8233 0.5676 -15.1002 12.7759)" class="st9" width="1" height="10.3"/>
				
					<rect id="Rectangle_1960" x="7.6" y="10" transform="matrix(0.5676 -0.8233 0.8233 0.5676 -8.4654 12.985)" class="st9" width="1" height="9.1"/>
			</g>
			<path id="Path_4898" class="st9" d="M51.7,48.9c-0.1-0.9-0.6-1.8-1.3-2.4c0.7,0.2,1.5,0.2,2.2,0c0.7-0.3,1.4-0.7,1.8-1.4
				c0.7-0.9,0.9-2.1,0.5-3.1c-0.5-1.2-1.4-2.3-2.6-3l-5.1-3.5l-0.5,0.8l5.1,3.5c0.9,0.5,1.6,1.4,2.1,2.3c0.4,1.5-0.4,3.1-1.9,3.6
				c-0.2,0.1-0.4,0.1-0.6,0.1c-1.1-0.1-2.1-0.4-2.9-1.1l-5.1-3.5l-0.5,0.8l5.5,3.8c1,0.6,1.8,1.5,2.3,2.5c0.5,1.6-0.4,3.3-2,3.7
				c-0.2,0.1-0.4,0.1-0.7,0.1c-1.2-0.1-2.2-0.5-3.2-1.3L39.3,47l-0.5,0.8l5.5,3.8c1.1,0.9,2.5,1.4,4,1.5c1.1,0,2.2-0.6,2.8-1.6
				C51.6,50.8,51.8,49.8,51.7,48.9z"/>
			<path id="Path_4899" class="st9" d="M69.4,61.1c-0.1-0.9-0.6-1.8-1.3-2.4c0.7,0.2,1.5,0.2,2.2,0c0.7-0.3,1.4-0.7,1.8-1.4
				c0.7-0.9,0.9-2.1,0.5-3.1c-0.5-1.2-1.4-2.3-2.6-3l-5.1-3.5l-0.5,0.8l5.1,3.5c0.9,0.5,1.6,1.4,2.1,2.3c0.4,1.5-0.4,3.1-1.9,3.6
				c-0.2,0.1-0.4,0.1-0.6,0.1c-1.1-0.1-2.1-0.4-2.9-1.1L61,53.3l-0.5,0.8l5.5,3.8c1,0.6,1.8,1.5,2.3,2.5c0.5,1.6-0.4,3.3-2,3.7
				c-0.2,0.1-0.4,0.1-0.7,0.1c-1.2-0.1-2.2-0.5-3.2-1.3l-5.5-3.8L56.4,60l5.5,3.8c1.1,0.9,2.5,1.4,4,1.5c1.1,0,2.2-0.6,2.8-1.6
				C69.2,62.9,69.5,62,69.4,61.1z"/>
			<g id="Group_1648" transform="translate(38.652 29.585)">
				<g id="Group_1646" transform="translate(0 10.03)">
					<path id="Path_4900" class="st9" d="M2,7.2L0.9,8.8L0.1,8.2l1.6-2.3L2,7.2z"/>
				</g>
				<g id="Group_1647" transform="translate(3.451)">
					<path id="Path_4901" class="st9" d="M0.1,13.2l5-7.3l0.8,0.6l-5.5,8L0.1,13.2z"/>
				</g>
			</g>
			<g id="Group_1651" transform="translate(56.297 41.751)">
				<g id="Group_1649" transform="translate(0 10.03)">
					<path id="Path_4902" class="st9" d="M2,7.2L0.9,8.8L0.1,8.2l1.6-2.3L2,7.2z"/>
				</g>
				<g id="Group_1650" transform="translate(3.451)">
					<path id="Path_4903" class="st9" d="M0.1,13.2l5-7.3l0.8,0.6l-5.5,8L0.1,13.2z"/>
				</g>
			</g>
			<g id="Group_1652">
				<path id="Path_4904" class="st9" d="M10,26.2l3.8-13.8L13,11.8L1.4,20.3L5.3,6.6l-1-0.7L0.1,21.1l1,0.7l11.5-8.4L8.7,27.1l1,0.7
					l2.2-1.6l0.1-1.4L10,26.2z"/>
				<path id="Path_4905" class="st9" d="M22.4,18.3l-0.9-0.6l-7,5.2l-0.2,1.4L22.4,18.3z"/>
			</g>
		</g>
	</g>
</g>
</svg>
