<?xml version="1.0" encoding="utf-8"?>
<!-- Generator: Adobe Illustrator 24.1.0, SVG Export Plug-In . SVG Version: 6.00 Build 0)  -->
<svg version="1.1" id="Layer_1" xmlns="http://www.w3.org/2000/svg" xmlns:xlink="http://www.w3.org/1999/xlink" x="0px" y="0px"
	 viewBox="0 0 40 40" style="enable-background:new 0 0 40 40;" xml:space="preserve">
<style type="text/css">
	.st0{fill-rule:evenodd;clip-rule:evenodd;}
	.st1{fill:#FFFFFF;}
</style>
<g>
	<path class="st0" d="M-224.7,35l10.7-2.1v22.8h1V37.3l10.7,1.7v16.7h1.3v2.2H-226v-2.2h1.3V35L-224.7,35z M-205.6,45.8h2.1v2.2
		h-2.1V45.8z M-208.6,45.8h2.1v2.2h-2.1V45.8z M-211.7,45.8h2.1v2.2h-2.1V45.8z M-205.6,42.3h2.1v2.2h-2.1V42.3z M-208.6,42.3h2.1
		v2.2h-2.1V42.3z M-211.7,42.3h2.1v2.2h-2.1V42.3z M-223.5,47.3h8.3v1.2h-8.3V47.3L-223.5,47.3z M-223.5,44.2h8.3v1.2h-8.3V44.2z
		 M-223.5,41.1h8.3v1.2h-8.3V41.1z M-223.5,38h8.3v1.2h-8.3V38z"/>
</g>
<g>
	<path class="st1" d="M39,0H1C0.4,0,0,0.4,0,1v31.6c0,0.5,0.4,1,1,1h8.7V39c0,0.5,0.4,1,1,1c0.3,0,0.5-0.1,0.7-0.3l6-6.1H39
		c0.5,0,1-0.4,1-1V1C40,0.4,39.6,0,39,0z M16.3,31.9l-4.6,4.7v-4c0-0.5-0.4-1-1-1H2V2H38v29.7H17C16.7,31.6,16.5,31.8,16.3,31.9z"/>
	<path class="st1" d="M29.7,20.8c2.2,0,4-1.8,4-4c0-2.2-1.8-4-4-4h0c-2.2,0-4,1.8-4,4C25.7,19,27.5,20.8,29.7,20.8z M31.8,16.8
		c0,1.1-0.9,2.1-2.1,2.1h0c-1.1,0-2.1-0.9-2.1-2.1c0-1.1,0.9-2.1,2.1-2.1C30.9,14.7,31.8,15.7,31.8,16.8z"/>
	<path class="st1" d="M20,20.8L20,20.8c2.2,0,4-1.8,4-4c0-2.2-1.8-4-4-4s-4,1.8-4,4C16,19,17.8,20.8,20,20.8z M20,18.9
		c-1.1,0-2.1-0.9-2.1-2.1c0-1.1,0.9-2.1,2.1-2.1c1.1,0,2.1,0.9,2.1,2.1S21.1,18.9,20,18.9z"/>
	<path class="st1" d="M10.3,12.8c-2.2,0-4,1.8-4,4c0,2.2,1.8,4,4,4h0c2.2,0,4-1.8,4-4C14.3,14.6,12.5,12.8,10.3,12.8z M10.3,14.7
		c1.1,0,2.1,0.9,2.1,2.1s-0.9,2.1-2.1,2.1s-2.1-0.9-2.1-2.1C8.2,15.7,9.1,14.7,10.3,14.7z"/>
</g>
</svg>
