<?xml version="1.0" encoding="utf-8"?>
<!-- Generator: Adobe Illustrator 24.1.0, SVG Export Plug-In . SVG Version: 6.00 Build 0)  -->
<svg version="1.1" id="Layer_1" xmlns="http://www.w3.org/2000/svg" xmlns:xlink="http://www.w3.org/1999/xlink" x="0px" y="0px"
	 viewBox="0 0 500 450" style="enable-background:new 0 0 500 450;" xml:space="preserve">
<style type="text/css">
	.st0{opacity:0.2;}
	.st1{fill:#91B3FA;}
	.st2{opacity:0.1;}
	.st3{fill:#FFFFFF;}
	.st4{fill:none;stroke:#000000;stroke-miterlimit:10;}
	.st5{fill:none;stroke:#000000;stroke-miterlimit:10;stroke-dasharray:2.0274,2.0274;}
	.st6{fill:none;stroke:#000000;stroke-miterlimit:10;stroke-dasharray:2.0652,2.0652;}
	.st7{fill:none;stroke:#000000;stroke-miterlimit:10;stroke-dasharray:2.0095,2.0095;}
	.st8{fill:none;stroke:#000000;stroke-miterlimit:10;stroke-dasharray:2.0106,2.0106;}
	.st9{fill:none;stroke:#000000;stroke-miterlimit:10;stroke-dasharray:2.019,2.019;}
	.st10{fill:none;stroke:#000000;stroke-miterlimit:10;stroke-dasharray:1.9431,1.9431;}
	.st11{fill:#FFB48F;}
	.st12{fill:#00008D;}
	.st13{fill:url(#SVGID_1_);}
	.st14{opacity:0.3;}
	.st15{fill:none;stroke:#263238;stroke-miterlimit:10;}
	.st16{fill:url(#SVGID_2_);}
	.st17{opacity:0.1;fill:url(#SVGID_3_);}
	.st18{fill:url(#SVGID_4_);}
	.st19{opacity:0.1;fill:#91B3FA;}
	.st20{fill:none;stroke:#FFFFFF;stroke-width:5;stroke-miterlimit:10;}
	.st21{fill:url(#SVGID_5_);}
	.st22{fill:url(#SVGID_6_);}
	.st23{fill:url(#SVGID_7_);}
	.st24{fill:url(#SVGID_8_);}
	.st25{fill:url(#SVGID_9_);}
	.st26{fill:url(#SVGID_10_);}
	.st27{fill:#FFC727;}
	.st28{fill:url(#SVGID_11_);}
	.st29{fill:url(#SVGID_12_);}
	.st30{opacity:0.32;}
	.st31{fill:url(#SVGID_13_);}
	.st32{fill:url(#SVGID_14_);}
	.st33{fill:#FFBE9B;}
	.st34{fill:#F5F5F5;}
	.st35{fill:#263238;}
	.st36{fill:#F39F11;}
	.st37{fill:#455A64;}
	.st38{fill:#EBEBEB;}
	.st39{fill:#AA6550;}
</style>
<g>
	<g>
		<g class="st0">
			<path class="st1" d="M290.2,382.8c24.1-0.4,50.2-9.8,65.4-17.9c69.8-37.4,101.2-114,100.2-185.7c-1-71.6-48-142.2-116-164.8
				c-14.7-4.9-30.1-7.6-45.6-7.2c-40.5,1.2-77.7,24.5-105.4,54.1c-12.4,13.3-23.5,28-37.9,39.2c-17.8,13.9-39.6,21.6-59.4,32.4
				c-33.4,18.2-63.1,49.1-66.6,86.9c-3.3,35.6,17.6,70,45.5,92.4c28,22.3,62.3,34.7,96,46.8C193.3,368.7,261.4,383.9,290.2,382.8"/>
		</g>
		<g class="st2">
			<path class="st1" d="M380.4,424.3c25.9-8.6,50.7-26.9,64.1-40.2c61.7-61.2,67.3-148.4,39.7-219.6
				c-27.6-71.2-104.5-125.6-186.4-125c-17.7,0.1-35.4,2.7-52,8.4c-43.4,15.1-74.9,51-94,90c-8.6,17.5-15.1,36-26.5,52.1
				c-14.1,20-34.8,35.1-52.3,52.7c-29.3,29.6-50.1,70.6-39.9,109.6c9.6,36.7,44.9,64,83.4,76.7c38.5,12.7,80.3,13.4,121.1,14
				C270.3,443.2,349.5,435.1,380.4,424.3"/>
		</g>
	</g>
	<g>
		<g>
			<path class="st1" d="M443.3,149.8c0,19.9-6.4,38.4-17.3,53.4c0,0,0,0,0,0c-16.5,22.7-43.3,37.4-73.5,37.4
				c-50.2,0-90.8-40.7-90.8-90.8c0-30,14.6-56.7,37-73.2C313.8,65.6,332.4,59,352.5,59c2.5,0,5,0.1,7.4,0.3
				c14.5,1.2,28,5.7,39.7,12.9c9.3,5.7,17.5,13,24.3,21.5c2,2.6,3.9,5.3,5.7,8.1C438.3,115.7,443.3,132.2,443.3,149.8z"/>
			<g>
				<path class="st3" d="M372.1,192.7c-1.1,3.1,0.8,3.2,0.9,4.5c0.1,1.3,0,3.7-3.7,7.4c-3.7,3.7-9.8,2.9-11.1,4.5
					c-1.3,1.5-3.4,8-6.5,10.2s-3.6,0.9-7.9,1.8c-4.3,0.9-7.6,6.5-8.9,9.2c-1.3,2.7,0.3,7.1-2.8,7.2c-3.1,0.1-4.5-6.5-7.2-10
					c-2.8-3.6-3.7-6.7-4.6-10.9c-0.9-4.2,0.5-13,0-16.4c-0.5-3.4-9.7-9.5-13-13.7c-3.3-4.2-7.9-12.6-7.6-15.4c0.3-2.8,2.3-5.9,3.8-7
					c1.5-1.1,0.9-1.8,1.1-2.8c0.3-1,1.5-1.3,1.8-2.5c0.3-1.3-0.8-5.1-2-5.7c-1.3-0.6-2.2,1.5-2.9,1.1c-0.8-0.4-3.1-3.1-3.9-3.3
					c-0.9-0.3-0.6,1.7-1.9-0.8c-1.3-2.4-1.9-8.5-2.9-9.5c-1-1-1.8,1.8-4.2,0c-2.4-1.8-3.4-5.2-4.5-5.7c-1-0.5-2.4,0.1-3.5-1.9
					c-1-2,0.9-5.7,0-5.3c-0.9,0.4-2.9,3.3-3.4,0.5c-0.5-2.8,2.5-12.2,2-17.3c-0.5-5.1,1.3-10.4,4.8-14.8c0,0,0.5-2.8,1-4.6
					c0.5-1.8,11.4-8.9,12.7-10.9c0.5-0.8,0.7-2.2,0.9-3.6C313.8,65.6,332.4,59,352.5,59c2.5,0,5,0.1,7.4,0.3
					c0.1,0.1,0.2,0.2,0.3,0.3c1.1,1.4,2.3,2.3,5.5,3.5c3.2,1.2,4,2.7,3.3,4c-0.7,1.3-1.8,1.5-3.1,1.6c-1.3,0.1-2.5-0.6-3.8,0.3
					c-1.4,0.8-2.7,5.4-4.5,5.7c-1.8,0.3-4.9-4.1-5.6-5.3c-0.7-1.3,1.5-4,0.5-5.3c-1-1.3-2.9-1-5.7-1.3c-2.9-0.3-9.6,0.8-9.3,2
					c0.3,1.1,9.8-0.2,10.1,2c0.3,2.2-7,5.9-8.3,5.6c-1.3-0.3-3-2.5-4.8-2.8c-1.9-0.3-3.4,1.3-4.6,1.4c-1.2,0.2-2.6-1.3-4.3-0.9
					c-1.8,0.3-2.2,1.9-3.1,2.5c-0.9,0.6-3.1,0.6-3.4,1.9c-0.3,1.4,2.8,2.1,3.6,3c0.8,0.8-0.9,3.7-0.2,4.3c0.8,0.6,5.5-3.6,6.7-4.6
					c1.2-1,2.2-5.4,4.7-5.3c2.5,0.1,3.4,4.4,4.2,4.8c0.8,0.4,2.7-1,5.5-0.4c2.8,0.6,4.7,6.7,5.3,8.6c0.5,1.9,1.7,3.7,0.7,4.5
					c-1,0.8-5.6-0.5-6.2-1.7c-0.6-1.2,3.1-3,2.8-3.4c-0.3-0.4-2.4-1-3.5-0.4c-1.1,0.7-1.6,2-2.8,2.4c-1.2,0.3-4.3-3.2-5.2-2.2
					c-0.8,1,0.8,4.2,1.7,5c0.8,0.8,4,1.2,4.2,2c0.3,0.8-2.1,2.7-5,2.5c-2.9-0.2-5.3-2.4-6.4-1.4c-1.1,0.9-0.5,3.4-1.3,4.2
					c-0.8,0.8-4.9,0.3-7,2.5c-2,2.2-3,5.5-5,7.4c-2,1.9-3-0.5-5.7,2.1c-2.7,2.6-3.1,8.5-3.2,10.5c-0.1,2,0,3.6-0.7,3.4
					c-0.7-0.3-1.6-2-1.9-3.1c-0.3-1.1,0.6-3,0.6-3.6c0-0.7-3.9-4.2-6.2-4.5c-2.3-0.3-4.3,1.5-6,2.9c-1.7,1.4-4.7,1.1-5.9,2.2
					c-1.1,1.1-2,10.9-1.1,13.1c0.8,2.3,2,2.3,4.7,1.1c2.7-1.2,1.2-3.5,2.8-3c1.6,0.5,2.5,2.2,2.5,3.6c0,1.4-3.2,4.6-2.8,5.5
					c0.4,0.9,3.2-0.2,4.6,0.3c1.4,0.4,2,1.3,1.6,4.7c-0.4,3.5-0.2,6.2,1.9,7.3c2,1.1,3.2-1.7,4.1-1.3c0.9,0.4,2.2,2.4,3.4,2.3
					c1.3-0.1,0.6-1.3,3.1-2c2.4-0.8,1.5-1.3,2-2.8c0.5-1.5,2-2.8,3.7-2c1.7,0.8,0.5,1.9,0.6,3.2c0.1,1.3,3.1,1.4,5.3,2.2
					c2.3,0.8,3.6,0,8.1,1.5c4.6,1.5,4.8,6.1,6.7,6.9c1.9,0.8,8.3-0.5,12.8,2.8c4.6,3.3,3.3,9.4,5.6,11.2s10.8,4.2,14.1,4.8
					c3.3,0.6,3.8-1.7,6.5-1c2.7,0.6,4.2,1.4,5.1,5.1C383.2,182.8,373.2,189.6,372.1,192.7z"/>
				<path class="st3" d="M303.8,127.7c0.1,0.7,2.2,1,4.7,2.5c2.5,1.4,3.5,5.7,4.8,5.6c1.4-0.1,0.9-2,1.4-2.5c0.5-0.5,1.4-1.6,0-2.7
					c-1.4-1.1-2.7-3.5-5.2-3.8c-2.5-0.3-2.9-1.4-4-1.3C304.5,125.5,303.6,126.2,303.8,127.7z"/>
				<path class="st3" d="M317.8,134.8c-0.4,1,0,1.8,2.7,2.5c2.7,0.7,5.3-0.7,4.4-1.2c-0.8-0.6-2.1-0.3-1.6-1.2
					c0.5-0.9,0.3-2.3-1.9-2C319.2,133,318.1,133.9,317.8,134.8z"/>
				<path class="st3" d="M327.2,135.1c-0.9,0.1-1.4,1.7-0.5,2.8c0.9,1,0.9,0.8,2,0c1.1-0.8,2.8-1.3,2.4-2.1
					C330.7,134.9,328.2,134.9,327.2,135.1z"/>
				<path class="st3" d="M334.6,138.5c0.4-1.3,2.5,0,3.5,1.3c0.9,1.4,0.5,3.3,0,4.7c-0.5,1.4-0.8,3.1-2,2.5
					c-1.2-0.7,0.1-2.7-0.1-3.9C335.8,142,334.3,139.6,334.6,138.5z"/>
				<path class="st3" d="M371.2,67.8c-0.4,1.1,1.6,1.4,2.8,2.1c1.2,0.7,2.1,1.1,2.8,0c0.7-1.1-0.3-2.4-1.2-2.6
					C374.6,67,371.6,66.8,371.2,67.8z"/>
				<path class="st3" d="M387.2,77.7c0.8,0.8,2.1,0.7,3.1,1.9c0.9,1.2,0.6,3.2,1.8,3.8c1.2,0.6,2,0,2.1-0.8c0.1-0.8-1.7-3-1.5-3.4
					c0.2-0.4,2.5,0.6,3,1.9c0.5,1.3-0.5,3.1,0.7,3.4c1.2,0.3,0.9-1.2,1.4-1.5c0.5-0.3,1.6-0.2,1.5-1.2c-0.1-1-1.4-3.2-2.5-4
					c-1.1-0.8-2-1.6-3.8-2s-3.6-0.1-4.6,0.7C387.4,77.1,386.7,77.2,387.2,77.7z"/>
				<path class="st3" d="M423.9,93.7c-0.1,0.4-0.3,0.7-0.5,0.9c-1.8,1.3-3.9-3.1-6.4-4c-2.5-0.8-3.6-4-4.1-3.3
					c-0.5,0.7-0.3,1.6-1.1,2.7c-0.8,1.1-1.9,0.8-2.4,3c-0.5,2.1,2.4,6,1.7,7.3c-0.7,1.3-1.5,0.8-2.9,0.8c-1.4-0.1-1.1,1.1-2.9,0.6
					c-1.8-0.5-0.3-2.7-3.1-5.3c-2.8-2.6-3.7-3.1-3.1-4.3c0.6-1.2-0.3-2.9,1-3.1c1.3-0.2,2.3,1.7,3.1,2.2c0.8,0.5,2-1,2-2.4
					c0.1-1.4-3-3.2-4.1-4.3c-1.1-1.1-1.2-4.9-0.8-5.6c0.4-0.8,1.7-0.5,2-2.4c0.2-1.1-1.5-2.9-3-4.3
					C408.9,77.9,417.2,85.2,423.9,93.7z"/>
				<path class="st3" d="M436.5,169.7c0.3-2.7-1.1-2.9,0.3-7.9c1.4-5-1.4-10.3-2.5-11.4c-1-1.1-3.2-0.8-5,0.3
					c-1.8,1.1-0.5,2-1.7,2.4c-1.2,0.4-2.4-0.3-3.5-0.2c-1.1,0.1-2.1,2.9-4.5,2.8c-2.4-0.1-3.9-3.5-5.7-5.9c-1.8-2.4-5.4-3.9-6.6-6.9
					c-1.2-3,1.1-7.5,0.6-11c-0.5-3.5-2.8-2.7-3.2-4.7c-0.4-2,0.3-1,0.9-2.9c0.6-1.9-0.7-2.9,0.5-6.1c1.2-3.2,3.3-4.8,2.8-6.3
					c-0.5-1.4-2.1-3.8-2.2-5.5c-0.1-1.7,1.6-1.6,4.8-4c3.2-2.4,4.1-2.2,6.5-1.4c2.5,0.8,4,1.3,5.4,1.5c1.4,0.3,3.4,4,4,3.8
					c0.6-0.2,0.7-1.3,0.9-2.9c0.1-0.7,0.6-1.3,1.1-1.8c8.7,13.9,13.8,30.4,13.8,48.1c0,19.9-6.4,38.4-17.3,53.4
					C434.6,190,436.3,172.4,436.5,169.7z"/>
			</g>
			<g>
				<g>
					<g>
						<g>
							<path class="st4" d="M297.9,98c0,0,0.3-0.1,1-0.3"/>
							<path class="st5" d="M300.8,97.2c14.3-3.8,78-17.8,117.6,20.9"/>
							<path class="st4" d="M419.1,118.9c0.2,0.2,0.5,0.5,0.7,0.7"/>
						</g>
					</g>
					<g>
						<g>
							<path class="st4" d="M318.6,152.9c0-0.2-0.1-0.5-0.1-1"/>
							<path class="st6" d="M318.7,149.9c0.6-9.1,2.5-35.1-19.1-50.7"/>
							<path class="st4" d="M298.7,98.6c-0.3-0.2-0.6-0.4-0.8-0.6"/>
						</g>
					</g>
					<g>
						<g>
							<path class="st4" d="M319.6,149.8c0,0,0.2-0.3,0.7-0.7"/>
							<path class="st7" d="M321.7,147.7c8.5-8,42.1-35.7,96.1-28.4"/>
							<path class="st4" d="M418.8,119.5c0.3,0,0.7,0.1,1,0.1"/>
						</g>
					</g>
					<g>
						<g>
							<path class="st4" d="M349.5,164.8c0,0,0.1-0.3,0.1-1"/>
							<path class="st8" d="M349.8,161.8c0.7-10.8-0.7-48-50-63.2"/>
							<path class="st4" d="M298.9,98.3c-0.3-0.1-0.6-0.2-1-0.3"/>
						</g>
					</g>
					<g>
						<g>
							<path class="st4" d="M419.8,119.6c0,0-0.3,0.1-1,0.2"/>
							<path class="st9" d="M416.9,120.3c-13.4,3.5-68.7,22.1-79.6,91.2"/>
							<path class="st4" d="M337.1,212.5c0,0.3-0.1,0.7-0.1,1"/>
						</g>
					</g>
					<g>
						<g>
							<path class="st4" d="M318.6,152.9c0,0,0.2,0.2,0.7,0.7"/>
							<path class="st10" d="M320.6,155.1c6,6.9,23.3,29.5,16.9,56.5"/>
							<path class="st4" d="M337.3,212.5c-0.1,0.3-0.2,0.6-0.3,1"/>
						</g>
					</g>
				</g>
				<path class="st11" d="M303.6,88.5c-0.3-2.8-2.2-5.7-5.7-5.7c-3.4,0-5.4,2.8-5.7,5.7c-0.4,4.4,2.5,8.4,5.7,12
					C301.1,96.9,304,92.9,303.6,88.5z M297.9,91.7c-1.7,0-3.1-1.4-3.1-3.1s1.4-3.1,3.1-3.1c1.7,0,3.1,1.4,3.1,3.1
					S299.6,91.7,297.9,91.7z"/>
				<path class="st12" d="M354.2,155c-0.3-2.8-2.2-5.7-5.7-5.7c-3.4,0-5.4,2.8-5.7,5.7c-0.4,4.4,2.5,8.4,5.7,12
					C351.6,163.4,354.6,159.4,354.2,155z M348.5,158.2c-1.7,0-3.1-1.4-3.1-3.1c0-1.7,1.4-3.1,3.1-3.1c1.7,0,3.1,1.4,3.1,3.1
					C351.6,156.8,350.2,158.2,348.5,158.2z"/>
				<path class="st11" d="M323.3,142.7c-0.3-2.8-2.2-5.7-5.7-5.7c-3.4,0-5.4,2.8-5.7,5.7c-0.4,4.4,2.5,8.4,5.7,12
					C320.8,151,323.8,147.1,323.3,142.7z M317.6,145.8c-1.7,0-3.1-1.4-3.1-3.1c0-1.7,1.4-3.1,3.1-3.1c1.7,0,3.1,1.4,3.1,3.1
					C320.7,144.4,319.4,145.8,317.6,145.8z"/>
				<path class="st11" d="M425.5,111.1c-0.3-2.8-2.2-5.7-5.7-5.7c-3.4,0-5.4,2.8-5.7,5.7c-0.4,4.4,2.5,8.4,5.7,12
					C422.9,119.4,425.9,115.5,425.5,111.1z M419.8,114.2c-1.7,0-3.1-1.4-3.1-3.1s1.4-3.1,3.1-3.1c1.7,0,3.1,1.4,3.1,3.1
					S421.5,114.2,419.8,114.2z"/>
				<path class="st12" d="M342.7,206.1c-0.3-2.8-2.2-5.7-5.7-5.7c-3.4,0-5.4,2.8-5.7,5.7c-0.4,4.4,2.5,8.4,5.7,12
					C340.2,214.4,343.1,210.5,342.7,206.1z M337,209.2c-1.7,0-3.1-1.4-3.1-3.1c0-1.7,1.4-3.1,3.1-3.1c1.7,0,3.1,1.4,3.1,3.1
					C340.1,207.8,338.7,209.2,337,209.2z"/>
			</g>
		</g>
		<g>
			<g>
				<linearGradient id="SVGID_1_" gradientUnits="userSpaceOnUse" x1="217.1686" y1="219.1184" x2="324.9432" y2="219.1184">
					<stop  offset="0" style="stop-color:#021B79"/>
					<stop  offset="1" style="stop-color:#0575E6"/>
				</linearGradient>
				<path class="st13" d="M217.2,156.8l5.6,124.6h102.2l-10.6-50.6l-34-10.7c-1.8-0.6-3.2-2-3.9-3.8L256.1,164L217.2,156.8z"/>
				<g>
					<polygon class="st3" points="228.4,169.9 231,214.9 267.8,218.3 252,171.6 					"/>
					<g class="st14">
						<polygon class="st3" points="229.8,194.6 230.4,204.8 241.5,215.9 252.1,216.9 						"/>
						<polygon class="st3" points="236,170.5 259.6,194.1 257.1,186.8 241.2,170.8 						"/>
						<polygon class="st3" points="228.7,175.2 228.8,176.5 266.4,214 265.8,212.3 						"/>
						<polygon class="st3" points="230.6,208.6 230.7,209.8 236.2,215.4 237.5,215.5 						"/>
					</g>
					<polygon class="st3" points="228.4,169.9 252,171.6 267.8,218.3 265.4,218.1 250.4,173.9 228.5,171.9 					"/>
				</g>
				<line class="st15" x1="278.8" y1="221.2" x2="278.8" y2="279.5"/>
				<path class="st3" d="M318.9,231l-8.3-1.3l4.8,17.1l4.3-0.5c0.9-0.1,1.6-0.9,1.6-1.9l-0.9-11.8
					C320.3,231.8,319.7,231.1,318.9,231z"/>
				<g>
					<linearGradient id="SVGID_2_" gradientUnits="userSpaceOnUse" x1="271.5319" y1="213.5288" x2="286.0232" y2="213.5288">
						<stop  offset="0" style="stop-color:#021B79"/>
						<stop  offset="1" style="stop-color:#0575E6"/>
					</linearGradient>
					<path class="st16" d="M272.4,206.3c-2,1.7-0.2,17,1.2,16.7c1.4-0.3,4.4-0.8,5.7-1.8c1.2-1,8.1-13.3,6.4-15.9
						C284.1,202.7,274,204.9,272.4,206.3z"/>
					<linearGradient id="SVGID_3_" gradientUnits="userSpaceOnUse" x1="271.5319" y1="213.5288" x2="286.0232" y2="213.5288">
						<stop  offset="0" style="stop-color:#021B79"/>
						<stop  offset="1" style="stop-color:#0575E6"/>
					</linearGradient>
					<path class="st17" d="M272.4,206.3c-2,1.7-0.2,17,1.2,16.7c1.4-0.3,4.4-0.8,5.7-1.8c1.2-1,8.1-13.3,6.4-15.9
						C284.1,202.7,274,204.9,272.4,206.3z"/>
				</g>
				<polygon class="st2" points="245.7,228 233,228 233,224.5 245.7,225.1 				"/>
			</g>
			<g>
				<linearGradient id="SVGID_4_" gradientUnits="userSpaceOnUse" x1="9.9228" y1="201.466" x2="219.9572" y2="201.466">
					<stop  offset="0" style="stop-color:#021B79"/>
					<stop  offset="1" style="stop-color:#0575E6"/>
				</linearGradient>
				<polygon class="st18" points="220,281.4 9.9,281.4 21,131.7 212.4,121.5 				"/>
				<g>
					<path class="st3" d="M178.3,178.5l-28.2-23.8l-103.8,8.4l6.3,59.9l100-13.1L178.3,178.5z M166.3,178.9c0.6,2.5-1,5.1-3.5,5.7
						c-2.5,0.6-5-0.9-5.7-3.5c-0.6-2.5,1-5.1,3.5-5.7C163.2,174.8,165.7,176.4,166.3,178.9z"/>
					<g>
						<path d="M163.4,178.8c1.9-0.1,3.8-0.1,5.7,0c1.9,0.1,3.8,0.3,5.7,0.6c3.8,0.6,7.6,1.6,11.3,3.1c1.8,0.8,3.6,1.7,5.3,2.7
							c0.9,0.5,1.7,1.1,2.5,1.7l1.2,1c0.4,0.3,0.8,0.7,1.1,1.1c1.5,1.5,2.8,3.2,3.8,5l0.7,1.4c0.2,0.5,0.4,1,0.6,1.5
							c0.2,0.5,0.3,1,0.5,1.5l0.2,0.8l0.2,0.8c0.5,2,0.6,4.2,0.5,6.3c-0.1,2.1-0.6,4.2-1.2,6.2c-1.4,3.9-3.7,7.4-6.4,10.3
							c-2.7,2.9-5.9,5.3-9.3,7.2c-3.4,1.9-7,3.4-10.8,4.2l-0.2-0.5c3.4-1.6,6.6-3.6,9.5-5.8c2.9-2.3,5.6-4.8,7.8-7.6
							c2.2-2.8,4-5.9,5-9.2c1-3.3,1.2-6.7,0.4-10l-0.1-0.6l-0.2-0.6c-0.1-0.4-0.2-0.8-0.4-1.2c-0.1-0.4-0.3-0.8-0.4-1.2l-0.5-1.1
							c-0.8-1.5-1.8-2.8-2.9-4.1c-2.3-2.5-5.3-4.6-8.5-6.3c-3.2-1.7-6.7-3-10.2-4.2C170.8,180.5,167.2,179.5,163.4,178.8z"/>
						<g>
							<polygon points="179.9,225.2 175.6,233.6 184.3,237.3 171.3,235.2 							"/>
						</g>
					</g>
					<g>
						<path d="M73.1,193l-5.1,0.7l-0.6,2.5l-2.6,0.4l3.4-11.6l2.5-0.3l6.4,10.3l-2.7,0.4L73.1,193z M72.1,191.1l-2.3-4l-1.2,4.4
							L72.1,191.1z"/>
						<path d="M88.2,193.3l-0.9-6.6l-2.5,5.9l-1.1,0.2l-3.9-4.8l0.9,6.4l-2.4,0.3l-1.5-11l2.1-0.3l5,6.2l3.1-7.4L89,182l1.5,10.9
							L88.2,193.3z"/>
						<path d="M100.1,189.2L95,190l-0.6,2.5l-2.6,0.4l3.4-11.6l2.5-0.3l6.4,10.3l-2.7,0.4L100.1,189.2z M99,187.4l-2.3-4l-1.2,4.4
							L99,187.4z"/>
						<path d="M113.7,187.6l0.3,2.1l-9.6,1.3l-0.2-1.6l5-8.1l-5.9,0.8l-0.3-2.1l9.2-1.3l0.2,1.6l-5,8.1L113.7,187.6z"/>
						<path d="M117.7,188.7c-1-0.4-1.8-0.9-2.4-1.7c-0.6-0.8-1-1.7-1.2-2.8c-0.1-1.1,0-2.1,0.4-3c0.4-0.9,1-1.7,1.9-2.3
							c0.8-0.6,1.8-1,3-1.2c1.1-0.2,2.2-0.1,3.2,0.3c1,0.4,1.8,0.9,2.4,1.7c0.6,0.8,1,1.7,1.2,2.8c0.1,1.1,0,2.1-0.4,3
							c-0.4,0.9-1,1.7-1.9,2.3c-0.8,0.6-1.8,1-3,1.2C119.7,189.1,118.7,189,117.7,188.7z M122.3,186.1c0.5-0.4,0.8-0.8,1.1-1.4
							c0.2-0.6,0.3-1.2,0.2-1.9c-0.1-0.7-0.3-1.3-0.7-1.8c-0.4-0.5-0.8-0.8-1.4-1.1c-0.6-0.2-1.2-0.3-1.8-0.2
							c-0.6,0.1-1.2,0.3-1.7,0.7c-0.5,0.4-0.8,0.8-1.1,1.4c-0.2,0.6-0.3,1.2-0.2,1.9c0.1,0.7,0.3,1.3,0.7,1.8
							c0.4,0.5,0.8,0.8,1.4,1.1c0.6,0.2,1.2,0.3,1.8,0.2S121.8,186.5,122.3,186.1z"/>
						<path d="M137.3,175.3l1.5,11l-2.1,0.3l-6.4-5.9l0.9,6.7l-2.5,0.3l-1.5-11l2.1-0.3l6.4,5.9l-0.9-6.7L137.3,175.3z"/>
					</g>
				</g>
				<polygon class="st2" points="220,281.4 9.9,281.4 10.5,273.4 219,260.3 				"/>
			</g>
			<g>
				<polygon class="st19" points="8.9,288.2 329.6,288.2 329.6,278.6 329.6,278.6 8.9,278.6 				"/>
				<polygon class="st3" points="336.3,274 304.3,276 304.3,276 304.3,289.6 338.7,289.6 338.7,289.6 				"/>
				<polygon class="st19" points="22.7,289.6 22.7,276.3 2.5,274.2 0,289.6 				"/>
				<path class="st20" d="M94,291.1c0,0-3-22.1-24.9-22.1S44,291.1,44,291.1"/>
				<path d="M69,269.7c-31.3,0-31.3,48.6,0,48.6C100.3,318.3,100.3,269.7,69,269.7z"/>
				<linearGradient id="SVGID_5_" gradientUnits="userSpaceOnUse" x1="58.3476" y1="293.973" x2="79.6599" y2="293.973">
					<stop  offset="0" style="stop-color:#021B79"/>
					<stop  offset="1" style="stop-color:#0575E6"/>
				</linearGradient>
				<path class="st21" d="M69,282.9c-14.2,0-14.2,22.1,0,22.1C83.2,305,83.2,282.9,69,282.9z"/>
				<path class="st20" d="M281.3,291.1c0,0-3-22.1-24.9-22.1s-25.1,22.1-25.1,22.1"/>
				<path d="M256.5,269.7c-31.3,0-31.3,48.6,0,48.6C287.8,318.3,287.8,269.7,256.5,269.7z"/>
				<linearGradient id="SVGID_6_" gradientUnits="userSpaceOnUse" x1="245.8255" y1="293.973" x2="267.1378" y2="293.973">
					<stop  offset="0" style="stop-color:#021B79"/>
					<stop  offset="1" style="stop-color:#0575E6"/>
				</linearGradient>
				<path class="st22" d="M256.5,282.9c-14.2,0-14.2,22.1,0,22.1C270.7,305,270.7,282.9,256.5,282.9z"/>
			</g>
		</g>
		<linearGradient id="SVGID_7_" gradientUnits="userSpaceOnUse" x1="355.2489" y1="302.2468" x2="390.6207" y2="302.2468">
			<stop  offset="0" style="stop-color:#062684"/>
			<stop  offset="1" style="stop-color:#3054D4"/>
		</linearGradient>
		<rect x="355.2" y="282.7" class="st23" width="35.4" height="39.2"/>
		<linearGradient id="SVGID_8_" gradientUnits="userSpaceOnUse" x1="355.2489" y1="302.2468" x2="390.6207" y2="302.2468">
			<stop  offset="0" style="stop-color:#002FF5"/>
			<stop  offset="0.1894" style="stop-color:#003FF5"/>
			<stop  offset="0.5594" style="stop-color:#0069F4"/>
			<stop  offset="1" style="stop-color:#00A2F4"/>
		</linearGradient>
		<rect x="355.2" y="282.7" class="st24" width="35.4" height="39.2"/>
		<linearGradient id="SVGID_9_" gradientUnits="userSpaceOnUse" x1="336.9847" y1="302.248" x2="355.2491" y2="302.248">
			<stop  offset="0" style="stop-color:#062684"/>
			<stop  offset="1" style="stop-color:#3054D4"/>
		</linearGradient>
		<polygon class="st25" points="337,321.8 355.2,321.8 355.2,282.7 337,282.7 		"/>
		<linearGradient id="SVGID_10_" gradientUnits="userSpaceOnUse" x1="336.9847" y1="302.248" x2="355.2491" y2="302.248">
			<stop  offset="0" style="stop-color:#002FF5"/>
			<stop  offset="0.1894" style="stop-color:#003FF5"/>
			<stop  offset="0.5594" style="stop-color:#0069F4"/>
			<stop  offset="1" style="stop-color:#00A2F4"/>
		</linearGradient>
		<polygon class="st26" points="337,321.8 355.2,321.8 355.2,282.7 337,282.7 		"/>
		<polygon class="st3" points="369.9,291.1 370.7,291.1 371.2,291.1 371.6,290.5 372,291.1 372.6,289.8 373.2,291.1 374.9,291.1 
			375.6,291.1 375.9,290.2 376.1,291.1 376.6,291.1 376.6,282.7 369.9,282.7 		"/>
		<g>
			<path class="st3" d="M338.2,319.1c1.4-2.8,2.7-5.6,4-8.4l4-8.4l3.9-8.5c1.3-2.8,2.6-5.7,3.9-8.5c-1.4,2.8-2.7,5.6-4,8.4l-4,8.4
				l-3.9,8.5C340.8,313.5,339.5,316.3,338.2,319.1z"/>
			<path class="st3" d="M338.2,285.4c1.3,2.8,2.6,5.7,3.9,8.5l3.9,8.5l4,8.4c1.3,2.8,2.7,5.6,4,8.4c-1.3-2.8-2.6-5.7-3.9-8.5
				l-3.9-8.5l-4-8.4C340.9,290.9,339.6,288.1,338.2,285.4z"/>
		</g>
		<rect x="371.6" y="243.5" class="st27" width="35.4" height="39.2"/>
		<linearGradient id="SVGID_11_" gradientUnits="userSpaceOnUse" x1="377.7571" y1="254.3368" x2="401.6581" y2="272.4158">
			<stop  offset="0" style="stop-color:#062684"/>
			<stop  offset="1" style="stop-color:#3054D4"/>
		</linearGradient>
		<rect x="371.6" y="243.5" class="st28" width="35.4" height="39.2"/>
		<linearGradient id="SVGID_12_" gradientUnits="userSpaceOnUse" x1="353.3598" y1="263.0766" x2="371.6241" y2="263.0766">
			<stop  offset="0" style="stop-color:#062684"/>
			<stop  offset="1" style="stop-color:#3054D4"/>
		</linearGradient>
		<polygon class="st29" points="353.4,282.7 371.6,282.7 371.6,243.5 353.4,243.5 		"/>
		
			<rect x="353.4" y="243.5" transform="matrix(-1 -1.224647e-16 1.224647e-16 -1 724.9839 526.1532)" class="st30" width="18.3" height="39.2"/>
		<polygon class="st3" points="386.3,252 387.1,252 387.6,252 387.9,251.3 388.4,252 389,250.6 389.6,252 391.2,252 392,252 
			392.3,251.1 392.5,252 393,252 393,243.5 386.3,243.5 		"/>
		<g>
			<path class="st3" d="M354.6,280c1.4-2.8,2.7-5.6,4-8.4l4-8.4l3.9-8.5c1.3-2.8,2.6-5.7,3.9-8.5c-1.4,2.8-2.7,5.6-4,8.4l-4,8.4
				l-3.9,8.5C357.2,274.3,355.9,277.1,354.6,280z"/>
			<path class="st3" d="M354.6,246.2c1.3,2.8,2.6,5.7,3.9,8.5l3.9,8.5l4,8.4c1.3,2.8,2.7,5.6,4,8.4c-1.3-2.8-2.6-5.7-3.9-8.5
				l-3.9-8.5l-4-8.4C357.3,251.8,356,249,354.6,246.2z"/>
		</g>
		<rect x="400.7" y="282.7" class="st27" width="35.4" height="39.2"/>
		<linearGradient id="SVGID_13_" gradientUnits="userSpaceOnUse" x1="400.6931" y1="302.2468" x2="436.0648" y2="302.2468">
			<stop  offset="0" style="stop-color:#062684"/>
			<stop  offset="1" style="stop-color:#3054D4"/>
		</linearGradient>
		<rect x="400.7" y="282.7" class="st31" width="35.4" height="39.2"/>
		<linearGradient id="SVGID_14_" gradientUnits="userSpaceOnUse" x1="382.4289" y1="302.248" x2="400.6932" y2="302.248">
			<stop  offset="0" style="stop-color:#062684"/>
			<stop  offset="1" style="stop-color:#3054D4"/>
		</linearGradient>
		<polygon class="st32" points="382.4,321.8 400.7,321.8 400.7,282.7 382.4,282.7 		"/>
		
			<rect x="382.4" y="282.7" transform="matrix(-1 -1.224647e-16 1.224647e-16 -1 783.1221 604.4961)" class="st30" width="18.3" height="39.2"/>
		<polygon class="st3" points="415.4,291.1 416.1,291.1 416.7,291.1 417,290.5 417.5,291.1 418.1,289.8 418.6,291.1 420.3,291.1 
			421.1,291.1 421.3,290.2 421.6,291.1 422.1,291.1 422.1,282.7 415.4,282.7 		"/>
		<g>
			<path class="st3" d="M383.7,319.1c1.4-2.8,2.7-5.6,4-8.4l4-8.4l3.9-8.5c1.3-2.8,2.6-5.7,3.9-8.5c-1.4,2.8-2.7,5.6-4,8.4l-4,8.4
				l-3.9,8.5C386.2,313.5,385,316.3,383.7,319.1z"/>
			<path class="st3" d="M383.7,285.4c1.3,2.8,2.6,5.7,3.9,8.5l3.9,8.5l4,8.4c1.3,2.8,2.7,5.6,4,8.4c-1.3-2.8-2.6-5.7-3.9-8.5
				l-3.9-8.5l-4-8.4C386.4,290.9,385,288.1,383.7,285.4z"/>
		</g>
		<g>
			<path d="M325.2,313.5c-4.2,2.6-13.4,6.3-13.4,6.3c-1.4,0.7-1.3,1.8-1.1,2.3c0,0.2,0.2,0.2,0.3,0.2c2.2,0,18.8,0.2,22.3,0
				c3.5-0.2,2.1-7.3,1.9-8.5c0-0.1,0-0.2-0.1-0.3C334.1,313.1,328.9,311.3,325.2,313.5z"/>
			<path d="M359.6,314.6c-3.9,2.9-12.7,7.5-12.7,7.5c-1.4,0.8-1.1,1.9-0.9,2.3c0.1,0.1,0.2,0.2,0.4,0.2c2.1-0.2,18.6-1.6,22.2-2.1
				c3.5-0.5,1.4-7.5,1.1-8.7c-0.1-0.1-0.1-0.2-0.2-0.3C368.5,313.2,363.2,311.9,359.6,314.6z"/>
			<g>
				<path d="M333.6,130.9c-4.7-6.2,2-13.1,2-13.1s0.6,0.7,2.2,3.2c1.6,2.6,3.7,2.3,7.3,4.1c3.6,1.9,9.7,5,8.5,14.2
					c-1.3,9.2-9.4,9.4-9.4,9.4S338.2,137.1,333.6,130.9z"/>
				<path class="st33" d="M342.1,133.9c2.3,3.6,1.7,7.8,2.2,11.5c0.5,3.7,4.2,8.8,4.2,8.8s-8.4,10-11.3,8.9c-0.8-0.3-1.4-8-1.3-8.4
					c0.6-1.7,2.2-4.3,1.9-5.7c-0.3-1.4-2.4-1.2-5-1.2c-2.6,0-3.8-0.2-3.7-6.7c0.1-6.5,4.5-10.2,4.5-10.2
					C337.1,127.5,339.8,130.3,342.1,133.9z"/>
				<path class="st33" d="M343.4,140.9c1.8-0.7,2.9-2.9,2-3.9c-0.9-1-2.9-0.5-2.9-0.5S341.6,141.6,343.4,140.9z"/>
			</g>
			<g>
				<polygon points="356.6,211.8 370.6,313.3 357.4,314.7 340.2,229.6 337.2,315.2 322.7,314.2 323.6,211.8 				"/>
			</g>
			<g>
				<path class="st33" d="M284.2,166.4l4.9,1.1c0.2,0.1,0.1,0.4-0.1,0.4c-3.1-0.6-4.3,1.5-4.5,3c-0.2,1.6,0.7,1.7,0.7,1.7
					c0,1.1,0.8,1.4,0.8,1.4c-0.4,1.6,1.6,2,2.7,2.2c1.1,0.3,1.1-1.3,1.1-1.3s1.1,0.1,2,1s4.3,1.8,4.3,1.8l3.2-6.2l-9.5-6.1L283,164
					C281.1,165.2,284.2,166.4,284.2,166.4z"/>
			</g>
			<g>
				<g>
					<path class="st33" d="M294.9,175c-1.9-0.5-3.3-2.6-3.3-2.6s-1.5,0.3-3.1-0.1s-1.3-1.1-1.3-1.1l3.5-0.7l3.3,0.1"/>
				</g>
				<g>
					<g>
						<path class="st33" d="M293.8,174.5c-0.6-0.4-1.4-1.1-2.2-2.2l-0.1-0.1h-0.1c-1,0.2-2.4,0.1-3.6-0.4c-0.2-0.1-0.4-0.2-0.5-0.3
							c-0.2-0.1-0.2-0.3-0.2-0.4l-0.1,0.1c1.3-0.2,2.5-0.5,3.5-0.7l0,0c1,0.1,1.9,0.1,2.4,0.1c0.6,0,0.9-0.1,0.9-0.1
							c0-0.1-0.3-0.1-0.9-0.1c-0.6,0-1.4-0.1-2.4-0.1l0,0l0,0c-1.1,0.2-2.2,0.4-3.5,0.7h-0.1v0.1c-0.1,0.4,0.1,0.5,0.2,0.7
							c0.2,0.2,0.4,0.3,0.5,0.4c1.3,0.5,2.7,0.5,3.8,0.4l-0.1-0.1C292.4,173.5,293.2,174.2,293.8,174.5c0.4,0.2,0.7,0.4,0.9,0.4
							s0.3,0.1,0.3,0.1S294.6,174.9,293.8,174.5z"/>
					</g>
				</g>
			</g>
			<g>
				<path class="st34" d="M328.9,166.1l7.3-10.5l3.1,6.5l9.1-6.7l3.9,3l-5.6,56.6c-7.6,0.8-14.3,0.1-20.1-2.4L328.9,166.1z"/>
			</g>
			<g>
				<g>
					<path class="st35" d="M336.2,215.2c-0.1-0.1-0.1-0.2-0.1-0.4c-0.1-0.4-0.1-0.9-0.2-1.6c-0.1-0.7-0.1-1.5-0.1-2.4c0-1,0-2,0-3.2
						c0-4.8,0.4-11.5,0.9-18.8s1.2-14,1.7-18.8c0.2-2.4,0.5-4.3,0.6-5.7c0.1-0.7,0.1-1.2,0.2-1.6c0.1-0.2,0.1-0.3,0.1-0.4
						c0-0.1,0-0.1,0-0.1c-0.1,0-0.1,0.1-0.1,0.1c0,0.1-0.1,0.2-0.1,0.4c-0.1,0.4-0.2,0.9-0.2,1.6c-0.2,1.3-0.5,3.3-0.7,5.7
						c-0.5,4.8-1.2,11.4-1.7,18.8c-0.5,7.3-0.9,14-0.8,18.8c0,1.3,0,2.3,0.1,3.3c0.1,1,0.1,1.8,0.2,2.4c0.1,0.7,0.2,1.2,0.2,1.6
						C336.1,215,336.2,215.1,336.2,215.2c-0.1,0.1-0.1,0.2-0.1,0.2S336.2,215.3,336.2,215.2z"/>
				</g>
			</g>
			<g>
				<path class="st36" d="M360.9,219.2l-5.5-19l4.9-37.5l-8.1-4.4l-3.9-3l0.3,0.7c0.4,1,0.5,2.2,0.1,3.2c-1.3,3.4-4.5,11.4-6.5,15.2
					c-2.6,5,1.6,49.2,1.6,49.2L360.9,219.2z"/>
			</g>
			<g class="st14">
				<g>
					<path d="M342.3,205.1l14.4-0.5l0.8,2.6c-1.9-0.1-4.2,0.9-5.8,2c-1.6,1.1-1.7,2.2-3.5,2.4c-3.5,0.5-2-1.5-5.4-0.8L342.3,205.1z"
						/>
				</g>
			</g>
			<g>
				<path class="st36" d="M326.4,159.4l9.4-3.2l-2.7,6c-0.8,1.8-1.3,3.8-1.3,5.9l-3.1,54.6l-7.1-2.6l2.8-19.8l-1.4-35.3L326.4,159.4
					z"/>
			</g>
			<g>
				<g>
					<path class="st36" d="M355.9,177.8l2.3,15.2c-1.7,1.1-11.3,2.5-11.3,2.5l-1.9,8.2c0,0,10.8,1.3,17.2,0.4c0.1,0,0.1,0,0.2,0
						c4.2-0.6,7.1-4.4,6.7-8.6c-0.6-6.7-2.7-20-3.5-23.7c-1-5.2-5.4-9-5.4-9C357.8,163.3,355.9,177.9,355.9,177.8z"/>
				</g>
			</g>
			<g>
				<path class="st36" d="M295.8,178.4l19.1,15.5c2.2,1.7,5.2,1.9,7.5,0.4l0,0c1.6-1,2.6-2.6,2.9-4.4l3.9-31.7l-4.4,1.5
					c-3.6,3.9-9.3,20.4-9.3,20.4l-15.7-9.9L295.8,178.4z"/>
			</g>
			<g>
				<g>
					<path class="st35" d="M361.1,197.3c-0.1-0.6-0.2-1.4-0.7-2.2c-0.4-0.8-1.1-1.4-1.6-1.7c-0.5-0.3-0.8-0.4-0.8-0.4
						c-0.1,0,0.2,0.2,0.7,0.5s1,1,1.4,1.7c0.5,0.8,0.7,1.6,0.7,2.1c0.1,0.5,0.1,0.9,0.1,0.9S361.1,197.9,361.1,197.3z"/>
				</g>
			</g>
			<g>
				<g>
					<path class="st35" d="M359.6,198.3c0.1-0.6,0.1-1.4-0.1-2.4c-0.2-1-0.5-1.7-0.9-2.3c-0.4-0.5-0.7-0.8-0.7-0.8
						c-0.1,0.1,0.9,1.3,1.3,3.1c0.4,1.9-0.1,3.3,0.1,3.3C359.4,199.3,359.5,199,359.6,198.3z"/>
				</g>
			</g>
			<g>
				<g>
					<path class="st35" d="M358.6,164.6c-0.4,0.3-0.8,0.7-1.3,1.3c-1,1.2-1.9,3.1-2.2,5.4c-0.2,2.3,0.1,4.4,0.3,5.9
						c0.1,0.7,0.2,1.3,0.4,1.7c0.1,0.4,0.2,0.7,0.2,0.7s0-0.2-0.1-0.7c-0.1-0.5-0.1-1-0.2-1.7c-0.2-1.5-0.5-3.5-0.2-5.8
						c0.3-2.3,1.2-4.2,2.1-5.3c1-1.1,1.8-1.6,1.7-1.7C359.2,164.3,359,164.4,358.6,164.6z"/>
				</g>
			</g>
			<g class="st14">
				<g>
					<path d="M358.7,193.3c0.8,0.8,1.6,1.7,2,2.8c0.5,1.1,0.5,2.4-0.1,3.3c-0.1,0.2-0.3,0.4-0.5,0.4s-0.4-0.3-0.2-0.4
						c-0.1,0.2-0.2,0.5-0.4,0.7c-0.2,0.2-0.6,0.2-0.7,0c-0.1-0.2-0.1-0.4,0-0.6c0.4-1.1,0.6-2.2,0.5-3.3c-0.1-1.1-0.4-2.3-1.1-3.2"
						/>
				</g>
			</g>
			<g>
				<g>
					<path class="st35" d="M317.2,183.4c-0.9-1.7-1.5-3.2-1.6-3.2s0.4,1.6,1.3,3.3c0.9,1.7,1.9,3,1.9,2.9
						C318.9,186.4,318.1,185.1,317.2,183.4z"/>
				</g>
			</g>
			<g>
				<g>
					<path class="st35" d="M315.9,183.9c-0.4-2.1-0.6-3.8-0.7-3.8c-0.1,0-0.1,0.4,0,1.1c0.1,0.7,0.2,1.6,0.4,2.7
						c0.2,1,0.4,2,0.6,2.6c0.2,0.7,0.4,1.1,0.4,1.1C316.7,187.6,316.3,185.9,315.9,183.9z"/>
				</g>
			</g>
			<g>
				<g>
					<path class="st35" d="M324.2,184.8c0,8.5,0.1,15.4,0.1,15.4c0.1,0,0.1-6.9,0.1-15.4c0-8.5-0.1-15.4-0.1-15.4
						C324.2,169.4,324.1,176.3,324.2,184.8z"/>
				</g>
			</g>
			<g>
				<g>
					<path class="st35" d="M333.7,157.1c-0.1,0.1-0.4,0.4-0.6,0.7c-0.5,0.7-1.2,1.7-2,2.9c-0.4,0.7-0.8,1.4-1.1,2.2s-0.7,1.7-1,2.6
						c-0.2,1-0.3,2-0.5,3.1l-0.1,0.4v0.2c0,0.1,0,0.2,0,0.2c0.1,0.4,0.2,0.6,0.4,0.8c0.4,0.4,0.8,0.8,1.3,1.1v-0.2
						c-0.4,0.2-0.7,0.4-1,0.7c-0.4,0.3-0.8,0.6-1.1,1l-0.1,0.1v0.1c0.2,2.3,0.5,4.4,0.8,6.3c0.3,1.9,0.5,3.6,0.8,5
						c0.2,1.4,0.4,2.5,0.5,3.3c0.1,0.4,0.1,0.7,0.2,0.9c0,0.2,0.1,0.3,0.1,0.3s0-0.1,0-0.3c-0.1-0.2-0.1-0.5-0.1-0.9
						c-0.1-0.8-0.3-2-0.5-3.4s-0.4-3.2-0.7-5.1c-0.3-1.9-0.7-4.1-0.8-6.3l-0.1,0.1c0.4-0.3,0.7-0.7,1.1-1c0.3-0.2,0.6-0.5,0.9-0.6
						l0.2-0.1l-0.2-0.2c-0.9-0.6-2-1.3-1.6-2.4c0.1-1.1,0.2-2.1,0.4-3c0.5-1.9,1.3-3.5,2-4.8c0.8-1.3,1.4-2.3,1.9-2.9
						C333.3,157.5,333.5,157.2,333.7,157.1c0.1-0.2,0.1-0.4,0.1-0.4S333.8,156.8,333.7,157.1z"/>
				</g>
			</g>
			<g>
				<g>
					<path class="st35" d="M351.3,158.7c0.1,0.6,0.1,1.5-0.1,2.6c-0.2,1.1-0.5,2.3-0.9,3.7c-0.4,1.4-1,2.9-1.6,4.4
						c-0.6,1.4-1.3,2.6-1.9,3.8l0.1-0.1c-0.5,0.1-1,0.2-1.4,0.3l-0.2,0.1l0.1,0.2c0.3,0.4,0.6,0.7,0.9,1v-0.1
						c-0.7,1.3-1.4,2.4-1.9,3.2c-0.2,0.4-0.4,0.7-0.5,0.9s-0.2,0.4-0.2,0.4s0.1-0.1,0.2-0.3c0.1-0.2,0.3-0.5,0.5-0.8
						c0.5-0.8,1.2-1.9,2-3.2l0.1-0.1l-0.1-0.2c-0.3-0.3-0.6-0.7-0.9-1l-0.1,0.2c0.5-0.1,0.9-0.2,1.4-0.3h0.1l0.1-0.1
						c0.6-1.1,1.3-2.4,1.9-3.8c0.7-1.5,1.3-3,1.6-4.4c0.4-1.4,0.7-2.6,0.8-3.8C351.4,160.2,351.4,159.3,351.3,158.7
						c0-0.3,0-0.5-0.1-0.7c0-0.2-0.1-0.2-0.1-0.2C351.1,157.8,351.2,158.1,351.3,158.7z"/>
				</g>
			</g>
			<g class="st14">
				<g>
					<path d="M318.3,186.7c0,0.2-0.2,0.5-0.5,0.4c-0.2,0-0.3-0.1-0.4-0.2c-0.6-0.7-1.1-1.5-1.6-2.3c0.1,0.2,0.2,0.4,0.1,0.7
						c-0.1,0.2-0.2,0.4-0.5,0.4c-0.2,0-0.2-0.2-0.3-0.4c-0.7-1.7-0.9-3.6-0.3-5.4l0.7,0.5c0.8,1.9,1.8,3.9,2.5,5.9
						C318.2,186.4,318.4,186.6,318.3,186.7z"/>
				</g>
			</g>
			<g class="st14">
				<g>
					<path d="M330.1,187.9c-0.5-4.2-1.1-8.4-1.7-12.5c-0.1-0.8-0.2-1.7,0-2.5c0.2-0.8,1-1.6,1.8-1.6c-0.6-0.6-1.1-1.1-1.7-1.7
						c-0.5,0.5-0.5,1.4,0,1.9c-0.8,0.3-1.4,1.1-1.7,2c-0.2,0.9-0.2,1.8-0.1,2.7C327.3,180.2,328.6,184,330.1,187.9"/>
				</g>
			</g>
			<g class="st14">
				<g>
					<path d="M347.3,174.5c0.2,0.4,0.4,0.8,0.7,1.2c-0.7,1.2-1.4,2.3-2.2,3.5l-2-0.2c1-1.5,1.9-3.1,2.7-4.6
						c-0.4-0.3-0.8-0.6-1.3-0.9c0.7,0.1,1.5-0.3,2-0.8c0.5-0.5,0.8-1.3,1.1-1.9c0.7-1.6,1.4-3.3,2-4.9c-0.8,2.9-1.6,5.7-2.4,8.6
						C347.7,174.5,347.5,174.5,347.3,174.5z"/>
				</g>
			</g>
			<g>
				<polygon class="st34" points="335,160.2 335.5,162.8 337.7,164 341.4,164.7 344.4,163.4 347.1,161.3 348.5,157.8 348.5,154.1 
					341.3,158.3 339.2,162.2 338.4,158.3 335.9,154.7 335.7,156.1 				"/>
			</g>
			<g>
				<g>
					<path class="st35" d="M337.6,159.4c-0.3,0.8-0.6,2-0.5,3.3l0.3-0.1c-0.1-0.1-0.1-0.2-0.2-0.3c-0.7-1.2-1.1-2.4-1.5-3.2
						c-0.4-0.8-0.8-1.3-0.8-1.3c-0.1,0,0.2,0.5,0.6,1.3s0.7,2,1.4,3.3c0.1,0.1,0.1,0.2,0.2,0.3l0.3,0.5v-0.5
						c-0.1-1.3,0.2-2.4,0.4-3.2c0.2-0.8,0.4-1.3,0.4-1.3C338.2,158.2,337.9,158.7,337.6,159.4z"/>
				</g>
			</g>
			<g>
				<g>
					<path class="st35" d="M348.3,157.2c-0.1,0.4-0.4,0.8-0.8,1.3c-0.4,0.4-1,0.9-1.7,1.4c-0.7,0.4-1.5,1-2.3,1.6
						c-0.7,0.5-1.3,1.1-2,1.5l0.2,0.1c0.1-0.7,0.1-1.4,0-1.9c-0.1-0.6-0.1-1.1-0.2-1.5c-0.2-0.8-0.3-1.3-0.3-1.3s0.1,0.5,0.1,1.3
						c0.1,0.4,0.1,0.9,0.1,1.4c0,0.6,0.1,1.2-0.1,1.9l-0.1,0.3l0.2-0.2c0.7-0.4,1.3-1,2-1.5c0.8-0.7,1.5-1.2,2.2-1.7
						c0.7-0.5,1.3-1,1.7-1.5c0.5-0.5,0.7-1,0.8-1.4c0.1-0.2,0.1-0.3,0.1-0.4c0-0.1,0-0.1,0-0.1C348.4,156.5,348.4,156.7,348.3,157.2
						z"/>
				</g>
			</g>
			<g>
				<g>
					<path class="st35" d="M356.9,204.4c-0.2,0-0.4,0-0.7,0c-0.6,0-1.4,0-2.5,0c-2.2,0-5.2-0.1-8.7-0.2h0.1c0.5-2.2,1-4.6,1.6-7.2
						c0.1-0.5,0.2-1,0.3-1.4l-0.1,0.1c4.4-0.7,8.4-1.3,11.3-2.6l0.1-0.1V193c-0.4-2-0.6-3.6-0.8-4.7c-0.1-0.5-0.2-1-0.2-1.3
						c-0.1-0.3-0.1-0.4-0.1-0.4s0,0.2,0.1,0.5c0.1,0.4,0.1,0.8,0.2,1.3c0.2,1.1,0.4,2.7,0.7,4.7l0.1-0.1c-2.8,1.2-6.8,1.9-11.2,2.5
						h-0.1v0.1c-0.1,0.5-0.2,1-0.3,1.4c-0.6,2.6-1.1,5-1.6,7.2l0,0l0,0c0,0.1,0.1,0.1,0.1,0.1h0.1c0.1,0,0.1,0,0.1,0
						c0.1,0,0.1,0,0.2,0l0.4,0.1c0.2,0.1,0.4,0.1,0.7,0.1c0.4,0,0.8,0.1,1.3,0.1c0.8,0.1,1.6,0.1,2.3,0.1c1.4,0,2.7,0,3.8,0
						c1.1,0,1.9-0.1,2.5-0.1c0.2-0.1,0.5-0.1,0.7-0.1s0.2,0,0.2,0C357.1,204.5,357.1,204.5,356.9,204.4z"/>
				</g>
			</g>
			<g>
				<g>
					<g>
						<polygon class="st37" points="339,182.5 331.1,205.4 349.7,204.8 349.7,204.5 345,204.3 346.9,195.6 354.1,194.4 358.9,182.5 
													"/>
					</g>
					<g>
						<polygon class="st37" points="328.6,201 331.1,205.4 339,182.5 336.3,178.7 						"/>
					</g>
					<g>
						<polygon class="st38" points="339,182.5 336.3,178.7 356,179.8 358.9,182.5 						"/>
					</g>
					<g>
						<g>
							<path class="st35" d="M334.9,193.9c-2.2,6.3-3.8,11.4-3.8,11.5c0.1,0.1,1.9-5.1,4.1-11.3c2.2-6.3,3.8-11.5,3.8-11.5
								S337,187.6,334.9,193.9z"/>
						</g>
					</g>
				</g>
				<g>
					<path class="st33" d="M345.2,202.9l-6.6-0.7c0,0-6.3-1.4-7-2.1s-1.1-2.8-1.1-2.8c-1-0.8-0.7-2.5-0.7-2.5
						c-1.3-1.9,0.1-1.8,0.1-1.8c-0.1-0.1-0.1-0.1-0.1-0.2c-0.2-0.7,0.8-1.3,1.4-0.7c1,0.9,2.3,2.2,2.5,2.2c0.2,0,1.7,0.3,3,0.5
						c0.9,0.2,1.6-0.7,1.4-1.6l0,0c0,0-2.1-1.2-2.4-1.6c-0.7-0.8,0-1.6,0-1.6s4.5,2.2,5.3,2.9c0.8,0.7,2.2,2.9,2.2,2.9l3.4,0.3
						L345.2,202.9z"/>
				</g>
				<g>
					<g>
						<path class="st39" d="M335,196.5c-0.7-0.1-1.6-0.2-2.5-0.7c-0.9-0.5-1.5-1.4-1.9-1.9c-0.4-0.5-0.6-0.9-0.7-0.9s0.1,0.4,0.5,1
							s0.9,1.4,1.9,2s2,0.7,2.7,0.7c0.7,0.1,1.1,0.1,1.1,0S335.7,196.6,335,196.5z"/>
					</g>
				</g>
				<g>
					<g>
						<path class="st39" d="M334.4,198.1c-0.3-0.1-0.7-0.1-1.1-0.2c-0.4-0.1-0.8-0.2-1.2-0.5c-0.4-0.3-0.7-0.7-1-1
							c-0.2-0.3-0.5-0.6-0.7-0.8c-0.4-0.5-0.7-0.7-0.7-0.7c0,0,0.2,0.4,0.6,0.8c0.2,0.3,0.5,0.6,0.7,0.9c0.2,0.4,0.5,0.7,1,1
							c0.4,0.3,0.9,0.4,1.3,0.5c0.4,0.1,0.8,0.2,1.1,0.2c0.6,0.1,1,0,1-0.1S335.1,198.2,334.4,198.1z"/>
					</g>
				</g>
				<g>
					<g>
						<path class="st39" d="M333.9,199.6c-0.5-0.2-1.1-0.4-1.7-0.5c-0.1,0-0.2-0.1-0.4-0.2c-0.1-0.1-0.2-0.2-0.4-0.3
							c-0.2-0.2-0.4-0.4-0.5-0.6c-0.3-0.4-0.4-0.6-0.5-0.6c0,0,0.1,0.3,0.3,0.7c0.1,0.2,0.3,0.4,0.5,0.7c0.1,0.1,0.2,0.2,0.4,0.4
							c0.1,0.1,0.2,0.2,0.5,0.3c1.4,0.4,2.5,0.6,2.5,0.5C334.6,199.8,334.4,199.7,333.9,199.6z"/>
					</g>
				</g>
			</g>
		</g>
	</g>
	<g>
		<path d="M59.5,244.1l-2.5,8.7l-1.9,0.3l-4.7-7.7l2.1-0.3l3.3,5.5l1.7-6.2L59.5,244.1z"/>
		<path d="M67.5,249.8l0.2,1.5l-6.4,0.9l-1.1-8.2l6.2-0.8l0.2,1.5l-4.3,0.6l0.2,1.8l3.8-0.5l0.2,1.5l-3.8,0.5l0.3,1.9L67.5,249.8z"
			/>
		<path d="M75.6,241.9l1.1,8.2l-1.6,0.2l-4.8-4.4l0.7,5l-1.9,0.3l-1.1-8.2l1.6-0.2l4.8,4.4l-0.7-5L75.6,241.9z"/>
		<path d="M77.6,241.6l3.7-0.5c0.9-0.1,1.7-0.1,2.4,0.2c0.7,0.2,1.3,0.7,1.8,1.2c0.5,0.6,0.7,1.3,0.9,2.1c0.1,0.8,0,1.6-0.3,2.2
			c-0.3,0.7-0.8,1.2-1.4,1.7c-0.6,0.4-1.4,0.7-2.3,0.8l-3.7,0.5L77.6,241.6z M82.1,247.8c0.8-0.1,1.4-0.4,1.9-1
			c0.4-0.5,0.6-1.2,0.5-2c-0.1-0.8-0.4-1.4-1-1.8s-1.2-0.5-2.1-0.4l-1.7,0.2l0.7,5.1L82.1,247.8z"/>
		<path d="M90,247.9c-0.7-0.3-1.3-0.7-1.8-1.3c-0.5-0.6-0.8-1.3-0.9-2.1c-0.1-0.8,0-1.6,0.3-2.3c0.3-0.7,0.8-1.3,1.4-1.7
			c0.6-0.5,1.4-0.7,2.2-0.9c0.9-0.1,1.6,0,2.4,0.2c0.7,0.3,1.3,0.7,1.8,1.3c0.5,0.6,0.8,1.3,0.9,2.1c0.1,0.8,0,1.6-0.3,2.3
			c-0.3,0.7-0.8,1.3-1.4,1.7c-0.6,0.5-1.4,0.7-2.2,0.9C91.5,248.3,90.7,248.2,90,247.9z M93.4,246c0.4-0.3,0.6-0.6,0.8-1.1
			c0.2-0.4,0.2-0.9,0.2-1.4c-0.1-0.5-0.2-0.9-0.5-1.3c-0.3-0.4-0.6-0.6-1-0.8c-0.4-0.2-0.9-0.2-1.4-0.2c-0.5,0.1-0.9,0.2-1.3,0.5
			c-0.4,0.3-0.6,0.6-0.8,1.1s-0.2,0.9-0.2,1.4c0.1,0.5,0.2,0.9,0.5,1.3c0.3,0.4,0.6,0.6,1,0.8c0.4,0.2,0.9,0.2,1.4,0.2
			C92.6,246.5,93,246.3,93.4,246z"/>
		<path d="M103.5,246.5l-1.9-2.1l-0.1,0l-1.7,0.2l0.3,2.3l-1.9,0.3l-1.1-8.2l3.6-0.5c0.7-0.1,1.4-0.1,1.9,0.1c0.6,0.2,1,0.5,1.4,0.9
			c0.3,0.4,0.6,0.9,0.6,1.5c0.1,0.6,0,1.2-0.2,1.6c-0.2,0.5-0.6,0.9-1.1,1.2l2.2,2.4L103.5,246.5z M102.2,240.3
			c-0.3-0.2-0.8-0.3-1.4-0.2l-1.6,0.2l0.4,2.9l1.5-0.2c0.6-0.1,1-0.3,1.3-0.6c0.3-0.3,0.4-0.7,0.3-1.1
			C102.7,240.8,102.5,240.5,102.2,240.3z"/>
		<path d="M111.8,245c-0.7-0.3-1.3-0.7-1.8-1.3c-0.5-0.6-0.8-1.3-0.9-2.1c-0.1-0.8,0-1.6,0.3-2.3c0.3-0.7,0.8-1.3,1.4-1.7
			c0.6-0.5,1.4-0.7,2.2-0.9c0.7-0.1,1.4-0.1,2,0.1c0.6,0.2,1.1,0.5,1.6,0.9l-1.1,1.3c-0.6-0.6-1.4-0.8-2.2-0.7
			c-0.5,0.1-0.9,0.2-1.3,0.5c-0.4,0.3-0.6,0.6-0.8,1.1s-0.2,0.9-0.2,1.4c0.1,0.5,0.2,0.9,0.5,1.3c0.3,0.4,0.6,0.6,1.1,0.8
			c0.4,0.2,0.9,0.2,1.4,0.2c0.8-0.1,1.5-0.5,1.9-1.3l1.4,1c-0.3,0.5-0.8,1-1.3,1.3c-0.5,0.3-1.2,0.5-1.9,0.6
			C113.3,245.4,112.6,245.3,111.8,245z"/>
		<path d="M125,242.1l0.2,1.5l-6.4,0.9l-1.1-8.2l6.2-0.8l0.2,1.5l-4.3,0.6l0.2,1.8l3.8-0.5l0.2,1.5l-3.8,0.5l0.3,1.9L125,242.1z"/>
		<path d="M133.1,234.2l1.1,8.2l-1.6,0.2l-4.8-4.4l0.7,5l-1.9,0.3l-1.1-8.2l1.6-0.2l4.8,4.4l-0.7-5L133.1,234.2z"/>
		<path d="M137,235.2l-2.6,0.4l-0.2-1.5l7.2-1l0.2,1.5l-2.6,0.4l0.9,6.7l-1.9,0.3L137,235.2z"/>
		<path d="M148.7,240.5l-1.9-2.1l-0.1,0l-1.7,0.2l0.3,2.3l-1.9,0.3l-1.1-8.2l3.6-0.5c0.7-0.1,1.4-0.1,1.9,0.1c0.6,0.2,1,0.5,1.4,0.9
			c0.3,0.4,0.6,0.9,0.6,1.5c0.1,0.6,0,1.2-0.2,1.6c-0.2,0.5-0.6,0.9-1.1,1.2l2.2,2.4L148.7,240.5z M147.4,234.2
			c-0.3-0.2-0.8-0.3-1.4-0.2l-1.6,0.2l0.4,2.9l1.5-0.2c0.6-0.1,1-0.3,1.3-0.6c0.3-0.3,0.4-0.7,0.3-1.1
			C147.9,234.8,147.7,234.4,147.4,234.2z"/>
		<path d="M157.3,237.5l-3.8,0.5l-0.5,1.9l-1.9,0.3l2.6-8.7l1.9-0.3l4.8,7.7l-2,0.3L157.3,237.5z M156.5,236.2l-1.7-3l-0.9,3.3
			L156.5,236.2z"/>
		<path d="M160,230.6l1.9-0.3l0.9,6.7l4.1-0.6l0.2,1.5l-6,0.8L160,230.6z"/>
	</g>
</g>
</svg>
