<?xml version="1.0" encoding="utf-8"?>
<!-- Generator: Adobe Illustrator 24.1.0, SVG Export Plug-In . SVG Version: 6.00 Build 0)  -->
<svg version="1.1" xmlns="http://www.w3.org/2000/svg" xmlns:xlink="http://www.w3.org/1999/xlink" x="0px" y="0px"
	 viewBox="0 0 500 120" style="enable-background:new 0 0 500 120;" xml:space="preserve">
<style type="text/css">
	.st0{fill:#FFFFFF;}
</style>
<g id="Layer_1">
	<g>
		<g>
			<g>
				<g>
					<rect x="230.4" y="36.6" class="st0" width="32.1" height="4.3"/>
					<rect x="230.4" y="57.5" class="st0" width="29.2" height="4.3"/>
					<rect x="230.4" y="79.1" class="st0" width="33.1" height="4.3"/>
				</g>
				<g>
					<polygon class="st0" points="202.2,36.6 194,60.7 196.9,66.3 206.9,36.6 					"/>
					<polygon class="st0" points="188.5,77.1 174.7,36.6 170,36.6 156,76.9 142.5,36.6 137.4,36.6 153.2,83.4 158.4,83.4 
						172.2,43.5 185.9,83.4 191.1,83.4 193.4,76.7 190.5,71.1 					"/>
				</g>
				<path class="st0" d="M322.7,63.2c-1.7-2-4-3.3-7.1-4c2.2-0.9,4-2.2,5.3-4c1.3-1.8,1.9-4,1.9-6.6c0-3.8-1.4-6.8-4.3-8.9
					c-2.9-2.1-6.9-3.1-12.2-3.1h-20.2v25l5,4.1v-3.9h16.5c8.5,0,12.7,2.9,12.7,8.8c0,3-1.1,5.3-3.2,6.7c-2.1,1.4-5.3,2.1-9.5,2.1
					H291v-3.5l-5-4.1v11.6h21.6c5.8,0,10.2-1.1,13.2-3.2c3-2.2,4.5-5.3,4.5-9.3C325.2,67.8,324.4,65.2,322.7,63.2z M306,57.7H291
					v-17H306c3.8,0,6.7,0.7,8.8,2.2c2.1,1.5,3.1,3.6,3.1,6.3c0,2.8-1,4.9-3.1,6.3C312.7,56.9,309.8,57.7,306,57.7z"/>
			</g>
			<g>
				<g>
					<rect x="411.3" y="36.6" class="st0" width="32.1" height="4.3"/>
					<rect x="411.3" y="57.5" class="st0" width="29.2" height="4.3"/>
					<rect x="411.3" y="79.1" class="st0" width="33.1" height="4.3"/>
				</g>
				<g>
					<rect x="466.9" y="36.6" class="st0" width="32.1" height="4.3"/>
					<rect x="466.9" y="57.5" class="st0" width="29.2" height="4.3"/>
					<rect x="466.9" y="79.1" class="st0" width="33.1" height="4.3"/>
				</g>
				<path class="st0" d="M385.3,63.2c-1.7-2-4-3.3-7.1-4c2.2-0.9,4-2.2,5.3-4c1.3-1.8,1.9-4,1.9-6.6c0-3.8-1.4-6.8-4.3-8.9
					c-2.9-2.1-6.9-3.1-12.2-3.1h-20.2v25l5,4.1v-3.9h16.5c8.5,0,12.7,2.9,12.7,8.8c0,3-1.1,5.3-3.2,6.7c-2.1,1.4-5.3,2.1-9.5,2.1
					h-16.5v-3.5l-5-4.1v11.6h21.6c5.8,0,10.2-1.1,13.2-3.2c3-2.2,4.5-5.3,4.5-9.3C387.8,67.8,387,65.2,385.3,63.2z M368.6,57.7
					h-14.9v-17h14.9c3.8,0,6.7,0.7,8.8,2.2c2.1,1.5,3.1,3.6,3.1,6.3c0,2.8-1,4.9-3.1,6.3C375.3,56.9,372.4,57.7,368.6,57.7z"/>
			</g>
		</g>
		<g>
			<path class="st0" d="M0,59V18.3L51,0.5v40.7L0,59z M5.3,22.1v29.4l40.4-14.1V8L5.3,22.1z"/>
			<path class="st0" d="M103.8,59l-51-17.8V0.5l51,17.8V59z M58.1,37.4l40.4,14.1V22.1L58.1,8V37.4z"/>
			<path class="st0" d="M0,53.4h5.3v5.2l45.7-16v40.7L0,101.1V60.5V53.4z M5.3,64.2v29.4l40.4-14.1V50.1L5.3,64.2z"/>
			<path class="st0" d="M103.8,60.5v40.7l-51-17.8V42.6l45.8,16l-0.1-3.2h5.3V60.5z M58.1,79.5l40.4,14.1V64.2L58.1,50.1V79.5z"/>
			<polygon class="st0" points="0,101.1 0,96.1 52.8,113.9 103.8,96.1 103.7,101.1 52.9,119.5 			"/>
		</g>
	</g>
</g>
<g id="Layer_2">
</g>
</svg>
