<?xml version="1.0" encoding="utf-8"?>
<!-- Generator: Adobe Illustrator 24.1.0, SVG Export Plug-In . SVG Version: 6.00 Build 0)  -->
<svg version="1.1" id="Layer_1" xmlns="http://www.w3.org/2000/svg" xmlns:xlink="http://www.w3.org/1999/xlink" x="0px" y="0px"
	 viewBox="0 0 300 72" style="enable-background:new 0 0 300 72;" xml:space="preserve">
<style type="text/css">
	.st0{fill:#1233FF;}
	.st1{fill:#001E68;}
	.st2{fill:url(#SVGID_1_);}
	.st3{fill:url(#SVGID_2_);}
	.st4{fill:url(#SVGID_3_);}
	.st5{fill:url(#SVGID_4_);}
	.st6{fill:url(#SVGID_5_);}
</style>
<g>
	<g>
		<g>
			<g>
				<rect x="138.2" y="21.9" class="st0" width="19.3" height="2.6"/>
				<rect x="138.2" y="34.5" class="st0" width="17.5" height="2.6"/>
				<rect x="138.2" y="47.5" class="st0" width="19.9" height="2.6"/>
			</g>
			<g>
				<polygon class="st0" points="121.3,21.9 116.4,36.4 118.1,39.8 124.2,21.9 				"/>
				<polygon class="st0" points="113.1,46.2 104.8,21.9 102,21.9 93.6,46.1 85.5,21.9 82.5,21.9 91.9,50.1 95,50.1 103.3,26.1 
					111.5,50.1 114.7,50.1 116,46 114.3,42.7 				"/>
			</g>
			<path class="st0" d="M193.6,37.9c-1-1.2-2.4-2-4.3-2.4c1.3-0.5,2.4-1.3,3.2-2.4c0.8-1.1,1.1-2.4,1.1-4c0-2.3-0.9-4.1-2.6-5.3
				c-1.7-1.3-4.2-1.9-7.3-1.9h-12.1v15l3,2.5V37h9.9c5.1,0,7.6,1.8,7.6,5.3c0,1.8-0.6,3.2-1.9,4c-1.3,0.9-3.2,1.3-5.7,1.3h-9.9v-2.1
				l-3-2.5v7h12.9c3.5,0,6.1-0.6,7.9-1.9c1.8-1.3,2.7-3.2,2.7-5.6C195.1,40.7,194.6,39.1,193.6,37.9z M183.6,34.6h-9V24.4h9
				c2.3,0,4,0.4,5.3,1.3s1.8,2.1,1.8,3.8c0,1.7-0.6,2.9-1.8,3.8C187.6,34.2,185.9,34.6,183.6,34.6z"/>
		</g>
		<g>
			<g>
				<rect x="246.8" y="21.9" class="st1" width="19.3" height="2.6"/>
				<rect x="246.8" y="34.5" class="st1" width="17.5" height="2.6"/>
				<rect x="246.8" y="47.5" class="st1" width="19.9" height="2.6"/>
			</g>
			<g>
				<rect x="280.1" y="21.9" class="st1" width="19.3" height="2.6"/>
				<rect x="280.1" y="34.5" class="st1" width="17.5" height="2.6"/>
				<rect x="280.1" y="47.5" class="st1" width="19.9" height="2.6"/>
			</g>
			<path class="st1" d="M231.2,37.9c-1-1.2-2.4-2-4.3-2.4c1.3-0.5,2.4-1.3,3.2-2.4c0.8-1.1,1.1-2.4,1.1-4c0-2.3-0.9-4.1-2.6-5.3
				c-1.7-1.3-4.2-1.9-7.3-1.9h-12.1v15l3,2.5V37h9.9c5.1,0,7.6,1.8,7.6,5.3c0,1.8-0.6,3.2-1.9,4c-1.3,0.9-3.2,1.3-5.7,1.3h-9.9v-2.1
				l-3-2.5v7h12.9c3.5,0,6.1-0.6,7.9-1.9c1.8-1.3,2.7-3.2,2.7-5.6C232.7,40.7,232.2,39.1,231.2,37.9z M221.1,34.6h-9V24.4h9
				c2.3,0,4,0.4,5.3,1.3s1.8,2.1,1.8,3.8c0,1.7-0.6,2.9-1.8,3.8C225.2,34.2,223.4,34.6,221.1,34.6z"/>
		</g>
	</g>
	<g>
		
			<linearGradient id="SVGID_1_" gradientUnits="userSpaceOnUse" x1="-0.5666" y1="427.4788" x2="62.1405" y2="427.4788" gradientTransform="matrix(1 0 0 -1 0 445.3407)">
			<stop  offset="1.281415e-03" style="stop-color:#1233FF"/>
			<stop  offset="0.9987" style="stop-color:#001E68"/>
		</linearGradient>
		<path class="st2" d="M0,35.4V11L30.6,0.3v24.4L0,35.4z M3.2,13.3v17.6l24.2-8.5V4.8L3.2,13.3z"/>
		
			<linearGradient id="SVGID_2_" gradientUnits="userSpaceOnUse" x1="-0.5666" y1="427.4788" x2="62.1405" y2="427.4788" gradientTransform="matrix(1 0 0 -1 0 445.3407)">
			<stop  offset="1.281415e-03" style="stop-color:#1233FF"/>
			<stop  offset="0.9987" style="stop-color:#001E68"/>
		</linearGradient>
		<path class="st3" d="M62.3,35.4L31.7,24.7V0.3L62.3,11V35.4z M34.8,22.5l24.2,8.5V13.3L34.8,4.8V22.5z"/>
		
			<linearGradient id="SVGID_3_" gradientUnits="userSpaceOnUse" x1="-0.5666" y1="402.212" x2="62.1405" y2="402.212" gradientTransform="matrix(1 0 0 -1 0 445.3407)">
			<stop  offset="1.281415e-03" style="stop-color:#1233FF"/>
			<stop  offset="0.9987" style="stop-color:#001E68"/>
		</linearGradient>
		<path class="st4" d="M0,32h3.2l0,3.1l27.4-9.6V50L0,60.7V36.3V32z M3.2,38.5v17.6l24.2-8.5V30.1L3.2,38.5z"/>
		
			<linearGradient id="SVGID_4_" gradientUnits="userSpaceOnUse" x1="-0.5666" y1="402.212" x2="62.1405" y2="402.212" gradientTransform="matrix(1 0 0 -1 0 445.3407)">
			<stop  offset="1.281415e-03" style="stop-color:#1233FF"/>
			<stop  offset="0.9987" style="stop-color:#001E68"/>
		</linearGradient>
		<path class="st5" d="M62.3,36.3v24.4L31.7,50V25.6l27.5,9.6l-0.1-1.9h3.2V36.3z M34.8,47.7l24.2,8.5V38.5l-24.2-8.5V47.7z"/>
		
			<linearGradient id="SVGID_5_" gradientUnits="userSpaceOnUse" x1="-0.5666" y1="380.6748" x2="62.1405" y2="380.6748" gradientTransform="matrix(1 0 0 -1 0 445.3407)">
			<stop  offset="1.281415e-03" style="stop-color:#1233FF"/>
			<stop  offset="0.9987" style="stop-color:#001E68"/>
		</linearGradient>
		<polygon class="st6" points="0,60.6 0,57.6 31.7,68.3 62.3,57.6 62.2,60.7 31.7,71.7 		"/>
	</g>
</g>
</svg>
