<?xml version="1.0" encoding="utf-8"?>
<!-- Generator: Adobe Illustrator 24.1.0, SVG Export Plug-In . SVG Version: 6.00 Build 0)  -->
<svg version="1.1" id="Layer_1" xmlns="http://www.w3.org/2000/svg" xmlns:xlink="http://www.w3.org/1999/xlink" x="0px" y="0px"
	 viewBox="0 0 90 90" style="enable-background:new 0 0 90 90;" xml:space="preserve">
<style type="text/css">
	.st0{fill:#007AFF;}
</style>
<g>
	<path class="st0" d="M88,43h-6.3C80.7,24.3,65.8,9.4,47,8.3L47,2c-0.1-1.2-0.9-2-2-2c-0.1,0-0.1,0-0.2,0c0,0-1.8,0.1-1.8,2.1v6.2
		C24.3,9.3,9.4,24.3,8.3,43H1.9l-0.1,0c-1.1,0.1-1.9,1.1-1.8,2.2c0.1,1,1,1.9,2.1,1.9c0,0,6.2,0,6.2,0c1,18.7,16,33.6,34.7,34.6V88
		c0,1.1,0.9,2,2,2c1.1,0,2-0.9,2-2v-6.3c18.7-1,33.6-15.9,34.7-34.6H88c1.1,0,2-0.9,2-2C90,44,89.1,43,88,43z M47,77.7v-6.1
		c0-1.1-0.9-2-2-2c-0.1,0-0.2,0-0.2,0c-1,0.1-1.7,1-1.7,2v6.1c-16.5-1-29.7-14.2-30.7-30.6h6.1c1.1,0,2-1,2-2c0-1-1-2-2-2h-6.1
		c1-16.4,14.3-29.8,30.7-30.7v6.2c0,1.1,0.9,2,2,2c1.1,0,2-0.9,2-2v-6.1c16.5,1,29.7,14.2,30.7,30.7h-6.4l-0.1,0
		c-1.1,0.1-1.9,1.1-1.8,2.2c0.1,1,1,1.8,2.1,1.8c0,0,6.1,0,6.1,0C76.7,63.5,63.5,76.7,47,77.7z"/>
	<g>
		<path class="st0" d="M53.4,56.7c-1.6,1.5-3.9,2.3-6.9,2.6v4.5h-2.6v-4.5c-1.9-0.1-3.8-0.5-5.5-1.1c-1.7-0.6-3.1-1.4-4.2-2.4
			l1.5-3.1c1,0.9,2.2,1.6,3.6,2.2c1.5,0.6,3,0.9,4.6,1v-9.3c-1.9-0.5-3.4-0.9-4.7-1.5c-1.2-0.5-2.3-1.3-3.1-2.4
			c-0.8-1-1.3-2.4-1.3-4.1c0-2.1,0.8-3.9,2.3-5.4c1.5-1.5,3.8-2.3,6.7-2.6v-4.6h2.6v4.5c1.5,0.1,3,0.3,4.4,0.7
			c1.4,0.4,2.7,1,3.7,1.7l-1.3,3.2c-2.2-1.4-4.4-2.1-6.8-2.2v9.3c1.9,0.5,3.5,1,4.8,1.5c1.3,0.5,2.3,1.3,3.2,2.3
			c0.9,1,1.3,2.4,1.3,4.1C55.8,53.5,55,55.3,53.4,56.7z M40.1,41.2c0.9,0.6,2.1,1.2,3.8,1.6v-8.6c-1.7,0.2-3,0.7-3.8,1.5
			s-1.3,1.7-1.3,2.9C38.8,39.7,39.3,40.6,40.1,41.2z M50.5,54.5c0.9-0.8,1.3-1.7,1.3-2.9c0-1.2-0.5-2.1-1.4-2.7
			c-0.9-0.6-2.2-1.2-4-1.7v8.6C48.3,55.7,49.6,55.2,50.5,54.5z"/>
	</g>
</g>
</svg>
