<?xml version="1.0" encoding="utf-8"?>
<!-- Generator: Adobe Illustrator 24.1.0, SVG Export Plug-In . SVG Version: 6.00 Build 0)  -->
<svg version="1.1" id="Layer_1" xmlns="http://www.w3.org/2000/svg" xmlns:xlink="http://www.w3.org/1999/xlink" x="0px" y="0px"
	 viewBox="0 0 30 30" style="enable-background:new 0 0 30 30;" xml:space="preserve">
<style type="text/css">
	.st0{fill-rule:evenodd;clip-rule:evenodd;}
</style>
<g>
	<path class="st0" d="M-229.7,30l10.7-2.1v22.8h1V32.3l10.7,1.7v16.7h1.3v2.2H-231v-2.2h1.3V30L-229.7,30z M-210.6,40.8h2.1v2.2
		h-2.1V40.8z M-213.6,40.8h2.1v2.2h-2.1V40.8z M-216.7,40.8h2.1v2.2h-2.1V40.8z M-210.6,37.3h2.1v2.2h-2.1V37.3z M-213.6,37.3h2.1
		v2.2h-2.1V37.3z M-216.7,37.3h2.1v2.2h-2.1V37.3z M-228.5,42.3h8.3v1.2h-8.3V42.3L-228.5,42.3z M-228.5,39.2h8.3v1.2h-8.3V39.2z
		 M-228.5,36.1h8.3v1.2h-8.3V36.1z M-228.5,33h8.3v1.2h-8.3V33z"/>
</g>
<g>
	<rect y="0" width="13" height="13"/>
	<rect y="17" width="13" height="13"/>
	<path d="M28.2,1.8v9.4h-9.4V1.8H28.2 M30,0H17v13h13V0L30,0z"/>
	<rect x="17" y="17" width="13" height="13"/>
</g>
</svg>
