<?xml version="1.0" encoding="utf-8"?>
<!-- Generator: Adobe Illustrator 24.1.0, SVG Export Plug-In . SVG Version: 6.00 Build 0)  -->
<svg version="1.1" id="Layer_1" xmlns="http://www.w3.org/2000/svg" xmlns:xlink="http://www.w3.org/1999/xlink" x="0px" y="0px"
	 viewBox="0 0 90 90" style="enable-background:new 0 0 90 90;" xml:space="preserve">
<style type="text/css">
	.st0{fill:#007AFF;}
</style>
<g>
	<path class="st0" d="M21,7.5C21,3.4,17.6,0,13.5,0S6,3.4,6,7.5S9.4,15,13.5,15C17.6,15,21,11.6,21,7.5z M13.5,12C11,12,9,10,9,7.5
		S11,3,13.5,3S18,5,18,7.5C18,10,16,12,13.5,12z"/>
	<path class="st0" d="M24,22.5v9h3v-9c0-4.1-3.4-7.5-7.5-7.5h-12C3.4,15,0,18.4,0,22.5v9h3v-9C3,20,5,18,7.5,18h12
		C22,18,24,20,24,22.5z"/>
	<path class="st0" d="M84,7.5C84,3.4,80.6,0,76.5,0S69,3.4,69,7.5s3.4,7.5,7.5,7.5C80.6,15,84,11.6,84,7.5z M76.5,12
		C74,12,72,10,72,7.5S74,3,76.5,3S81,5,81,7.5C81,10,79,12,76.5,12z"/>
	<path class="st0" d="M82.5,15h-12c-4.1,0-7.5,3.4-7.5,7.5v9h3v-9c0-2.5,2-4.5,4.5-4.5h12c2.5,0,4.5,2,4.5,4.5v9h3v-9
		C90,18.4,86.6,15,82.5,15z"/>
	<path class="st0" d="M52.5,7.5C52.5,3.4,49.1,0,45,0s-7.5,3.4-7.5,7.5S40.9,15,45,15C49.1,15,52.5,11.6,52.5,7.5z M45,12
		c-2.5,0-4.5-2-4.5-4.5S42.5,3,45,3c2.5,0,4.5,2,4.5,4.5C49.5,10,47.5,12,45,12z"/>
	<path class="st0" d="M34.5,22.5c0-2.5,2-4.5,4.5-4.5h12c2.5,0,4.5,2,4.5,4.5v9h3v-9c0-4.1-3.4-7.5-7.5-7.5H39
		c-4.1,0-7.5,3.4-7.5,7.5v9h3V22.5z"/>
	<path class="st0" d="M19.1,64.9l-2.1,2.1l1.9,1.9H15V31.5h-3v39c0,0.8,0.7,1.5,1.5,1.5h5.4l-1.9,1.9l2.1,2.1l4.5-4.5
		c0.6-0.6,0.6-1.5,0-2.1c0,0,0,0,0,0L19.1,64.9z"/>
	<path class="st0" d="M50.6,43.1l-2.1-2.1l-1.9,1.9V31.5h-3v11.4l-1.9-1.9l-2.1,2.1l4.5,4.5c0.6,0.6,1.5,0.6,2.1,0c0,0,0,0,0,0
		L50.6,43.1z"/>
	<path class="st0" d="M75,69h-3.9l1.9-1.9l-2.1-2.1l-4.5,4.5c-0.6,0.6-0.6,1.5,0,2.1c0,0,0,0,0,0l4.5,4.5l2.1-2.1L71.1,72h5.4
		c0.8,0,1.5-0.7,1.5-1.5v-39h-3V69z"/>
	<path class="st0" d="M45,48c-11.6,0-21,9.4-21,21s9.4,21,21,21s21-9.4,21-21C66,57.4,56.6,48,45,48z M45,87c-9.9,0-18-8.1-18-18
		s8.1-18,18-18s18,8.1,18,18C63,78.9,54.9,87,45,87z"/>
	<g>
		<path class="st0" d="M55.9,71.3h-9.3v9.1h-3.2v-9.1h-9.3v-3h9.3v-9.1h3.2v9.1h9.3V71.3z"/>
	</g>
</g>
</svg>
