<?xml version="1.0" encoding="utf-8"?>
<!-- Generator: Adobe Illustrator 24.1.0, SVG Export Plug-In . SVG Version: 6.00 Build 0)  -->
<svg version="1.1" id="Layer_1" xmlns="http://www.w3.org/2000/svg" xmlns:xlink="http://www.w3.org/1999/xlink" x="0px" y="0px"
	 viewBox="0 0 25 25" style="enable-background:new 0 0 25 25;" xml:space="preserve">
<style type="text/css">
	.st0{fill-rule:evenodd;clip-rule:evenodd;}
	.st1{fill:#FFFFFF;}
</style>
<g>
	<path class="st0" d="M-232.2,27.5l10.7-2.1v22.8h1V29.8l10.7,1.7v16.7h1.3v2.2h-25.2v-2.2h1.3V27.5L-232.2,27.5z M-213.1,38.3h2.1
		v2.2h-2.1V38.3z M-216.1,38.3h2.1v2.2h-2.1V38.3z M-219.2,38.3h2.1v2.2h-2.1V38.3z M-213.1,34.8h2.1v2.2h-2.1V34.8z M-216.1,34.8
		h2.1v2.2h-2.1V34.8z M-219.2,34.8h2.1v2.2h-2.1V34.8z M-231,39.8h8.3V41h-8.3V39.8L-231,39.8z M-231,36.7h8.3v1.2h-8.3V36.7z
		 M-231,33.6h8.3v1.2h-8.3V33.6z M-231,30.5h8.3v1.2h-8.3V30.5z"/>
</g>
<g id="Group_678">
	<path id="Path_1520" class="st1" d="M0,0v25h25V0H0z M17.4,6.5h-1.4C15,6.4,14.2,7,14.1,8c0,0.1,0,0.2,0,0.4v2.1h3.2l-0.5,3.3h-2.7
		v7.7h-3.6v-7.7H7.6v-3.3h2.9V7.9c0-2.9,1.7-4.4,4.3-4.4c0.9,0,1.7,0.1,2.6,0.2V6.5z"/>
</g>
</svg>
