<?xml version="1.0" encoding="utf-8"?>
<!-- Generator: Adobe Illustrator 24.1.0, SVG Export Plug-In . SVG Version: 6.00 Build 0)  -->
<svg version="1.1" id="Layer_1" xmlns="http://www.w3.org/2000/svg" xmlns:xlink="http://www.w3.org/1999/xlink" x="0px" y="0px"
	 viewBox="0 0 25 25" style="enable-background:new 0 0 25 25;" xml:space="preserve">
<style type="text/css">
	.st0{fill-rule:evenodd;clip-rule:evenodd;}
	.st1{fill:#FFFFFF;}
</style>
<g>
	<path class="st0" d="M-232.2,27.5l10.7-2.1v22.8h1V29.8l10.7,1.7v16.7h1.3v2.2h-25.2v-2.2h1.3V27.5L-232.2,27.5z M-213.1,38.3h2.1
		v2.2h-2.1V38.3z M-216.1,38.3h2.1v2.2h-2.1V38.3z M-219.2,38.3h2.1v2.2h-2.1V38.3z M-213.1,34.8h2.1v2.2h-2.1V34.8z M-216.1,34.8
		h2.1v2.2h-2.1V34.8z M-219.2,34.8h2.1v2.2h-2.1V34.8z M-231,39.8h8.3V41h-8.3V39.8L-231,39.8z M-231,36.7h8.3v1.2h-8.3V36.7z
		 M-231,33.6h8.3v1.2h-8.3V33.6z M-231,30.5h8.3v1.2h-8.3V30.5z"/>
</g>
<g id="Group_680">
	<path id="Path_1522" class="st1" d="M0,0v25h25V0H0z M12,17.3c-2.6,1.6-6.1,0.8-7.7-1.8c-1.6-2.6-0.8-6.1,1.8-7.7
		c2.1-1.3,4.8-1.1,6.6,0.6l-1.5,1.5c-1.5-1.2-3.6-1-4.9,0.4s-1,3.6,0.4,4.9c1.5,1.2,3.6,1,4.9-0.4c0,0,0,0,0,0
		c0.2-0.3,0.4-0.6,0.4-0.9h-3v-2.1h3.3l0,0l0,0h1.9c0,0.3,0.1,0.6,0.1,0.9C14.5,14.4,13.6,16.2,12,17.3z M21.5,13h-2.2v2.2h-1.5V13
		h-2.2v-1.5h2.2V9.3h1.5v2.2h2.2L21.5,13z"/>
</g>
</svg>
