<?xml version="1.0" encoding="utf-8"?>
<!-- Generator: Adobe Illustrator 24.1.0, SVG Export Plug-In . SVG Version: 6.00 Build 0)  -->
<svg version="1.1" id="Layer_1" xmlns="http://www.w3.org/2000/svg" xmlns:xlink="http://www.w3.org/1999/xlink" x="0px" y="0px"
	 viewBox="0 0 90 90" style="enable-background:new 0 0 90 90;" xml:space="preserve">
<style type="text/css">
	.st0{fill:#E11C01;}
</style>
<g id="Group_3541" transform="translate(-665.492 -157.466)">
	<path id="Path_9178" class="st0" d="M714.9,161c1.6,0,3,1.1,3.3,2.6l1.5,6.4c0.3,1.1,1.1,2,2.3,2.4c0.7,0.3,1.3,0.5,2,0.8
		c0.5,0.2,1,0.3,1.6,0.3c0.6,0,1.2-0.2,1.8-0.5l5.6-3.5c1.3-0.8,3.1-0.6,4.2,0.5l6.2,6.2c1.1,1.1,1.3,2.8,0.5,4.2l-3.4,5.6
		c-0.6,1-0.7,2.2-0.2,3.3c0.3,0.7,0.6,1.4,0.8,2.1c0.4,1.1,1.3,1.9,2.5,2.2l6.4,1.6c1.4,0.3,2.4,1.5,2.6,2.9h-22.2
		c-2.7-11-13.8-17.7-24.8-15c-7.4,1.8-13.2,7.6-15,15h-22.2c0.2-1.4,1.2-2.6,2.6-2.9l6.4-1.6c1.1-0.3,2-1.1,2.5-2.2
		c0.2-0.7,0.5-1.4,0.8-2c0.5-1.1,0.5-2.3-0.1-3.3l-3.5-5.6c-0.8-1.4-0.6-3.1,0.5-4.2l6.2-6.2c0.6-0.6,1.5-1,2.4-1
		c0.6,0,1.2,0.2,1.8,0.5l5.6,3.5c0.5,0.3,1.2,0.5,1.8,0.5c0.5,0,1.1-0.1,1.6-0.3c0.6-0.3,1.3-0.6,2-0.8c1.1-0.4,1.9-1.3,2.2-2.4
		l1.6-6.4c0.4-1.5,1.7-2.6,3.3-2.6L714.9,161 M714.9,158.4h-8.8c-2.8,0-5.2,1.9-5.9,4.6l-1.6,6.4c-0.1,0.3-0.3,0.5-0.5,0.6
		c-0.8,0.3-1.5,0.6-2.2,0.9c-0.1,0.1-0.3,0.1-0.5,0.1c-0.2,0-0.3,0-0.4-0.1l-5.6-3.4c-2.4-1.5-5.5-1.1-7.4,0.9l-6.2,6.2
		c-2,2-2.4,5-1,7.4l0,0l0,0l3.5,5.6l0,0l0,0c0.1,0.3,0.1,0.6-0.1,0.8c-0.3,0.7-0.6,1.4-0.9,2.2c-0.1,0.2-0.3,0.4-0.6,0.5l0,0l0,0
		l-6.4,1.6c-2.5,0.6-4.3,2.7-4.6,5.2l-0.3,2.9h27.2l0.5-2c2.4-9.6,12-15.4,21.6-13c6.4,1.6,11.4,6.6,13,13l0.5,2h27.2l-0.3-2.9
		c-0.3-2.5-2.1-4.6-4.6-5.2l-6.4-1.6l0,0l0,0c-0.3-0.1-0.5-0.3-0.6-0.5c-0.3-0.8-0.6-1.5-0.9-2.2c-0.1-0.2-0.1-0.5,0-0.8l0,0l0,0
		l3.4-5.6l0,0l0,0c1.4-2.4,1.1-5.4-0.9-7.4l-6.2-6.2c-2-2-5.1-2.3-7.4-0.9l-5.6,3.4c-0.1,0.1-0.3,0.1-0.4,0.1c-0.2,0-0.3,0-0.5-0.1
		c-0.7-0.3-1.4-0.6-2.2-0.9l0,0l0,0c-0.3-0.1-0.5-0.3-0.6-0.6l-1.5-6.4C720.1,160.3,717.7,158.4,714.9,158.4L714.9,158.4z"/>
	<path id="Path_9179" class="st0" d="M755.5,204.7c0,0.7-0.6,1.3-1.3,1.3h-13.5c0.4,5.2-1.4,10.3,3,14.7l2.8,2.8h0
		c0.7-0.5,1.6-0.8,2.4-0.7c2.4,0,4.4,2,4.4,4.4c0,2.4-2,4.4-4.4,4.4c-2.4,0-4.4-2-4.4-4.4c0-0.6,0.1-1.2,0.4-1.7v0l-2.9-2.9
		c-5.3-5.3-3.2-11.5-3.7-16.4h-9.4v25.7c0,1.1,0.9,2.1,2.1,2.1h4.9c0.8-2.3,3.3-3.5,5.6-2.7s3.5,3.3,2.7,5.6
		c-0.8,2.3-3.3,3.5-5.6,2.7c-1.4-0.5-2.4-1.6-2.8-3.1H731c-2.5,0-4.6-2.1-4.6-4.6v-25.7h-9.1v29.4c2.3,0.7,3.6,3.2,2.9,5.5
		c-0.7,2.3-3.2,3.6-5.5,2.9c-2.3-0.7-3.6-3.2-2.9-5.5c0.4-1.4,1.6-2.5,3-2.9v-29.4H706v21.6c0,2.4-0.9,4.7-2.7,6.4l-6.3,6.3
		c1.1,2.2,0.1,4.8-2.1,5.9c-2.2,1.1-4.8,0.1-5.9-2.1c-1.1-2.2-0.1-4.8,2.1-5.9c0.6-0.3,1.2-0.4,1.9-0.4c0.8,0,1.6,0.2,2.3,0.7
		l6.2-6.2c1.2-1.2,1.9-2.9,1.9-4.7v-21.6h-9.3V217c0,2.4-1,4.7-2.7,6.4l-5,5c0.3,0.6,0.4,1.2,0.4,1.8c0,2.4-2,4.4-4.4,4.4
		c-2.4,0-4.4-2-4.4-4.4c0-2.4,2-4.4,4.4-4.4c0.8,0,1.7,0.3,2.4,0.7l4.9-4.9c1.2-1.2,1.9-2.9,1.9-4.7v-11.1h-8.9v7.9
		c0,2.5-2,4.5-4.5,4.5h-2.8c-0.8,2.3-3.3,3.6-5.6,2.8c-2.3-0.8-3.6-3.3-2.8-5.6c0.8-2.3,3.3-3.6,5.6-2.8c1.4,0.5,2.5,1.6,2.9,3.1
		h2.7c1.1,0,1.9-0.9,2-1.9v-7.9h-13.5c-0.7,0-1.3-0.6-1.3-1.3c0,0,0,0,0,0c0-0.3,0.1-0.6,0.4-0.9c0.1-0.1,0.1-0.1,0.2-0.2
		c0.2-0.2,0.4-0.2,0.7-0.2c4.7,0,82.8,0,87.5,0C754.9,203.4,755.5,204,755.5,204.7z"/>
</g>
</svg>
