<?xml version="1.0" encoding="utf-8"?>
<!-- Generator: Adobe Illustrator 24.1.0, SVG Export Plug-In . SVG Version: 6.00 Build 0)  -->
<svg version="1.1" id="Layer_1" xmlns="http://www.w3.org/2000/svg" xmlns:xlink="http://www.w3.org/1999/xlink" x="0px" y="0px"
	 viewBox="0 0 90 90" style="enable-background:new 0 0 90 90;" xml:space="preserve">
<style type="text/css">
	.st0{fill:#007AFF;}
</style>
<g>
	<path class="st0" d="M86.4,69.3L68.2,51.1c-0.6-0.6-1.5-0.6-2.1,0L65,52.2L61.8,49c-0.6-0.6-1.5-0.6-2.1,0l-2.1,2.1l-3-3L69.6,33
		l7.2,0.6c0.4,0,0.9-0.1,1.2-0.4l11.3-11.3c0.4-0.4,0.5-0.9,0.4-1.3l-1.7-9c-0.2-0.8-0.9-1.4-1.8-1.2c-0.3,0.1-0.6,0.2-0.8,0.4
		L76,20.3L70,19.8l-0.5-5.9l9.6-9.6c0.6-0.6,0.6-1.5,0-2.1c-0.2-0.2-0.5-0.4-0.8-0.4l-9-1.7c-0.5-0.1-1,0.1-1.3,0.4L56.7,11.8
		c-0.3,0.3-0.5,0.7-0.4,1.2l0.6,7.2L41.7,35.3L23.1,16.7v-5.8c0-0.5-0.3-1-0.8-1.3L7.4,1C6.8,0.7,6,0.8,5.5,1.3L1.3,5.5
		C0.8,6,0.7,6.8,1,7.3l8.6,15c0.3,0.5,0.8,0.8,1.3,0.8h5.8l18.6,18.6L20.2,56.8L13,56.2c-0.4,0-0.9,0.1-1.2,0.4L0.4,68
		c-0.4,0.4-0.5,0.9-0.4,1.3l1.7,9c0.2,0.8,0.9,1.4,1.8,1.2c0.3-0.1,0.6-0.2,0.8-0.4l9.6-9.6l5.9,0.5l0.5,5.9l-9.6,9.6
		c-0.6,0.6-0.6,1.5,0,2.1c0.2,0.2,0.5,0.4,0.8,0.4l9,1.7c0.1,0,0.2,0,0.3,0c0.4,0,0.8-0.2,1.1-0.4L33.1,78c0.3-0.3,0.5-0.7,0.4-1.2
		L33,69.6l15.1-15.1l3,3L49,59.7c-0.6,0.6-0.6,1.5,0,2.1l3.2,3.2l-1.1,1.1c-0.6,0.6-0.6,1.5,0,2.1l18.2,18.2
		c4.7,4.8,12.4,4.8,17.1,0.1c4.8-4.7,4.8-12.4,0.1-17.1C86.5,69.4,86.4,69.3,86.4,69.3z M16.7,20.1h-4.9L4.2,6.9l2.6-2.6l13.2,7.5
		v4.9L16.7,20.1z M19.4,21.6l2.1-2.1l18,18l-2.1,2.1L19.4,21.6z M30.5,76.4L20.2,86.7l-5.4-1l8-8c0.3-0.3,0.5-0.7,0.4-1.2l-0.6-7.9
		c-0.1-0.7-0.6-1.3-1.4-1.4l-7.9-0.6c-0.4,0-0.9,0.1-1.2,0.4l-8,8l-1-5.4l10.3-10.3l7.2,0.6c0.4,0,0.9-0.1,1.2-0.4l37.6-37.6
		c0.3-0.3,0.5-0.7,0.4-1.2l-0.6-7.2L69.6,3.1l5.4,1l-8,8c-0.3,0.3-0.5,0.7-0.4,1.2l0.6,7.9c0.1,0.7,0.6,1.3,1.4,1.4l7.9,0.6
		c0.4,0,0.9-0.1,1.2-0.4l8-8l1,5.4L76.4,30.5l-7.2-0.6c-0.4,0-0.9,0.1-1.2,0.4L30.4,68c-0.3,0.3-0.5,0.7-0.4,1.2L30.5,76.4z
		 M50.3,52.4l2.1-2.1l3,3l-2.1,2.1L50.3,52.4z M54.3,62.9l-2.1-2.1l8.6-8.6l2.1,2.1L54.3,62.9z M84.3,84.3c-3.5,3.5-9.3,3.5-12.8,0
		L54.3,67.2l12.8-12.8l17.1,17.1C87.8,75,87.8,80.7,84.3,84.3L84.3,84.3z"/>
	<path class="st0" d="M76.8,82.6c-0.4,0-0.8-0.2-1.1-0.4L62.3,68.7c-0.6-0.6-0.6-1.6,0-2.1c0.6-0.6,1.5-0.6,2.1,0L77.9,80
		c0.6,0.6,0.6,1.5,0,2.1C77.6,82.4,77.2,82.6,76.8,82.6L76.8,82.6z"/>
	<path class="st0" d="M81.1,78.3c-0.4,0-0.8-0.2-1.1-0.4L66.5,64.4c-0.6-0.6-0.6-1.5,0-2.1c0.6-0.6,1.5-0.6,2.1,0l13.5,13.5
		c0.6,0.6,0.6,1.5,0,2.1C81.8,78.1,81.5,78.3,81.1,78.3L81.1,78.3z"/>
</g>
</svg>
