<?xml version="1.0" encoding="utf-8"?>
<!-- Generator: Adobe Illustrator 24.1.0, SVG Export Plug-In . SVG Version: 6.00 Build 0)  -->
<svg version="1.1" id="Layer_1" xmlns="http://www.w3.org/2000/svg" xmlns:xlink="http://www.w3.org/1999/xlink" x="0px" y="0px"
	 viewBox="0 0 90 90" style="enable-background:new 0 0 90 90;" xml:space="preserve">
<style type="text/css">
	.st0{fill:#33313E;}
</style>
<g id="Group_3540" transform="translate(-371.894 -160)">
	<path id="Path_9177" class="st0" d="M410.3,160c-0.9,0-1.6,0.7-1.6,1.6v8.3c-3.8,0.9-7.5,2.4-10.8,4.5l-5.9-5.9
		c-0.6-0.6-1.6-0.6-2.3,0l-9.3,9.3c-0.6,0.6-0.6,1.6,0,2.3l5.7,5.7c-0.5,0.8-0.9,1.6-1.4,2.4c-0.5,0.7-0.4,1.7,0.3,2.2
		c0.7,0.5,1.7,0.4,2.2-0.3c0,0,0.1-0.1,0.1-0.1c0.8-1.2,1.6-2.5,2.2-3.8c0.3-0.6,0.2-1.4-0.3-1.9l-5.4-5.4l7.1-7.1l5.4,5.5
		c0.5,0.5,1.4,0.6,2,0.2c3.7-2.5,7.9-4.2,12.2-5.1c0.8-0.1,1.3-0.8,1.3-1.6v-7.7h10v7.7c0,0.8,0.5,1.4,1.3,1.6
		c4.4,0.8,8.5,2.6,12.2,5.1c0.6,0.4,1.5,0.4,2-0.2l5.4-5.4l7.1,7.1l-5.4,5.4c-0.5,0.5-0.6,1.4-0.2,2c2.5,3.7,4.2,7.9,5.1,12.2
		c0.1,0.8,0.8,1.3,1.6,1.3h7.7v10H451c-0.8,0-1.4,0.5-1.6,1.3c-0.8,4.4-2.6,8.5-5.1,12.2c-0.4,0.6-0.4,1.5,0.2,2l5.4,5.4l-7.1,7.1
		l-5.4-5.4c-0.5-0.5-1.4-0.6-2-0.2c-3.7,2.5-7.9,4.2-12.2,5.1c-0.8,0.1-1.3,0.8-1.3,1.6v7.7h-10v-7.7c0-0.8-0.5-1.4-1.3-1.6
		c-4.4-0.8-8.5-2.6-12.2-5.1c-0.6-0.4-1.5-0.3-2,0.2l-5.4,5.4l-7.1-7.1l5.4-5.4c0.5-0.5,0.6-1.4,0.2-2c-0.7-1.1-1.4-2.2-2-3.4
		c-0.4-0.8-1.4-1.1-2.1-0.7c-0.8,0.4-1.1,1.4-0.7,2.1l0,0l0,0.1c0.5,0.9,1,1.7,1.5,2.6l-5.7,5.7c-0.6,0.6-0.6,1.6,0,2.3l9.3,9.3
		c0.6,0.6,1.6,0.6,2.3,0l5.8-5.8c3.3,2.1,7,3.6,10.8,4.5v8.2c0,0.9,0.7,1.6,1.6,1.6h13.2c0.9,0,1.6-0.7,1.6-1.6v-8.3
		c3.8-0.9,7.5-2.4,10.8-4.5l5.9,5.9c0.6,0.6,1.6,0.6,2.3,0l9.3-9.3c0.6-0.6,0.6-1.6,0-2.3l-5.8-5.8c2.1-3.3,3.6-7,4.5-10.8h8.2
		c0.9,0,1.6-0.7,1.6-1.6c0,0,0,0,0,0v-13.2c0-0.9-0.7-1.6-1.6-1.6h0H452c-0.9-3.8-2.4-7.5-4.5-10.8l5.9-5.9c0.6-0.6,0.6-1.6,0-2.3
		l-9.3-9.3c-0.6-0.6-1.6-0.6-2.3,0l-5.8,5.8c-3.3-2.1-7-3.6-10.8-4.5v-8.2c0-0.9-0.7-1.6-1.6-1.6L410.3,160z M410.2,194.9
		c-0.9,0-1.6,0.8-1.6,1.6c0,0.4,0.2,0.9,0.5,1.2l6.1,5.7h-41.8c-0.9,0-1.6,0.7-1.6,1.6c0,0.9,0.7,1.6,1.6,1.6c0,0,0,0,0.1,0h41.8
		l-6.1,5.7c-0.7,0.6-0.7,1.6-0.1,2.3c0.6,0.7,1.6,0.7,2.3,0.1l0,0c0,0,0,0,0.1,0l9-8.5c0.5-0.5,0.6-1.2,0.4-1.8c0,0,0-0.1-0.1-0.1
		c0,0-0.1-0.1-0.1-0.1l0,0l0,0c0,0,0-0.1-0.1-0.1c0,0-0.1-0.1-0.1-0.1s0,0,0,0l0,0l0,0l-9-8.5C411.1,195,410.7,194.9,410.2,194.9z"
		/>
</g>
</svg>
