<?xml version="1.0" encoding="utf-8"?>
<!-- Generator: Adobe Illustrator 24.1.0, SVG Export Plug-In . SVG Version: 6.00 Build 0)  -->
<svg version="1.1" id="Layer_1" xmlns="http://www.w3.org/2000/svg" xmlns:xlink="http://www.w3.org/1999/xlink" x="0px" y="0px"
	 viewBox="0 0 90 90" style="enable-background:new 0 0 90 90;" xml:space="preserve">
<style type="text/css">
	.st0{fill-rule:evenodd;clip-rule:evenodd;fill:#94C13C;}
</style>
<g id="Group_3539" transform="translate(-79.996 -159.989)">
	<path id="Path_9171" class="st0" d="M164.8,185.9c-0.3-0.6-1-0.9-1.6-0.7s-0.9,1-0.7,1.6c1.7,4.2,2.5,8.7,2.5,13.2
		c0,9-3.4,17.7-9.5,24.4c-6.2,6.8-14.5,11.3-23.6,12.7c-0.7,0.1-1.1,0.7-1,1.4c0.1,0.6,0.6,1,1.2,1h0c0.1,0,0.1,0,0.2,0
		c9.6-1.5,18.5-6.3,25-13.5c6.5-7.1,10.1-16.4,10.1-26C167.5,195.2,166.6,190.5,164.8,185.9L164.8,185.9z"/>
	<path id="Path_9172" class="st0" d="M92.8,176.7c0.2,0.2,0.5,0.3,0.8,0.3c0.4,0,0.7-0.2,0.9-0.4c14.8-17.1,40.6-18.9,57.7-4.1
		c1.5,1.3,2.9,2.7,4.2,4.2c0.2,0.3,0.6,0.4,0.9,0.4h0c0.7,0,1.2-0.5,1.2-1.2c0-0.3-0.1-0.6-0.3-0.8c-15.7-18.1-43-20.1-61.2-4.5
		c-1.6,1.4-3.1,2.9-4.5,4.5l0,0C92.2,175.5,92.2,176.3,92.8,176.7C92.8,176.7,92.8,176.7,92.8,176.7z"/>
	<path id="Path_9173" class="st0" d="M119.2,237.2c-9.2-1.3-17.6-5.8-23.8-12.6c-6.1-6.7-9.6-15.5-9.6-24.6c0-4.4,0.8-8.8,2.4-12.9
		c0.2-0.6-0.1-1.3-0.7-1.6s-1.3,0.1-1.6,0.7c-1.7,4.4-2.6,9.1-2.5,13.8c0,9.7,3.7,19,10.2,26.2c6.6,7.2,15.6,12,25.3,13.4
		c0.1,0,0.1,0,0.2,0h0c0.6,0,1.1-0.5,1.2-1.1C120.3,237.9,119.9,237.3,119.2,237.2L119.2,237.2z"/>
	<path id="Path_9174" class="st0" d="M102.6,198.7c-0.7,0.2-1.1,0.8-0.9,1.5c0.1,0.5,0.6,0.9,1.1,0.9l0.2,0v0c0.1,0,0.1,0,0.2,0
		l15-3.7c0.3-0.1,0.5-0.2,0.7-0.5l0,0v0c0.2-0.3,0.2-0.6,0.2-0.9v-0.1c0,0,0-0.1,0-0.1l-3.8-14.2c0-0.1,0-0.2-0.1-0.3
		c-0.3-0.6-1-0.9-1.6-0.6c-0.3,0.1-0.5,0.4-0.6,0.7c-0.1,0.3-0.1,0.6,0,0.9l3.1,11.6l-34.2-18.3c-0.6-0.3-1.3,0-1.6,0.6
		c-0.3,0.6-0.1,1.3,0.5,1.6l33.9,18.1L102.6,198.7z"/>
	<path id="Path_9175" class="st0" d="M169.8,176.1c-0.3-0.6-1.1-0.8-1.7-0.5c0,0,0,0,0,0L134,193.8l3.1-11.6
		c0.2-0.7-0.2-1.3-0.9-1.5c-0.1,0-0.2,0-0.3,0c-0.6,0-1,0.4-1.2,0.9l-3.9,14.3l0,0v0c-0.2,0.6,0.2,1.3,0.9,1.5l15,3.7
		c0.1,0,0.2,0,0.2,0h0.1c0.7,0,1.2-0.6,1.2-1.3c0-0.5-0.4-1-0.9-1.1l-12-2.9l33.9-18.1C169.9,177.4,170.2,176.7,169.8,176.1
		C169.8,176.1,169.8,176.1,169.8,176.1z"/>
	<path id="Path_9176" class="st0" d="M135.5,220.5c0.2,0.2,0.5,0.4,0.9,0.4c0.7,0,1.2-0.5,1.2-1.2c0-0.3-0.1-0.7-0.4-0.9l-11-10.5h0
		l-0.1,0c-0.4-0.3-1-0.3-1.4,0h0l-11.1,10.3c-0.5,0.5-0.5,1.2-0.1,1.7c0.5,0.5,1.2,0.5,1.7,0.1l0,0l8.9-8.4l0,36.8
		c0,0.6,0.4,1.1,1,1.2c0,0,0.1,0,0.1,0c0,0,0.1,0,0.1,0h0c0.7,0,1.2-0.5,1.2-1.2c0,0,0,0,0,0l0-36.7L135.5,220.5z"/>
</g>
</svg>
