<?xml version="1.0" encoding="utf-8"?>
<!-- Generator: Adobe Illustrator 24.1.0, SVG Export Plug-In . SVG Version: 6.00 Build 0)  -->
<svg version="1.1" id="Layer_1" xmlns="http://www.w3.org/2000/svg" xmlns:xlink="http://www.w3.org/1999/xlink" x="0px" y="0px"
	 viewBox="0 0 25 25" style="enable-background:new 0 0 25 25;" xml:space="preserve">
<style type="text/css">
	.st0{fill-rule:evenodd;clip-rule:evenodd;}
	.st1{fill:#FFFFFF;}
</style>
<g>
	<path class="st0" d="M-232.2,27.5l10.7-2.1v22.8h1V29.8l10.7,1.7v16.7h1.3v2.2h-25.2v-2.2h1.3V27.5L-232.2,27.5z M-213.1,38.3h2.1
		v2.2h-2.1V38.3z M-216.1,38.3h2.1v2.2h-2.1V38.3z M-219.2,38.3h2.1v2.2h-2.1V38.3z M-213.1,34.8h2.1v2.2h-2.1V34.8z M-216.1,34.8
		h2.1v2.2h-2.1V34.8z M-219.2,34.8h2.1v2.2h-2.1V34.8z M-231,39.8h8.3V41h-8.3V39.8L-231,39.8z M-231,36.7h8.3v1.2h-8.3V36.7z
		 M-231,33.6h8.3v1.2h-8.3V33.6z M-231,30.5h8.3v1.2h-8.3V30.5z"/>
</g>
<g id="Group_679">
	<path id="Path_1521" class="st1" d="M0,0v25h25V0H0z M8.4,20H5.2V10h3.1V20z M6.8,8.6C5.8,8.6,5,7.8,5,6.8S5.8,5,6.8,5
		c1,0,1.8,0.8,1.8,1.8C8.6,7.8,7.8,8.6,6.8,8.6z M20,20h-3.1v-4.9c0-1.2,0-2.7-1.6-2.7c-1.6,0-1.9,1.3-1.9,2.6v5h-3.1V10h3v1.4h0
		c0.6-1,1.7-1.7,3-1.6c3.2,0,3.7,2.1,3.7,4.8V20z"/>
</g>
</svg>
