<?xml version="1.0" encoding="utf-8"?>
<!-- Generator: Adobe Illustrator 24.1.0, SVG Export Plug-In . SVG Version: 6.00 Build 0)  -->
<svg version="1.1" id="Layer_1" xmlns="http://www.w3.org/2000/svg" xmlns:xlink="http://www.w3.org/1999/xlink" x="0px" y="0px"
	 viewBox="0 0 90 90" style="enable-background:new 0 0 90 90;" xml:space="preserve">
<style type="text/css">
	.st0{fill:#007AFF;}
</style>
<g>
	<g>
		<path class="st0" d="M74.4,81c0.2-1.2,2.1-1.2,2.1-1.2c2.3,0,4.5,0.3,7.2,0.5c-2.9-3.4-5.4-6.5-8.2-9.8c-1.6,1.4-3.2,2.7-4.7,4
			C69,76,68.6,76,66.9,74c-1.4-1.7-2.8-3.3-4-4.8c-3,1.4-5.7,2.9-8.7,4c-5.6,2.1-11.4,2.2-17.2,0.6c-0.5-0.1-6.9-2.1-9.1-4.1
			c-11.8-7.8-16.5-22.5-11.3-35.6c0.8-2,1.9-3.9,2.9-5.8c0.5-1,1.3-1.8,2.4-1.1c1.2,0.8,0.8,1.8,0.1,2.8c-4.7,7.4-5.8,15.4-2.9,23.7
			c6,17.2,27.3,23.5,41.7,12.5c2.1-1.6,2.4-1.6,4.1,0.5c1.4,1.6,2.7,3.2,4.2,5c1.7-1.4,3.3-2.7,4.9-4c1.6-1.3,2.2-1.3,3.6,0.3
			c2.8,3.3,5.5,6.5,8.6,10.2c0.2-1.6,0.3-2.7,0.4-3.8c0.1-0.8,0.1-1.7,0.2-2.5c0.2-1.1,0.1-2.6,1.8-2.4c1.6,0.2,1.4,1.5,1.3,2.7
			c-0.3,3.1-0.5,6.1-0.8,9.2c-0.2,2.1-0.7,2.4-2.8,2.2c-3-0.3-6-0.5-9-0.8C75.4,82.6,74.2,82.9,74.4,81z"/>
		<path class="st0" d="M61.1,20c10.7,6.6,15.6,19.5,12.6,31.7c-0.8,3.4-2.7,6.5-4.2,9.8c-0.5,1-1.3,1.8-2.4,1
			c-1.2-0.8-0.8-1.8-0.1-2.8c8-12.5,4.9-28.4-7.2-36.9c-9.5-6.7-22.5-6.4-31.8,0.8c-1.8,1.4-2.2,1.3-3.7-0.4
			c-1.4-1.7-2.9-3.4-4.4-5.2c-1.7,1.4-3.4,2.8-5,4.2c-1.2,1.1-2.2,0.9-3.2-0.3C8,17.7,4.4,13.4,0.7,9.2c-0.8-0.9-1-2-0.1-2.6
			C1.5,6,2.6,6.6,3,7.1c3.3,3.7,6.4,7.5,9.6,11.3c0.2,0.2,0.4,0.4,0.8,0.8c1.5-1.2,2.9-2.4,4.4-3.6c2.3-1.9,2.5-1.9,4.5,0.4
			c1.2,1.5,2.5,2.9,3.8,4.4c0.1,0.1,0.2,0.1,0.2-0.3c3.8-1.5,7.6-3.3,11.5-4.5c4.6-1.3,9.4-1.3,13.9,0.1
			C56.3,17.4,58.2,18.3,61.1,20z"/>
	</g>
	<g>
		<path class="st0" d="M53.1,57.6c-1.7,1.6-4.2,2.4-7.5,2.6v5h-2.2v-5c-2.1-0.1-4.1-0.5-6-1.2c-1.9-0.7-3.3-1.6-4.4-2.7l1.3-2.5
			c1,1,2.3,1.8,4,2.5c1.6,0.7,3.4,1.1,5.2,1.2V46c-2-0.5-3.7-1-5-1.6S36,43,35.1,41.9c-0.9-1.1-1.3-2.5-1.3-4.3
			c0-2.2,0.8-4.1,2.4-5.6c1.6-1.5,4-2.4,7.2-2.7v-5h2.2v5c1.7,0.1,3.3,0.3,4.8,0.8c1.6,0.5,2.9,1.1,4,1.9l-1.1,2.6
			c-1.2-0.8-2.5-1.3-3.8-1.8c-1.3-0.4-2.7-0.7-4-0.7v11.5c2.1,0.5,3.9,1.1,5.3,1.6c1.4,0.5,2.5,1.4,3.4,2.5c0.9,1.1,1.4,2.6,1.4,4.4
			C55.7,54.2,54.8,56.1,53.1,57.6z M38.6,41c1.1,0.8,2.7,1.5,4.8,2V32.1c-2.1,0.2-3.8,0.8-4.9,1.8c-1.1,1-1.6,2.2-1.6,3.7
			C36.9,39,37.5,40.2,38.6,41z M50.8,55.8c1.2-1,1.7-2.2,1.7-3.7c0-1.6-0.6-2.7-1.8-3.5c-1.2-0.8-2.9-1.5-5.1-2v10.9
			C47.9,57.3,49.6,56.7,50.8,55.8z"/>
	</g>
</g>
</svg>
