<?xml version="1.0" encoding="utf-8"?>
<!-- Generator: Adobe Illustrator 24.1.0, SVG Export Plug-In . SVG Version: 6.00 Build 0)  -->
<svg version="1.1" id="Layer_1" xmlns="http://www.w3.org/2000/svg" xmlns:xlink="http://www.w3.org/1999/xlink" x="0px" y="0px"
	 viewBox="0 0 90 90" style="enable-background:new 0 0 90 90;" xml:space="preserve">
<style type="text/css">
	.st0{fill:#FF9900;}
</style>
<path id="Path_9180" class="st0" d="M40,50c-2.7-2.8-2.7-7.2,0.1-10c2.8-2.7,7.2-2.7,10,0.1c2.7,2.8,2.7,7.2-0.1,10c0,0,0,0,0,0
	C47.2,52.7,42.8,52.7,40,50z M34.5,29c2.1-1.4,4.5-2.3,6.9-2.8v-3.6c0-0.9,0.7-1.6,1.6-1.6h4.3c0.9,0,1.6,0.7,1.6,1.6v3.6
	c2.5,0.5,4.8,1.4,6.9,2.9l2.5-2.5c0.6-0.6,1.6-0.6,2.3,0l3,3c0.6,0.6,0.6,1.6,0,2.3L61,34.5c1.4,2.1,2.3,4.5,2.8,6.9h3.6
	c0.9,0,1.6,0.7,1.6,1.6v4.3c0,0.9-0.7,1.6-1.6,1.6h-3.6c-0.5,2.5-1.4,4.8-2.9,6.9l2.5,2.5c0.6,0.6,0.6,1.6,0,2.3l-3,3
	c-0.6,0.6-1.6,0.6-2.3,0L55.5,61c-2.1,1.4-4.5,2.3-6.9,2.8v3.6c0,0.9-0.7,1.6-1.6,1.6h-4.3c-0.9,0-1.6-0.7-1.6-1.6v-3.6
	c-2.5-0.5-4.8-1.4-6.9-2.9l-2.5,2.5C31,64,30,64,29.4,63.4l-3-3c-0.6-0.6-0.6-1.6,0-2.3l2.5-2.5c-1.4-2.1-2.3-4.5-2.8-6.9h-3.6
	c-0.9,0-1.6-0.7-1.6-1.6v-4.3c0-0.9,0.7-1.6,1.6-1.6h3.6c0.5-2.5,1.4-4.8,2.9-6.9l-2.5-2.5c-0.6-0.6-0.6-1.6,0-2.3l3-3
	c0.6-0.6,1.6-0.6,2.3,0L34.5,29z M37.2,37.1c-4.4,4.3-4.4,11.2-0.2,15.6c0,0,0.1,0.1,0.1,0.1c4.3,4.4,11.4,4.5,15.8,0.2
	s4.5-11.4,0.2-15.8S41.7,32.7,37.2,37.1C37.3,37,37.2,37.1,37.2,37.1z M55.1,24.2h-2.9V12.7c0-4.4,3.6-8,8-8c0,0,0,0,0,0h2.4
	c0.8-3.3,4.2-5.2,7.4-4.4c3.3,0.8,5.2,4.2,4.4,7.4C73.6,11,70.3,13,67,12.1c-2.2-0.6-3.9-2.2-4.4-4.4H60c-2.8,0-5.1,2.2-5.1,5
	c0,0,0,0,0,0L55.1,24.2L55.1,24.2z M65.2,6.1c0,1.8,1.4,3.2,3.2,3.2c1.8,0,3.2-1.4,3.2-3.2s-1.4-3.2-3.2-3.2l0,0
	C66.6,2.9,65.2,4.4,65.2,6.1L65.2,6.1z M43.5,18v-5.9c-3.3-0.8-5.2-4.2-4.4-7.4c0.8-3.3,4.2-5.2,7.4-4.4c3.3,0.8,5.2,4.2,4.4,7.4
	c-0.6,2.2-2.2,3.9-4.4,4.4V18H43.5z M45,9.3c1.8,0,3.2-1.4,3.2-3.2S46.8,2.9,45,2.9c-1.8,0-3.2,1.4-3.2,3.2
	C41.8,7.9,43.2,9.3,45,9.3C45,9.3,45,9.3,45,9.3L45,9.3z M38,12.7v11.5h-1.9c-0.3,0-0.7,0-1,0.1V12.7c0-2.8-2.2-5.1-5-5.1
	c0,0,0,0,0,0h-2.4c-0.8,3.3-4.2,5.2-7.4,4.4c-3.3-0.8-5.2-4.2-4.4-7.4c0.8-3.3,4.2-5.2,7.4-4.4c2.2,0.6,3.9,2.2,4.4,4.4H30
	C34.4,4.7,37.9,8.3,38,12.7L38,12.7z M24.8,6.1c0-1.8-1.4-3.2-3.2-3.2c-1.8,0-3.2,1.4-3.2,3.2c0,1.8,1.4,3.2,3.2,3.2
	C23.4,9.3,24.8,7.9,24.8,6.1C24.8,6.2,24.8,6.1,24.8,6.1L24.8,6.1z M35.7,65.9H38v11.5c0,4.4-3.6,8-8,8c0,0,0,0,0,0h-2.4
	c-0.8,3.3-4.2,5.2-7.4,4.4c-3.3-0.8-5.2-4.2-4.4-7.4c0.8-3.3,4.2-5.2,7.4-4.4c2.2,0.6,3.9,2.2,4.4,4.4H30c2.8,0,5.1-2.2,5.1-5
	c0,0,0,0,0,0V65.8C35.2,65.8,35.4,65.9,35.7,65.9L35.7,65.9z M24.8,83.9c0-1.8-1.4-3.2-3.2-3.2c-1.8,0-3.2,1.4-3.2,3.2
	s1.4,3.2,3.2,3.2l0,0C23.4,87.1,24.8,85.6,24.8,83.9L24.8,83.9z M51.1,83.9c0,3.4-2.7,6.1-6.1,6.1c-3.4,0-6.1-2.7-6.1-6.1
	c0-2.8,1.9-5.2,4.6-5.9V72h2.9v5.8C49.2,78.5,51.1,81,51.1,83.9L51.1,83.9z M48.2,83.9c0-1.8-1.4-3.2-3.2-3.2
	c-1.8,0-3.2,1.4-3.2,3.2s1.4,3.2,3.2,3.2l0,0C46.8,87.1,48.2,85.6,48.2,83.9L48.2,83.9z M74.5,83.9c0,3.4-2.7,6.1-6.1,6.1
	c-2.8,0-5.2-1.9-5.9-4.6H60c-4.4,0-8-3.6-8-8c0,0,0,0,0,0V65.9h1.9c0.3,0,0.7,0,1-0.1v11.6c0,2.8,2.2,5.1,5,5.1c0,0,0,0,0,0h2.4
	c0.7-2.7,3.1-4.6,5.9-4.6c3.3-0.1,6,2.4,6.1,5.7C74.5,83.7,74.5,83.8,74.5,83.9L74.5,83.9z M71.6,83.9c0-1.8-1.4-3.2-3.2-3.2
	c-1.8,0-3.2,1.4-3.2,3.2s1.4,3.2,3.2,3.2l0,0C70.1,87.1,71.6,85.6,71.6,83.9L71.6,83.9z M24.1,38H12.7c-4.4,0-8-3.6-8-8c0,0,0,0,0,0
	v-2.4c-3.3-0.8-5.2-4.2-4.4-7.4s4.2-5.2,7.4-4.4s5.2,4.2,4.4,7.4c-0.6,2.2-2.2,3.9-4.4,4.4V30c0,2.8,2.2,5.1,5,5.1c0,0,0,0,0,0h11.5
	V38H24.1z M9.3,21.6c0-1.8-1.4-3.2-3.2-3.2c-1.8,0-3.2,1.4-3.2,3.2c0,1.8,1.4,3.2,3.2,3.2l0,0C7.9,24.8,9.3,23.4,9.3,21.6
	C9.3,21.7,9.3,21.6,9.3,21.6L9.3,21.6z M12.1,43.6H18v2.9h-5.9C11.3,49.8,8,51.8,4.7,51s-5.3-4.1-4.5-7.4c0.8-3.3,4.1-5.3,7.4-4.5
	C9.8,39.6,11.6,41.4,12.1,43.6L12.1,43.6z M9.3,45c0-1.7-1.4-3.2-3.1-3.2c0,0,0,0-0.1,0c-1.7,0-3.1,1.4-3.1,3.1c0,0,0,0.1,0,0.1
	c0,1.7,1.4,3.2,3.1,3.2c0,0,0,0,0.1,0c1.7,0,3.1-1.4,3.1-3.1C9.3,45.1,9.3,45,9.3,45z M7.6,60v2.4c3.3,0.8,5.2,4.2,4.4,7.4
	c-0.8,3.3-4.2,5.2-7.4,4.4c-3.3-0.8-5.2-4.2-4.4-7.4c0.6-2.2,2.2-3.9,4.4-4.4V60c0-4.4,3.6-8,8-8c0,0,0,0,0,0h11.5v1.9
	c0,0.3,0,0.7,0.1,1H12.7C9.9,55,7.7,57.2,7.6,60L7.6,60z M6.1,65.2c-1.8,0-3.2,1.4-3.2,3.2c0,1.8,1.4,3.2,3.2,3.2
	c1.8,0,3.2-1.4,3.2-3.2c0,0,0,0,0,0C9.3,66.6,7.9,65.2,6.1,65.2C6.2,65.2,6.1,65.2,6.1,65.2L6.1,65.2z M90,68.4
	c0,3.4-2.7,6.1-6.1,6.1c-3.4,0-6.1-2.7-6.1-6.1c0-2.8,1.9-5.2,4.6-5.9V60c0-2.8-2.2-5.1-5-5.1c0,0,0,0,0,0H65.9V52h11.5
	c4.4,0,8,3.6,8,8c0,0,0,0,0,0v2.4C88,63.1,90,65.6,90,68.4L90,68.4z M87,68.4c0-1.7-1.4-3.2-3.1-3.2c0,0,0,0-0.1,0
	c-1.7,0-3.1,1.4-3.1,3.1c0,0,0,0.1,0,0.1c0,1.7,1.4,3.2,3.1,3.2c0,0,0,0,0.1,0c1.7,0,3.1-1.4,3.1-3.1C87,68.5,87,68.4,87,68.4
	L87,68.4z M90,45c0,3.4-2.7,6.1-6.1,6.1c-2.8,0-5.2-1.9-5.9-4.6h-5.9v-2.9h5.8c0.7-2.7,3.1-4.6,5.9-4.6c3.3-0.1,6.1,2.5,6.2,5.9
	C90,44.9,90,45,90,45z M87,45c0-1.7-1.4-3.2-3.1-3.2c0,0,0,0-0.1,0c-1.7,0-3.1,1.4-3.1,3.1c0,0,0,0.1,0,0.1c0,1.7,1.4,3.2,3.1,3.2
	c0,0,0,0,0.1,0c1.7,0,3.1-1.4,3.1-3.1C87,45.1,87,45,87,45L87,45z M90,21.6c0,2.8-1.9,5.2-4.6,5.9V30c0,4.4-3.6,8-8,8c0,0,0,0,0,0
	H66v-1.9c0-0.3,0-0.7-0.1-1h11.6c2.8,0,5.1-2.2,5.1-5c0,0,0,0,0,0v-2.4c-3.3-0.8-5.3-4.1-4.5-7.3c0.8-3.3,4.1-5.3,7.3-4.5
	C88.1,16.3,90,18.8,90,21.6L90,21.6z M87,21.6c0-1.7-1.4-3.2-3.1-3.2c0,0,0,0-0.1,0c-1.7,0-3.1,1.4-3.1,3.1c0,0,0,0.1,0,0.1
	c0,1.7,1.4,3.2,3.1,3.2c0,0,0,0,0,0c1.7,0,3.1-1.4,3.1-3.1C87,21.7,87,21.7,87,21.6L87,21.6z"/>
</svg>
