<?xml version="1.0" encoding="utf-8"?>
<!-- Generator: Adobe Illustrator 24.1.0, SVG Export Plug-In . SVG Version: 6.00 Build 0)  -->
<svg version="1.1" id="Layer_1" xmlns="http://www.w3.org/2000/svg" xmlns:xlink="http://www.w3.org/1999/xlink" x="0px" y="0px"
	 viewBox="0 0 30 30" style="enable-background:new 0 0 30 30;" xml:space="preserve">
<style type="text/css">
	.st0{fill-rule:evenodd;clip-rule:evenodd;}
</style>
<g>
	<path class="st0" d="M-229.7,30l10.7-2.1v22.8h1V32.3l10.7,1.7v16.7h1.3v2.2H-231v-2.2h1.3V30L-229.7,30z M-210.6,40.8h2.1v2.2
		h-2.1V40.8z M-213.6,40.8h2.1v2.2h-2.1V40.8z M-216.7,40.8h2.1v2.2h-2.1V40.8z M-210.6,37.3h2.1v2.2h-2.1V37.3z M-213.6,37.3h2.1
		v2.2h-2.1V37.3z M-216.7,37.3h2.1v2.2h-2.1V37.3z M-228.5,42.3h8.3v1.2h-8.3V42.3L-228.5,42.3z M-228.5,39.2h8.3v1.2h-8.3V39.2z
		 M-228.5,36.1h8.3v1.2h-8.3V36.1z M-228.5,33h8.3v1.2h-8.3V33z"/>
</g>
<g>
	<path d="M15,0c-0.2,0-0.3,0.1-0.5,0.1L2.7,7.6C2.2,7.8,2.1,8.4,2.4,8.8C2.4,9,2.5,9.1,2.7,9.2l11.8,7.4c0.3,0.2,0.7,0.2,1,0
		l11.8-7.4c0.4-0.3,0.6-0.9,0.3-1.3c-0.1-0.1-0.2-0.2-0.3-0.3L15.5,0.1C15.3,0,15.2,0,15,0z M3.1,14.8c-0.5,0-0.9,0.4-0.9,1
		c0,0.3,0.2,0.6,0.4,0.8l11.8,7.4c0.3,0.2,0.7,0.2,1,0l11.8-7.4c0.4-0.3,0.5-0.9,0.3-1.3c-0.3-0.4-0.8-0.5-1.3-0.3L15,22L3.7,14.9
		C3.5,14.8,3.3,14.8,3.1,14.8z M3.1,20.7c-0.5,0-0.9,0.4-0.9,1c0,0.3,0.2,0.6,0.5,0.8l11.8,7.4c0.3,0.2,0.7,0.2,1,0l11.8-7.4
		c0.4-0.3,0.5-0.9,0.3-1.3c-0.3-0.4-0.8-0.5-1.3-0.3L15,28L3.7,20.9C3.5,20.8,3.3,20.7,3.1,20.7z"/>
</g>
</svg>
