<?xml version="1.0" encoding="utf-8"?>
<!-- Generator: Adobe Illustrator 24.1.0, SVG Export Plug-In . SVG Version: 6.00 Build 0)  -->
<svg version="1.1" id="Layer_1" xmlns="http://www.w3.org/2000/svg" xmlns:xlink="http://www.w3.org/1999/xlink" x="0px" y="0px"
	 viewBox="0 0 90 90" style="enable-background:new 0 0 90 90;" xml:space="preserve">
<style type="text/css">
	.st0{fill:#007AFF;}
</style>
<g>
	<path class="st0" d="M26.4,87.7c-7.3,0-14.6,0-21.9,0C1.1,87.8,0.2,85.4,0,84l0-0.2l0-0.2c0.3-3.2,2.5-3.7,3.3-3.8l0.1,0
		C4,79.6,4.5,79.6,5,79.6v-60h21.8v60h6.8V45.4h21.8v34.2h6.8v-23H84v23.1c0.3,0,0.6,0,0.8,0c2.5,0,4.2,1.5,4.2,3.9
		c0,2.6-1.6,4.2-4.2,4.2l-49.6,0C32.3,87.7,29.3,87.7,26.4,87.7z M4.5,84.8c10.3,0,20.5,0,30.8,0l49.6,0c1.1,0,1.3-0.4,1.3-1.3
		c0-0.4,0-1-1.4-1c-0.5,0-0.9,0-1.5,0l-2.2,0V59.4h-16v23H52.5V48.2H36.5v34.2H24v-60h-16v60.1H6.5c-0.3,0-0.6,0-0.9,0
		c-0.6,0-1-0.1-1.4,0c-0.1,0-0.2,0-0.3,0.1c-0.5,0.1-0.8,0.2-1,1.1c0.2,1,0.7,1.1,1.4,1.1L4.5,84.8z"/>
	<path class="st0" d="M57.2,34c-1.4-0.4-2.6-0.8-3.8-1.2c-6-2.2-11.1-5.8-15.8-10c-6.1-5.4-11.3-11.5-15.9-18.2
		c-0.2-0.3-0.5-0.6-0.5-0.9c0-0.5,0.2-1.1,0.5-1.3c0.3-0.2,1-0.1,1.4,0.1c0.4,0.2,0.6,0.6,0.8,1c5.7,8,12.1,15.3,20,21.2
		c4,2.9,8.2,5.3,13,6.6c0.8,0.2,1.5,0.6,1.2,1.6C58,33.3,57.5,33.6,57.2,34z"/>
	<path class="st0" d="M56.6,39.9c-1.9-0.6-3.5-0.9-5-1.5c-7.5-2.8-14.1-7-19.4-13.1c-0.6-0.7-1.2-1.4-0.3-2.3
		c0.9-0.8,1.6-0.2,2.2,0.5c6,6.8,13.4,11.3,22.2,13.5c0.8,0.2,1.5,0.6,1.3,1.5C57.5,39.1,56.9,39.4,56.6,39.9z"/>
	<path class="st0" d="M60.3,27.2c0,0.9-0.8,1.5-1.7,1.2c-5-1.5-9.6-3.7-13.5-7.1c-2.4-2.1-4.5-4.4-6.7-6.7c-0.6-0.7-1-1.4-0.2-2.2
		c0.6-0.6,1.4-0.4,2.2,0.6c4.8,6,10.8,10.3,18.1,12.7C59.9,26.2,60.3,26.5,60.3,27.2z"/>
	<path class="st0" d="M75,53.4C75,53.4,74.9,53.4,75,53.4c-8.5,0-15-6.5-15.1-15c-0.1-4,1.5-7.7,4.3-10.5c2.9-2.9,6.9-4.5,11-4.5
		C83.4,23.4,90,30.2,90,38.4c0,4-1.6,7.8-4.4,10.6C82.7,51.9,79,53.4,75,53.4z M75.1,26.2c-3.3,0-6.5,1.3-8.8,3.7
		c-2.3,2.3-3.5,5.3-3.4,8.5c0.1,6.9,5.3,12.2,12.2,12.2c0,0,0,0,0.1,0c3.2,0,6.3-1.2,8.6-3.5c2.3-2.3,3.6-5.3,3.6-8.6
		c0-6.7-5.3-12.2-12-12.2l0,0C75.1,26.2,75.1,26.2,75.1,26.2z"/>
	<path class="st0" d="M70.9,45.9l-2.1-1.7l1.2-1.5c-0.4-0.4-0.7-0.8-1-1.3c-0.5-0.7-0.7-1.5-0.8-2.2l-0.1-0.7l2.7-1.3l0.2,1.3
		c0.1,0.4,0.2,0.8,0.5,1.3c0.1,0.2,0.2,0.3,0.3,0.5l1.4-1.8c-0.3-0.4-0.5-0.8-0.7-1.1c-0.3-0.6-0.5-1.2-0.5-1.9
		c0-0.7,0.3-1.5,0.8-2.2c0.7-0.9,1.6-1.3,2.7-1.4c0.8-0.1,1.7,0.1,2.5,0.6l1.2-1.5l2.1,1.7L80.1,34c0.3,0.3,0.5,0.6,0.7,0.9
		c0.4,0.6,0.7,1.1,0.9,1.7l0.2,0.7l-2.6,1.4L79,37.7c-0.1-0.4-0.3-0.8-0.6-1.2c0-0.1-0.1-0.1-0.1-0.2l-1.5,1.9
		c0.3,0.4,0.6,0.8,0.8,1.2c0.4,0.6,0.5,1.3,0.6,1.9c0,0.8-0.2,1.5-0.8,2.2c-0.7,0.9-1.6,1.3-2.7,1.4c-0.8,0.1-1.7-0.2-2.6-0.6
		L70.9,45.9z M72.6,42.4c0.7,0.5,1.4,0.7,2,0.7c0.6,0,1-0.3,1.3-0.7c0.3-0.3,0.4-0.6,0.4-0.9c0-0.4-0.1-0.7-0.3-1
		c-0.2-0.3-0.5-0.8-0.8-1.2L72.6,42.4z M75.8,33.7c-0.1,0-0.1,0-0.2,0c-0.6,0-1,0.3-1.3,0.7c-0.3,0.3-0.4,0.7-0.4,0.9
		c0,0.4,0.1,0.7,0.3,1c0.2,0.3,0.4,0.7,0.8,1.1l2.5-3.2C76.8,33.9,76.3,33.7,75.8,33.7z"/>
</g>
</svg>
