<?xml version="1.0" encoding="utf-8"?>
<!-- Generator: Adobe Illustrator 24.1.0, SVG Export Plug-In . SVG Version: 6.00 Build 0)  -->
<svg version="1.1" id="Layer_1" xmlns="http://www.w3.org/2000/svg" xmlns:xlink="http://www.w3.org/1999/xlink" x="0px" y="0px"
	 viewBox="0 0 25 25" style="enable-background:new 0 0 25 25;" xml:space="preserve">
<style type="text/css">
	.st0{fill-rule:evenodd;clip-rule:evenodd;}
	.st1{fill:#FFFFFF;}
</style>
<g>
	<path class="st0" d="M-232.2,27.5l10.7-2.1v22.8h1V29.8l10.7,1.7v16.7h1.3v2.2h-25.2v-2.2h1.3V27.5L-232.2,27.5z M-213.1,38.3h2.1
		v2.2h-2.1V38.3z M-216.1,38.3h2.1v2.2h-2.1V38.3z M-219.2,38.3h2.1v2.2h-2.1V38.3z M-213.1,34.8h2.1v2.2h-2.1V34.8z M-216.1,34.8
		h2.1v2.2h-2.1V34.8z M-219.2,34.8h2.1v2.2h-2.1V34.8z M-231,39.8h8.3V41h-8.3V39.8L-231,39.8z M-231,36.7h8.3v1.2h-8.3V36.7z
		 M-231,33.6h8.3v1.2h-8.3V33.6z M-231,30.5h8.3v1.2h-8.3V30.5z"/>
</g>
<g id="Group_677">
	<path id="Path_1519" class="st1" d="M0,0v25h25V0H0z M21,7.2c0,0.1,0,0.2-0.1,0.3c-0.4,0.5-0.8,1-1.4,1.4c-0.1,0.1-0.2,0.1-0.2,0.2
		c0.1,2.8-0.9,5.6-2.8,7.6c-2.7,2.5-6.5,3.4-10,2.3c-0.7-0.2-1.3-0.4-1.9-0.8c-0.2-0.1-0.4-0.2-0.6-0.4c0,0-0.1-0.1,0-0.1
		s0.1,0,0.2,0c1,0.1,2,0,2.9-0.4c0.7-0.2,1.4-0.5,1.9-1c0,0,0,0,0,0c-0.1,0-0.3,0-0.4-0.1c-1.3-0.2-2.3-1.1-2.8-2.3
		c0-0.1,0-0.1,0.1-0.1c0.4,0.1,0.9,0,1.3,0c-0.2,0-0.3-0.1-0.4-0.1c-1.2-0.5-2-1.6-2.2-2.9c0-0.1,0-0.3,0-0.4c0-0.1,0-0.1,0.1-0.1
		c0.4,0.2,0.9,0.3,1.4,0.4c-0.2-0.1-0.3-0.2-0.4-0.4C4.6,9.3,4.3,7.6,5.1,6.2c0.1-0.1,0.1-0.1,0.2,0c1.8,2,4.3,3.3,7,3.6
		c0.1,0,0.1,0,0.1-0.1c-0.1-0.5-0.1-1,0-1.5c0.1-0.5,0.4-1,0.7-1.4c0.3-0.4,0.7-0.7,1.2-0.9c0.4-0.2,0.9-0.4,1.4-0.4
		c0.5,0,1,0,1.5,0.2c0.4,0.1,0.7,0.3,1,0.6c0.1,0.1,0.1,0.1,0.2,0.2c0,0,0.1,0.1,0.1,0c0.7-0.2,1.4-0.4,2-0.8c0,0,0.1,0,0.1,0
		c0,0,0,0.1,0,0.1c-0.1,0.4-0.3,0.7-0.6,1c-0.2,0.2-0.6,0.7-0.8,0.8C19.8,7.6,20.4,7.4,21,7.2C21,7.1,21,7.1,21,7.2L21,7.2z"/>
</g>
</svg>
